<?xml version="1.0" encoding="utf-8" standalone="no"?>
<!DOCTYPE svg PUBLIC "-//W3C//DTD SVG 1.1//EN"
  "http://www.w3.org/Graphics/SVG/1.1/DTD/svg11.dtd">
<svg xmlns:xlink="http://www.w3.org/1999/xlink" width="507.009141pt" height="336.614531pt" viewBox="0 0 507.009141 336.614531" xmlns="http://www.w3.org/2000/svg" version="1.1">
 <metadata>
  <rdf:RDF xmlns:dc="http://purl.org/dc/elements/1.1/" xmlns:cc="http://creativecommons.org/ns#" xmlns:rdf="http://www.w3.org/1999/02/22-rdf-syntax-ns#">
   <cc:Work>
    <dc:type rdf:resource="http://purl.org/dc/dcmitype/StillImage"/>
    <dc:date>2023-11-16T23:06:49.063857</dc:date>
    <dc:format>image/svg+xml</dc:format>
    <dc:creator>
     <cc:Agent>
      <dc:title>Matplotlib v3.8.0, https://matplotlib.org/</dc:title>
     </cc:Agent>
    </dc:creator>
   </cc:Work>
  </rdf:RDF>
 </metadata>
 <defs>
  <style type="text/css">*{stroke-linejoin: round; stroke-linecap: butt}</style>
 </defs>
 <g id="figure_1">
  <g id="patch_1">
   <path d="M 0 336.614531 
L 507.009141 336.614531 
L 507.009141 0 
L 0 0 
z
" style="fill: #ffffff"/>
  </g>
  <g id="axes_1">
   <g id="patch_2">
    <path d="M 67.899141 301.42 
L 318.581241 301.42 
L 318.581241 7.2 
L 67.899141 7.2 
z
" style="fill: #ffffff"/>
   </g>
   <g id="matplotlib.axis_1">
    <g id="xtick_1">
     <g id="line2d_1">
      <defs>
       <path id="m1c0d5cbaae" d="M 0 0 
L 0 9 
" style="stroke: #262626; stroke-width: 1.875"/>
      </defs>
      <g>
       <use xlink:href="#m1c0d5cbaae" x="130.569666" y="301.42" style="fill: #262626; stroke: #262626; stroke-width: 1.875"/>
      </g>
     </g>
     <g id="text_1">
      <!-- KILO-edByte -->
      <g style="fill: #262626" transform="translate(83.339705 325.941797) scale(0.165 -0.165)">
       <defs>
        <path id="ArialMT-4b" d="M 469 0 
L 469 4581 
L 1075 4581 
L 1075 2309 
L 3350 4581 
L 4172 4581 
L 2250 2725 
L 4256 0 
L 3456 0 
L 1825 2319 
L 1075 1588 
L 1075 0 
L 469 0 
z
" transform="scale(0.015625)"/>
        <path id="ArialMT-49" d="M 597 0 
L 597 4581 
L 1203 4581 
L 1203 0 
L 597 0 
z
" transform="scale(0.015625)"/>
        <path id="ArialMT-4c" d="M 469 0 
L 469 4581 
L 1075 4581 
L 1075 541 
L 3331 541 
L 3331 0 
L 469 0 
z
" transform="scale(0.015625)"/>
        <path id="ArialMT-4f" d="M 309 2231 
Q 309 3372 921 4017 
Q 1534 4663 2503 4663 
Q 3138 4663 3647 4359 
Q 4156 4056 4423 3514 
Q 4691 2972 4691 2284 
Q 4691 1588 4409 1038 
Q 4128 488 3612 205 
Q 3097 -78 2500 -78 
Q 1853 -78 1343 234 
Q 834 547 571 1087 
Q 309 1628 309 2231 
z
M 934 2222 
Q 934 1394 1379 917 
Q 1825 441 2497 441 
Q 3181 441 3623 922 
Q 4066 1403 4066 2288 
Q 4066 2847 3877 3264 
Q 3688 3681 3323 3911 
Q 2959 4141 2506 4141 
Q 1863 4141 1398 3698 
Q 934 3256 934 2222 
z
" transform="scale(0.015625)"/>
        <path id="ArialMT-2d" d="M 203 1375 
L 203 1941 
L 1931 1941 
L 1931 1375 
L 203 1375 
z
" transform="scale(0.015625)"/>
        <path id="ArialMT-65" d="M 2694 1069 
L 3275 997 
Q 3138 488 2766 206 
Q 2394 -75 1816 -75 
Q 1088 -75 661 373 
Q 234 822 234 1631 
Q 234 2469 665 2931 
Q 1097 3394 1784 3394 
Q 2450 3394 2872 2941 
Q 3294 2488 3294 1666 
Q 3294 1616 3291 1516 
L 816 1516 
Q 847 969 1125 678 
Q 1403 388 1819 388 
Q 2128 388 2347 550 
Q 2566 713 2694 1069 
z
M 847 1978 
L 2700 1978 
Q 2663 2397 2488 2606 
Q 2219 2931 1791 2931 
Q 1403 2931 1139 2672 
Q 875 2413 847 1978 
z
" transform="scale(0.015625)"/>
        <path id="ArialMT-64" d="M 2575 0 
L 2575 419 
Q 2259 -75 1647 -75 
Q 1250 -75 917 144 
Q 584 363 401 755 
Q 219 1147 219 1656 
Q 219 2153 384 2558 
Q 550 2963 881 3178 
Q 1213 3394 1622 3394 
Q 1922 3394 2156 3267 
Q 2391 3141 2538 2938 
L 2538 4581 
L 3097 4581 
L 3097 0 
L 2575 0 
z
M 797 1656 
Q 797 1019 1065 703 
Q 1334 388 1700 388 
Q 2069 388 2326 689 
Q 2584 991 2584 1609 
Q 2584 2291 2321 2609 
Q 2059 2928 1675 2928 
Q 1300 2928 1048 2622 
Q 797 2316 797 1656 
z
" transform="scale(0.015625)"/>
        <path id="ArialMT-42" d="M 469 0 
L 469 4581 
L 2188 4581 
Q 2713 4581 3030 4442 
Q 3347 4303 3526 4014 
Q 3706 3725 3706 3409 
Q 3706 3116 3547 2856 
Q 3388 2597 3066 2438 
Q 3481 2316 3704 2022 
Q 3928 1728 3928 1328 
Q 3928 1006 3792 729 
Q 3656 453 3456 303 
Q 3256 153 2954 76 
Q 2653 0 2216 0 
L 469 0 
z
M 1075 2656 
L 2066 2656 
Q 2469 2656 2644 2709 
Q 2875 2778 2992 2937 
Q 3109 3097 3109 3338 
Q 3109 3566 3000 3739 
Q 2891 3913 2687 3977 
Q 2484 4041 1991 4041 
L 1075 4041 
L 1075 2656 
z
M 1075 541 
L 2216 541 
Q 2509 541 2628 563 
Q 2838 600 2978 687 
Q 3119 775 3209 942 
Q 3300 1109 3300 1328 
Q 3300 1584 3169 1773 
Q 3038 1963 2805 2039 
Q 2572 2116 2134 2116 
L 1075 2116 
L 1075 541 
z
" transform="scale(0.015625)"/>
        <path id="ArialMT-79" d="M 397 -1278 
L 334 -750 
Q 519 -800 656 -800 
Q 844 -800 956 -737 
Q 1069 -675 1141 -563 
Q 1194 -478 1313 -144 
Q 1328 -97 1363 -6 
L 103 3319 
L 709 3319 
L 1400 1397 
Q 1534 1031 1641 628 
Q 1738 1016 1872 1384 
L 2581 3319 
L 3144 3319 
L 1881 -56 
Q 1678 -603 1566 -809 
Q 1416 -1088 1222 -1217 
Q 1028 -1347 759 -1347 
Q 597 -1347 397 -1278 
z
" transform="scale(0.015625)"/>
        <path id="ArialMT-74" d="M 1650 503 
L 1731 6 
Q 1494 -44 1306 -44 
Q 1000 -44 831 53 
Q 663 150 594 308 
Q 525 466 525 972 
L 525 2881 
L 113 2881 
L 113 3319 
L 525 3319 
L 525 4141 
L 1084 4478 
L 1084 3319 
L 1650 3319 
L 1650 2881 
L 1084 2881 
L 1084 941 
Q 1084 700 1114 631 
Q 1144 563 1211 522 
Q 1278 481 1403 481 
Q 1497 481 1650 503 
z
" transform="scale(0.015625)"/>
       </defs>
       <use xlink:href="#ArialMT-4b"/>
       <use xlink:href="#ArialMT-49" x="66.699219"/>
       <use xlink:href="#ArialMT-4c" x="94.482422"/>
       <use xlink:href="#ArialMT-4f" x="150.097656"/>
       <use xlink:href="#ArialMT-2d" x="227.880859"/>
       <use xlink:href="#ArialMT-65" x="261.181641"/>
       <use xlink:href="#ArialMT-64" x="316.796875"/>
       <use xlink:href="#ArialMT-42" x="372.412109"/>
       <use xlink:href="#ArialMT-79" x="439.111328"/>
       <use xlink:href="#ArialMT-74" x="489.111328"/>
       <use xlink:href="#ArialMT-65" x="516.894531"/>
      </g>
     </g>
    </g>
    <g id="xtick_2">
     <g id="line2d_2">
      <g>
       <use xlink:href="#m1c0d5cbaae" x="255.910716" y="301.42" style="fill: #262626; stroke: #262626; stroke-width: 1.875"/>
      </g>
     </g>
     <g id="text_2">
      <!-- MEGA-edByte -->
      <g style="fill: #262626" transform="translate(203.185481 325.931484) scale(0.165 -0.165)">
       <defs>
        <path id="ArialMT-4d" d="M 475 0 
L 475 4581 
L 1388 4581 
L 2472 1338 
Q 2622 884 2691 659 
Q 2769 909 2934 1394 
L 4031 4581 
L 4847 4581 
L 4847 0 
L 4263 0 
L 4263 3834 
L 2931 0 
L 2384 0 
L 1059 3900 
L 1059 0 
L 475 0 
z
" transform="scale(0.015625)"/>
        <path id="ArialMT-45" d="M 506 0 
L 506 4581 
L 3819 4581 
L 3819 4041 
L 1113 4041 
L 1113 2638 
L 3647 2638 
L 3647 2100 
L 1113 2100 
L 1113 541 
L 3925 541 
L 3925 0 
L 506 0 
z
" transform="scale(0.015625)"/>
        <path id="ArialMT-47" d="M 2638 1797 
L 2638 2334 
L 4578 2338 
L 4578 638 
Q 4131 281 3656 101 
Q 3181 -78 2681 -78 
Q 2006 -78 1454 211 
Q 903 500 622 1047 
Q 341 1594 341 2269 
Q 341 2938 620 3517 
Q 900 4097 1425 4378 
Q 1950 4659 2634 4659 
Q 3131 4659 3532 4498 
Q 3934 4338 4162 4050 
Q 4391 3763 4509 3300 
L 3963 3150 
Q 3859 3500 3706 3700 
Q 3553 3900 3268 4020 
Q 2984 4141 2638 4141 
Q 2222 4141 1919 4014 
Q 1616 3888 1430 3681 
Q 1244 3475 1141 3228 
Q 966 2803 966 2306 
Q 966 1694 1177 1281 
Q 1388 869 1791 669 
Q 2194 469 2647 469 
Q 3041 469 3416 620 
Q 3791 772 3984 944 
L 3984 1797 
L 2638 1797 
z
" transform="scale(0.015625)"/>
        <path id="ArialMT-41" d="M -9 0 
L 1750 4581 
L 2403 4581 
L 4278 0 
L 3588 0 
L 3053 1388 
L 1138 1388 
L 634 0 
L -9 0 
z
M 1313 1881 
L 2866 1881 
L 2388 3150 
Q 2169 3728 2063 4100 
Q 1975 3659 1816 3225 
L 1313 1881 
z
" transform="scale(0.015625)"/>
       </defs>
       <use xlink:href="#ArialMT-4d"/>
       <use xlink:href="#ArialMT-45" x="83.300781"/>
       <use xlink:href="#ArialMT-47" x="150"/>
       <use xlink:href="#ArialMT-41" x="227.783203"/>
       <use xlink:href="#ArialMT-2d" x="294.482422"/>
       <use xlink:href="#ArialMT-65" x="327.783203"/>
       <use xlink:href="#ArialMT-64" x="383.398438"/>
       <use xlink:href="#ArialMT-42" x="439.013672"/>
       <use xlink:href="#ArialMT-79" x="505.712891"/>
       <use xlink:href="#ArialMT-74" x="555.712891"/>
       <use xlink:href="#ArialMT-65" x="583.496094"/>
      </g>
     </g>
    </g>
   </g>
   <g id="matplotlib.axis_2">
    <g id="ytick_1">
     <g id="line2d_3">
      <defs>
       <path id="mfd89fc6fc1" d="M 0 0 
L -9 0 
" style="stroke: #262626; stroke-width: 1.875"/>
      </defs>
      <g>
       <use xlink:href="#mfd89fc6fc1" x="67.899141" y="252.859417" style="fill: #262626; stroke: #262626; stroke-width: 1.875"/>
      </g>
     </g>
     <g id="text_3">
      <!-- 100 -->
      <g style="fill: #262626" transform="translate(27.8725 258.764613) scale(0.165 -0.165)">
       <defs>
        <path id="ArialMT-31" d="M 2384 0 
L 1822 0 
L 1822 3584 
Q 1619 3391 1289 3197 
Q 959 3003 697 2906 
L 697 3450 
Q 1169 3672 1522 3987 
Q 1875 4303 2022 4600 
L 2384 4600 
L 2384 0 
z
" transform="scale(0.015625)"/>
        <path id="ArialMT-30" d="M 266 2259 
Q 266 3072 433 3567 
Q 600 4063 929 4331 
Q 1259 4600 1759 4600 
Q 2128 4600 2406 4451 
Q 2684 4303 2865 4023 
Q 3047 3744 3150 3342 
Q 3253 2941 3253 2259 
Q 3253 1453 3087 958 
Q 2922 463 2592 192 
Q 2263 -78 1759 -78 
Q 1097 -78 719 397 
Q 266 969 266 2259 
z
M 844 2259 
Q 844 1131 1108 757 
Q 1372 384 1759 384 
Q 2147 384 2411 759 
Q 2675 1134 2675 2259 
Q 2675 3391 2411 3762 
Q 2147 4134 1753 4134 
Q 1366 4134 1134 3806 
Q 844 3388 844 2259 
z
" transform="scale(0.015625)"/>
       </defs>
       <use xlink:href="#ArialMT-31"/>
       <use xlink:href="#ArialMT-30" x="55.615234"/>
       <use xlink:href="#ArialMT-30" x="111.230469"/>
      </g>
     </g>
    </g>
    <g id="ytick_2">
     <g id="line2d_4">
      <g>
       <use xlink:href="#mfd89fc6fc1" x="67.899141" y="195.72932" style="fill: #262626; stroke: #262626; stroke-width: 1.875"/>
      </g>
     </g>
     <g id="text_4">
      <!-- 120 -->
      <g style="fill: #262626" transform="translate(27.8725 201.634516) scale(0.165 -0.165)">
       <defs>
        <path id="ArialMT-32" d="M 3222 541 
L 3222 0 
L 194 0 
Q 188 203 259 391 
Q 375 700 629 1000 
Q 884 1300 1366 1694 
Q 2113 2306 2375 2664 
Q 2638 3022 2638 3341 
Q 2638 3675 2398 3904 
Q 2159 4134 1775 4134 
Q 1369 4134 1125 3890 
Q 881 3647 878 3216 
L 300 3275 
Q 359 3922 746 4261 
Q 1134 4600 1788 4600 
Q 2447 4600 2831 4234 
Q 3216 3869 3216 3328 
Q 3216 3053 3103 2787 
Q 2991 2522 2730 2228 
Q 2469 1934 1863 1422 
Q 1356 997 1212 845 
Q 1069 694 975 541 
L 3222 541 
z
" transform="scale(0.015625)"/>
       </defs>
       <use xlink:href="#ArialMT-31"/>
       <use xlink:href="#ArialMT-32" x="55.615234"/>
       <use xlink:href="#ArialMT-30" x="111.230469"/>
      </g>
     </g>
    </g>
    <g id="ytick_3">
     <g id="line2d_5">
      <g>
       <use xlink:href="#mfd89fc6fc1" x="67.899141" y="138.599223" style="fill: #262626; stroke: #262626; stroke-width: 1.875"/>
      </g>
     </g>
     <g id="text_5">
      <!-- 140 -->
      <g style="fill: #262626" transform="translate(27.8725 144.504419) scale(0.165 -0.165)">
       <defs>
        <path id="ArialMT-34" d="M 2069 0 
L 2069 1097 
L 81 1097 
L 81 1613 
L 2172 4581 
L 2631 4581 
L 2631 1613 
L 3250 1613 
L 3250 1097 
L 2631 1097 
L 2631 0 
L 2069 0 
z
M 2069 1613 
L 2069 3678 
L 634 1613 
L 2069 1613 
z
" transform="scale(0.015625)"/>
       </defs>
       <use xlink:href="#ArialMT-31"/>
       <use xlink:href="#ArialMT-34" x="55.615234"/>
       <use xlink:href="#ArialMT-30" x="111.230469"/>
      </g>
     </g>
    </g>
    <g id="ytick_4">
     <g id="line2d_6">
      <g>
       <use xlink:href="#mfd89fc6fc1" x="67.899141" y="81.469126" style="fill: #262626; stroke: #262626; stroke-width: 1.875"/>
      </g>
     </g>
     <g id="text_6">
      <!-- 160 -->
      <g style="fill: #262626" transform="translate(27.8725 87.374322) scale(0.165 -0.165)">
       <defs>
        <path id="ArialMT-36" d="M 3184 3459 
L 2625 3416 
Q 2550 3747 2413 3897 
Q 2184 4138 1850 4138 
Q 1581 4138 1378 3988 
Q 1113 3794 959 3422 
Q 806 3050 800 2363 
Q 1003 2672 1297 2822 
Q 1591 2972 1913 2972 
Q 2475 2972 2870 2558 
Q 3266 2144 3266 1488 
Q 3266 1056 3080 686 
Q 2894 316 2569 119 
Q 2244 -78 1831 -78 
Q 1128 -78 684 439 
Q 241 956 241 2144 
Q 241 3472 731 4075 
Q 1159 4600 1884 4600 
Q 2425 4600 2770 4297 
Q 3116 3994 3184 3459 
z
M 888 1484 
Q 888 1194 1011 928 
Q 1134 663 1356 523 
Q 1578 384 1822 384 
Q 2178 384 2434 671 
Q 2691 959 2691 1453 
Q 2691 1928 2437 2201 
Q 2184 2475 1800 2475 
Q 1419 2475 1153 2201 
Q 888 1928 888 1484 
z
" transform="scale(0.015625)"/>
       </defs>
       <use xlink:href="#ArialMT-31"/>
       <use xlink:href="#ArialMT-36" x="55.615234"/>
       <use xlink:href="#ArialMT-30" x="111.230469"/>
      </g>
     </g>
    </g>
    <g id="ytick_5">
     <g id="line2d_7">
      <g>
       <use xlink:href="#mfd89fc6fc1" x="67.899141" y="24.339029" style="fill: #262626; stroke: #262626; stroke-width: 1.875"/>
      </g>
     </g>
     <g id="text_7">
      <!-- 180 -->
      <g style="fill: #262626" transform="translate(27.8725 30.244224) scale(0.165 -0.165)">
       <defs>
        <path id="ArialMT-38" d="M 1131 2484 
Q 781 2613 612 2850 
Q 444 3088 444 3419 
Q 444 3919 803 4259 
Q 1163 4600 1759 4600 
Q 2359 4600 2725 4251 
Q 3091 3903 3091 3403 
Q 3091 3084 2923 2848 
Q 2756 2613 2416 2484 
Q 2838 2347 3058 2040 
Q 3278 1734 3278 1309 
Q 3278 722 2862 322 
Q 2447 -78 1769 -78 
Q 1091 -78 675 323 
Q 259 725 259 1325 
Q 259 1772 486 2073 
Q 713 2375 1131 2484 
z
M 1019 3438 
Q 1019 3113 1228 2906 
Q 1438 2700 1772 2700 
Q 2097 2700 2305 2904 
Q 2513 3109 2513 3406 
Q 2513 3716 2298 3927 
Q 2084 4138 1766 4138 
Q 1444 4138 1231 3931 
Q 1019 3725 1019 3438 
z
M 838 1322 
Q 838 1081 952 856 
Q 1066 631 1291 507 
Q 1516 384 1775 384 
Q 2178 384 2440 643 
Q 2703 903 2703 1303 
Q 2703 1709 2433 1975 
Q 2163 2241 1756 2241 
Q 1359 2241 1098 1978 
Q 838 1716 838 1322 
z
" transform="scale(0.015625)"/>
       </defs>
       <use xlink:href="#ArialMT-31"/>
       <use xlink:href="#ArialMT-38" x="55.615234"/>
       <use xlink:href="#ArialMT-30" x="111.230469"/>
      </g>
     </g>
    </g>
    <g id="text_8">
     <!-- Density -->
     <g style="fill: #262626" transform="translate(20.084062 184.319375) rotate(-90) scale(0.18 -0.18)">
      <defs>
       <path id="ArialMT-44" d="M 494 0 
L 494 4581 
L 2072 4581 
Q 2606 4581 2888 4516 
Q 3281 4425 3559 4188 
Q 3922 3881 4101 3404 
Q 4281 2928 4281 2316 
Q 4281 1794 4159 1391 
Q 4038 988 3847 723 
Q 3656 459 3429 307 
Q 3203 156 2883 78 
Q 2563 0 2147 0 
L 494 0 
z
M 1100 541 
L 2078 541 
Q 2531 541 2789 625 
Q 3047 709 3200 863 
Q 3416 1078 3536 1442 
Q 3656 1806 3656 2325 
Q 3656 3044 3420 3430 
Q 3184 3816 2847 3947 
Q 2603 4041 2063 4041 
L 1100 4041 
L 1100 541 
z
" transform="scale(0.015625)"/>
       <path id="ArialMT-6e" d="M 422 0 
L 422 3319 
L 928 3319 
L 928 2847 
Q 1294 3394 1984 3394 
Q 2284 3394 2536 3286 
Q 2788 3178 2913 3003 
Q 3038 2828 3088 2588 
Q 3119 2431 3119 2041 
L 3119 0 
L 2556 0 
L 2556 2019 
Q 2556 2363 2490 2533 
Q 2425 2703 2258 2804 
Q 2091 2906 1866 2906 
Q 1506 2906 1245 2678 
Q 984 2450 984 1813 
L 984 0 
L 422 0 
z
" transform="scale(0.015625)"/>
       <path id="ArialMT-73" d="M 197 991 
L 753 1078 
Q 800 744 1014 566 
Q 1228 388 1613 388 
Q 2000 388 2187 545 
Q 2375 703 2375 916 
Q 2375 1106 2209 1216 
Q 2094 1291 1634 1406 
Q 1016 1563 777 1677 
Q 538 1791 414 1992 
Q 291 2194 291 2438 
Q 291 2659 392 2848 
Q 494 3038 669 3163 
Q 800 3259 1026 3326 
Q 1253 3394 1513 3394 
Q 1903 3394 2198 3281 
Q 2494 3169 2634 2976 
Q 2775 2784 2828 2463 
L 2278 2388 
Q 2241 2644 2061 2787 
Q 1881 2931 1553 2931 
Q 1166 2931 1000 2803 
Q 834 2675 834 2503 
Q 834 2394 903 2306 
Q 972 2216 1119 2156 
Q 1203 2125 1616 2013 
Q 2213 1853 2448 1751 
Q 2684 1650 2818 1456 
Q 2953 1263 2953 975 
Q 2953 694 2789 445 
Q 2625 197 2315 61 
Q 2006 -75 1616 -75 
Q 969 -75 630 194 
Q 291 463 197 991 
z
" transform="scale(0.015625)"/>
       <path id="ArialMT-69" d="M 425 3934 
L 425 4581 
L 988 4581 
L 988 3934 
L 425 3934 
z
M 425 0 
L 425 3319 
L 988 3319 
L 988 0 
L 425 0 
z
" transform="scale(0.015625)"/>
      </defs>
      <use xlink:href="#ArialMT-44"/>
      <use xlink:href="#ArialMT-65" x="72.216797"/>
      <use xlink:href="#ArialMT-6e" x="127.832031"/>
      <use xlink:href="#ArialMT-73" x="183.447266"/>
      <use xlink:href="#ArialMT-69" x="233.447266"/>
      <use xlink:href="#ArialMT-74" x="255.664062"/>
      <use xlink:href="#ArialMT-79" x="283.447266"/>
     </g>
    </g>
   </g>
   <g id="PolyCollection_1">
    <path d="M 12208.845976 538.509768 
L 12208.845976 538.509903 
L 12278.93204 538.509903 
L 12349.018103 538.509903 
L 12419.104166 538.509903 
L 12489.190229 538.509903 
L 12559.276293 538.509903 
L 12629.362356 538.509903 
L 12699.448419 538.509903 
L 12769.534482 538.509903 
L 12839.620545 538.509903 
L 12909.706609 538.509903 
L 12979.792672 538.509903 
L 13049.878735 538.509903 
L 13119.964798 538.509903 
L 13190.050861 538.509903 
L 13260.136925 538.509903 
L 13330.222988 538.509903 
L 13400.309051 538.509903 
L 13470.395114 538.509903 
L 13540.481177 538.509903 
L 13610.567241 538.509903 
L 13680.653304 538.509903 
L 13750.739367 538.509903 
L 13820.82543 538.509903 
L 13890.911493 538.509903 
L 13960.997557 538.509903 
L 14031.08362 538.509903 
L 14101.169683 538.509903 
L 14171.255746 538.509903 
L 14241.341809 538.509903 
L 14311.427873 538.509903 
L 14381.513936 538.509903 
L 14451.599999 538.509903 
L 14521.686062 538.509903 
L 14591.772126 538.509903 
L 14661.858189 538.509903 
L 14731.944252 538.509903 
L 14802.030315 538.509903 
L 14872.116378 538.509903 
L 14942.202442 538.509903 
L 15012.288505 538.509903 
L 15082.374568 538.509903 
L 15152.460631 538.509903 
L 15222.546694 538.509903 
L 15292.632758 538.509903 
L 15362.718821 538.509903 
L 15432.804884 538.509903 
L 15502.890947 538.509903 
L 15572.97701 538.509903 
L 15643.063074 538.509903 
L 15713.149137 538.509903 
L 15783.2352 538.509903 
L 15853.321263 538.509903 
L 15923.407326 538.509903 
L 15993.49339 538.509903 
L 16063.579453 538.509903 
L 16133.665516 538.509903 
L 16203.751579 538.509903 
L 16273.837643 538.509903 
L 16343.923706 538.509903 
L 16414.009769 538.509903 
L 16484.095832 538.509903 
L 16554.181895 538.509903 
L 16624.267959 538.509903 
L 16694.354022 538.509903 
L 16764.440085 538.509903 
L 16834.526148 538.509903 
L 16904.612211 538.509903 
L 16974.698275 538.509903 
L 17044.784338 538.509903 
L 17114.870401 538.509903 
L 17184.956464 538.509903 
L 17255.042527 538.509903 
L 17325.128591 538.509903 
L 17395.214654 538.509903 
L 17465.300717 538.509903 
L 17535.38678 538.509903 
L 17605.472843 538.509903 
L 17675.558907 538.509903 
L 17745.64497 538.509903 
L 17815.731033 538.509903 
L 17885.817096 538.509903 
L 17955.903159 538.509903 
L 18025.989223 538.509903 
L 18096.075286 538.509903 
L 18166.161349 538.509903 
L 18236.247412 538.509903 
L 18306.333476 538.509903 
L 18376.419539 538.509903 
L 18446.505602 538.509903 
L 18516.591665 538.509903 
L 18586.677728 538.509903 
L 18656.763792 538.509903 
L 18726.849855 538.509903 
L 18796.935918 538.509903 
L 18867.021981 538.509903 
L 18937.108044 538.509903 
L 19007.194108 538.509903 
L 19077.280171 538.509903 
L 19147.366234 538.509903 
L 19217.452297 538.509903 
L 19287.53836 538.509903 
L 19357.624424 538.509903 
L 19427.710487 538.509903 
L 19497.79655 538.509903 
L 19567.882613 538.509903 
L 19637.968676 538.509903 
L 19708.05474 538.509903 
L 19778.140803 538.509903 
L 19848.226866 538.509903 
L 19918.312929 538.509903 
L 19988.398993 538.509903 
L 20058.485056 538.509903 
L 20128.571119 538.509903 
L 20198.657182 538.509903 
L 20268.743245 538.509903 
L 20338.829309 538.509903 
L 20408.915372 538.509903 
L 20479.001435 538.509903 
L 20549.087498 538.509903 
L 20619.173561 538.509903 
L 20689.259625 538.509903 
L 20759.345688 538.509903 
L 20829.431751 538.509903 
L 20899.517814 538.509903 
L 20969.603877 538.509903 
L 21039.689941 538.509903 
L 21109.776004 538.509903 
L 21179.862067 538.509903 
L 21249.94813 538.509903 
L 21320.034193 538.509903 
L 21390.120257 538.509903 
L 21460.20632 538.509903 
L 21530.292383 538.509903 
L 21600.378446 538.509903 
L 21670.464509 538.509903 
L 21740.550573 538.509903 
L 21810.636636 538.509903 
L 21880.722699 538.509903 
L 21950.808762 538.509903 
L 22020.894826 538.509903 
L 22090.980889 538.509903 
L 22161.066952 538.509903 
L 22231.153015 538.509903 
L 22301.239078 538.509903 
L 22371.325142 538.509903 
L 22441.411205 538.509903 
L 22511.497268 538.509903 
L 22581.583331 538.509903 
L 22651.669394 538.509903 
L 22721.755458 538.509903 
L 22791.841521 538.509903 
L 22861.927584 538.509903 
L 22932.013647 538.509903 
L 23002.09971 538.509903 
L 23072.185774 538.509903 
L 23142.271837 538.509903 
L 23212.3579 538.509903 
L 23282.443963 538.509903 
L 23352.530026 538.509903 
L 23422.61609 538.509903 
L 23492.702153 538.509903 
L 23562.788216 538.509903 
L 23632.874279 538.509903 
L 23702.960343 538.509903 
L 23773.046406 538.509903 
L 23843.132469 538.509903 
L 23913.218532 538.509903 
L 23983.304595 538.509903 
L 24053.390659 538.509903 
L 24123.476722 538.509903 
L 24193.562785 538.509903 
L 24263.648848 538.509903 
L 24333.734911 538.509903 
L 24403.820975 538.509903 
L 24473.907038 538.509903 
L 24543.993101 538.509903 
L 24614.079164 538.509903 
L 24684.165227 538.509903 
L 24754.251291 538.509903 
L 24824.337354 538.509903 
L 24894.423417 538.509903 
L 24964.50948 538.509903 
L 25034.595543 538.509903 
L 25104.681607 538.509903 
L 25174.76767 538.509903 
L 25244.853733 538.509903 
L 25314.939796 538.509903 
L 25385.025859 538.509903 
L 25455.111923 538.509903 
L 25525.197986 538.509903 
L 25595.284049 538.509903 
L 25665.370112 538.509903 
L 25735.456176 538.509903 
L 25805.542239 538.509903 
L 25875.628302 538.509903 
L 25945.714365 538.509903 
L 26015.800428 538.509903 
L 26085.886492 538.509903 
L 26155.972555 538.509903 
L 26155.972555 538.509753 
L 26155.972555 538.509753 
L 26085.886492 538.509727 
L 26015.800428 538.509697 
L 25945.714365 538.509663 
L 25875.628302 538.509623 
L 25805.542239 538.509578 
L 25735.456176 538.509527 
L 25665.370112 538.50947 
L 25595.284049 538.509404 
L 25525.197986 538.509331 
L 25455.111923 538.509248 
L 25385.025859 538.509156 
L 25314.939796 538.509053 
L 25244.853733 538.508939 
L 25174.76767 538.508812 
L 25104.681607 538.508672 
L 25034.595543 538.508518 
L 24964.50948 538.508349 
L 24894.423417 538.508164 
L 24824.337354 538.507963 
L 24754.251291 538.507744 
L 24684.165227 538.507507 
L 24614.079164 538.507252 
L 24543.993101 538.506978 
L 24473.907038 538.506684 
L 24403.820975 538.50637 
L 24333.734911 538.506036 
L 24263.648848 538.505682 
L 24193.562785 538.505309 
L 24123.476722 538.504917 
L 24053.390659 538.504505 
L 23983.304595 538.504075 
L 23913.218532 538.503629 
L 23843.132469 538.503166 
L 23773.046406 538.502689 
L 23702.960343 538.502198 
L 23632.874279 538.501696 
L 23562.788216 538.501184 
L 23492.702153 538.500665 
L 23422.61609 538.50014 
L 23352.530026 538.499613 
L 23282.443963 538.499084 
L 23212.3579 538.498558 
L 23142.271837 538.498035 
L 23072.185774 538.49752 
L 23002.09971 538.497013 
L 22932.013647 538.496519 
L 22861.927584 538.496038 
L 22791.841521 538.495573 
L 22721.755458 538.495126 
L 22651.669394 538.4947 
L 22581.583331 538.494294 
L 22511.497268 538.493911 
L 22441.411205 538.493551 
L 22371.325142 538.493215 
L 22301.239078 538.492904 
L 22231.153015 538.492617 
L 22161.066952 538.492353 
L 22090.980889 538.492112 
L 22020.894826 538.491892 
L 21950.808762 538.491693 
L 21880.722699 538.491511 
L 21810.636636 538.491345 
L 21740.550573 538.491192 
L 21670.464509 538.49105 
L 21600.378446 538.490914 
L 21530.292383 538.490782 
L 21460.20632 538.49065 
L 21390.120257 538.490514 
L 21320.034193 538.490372 
L 21249.94813 538.490219 
L 21179.862067 538.490051 
L 21109.776004 538.489865 
L 21039.689941 538.489658 
L 20969.603877 538.489426 
L 20899.517814 538.489166 
L 20829.431751 538.488876 
L 20759.345688 538.488553 
L 20689.259625 538.488194 
L 20619.173561 538.487799 
L 20549.087498 538.487366 
L 20479.001435 538.486893 
L 20408.915372 538.486381 
L 20338.829309 538.48583 
L 20268.743245 538.48524 
L 20198.657182 538.484612 
L 20128.571119 538.483947 
L 20058.485056 538.483248 
L 19988.398993 538.482516 
L 19918.312929 538.481755 
L 19848.226866 538.480967 
L 19778.140803 538.480156 
L 19708.05474 538.479326 
L 19637.968676 538.47848 
L 19567.882613 538.477623 
L 19497.79655 538.47676 
L 19427.710487 538.475894 
L 19357.624424 538.475032 
L 19287.53836 538.474176 
L 19217.452297 538.473333 
L 19147.366234 538.472507 
L 19077.280171 538.471703 
L 19007.194108 538.470924 
L 18937.108044 538.470176 
L 18867.021981 538.469462 
L 18796.935918 538.468786 
L 18726.849855 538.468152 
L 18656.763792 538.467563 
L 18586.677728 538.467022 
L 18516.591665 538.466532 
L 18446.505602 538.466095 
L 18376.419539 538.465712 
L 18306.333476 538.465386 
L 18236.247412 538.465117 
L 18166.161349 538.464907 
L 18096.075286 538.464757 
L 18025.989223 538.464665 
L 17955.903159 538.464633 
L 17885.817096 538.46466 
L 17815.731033 538.464745 
L 17745.64497 538.464889 
L 17675.558907 538.465089 
L 17605.472843 538.465345 
L 17535.38678 538.465656 
L 17465.300717 538.46602 
L 17395.214654 538.466435 
L 17325.128591 538.466901 
L 17255.042527 538.467415 
L 17184.956464 538.467976 
L 17114.870401 538.468581 
L 17044.784338 538.46923 
L 16974.698275 538.46992 
L 16904.612211 538.47065 
L 16834.526148 538.471416 
L 16764.440085 538.472218 
L 16694.354022 538.473054 
L 16624.267959 538.47392 
L 16554.181895 538.474815 
L 16484.095832 538.475737 
L 16414.009769 538.476684 
L 16343.923706 538.477652 
L 16273.837643 538.47864 
L 16203.751579 538.479644 
L 16133.665516 538.480664 
L 16063.579453 538.481695 
L 15993.49339 538.482734 
L 15923.407326 538.483781 
L 15853.321263 538.48483 
L 15783.2352 538.485881 
L 15713.149137 538.486929 
L 15643.063074 538.487972 
L 15572.97701 538.489007 
L 15502.890947 538.490032 
L 15432.804884 538.491044 
L 15362.718821 538.49204 
L 15292.632758 538.493017 
L 15222.546694 538.493975 
L 15152.460631 538.494909 
L 15082.374568 538.495819 
L 15012.288505 538.496702 
L 14942.202442 538.497556 
L 14872.116378 538.498381 
L 14802.030315 538.499175 
L 14731.944252 538.499937 
L 14661.858189 538.500666 
L 14591.772126 538.501361 
L 14521.686062 538.502023 
L 14451.599999 538.50265 
L 14381.513936 538.503243 
L 14311.427873 538.503803 
L 14241.341809 538.504329 
L 14171.255746 538.504822 
L 14101.169683 538.505283 
L 14031.08362 538.505712 
L 13960.997557 538.506111 
L 13890.911493 538.50648 
L 13820.82543 538.506821 
L 13750.739367 538.507135 
L 13680.653304 538.507424 
L 13610.567241 538.507688 
L 13540.481177 538.507929 
L 13470.395114 538.508148 
L 13400.309051 538.508347 
L 13330.222988 538.508527 
L 13260.136925 538.508689 
L 13190.050861 538.508835 
L 13119.964798 538.508966 
L 13049.878735 538.509083 
L 12979.792672 538.509187 
L 12909.706609 538.50928 
L 12839.620545 538.509362 
L 12769.534482 538.509434 
L 12699.448419 538.509498 
L 12629.362356 538.509554 
L 12559.276293 538.509603 
L 12489.190229 538.509646 
L 12419.104166 538.509683 
L 12349.018103 538.509716 
L 12278.93204 538.509744 
L 12208.845976 538.509768 
z
" clip-path="url(#p34b31ed54c)" style="fill: #dd8452; fill-opacity: 0.25; stroke: #dd8452; stroke-width: 1.5"/>
   </g>
   <g id="PolyCollection_2">
    <path d="M 11359.828927 538.509069 
L 11359.828927 538.509903 
L 11366.014555 538.509903 
L 11372.200183 538.509903 
L 11378.385811 538.509903 
L 11384.571438 538.509903 
L 11390.757066 538.509903 
L 11396.942694 538.509903 
L 11403.128322 538.509903 
L 11409.313949 538.509903 
L 11415.499577 538.509903 
L 11421.685205 538.509903 
L 11427.870833 538.509903 
L 11434.056461 538.509903 
L 11440.242088 538.509903 
L 11446.427716 538.509903 
L 11452.613344 538.509903 
L 11458.798972 538.509903 
L 11464.984599 538.509903 
L 11471.170227 538.509903 
L 11477.355855 538.509903 
L 11483.541483 538.509903 
L 11489.72711 538.509903 
L 11495.912738 538.509903 
L 11502.098366 538.509903 
L 11508.283994 538.509903 
L 11514.469622 538.509903 
L 11520.655249 538.509903 
L 11526.840877 538.509903 
L 11533.026505 538.509903 
L 11539.212133 538.509903 
L 11545.39776 538.509903 
L 11551.583388 538.509903 
L 11557.769016 538.509903 
L 11563.954644 538.509903 
L 11570.140272 538.509903 
L 11576.325899 538.509903 
L 11582.511527 538.509903 
L 11588.697155 538.509903 
L 11594.882783 538.509903 
L 11601.06841 538.509903 
L 11607.254038 538.509903 
L 11613.439666 538.509903 
L 11619.625294 538.509903 
L 11625.810921 538.509903 
L 11631.996549 538.509903 
L 11638.182177 538.509903 
L 11644.367805 538.509903 
L 11650.553433 538.509903 
L 11656.73906 538.509903 
L 11662.924688 538.509903 
L 11669.110316 538.509903 
L 11675.295944 538.509903 
L 11681.481571 538.509903 
L 11687.667199 538.509903 
L 11693.852827 538.509903 
L 11700.038455 538.509903 
L 11706.224083 538.509903 
L 11712.40971 538.509903 
L 11718.595338 538.509903 
L 11724.780966 538.509903 
L 11730.966594 538.509903 
L 11737.152221 538.509903 
L 11743.337849 538.509903 
L 11749.523477 538.509903 
L 11755.709105 538.509903 
L 11761.894732 538.509903 
L 11768.08036 538.509903 
L 11774.265988 538.509903 
L 11780.451616 538.509903 
L 11786.637244 538.509903 
L 11792.822871 538.509903 
L 11799.008499 538.509903 
L 11805.194127 538.509903 
L 11811.379755 538.509903 
L 11817.565382 538.509903 
L 11823.75101 538.509903 
L 11829.936638 538.509903 
L 11836.122266 538.509903 
L 11842.307894 538.509903 
L 11848.493521 538.509903 
L 11854.679149 538.509903 
L 11860.864777 538.509903 
L 11867.050405 538.509903 
L 11873.236032 538.509903 
L 11879.42166 538.509903 
L 11885.607288 538.509903 
L 11891.792916 538.509903 
L 11897.978543 538.509903 
L 11904.164171 538.509903 
L 11910.349799 538.509903 
L 11916.535427 538.509903 
L 11922.721055 538.509903 
L 11928.906682 538.509903 
L 11935.09231 538.509903 
L 11941.277938 538.509903 
L 11947.463566 538.509903 
L 11953.649193 538.509903 
L 11959.834821 538.509903 
L 11966.020449 538.509903 
L 11972.206077 538.509903 
L 11978.391705 538.509903 
L 11984.577332 538.509903 
L 11990.76296 538.509903 
L 11996.948588 538.509903 
L 12003.134216 538.509903 
L 12009.319843 538.509903 
L 12015.505471 538.509903 
L 12021.691099 538.509903 
L 12027.876727 538.509903 
L 12034.062354 538.509903 
L 12040.247982 538.509903 
L 12046.43361 538.509903 
L 12052.619238 538.509903 
L 12058.804866 538.509903 
L 12064.990493 538.509903 
L 12071.176121 538.509903 
L 12077.361749 538.509903 
L 12083.547377 538.509903 
L 12089.733004 538.509903 
L 12095.918632 538.509903 
L 12102.10426 538.509903 
L 12108.289888 538.509903 
L 12114.475516 538.509903 
L 12120.661143 538.509903 
L 12126.846771 538.509903 
L 12133.032399 538.509903 
L 12139.218027 538.509903 
L 12145.403654 538.509903 
L 12151.589282 538.509903 
L 12157.77491 538.509903 
L 12163.960538 538.509903 
L 12170.146165 538.509903 
L 12176.331793 538.509903 
L 12182.517421 538.509903 
L 12188.703049 538.509903 
L 12194.888677 538.509903 
L 12201.074304 538.509903 
L 12207.259932 538.509903 
L 12213.44556 538.509903 
L 12219.631188 538.509903 
L 12225.816815 538.509903 
L 12232.002443 538.509903 
L 12238.188071 538.509903 
L 12244.373699 538.509903 
L 12250.559327 538.509903 
L 12256.744954 538.509903 
L 12262.930582 538.509903 
L 12269.11621 538.509903 
L 12275.301838 538.509903 
L 12281.487465 538.509903 
L 12287.673093 538.509903 
L 12293.858721 538.509903 
L 12300.044349 538.509903 
L 12306.229976 538.509903 
L 12312.415604 538.509903 
L 12318.601232 538.509903 
L 12324.78686 538.509903 
L 12330.972488 538.509903 
L 12337.158115 538.509903 
L 12343.343743 538.509903 
L 12349.529371 538.509903 
L 12355.714999 538.509903 
L 12361.900626 538.509903 
L 12368.086254 538.509903 
L 12374.271882 538.509903 
L 12380.45751 538.509903 
L 12386.643138 538.509903 
L 12392.828765 538.509903 
L 12399.014393 538.509903 
L 12405.200021 538.509903 
L 12411.385649 538.509903 
L 12417.571276 538.509903 
L 12423.756904 538.509903 
L 12429.942532 538.509903 
L 12436.12816 538.509903 
L 12442.313787 538.509903 
L 12448.499415 538.509903 
L 12454.685043 538.509903 
L 12460.870671 538.509903 
L 12467.056299 538.509903 
L 12473.241926 538.509903 
L 12479.427554 538.509903 
L 12485.613182 538.509903 
L 12491.79881 538.509903 
L 12497.984437 538.509903 
L 12504.170065 538.509903 
L 12510.355693 538.509903 
L 12516.541321 538.509903 
L 12522.726949 538.509903 
L 12528.912576 538.509903 
L 12535.098204 538.509903 
L 12541.283832 538.509903 
L 12547.46946 538.509903 
L 12553.655087 538.509903 
L 12559.840715 538.509903 
L 12566.026343 538.509903 
L 12572.211971 538.509903 
L 12578.397598 538.509903 
L 12584.583226 538.509903 
L 12590.768854 538.509903 
L 12590.768854 538.508311 
L 12590.768854 538.508311 
L 12584.583226 538.508091 
L 12578.397598 538.507845 
L 12572.211971 538.50757 
L 12566.026343 538.507263 
L 12559.840715 538.506921 
L 12553.655087 538.50654 
L 12547.46946 538.506119 
L 12541.283832 538.505653 
L 12535.098204 538.505138 
L 12528.912576 538.504572 
L 12522.726949 538.503948 
L 12516.541321 538.503265 
L 12510.355693 538.502517 
L 12504.170065 538.5017 
L 12497.984437 538.500809 
L 12491.79881 538.499841 
L 12485.613182 538.498791 
L 12479.427554 538.497654 
L 12473.241926 538.496426 
L 12467.056299 538.495102 
L 12460.870671 538.493679 
L 12454.685043 538.492153 
L 12448.499415 538.490518 
L 12442.313787 538.488773 
L 12436.12816 538.486914 
L 12429.942532 538.484937 
L 12423.756904 538.482841 
L 12417.571276 538.480624 
L 12411.385649 538.478283 
L 12405.200021 538.475818 
L 12399.014393 538.47323 
L 12392.828765 538.470518 
L 12386.643138 538.467683 
L 12380.45751 538.464727 
L 12374.271882 538.461653 
L 12368.086254 538.458465 
L 12361.900626 538.455166 
L 12355.714999 538.451762 
L 12349.529371 538.448259 
L 12343.343743 538.444664 
L 12337.158115 538.440984 
L 12330.972488 538.437227 
L 12324.78686 538.433404 
L 12318.601232 538.429523 
L 12312.415604 538.425597 
L 12306.229976 538.421635 
L 12300.044349 538.417651 
L 12293.858721 538.413656 
L 12287.673093 538.409664 
L 12281.487465 538.405688 
L 12275.301838 538.401741 
L 12269.11621 538.397836 
L 12262.930582 538.393988 
L 12256.744954 538.390209 
L 12250.559327 538.386513 
L 12244.373699 538.382913 
L 12238.188071 538.379421 
L 12232.002443 538.37605 
L 12225.816815 538.372809 
L 12219.631188 538.369711 
L 12213.44556 538.366763 
L 12207.259932 538.363975 
L 12201.074304 538.361355 
L 12194.888677 538.358908 
L 12188.703049 538.356639 
L 12182.517421 538.354553 
L 12176.331793 538.352652 
L 12170.146165 538.350938 
L 12163.960538 538.34941 
L 12157.77491 538.348067 
L 12151.589282 538.346907 
L 12145.403654 538.345925 
L 12139.218027 538.345117 
L 12133.032399 538.344476 
L 12126.846771 538.343996 
L 12120.661143 538.343668 
L 12114.475516 538.343483 
L 12108.289888 538.343432 
L 12102.10426 538.343504 
L 12095.918632 538.343687 
L 12089.733004 538.343972 
L 12083.547377 538.344347 
L 12077.361749 538.344799 
L 12071.176121 538.345318 
L 12064.990493 538.345892 
L 12058.804866 538.34651 
L 12052.619238 538.347161 
L 12046.43361 538.347836 
L 12040.247982 538.348524 
L 12034.062354 538.349217 
L 12027.876727 538.349908 
L 12021.691099 538.350589 
L 12015.505471 538.351254 
L 12009.319843 538.351899 
L 12003.134216 538.352519 
L 11996.948588 538.353111 
L 11990.76296 538.353675 
L 11984.577332 538.354208 
L 11978.391705 538.354713 
L 11972.206077 538.355189 
L 11966.020449 538.35564 
L 11959.834821 538.356069 
L 11953.649193 538.35648 
L 11947.463566 538.356879 
L 11941.277938 538.357272 
L 11935.09231 538.357664 
L 11928.906682 538.358063 
L 11922.721055 538.358476 
L 11916.535427 538.358911 
L 11910.349799 538.359377 
L 11904.164171 538.359881 
L 11897.978543 538.360432 
L 11891.792916 538.361037 
L 11885.607288 538.361705 
L 11879.42166 538.362444 
L 11873.236032 538.36326 
L 11867.050405 538.364161 
L 11860.864777 538.365153 
L 11854.679149 538.366242 
L 11848.493521 538.367432 
L 11842.307894 538.368729 
L 11836.122266 538.370136 
L 11829.936638 538.371655 
L 11823.75101 538.37329 
L 11817.565382 538.37504 
L 11811.379755 538.376907 
L 11805.194127 538.37889 
L 11799.008499 538.380987 
L 11792.822871 538.383196 
L 11786.637244 538.385515 
L 11780.451616 538.38794 
L 11774.265988 538.390466 
L 11768.08036 538.393088 
L 11761.894732 538.395801 
L 11755.709105 538.398597 
L 11749.523477 538.401471 
L 11743.337849 538.404414 
L 11737.152221 538.407419 
L 11730.966594 538.410479 
L 11724.780966 538.413584 
L 11718.595338 538.416726 
L 11712.40971 538.419896 
L 11706.224083 538.423087 
L 11700.038455 538.426288 
L 11693.852827 538.429492 
L 11687.667199 538.43269 
L 11681.481571 538.435874 
L 11675.295944 538.439035 
L 11669.110316 538.442167 
L 11662.924688 538.44526 
L 11656.73906 538.44831 
L 11650.553433 538.451307 
L 11644.367805 538.454248 
L 11638.182177 538.457125 
L 11631.996549 538.459934 
L 11625.810921 538.46267 
L 11619.625294 538.465328 
L 11613.439666 538.467905 
L 11607.254038 538.470398 
L 11601.06841 538.472805 
L 11594.882783 538.475122 
L 11588.697155 538.477349 
L 11582.511527 538.479483 
L 11576.325899 538.481526 
L 11570.140272 538.483475 
L 11563.954644 538.485333 
L 11557.769016 538.487098 
L 11551.583388 538.488773 
L 11545.39776 538.490357 
L 11539.212133 538.491854 
L 11533.026505 538.493265 
L 11526.840877 538.494592 
L 11520.655249 538.495837 
L 11514.469622 538.497004 
L 11508.283994 538.498094 
L 11502.098366 538.499111 
L 11495.912738 538.500057 
L 11489.72711 538.500936 
L 11483.541483 538.501751 
L 11477.355855 538.502505 
L 11471.170227 538.503201 
L 11464.984599 538.503842 
L 11458.798972 538.504432 
L 11452.613344 538.504973 
L 11446.427716 538.505468 
L 11440.242088 538.505921 
L 11434.056461 538.506334 
L 11427.870833 538.50671 
L 11421.685205 538.507051 
L 11415.499577 538.50736 
L 11409.313949 538.50764 
L 11403.128322 538.507893 
L 11396.942694 538.508121 
L 11390.757066 538.508325 
L 11384.571438 538.508509 
L 11378.385811 538.508674 
L 11372.200183 538.508821 
L 11366.014555 538.508952 
L 11359.828927 538.509069 
z
" clip-path="url(#p34b31ed54c)" style="fill: #4c72b0; fill-opacity: 0.25; stroke: #4c72b0; stroke-width: 1.5"/>
   </g>
   <g id="patch_3">
    <path d="M 11787.287316 538.509903 
L 13867.948746 538.509903 
L 13867.948746 538.509903 
L 11787.287316 538.509903 
z
" clip-path="url(#p34b31ed54c)" style="fill: #dd8452; fill-opacity: 0.5; stroke: #ffffff; stroke-width: 1.5; stroke-linejoin: miter"/>
   </g>
   <g id="patch_4">
    <path d="M 13867.948746 538.509903 
L 15948.610176 538.509903 
L 15948.610176 538.509903 
L 13867.948746 538.509903 
z
" clip-path="url(#p34b31ed54c)" style="fill: #dd8452; fill-opacity: 0.5; stroke: #ffffff; stroke-width: 1.5; stroke-linejoin: miter"/>
   </g>
   <g id="patch_5">
    <path d="M 15948.610176 538.509903 
L 18029.271606 538.509903 
L 18029.271606 529.940388 
L 15948.610176 529.940388 
z
" clip-path="url(#p34b31ed54c)" style="fill: #dd8452; fill-opacity: 0.5; stroke: #ffffff; stroke-width: 1.5; stroke-linejoin: miter"/>
   </g>
   <g id="patch_6">
    <path d="M 18029.271606 538.509903 
L 20109.933036 538.509903 
L 20109.933036 524.227379 
L 18029.271606 524.227379 
z
" clip-path="url(#p34b31ed54c)" style="fill: #dd8452; fill-opacity: 0.5; stroke: #ffffff; stroke-width: 1.5; stroke-linejoin: miter"/>
   </g>
   <g id="patch_7">
    <path d="M 20109.933036 538.509903 
L 22190.594466 538.509903 
L 22190.594466 532.796893 
L 20109.933036 532.796893 
z
" clip-path="url(#p34b31ed54c)" style="fill: #dd8452; fill-opacity: 0.5; stroke: #ffffff; stroke-width: 1.5; stroke-linejoin: miter"/>
   </g>
   <g id="patch_8">
    <path d="M 11787.287316 538.509903 
L 13867.948746 538.509903 
L 13867.948746 527.083883 
L 11787.287316 527.083883 
z
" clip-path="url(#p34b31ed54c)" style="fill: #4c72b0; fill-opacity: 0.5; stroke: #ffffff; stroke-width: 1.5; stroke-linejoin: miter"/>
   </g>
   <g id="patch_9">
    <path d="M 13867.948746 538.509903 
L 15948.610176 538.509903 
L 15948.610176 538.509903 
L 13867.948746 538.509903 
z
" clip-path="url(#p34b31ed54c)" style="fill: #4c72b0; fill-opacity: 0.5; stroke: #ffffff; stroke-width: 1.5; stroke-linejoin: miter"/>
   </g>
   <g id="patch_10">
    <path d="M 15948.610176 538.509903 
L 18029.271606 538.509903 
L 18029.271606 538.509903 
L 15948.610176 538.509903 
z
" clip-path="url(#p34b31ed54c)" style="fill: #4c72b0; fill-opacity: 0.5; stroke: #ffffff; stroke-width: 1.5; stroke-linejoin: miter"/>
   </g>
   <g id="patch_11">
    <path d="M 18029.271606 538.509903 
L 20109.933036 538.509903 
L 20109.933036 538.509903 
L 18029.271606 538.509903 
z
" clip-path="url(#p34b31ed54c)" style="fill: #4c72b0; fill-opacity: 0.5; stroke: #ffffff; stroke-width: 1.5; stroke-linejoin: miter"/>
   </g>
   <g id="patch_12">
    <path d="M 20109.933036 538.509903 
L 22190.594466 538.509903 
L 22190.594466 538.509903 
L 20109.933036 538.509903 
z
" clip-path="url(#p34b31ed54c)" style="fill: #4c72b0; fill-opacity: 0.5; stroke: #ffffff; stroke-width: 1.5; stroke-linejoin: miter"/>
   </g>
   <g id="LineCollection_1">
    <path clip-path="url(#p34b31ed54c)" style="fill: none; stroke: #4c72b0"/>
    <path clip-path="url(#p34b31ed54c)" style="fill: none; stroke: #4c72b0"/>
    <path clip-path="url(#p34b31ed54c)" style="fill: none; stroke: #4c72b0"/>
    <path clip-path="url(#p34b31ed54c)" style="fill: none; stroke: #4c72b0"/>
    <path clip-path="url(#p34b31ed54c)" style="fill: none; stroke: #dd8452"/>
    <path clip-path="url(#p34b31ed54c)" style="fill: none; stroke: #dd8452"/>
    <path clip-path="url(#p34b31ed54c)" style="fill: none; stroke: #dd8452"/>
    <path clip-path="url(#p34b31ed54c)" style="fill: none; stroke: #dd8452"/>
    <path clip-path="url(#p34b31ed54c)" style="fill: none; stroke: #dd8452"/>
    <path clip-path="url(#p34b31ed54c)" style="fill: none; stroke: #dd8452"/>
    <path clip-path="url(#p34b31ed54c)" style="fill: none; stroke: #dd8452"/>
    <path clip-path="url(#p34b31ed54c)" style="fill: none; stroke: #dd8452"/>
    <path clip-path="url(#p34b31ed54c)" style="fill: none; stroke: #dd8452"/>
    <path clip-path="url(#p34b31ed54c)" style="fill: none; stroke: #dd8452"/>
   </g>
   <g id="patch_13">
    <path d="M 80.433246 270.712573 
L 180.706086 270.712573 
L 180.706086 264.285437 
L 80.433246 264.285437 
L 80.433246 270.712573 
z
" clip-path="url(#p34b31ed54c)" style="fill: #5875a4; stroke: #4c4c4c; stroke-linejoin: miter"/>
   </g>
   <g id="line2d_8">
    <path d="M 130.569666 270.712573 
L 130.569666 272.854951 
" clip-path="url(#p34b31ed54c)" style="fill: none; stroke: #4c4c4c"/>
   </g>
   <g id="line2d_9">
    <path d="M 130.569666 264.285437 
L 130.569666 264.285437 
" clip-path="url(#p34b31ed54c)" style="fill: none; stroke: #4c4c4c"/>
   </g>
   <g id="line2d_10">
    <path d="M 105.501456 272.854951 
L 155.637876 272.854951 
" clip-path="url(#p34b31ed54c)" style="fill: none; stroke: #4c4c4c; stroke-linecap: round"/>
   </g>
   <g id="line2d_11">
    <path d="M 105.501456 264.285437 
L 155.637876 264.285437 
" clip-path="url(#p34b31ed54c)" style="fill: none; stroke: #4c4c4c; stroke-linecap: round"/>
   </g>
   <g id="line2d_12"/>
   <g id="patch_14">
    <path d="M 205.774296 149.311117 
L 306.047136 149.311117 
L 306.047136 97.179903 
L 205.774296 97.179903 
L 205.774296 149.311117 
z
" clip-path="url(#p34b31ed54c)" style="fill: #cc8963; stroke: #4c4c4c; stroke-linejoin: miter"/>
   </g>
   <g id="line2d_13">
    <path d="M 255.910716 149.311117 
L 255.910716 172.877282 
" clip-path="url(#p34b31ed54c)" style="fill: none; stroke: #4c4c4c"/>
   </g>
   <g id="line2d_14">
    <path d="M 255.910716 97.179903 
L 255.910716 35.765049 
" clip-path="url(#p34b31ed54c)" style="fill: none; stroke: #4c4c4c"/>
   </g>
   <g id="line2d_15">
    <path d="M 230.842506 172.877282 
L 280.978926 172.877282 
" clip-path="url(#p34b31ed54c)" style="fill: none; stroke: #4c4c4c; stroke-linecap: round"/>
   </g>
   <g id="line2d_16">
    <path d="M 230.842506 35.765049 
L 280.978926 35.765049 
" clip-path="url(#p34b31ed54c)" style="fill: none; stroke: #4c4c4c; stroke-linecap: round"/>
   </g>
   <g id="line2d_17"/>
   <g id="line2d_18">
    <path d="M 80.433246 267.141942 
L 180.706086 267.141942 
" clip-path="url(#p34b31ed54c)" style="fill: none; stroke: #4c4c4c"/>
   </g>
   <g id="line2d_19">
    <path d="M 205.774296 121.460194 
L 306.047136 121.460194 
" clip-path="url(#p34b31ed54c)" style="fill: none; stroke: #4c4c4c"/>
   </g>
   <g id="patch_15">
    <path d="M 67.899141 301.42 
L 67.899141 7.2 
" style="fill: none; stroke: #262626; stroke-width: 1.875; stroke-linejoin: miter; stroke-linecap: square"/>
   </g>
   <g id="patch_16">
    <path d="M 67.899141 301.42 
L 318.581241 301.42 
" style="fill: none; stroke: #262626; stroke-width: 1.875; stroke-linejoin: miter; stroke-linecap: square"/>
   </g>
   <g id="PathCollection_1">
    <defs>
     <path id="mb90aa9e6bb" d="M 0 2 
C 0.530406 2 1.03916 1.789267 1.414214 1.414214 
C 1.789267 1.03916 2 0.530406 2 0 
C 2 -0.530406 1.789267 -1.03916 1.414214 -1.414214 
C 1.03916 -1.789267 0.530406 -2 0 -2 
C -0.530406 -2 -1.03916 -1.789267 -1.414214 -1.414214 
C -1.789267 -1.03916 -2 -0.530406 -2 0 
C -2 0.530406 -1.789267 1.03916 -1.414214 1.414214 
C -1.03916 1.789267 -0.530406 2 0 2 
z
"/>
    </defs>
    <g clip-path="url(#p34b31ed54c)">
     <use xlink:href="#mb90aa9e6bb" x="134.483165" y="264.285437" style="fill: #4c4c4c"/>
     <use xlink:href="#mb90aa9e6bb" x="140.360455" y="264.285437" style="fill: #4c4c4c"/>
     <use xlink:href="#mb90aa9e6bb" x="137.883401" y="272.854951" style="fill: #4c4c4c"/>
     <use xlink:href="#mb90aa9e6bb" x="141.906931" y="269.998447" style="fill: #4c4c4c"/>
    </g>
   </g>
   <g id="PathCollection_2">
    <g clip-path="url(#p34b31ed54c)">
     <use xlink:href="#mb90aa9e6bb" x="264.843167" y="172.877282" style="fill: #4c4c4c"/>
     <use xlink:href="#mb90aa9e6bb" x="256.350013" y="90.038641" style="fill: #4c4c4c"/>
     <use xlink:href="#mb90aa9e6bb" x="265.300173" y="124.316699" style="fill: #4c4c4c"/>
     <use xlink:href="#mb90aa9e6bb" x="253.346725" y="130.029709" style="fill: #4c4c4c"/>
     <use xlink:href="#mb90aa9e6bb" x="243.416949" y="118.603689" style="fill: #4c4c4c"/>
     <use xlink:href="#mb90aa9e6bb" x="254.891663" y="155.738252" style="fill: #4c4c4c"/>
     <use xlink:href="#mb90aa9e6bb" x="251.688125" y="35.765049" style="fill: #4c4c4c"/>
     <use xlink:href="#mb90aa9e6bb" x="250.907856" y="38.621553" style="fill: #4c4c4c"/>
     <use xlink:href="#mb90aa9e6bb" x="263.9775" y="118.603689" style="fill: #4c4c4c"/>
     <use xlink:href="#mb90aa9e6bb" x="267.621607" y="164.307767" style="fill: #4c4c4c"/>
    </g>
   </g>
  </g>
  <g id="legend_1">
   <g id="patch_17">
    <path d="M 340.508672 160.714687 
L 373.508672 160.714687 
L 373.508672 149.164687 
L 340.508672 149.164687 
z
" style="fill: #4c72b0; fill-opacity: 0.25; stroke: #4c72b0; stroke-width: 1.5; stroke-linejoin: miter"/>
   </g>
   <g id="text_9">
    <!-- KILO-edByte -->
    <g style="fill: #262626" transform="translate(386.708672 160.714687) scale(0.165 -0.165)">
     <use xlink:href="#ArialMT-4b"/>
     <use xlink:href="#ArialMT-49" x="66.699219"/>
     <use xlink:href="#ArialMT-4c" x="94.482422"/>
     <use xlink:href="#ArialMT-4f" x="150.097656"/>
     <use xlink:href="#ArialMT-2d" x="227.880859"/>
     <use xlink:href="#ArialMT-65" x="261.181641"/>
     <use xlink:href="#ArialMT-64" x="316.796875"/>
     <use xlink:href="#ArialMT-42" x="372.412109"/>
     <use xlink:href="#ArialMT-79" x="439.111328"/>
     <use xlink:href="#ArialMT-74" x="489.111328"/>
     <use xlink:href="#ArialMT-65" x="516.894531"/>
    </g>
   </g>
   <g id="patch_18">
    <path d="M 340.508672 184.448906 
L 373.508672 184.448906 
L 373.508672 172.898906 
L 340.508672 172.898906 
z
" style="fill: #dd8452; fill-opacity: 0.25; stroke: #dd8452; stroke-width: 1.5; stroke-linejoin: miter"/>
   </g>
   <g id="text_10">
    <!-- MEGA-edByte -->
    <g style="fill: #262626" transform="translate(386.708672 184.448906) scale(0.165 -0.165)">
     <use xlink:href="#ArialMT-4d"/>
     <use xlink:href="#ArialMT-45" x="83.300781"/>
     <use xlink:href="#ArialMT-47" x="150"/>
     <use xlink:href="#ArialMT-41" x="227.783203"/>
     <use xlink:href="#ArialMT-2d" x="294.482422"/>
     <use xlink:href="#ArialMT-65" x="327.783203"/>
     <use xlink:href="#ArialMT-64" x="383.398438"/>
     <use xlink:href="#ArialMT-42" x="439.013672"/>
     <use xlink:href="#ArialMT-79" x="505.712891"/>
     <use xlink:href="#ArialMT-74" x="555.712891"/>
     <use xlink:href="#ArialMT-65" x="583.496094"/>
    </g>
   </g>
  </g>
 </g>
 <defs>
  <clipPath id="p34b31ed54c">
   <rect x="67.899141" y="7.2" width="250.6821" height="294.22"/>
  </clipPath>
 </defs>
</svg>
