<?xml version="1.0" encoding="utf-8" standalone="no"?>
<!DOCTYPE svg PUBLIC "-//W3C//DTD SVG 1.1//EN"
  "http://www.w3.org/Graphics/SVG/1.1/DTD/svg11.dtd">
<svg xmlns:xlink="http://www.w3.org/1999/xlink" width="450.129141pt" height="336.209766pt" viewBox="0 0 450.129141 336.209766" xmlns="http://www.w3.org/2000/svg" version="1.1">
 <metadata>
  <rdf:RDF xmlns:dc="http://purl.org/dc/elements/1.1/" xmlns:cc="http://creativecommons.org/ns#" xmlns:rdf="http://www.w3.org/1999/02/22-rdf-syntax-ns#">
   <cc:Work>
    <dc:type rdf:resource="http://purl.org/dc/dcmitype/StillImage"/>
    <dc:date>2023-11-21T00:58:31.940149</dc:date>
    <dc:format>image/svg+xml</dc:format>
    <dc:creator>
     <cc:Agent>
      <dc:title>Matplotlib v3.8.0, https://matplotlib.org/</dc:title>
     </cc:Agent>
    </dc:creator>
   </cc:Work>
  </rdf:RDF>
 </metadata>
 <defs>
  <style type="text/css">*{stroke-linejoin: round; stroke-linecap: butt}</style>
 </defs>
 <g id="figure_1">
  <g id="patch_1">
   <path d="M 0 336.209766 
L 450.129141 336.209766 
L 450.129141 0 
L 0 0 
z
" style="fill: #ffffff"/>
  </g>
  <g id="axes_1">
   <g id="patch_2">
    <path d="M 67.899141 301.42 
L 319.150041 301.42 
L 319.150041 7.2 
L 67.899141 7.2 
z
" style="fill: #ffffff"/>
   </g>
   <g id="matplotlib.axis_1">
    <g id="xtick_1">
     <g id="line2d_1">
      <defs>
       <path id="mfe51dd5152" d="M 0 0 
L 0 9 
" style="stroke: #262626; stroke-width: 1.875"/>
      </defs>
      <g>
       <use xlink:href="#mfe51dd5152" x="109.774291" y="301.42" style="fill: #262626; stroke: #262626; stroke-width: 1.875"/>
      </g>
     </g>
     <g id="text_1">
      <!-- GIGA -->
      <g style="fill: #262626" transform="translate(89.145423 325.730391) scale(0.165 -0.165)">
       <defs>
        <path id="ArialMT-47" d="M 2638 1797 
L 2638 2334 
L 4578 2338 
L 4578 638 
Q 4131 281 3656 101 
Q 3181 -78 2681 -78 
Q 2006 -78 1454 211 
Q 903 500 622 1047 
Q 341 1594 341 2269 
Q 341 2938 620 3517 
Q 900 4097 1425 4378 
Q 1950 4659 2634 4659 
Q 3131 4659 3532 4498 
Q 3934 4338 4162 4050 
Q 4391 3763 4509 3300 
L 3963 3150 
Q 3859 3500 3706 3700 
Q 3553 3900 3268 4020 
Q 2984 4141 2638 4141 
Q 2222 4141 1919 4014 
Q 1616 3888 1430 3681 
Q 1244 3475 1141 3228 
Q 966 2803 966 2306 
Q 966 1694 1177 1281 
Q 1388 869 1791 669 
Q 2194 469 2647 469 
Q 3041 469 3416 620 
Q 3791 772 3984 944 
L 3984 1797 
L 2638 1797 
z
" transform="scale(0.015625)"/>
        <path id="ArialMT-49" d="M 597 0 
L 597 4581 
L 1203 4581 
L 1203 0 
L 597 0 
z
" transform="scale(0.015625)"/>
        <path id="ArialMT-41" d="M -9 0 
L 1750 4581 
L 2403 4581 
L 4278 0 
L 3588 0 
L 3053 1388 
L 1138 1388 
L 634 0 
L -9 0 
z
M 1313 1881 
L 2866 1881 
L 2388 3150 
Q 2169 3728 2063 4100 
Q 1975 3659 1816 3225 
L 1313 1881 
z
" transform="scale(0.015625)"/>
       </defs>
       <use xlink:href="#ArialMT-47"/>
       <use xlink:href="#ArialMT-49" x="77.783203"/>
       <use xlink:href="#ArialMT-47" x="105.566406"/>
       <use xlink:href="#ArialMT-41" x="183.349609"/>
      </g>
     </g>
    </g>
    <g id="xtick_2">
     <g id="line2d_2">
      <g>
       <use xlink:href="#mfe51dd5152" x="193.524591" y="301.42" style="fill: #262626; stroke: #262626; stroke-width: 1.875"/>
      </g>
     </g>
     <g id="text_2">
      <!-- KILO -->
      <g style="fill: #262626" transform="translate(174.724903 325.730391) scale(0.165 -0.165)">
       <defs>
        <path id="ArialMT-4b" d="M 469 0 
L 469 4581 
L 1075 4581 
L 1075 2309 
L 3350 4581 
L 4172 4581 
L 2250 2725 
L 4256 0 
L 3456 0 
L 1825 2319 
L 1075 1588 
L 1075 0 
L 469 0 
z
" transform="scale(0.015625)"/>
        <path id="ArialMT-4c" d="M 469 0 
L 469 4581 
L 1075 4581 
L 1075 541 
L 3331 541 
L 3331 0 
L 469 0 
z
" transform="scale(0.015625)"/>
        <path id="ArialMT-4f" d="M 309 2231 
Q 309 3372 921 4017 
Q 1534 4663 2503 4663 
Q 3138 4663 3647 4359 
Q 4156 4056 4423 3514 
Q 4691 2972 4691 2284 
Q 4691 1588 4409 1038 
Q 4128 488 3612 205 
Q 3097 -78 2500 -78 
Q 1853 -78 1343 234 
Q 834 547 571 1087 
Q 309 1628 309 2231 
z
M 934 2222 
Q 934 1394 1379 917 
Q 1825 441 2497 441 
Q 3181 441 3623 922 
Q 4066 1403 4066 2288 
Q 4066 2847 3877 3264 
Q 3688 3681 3323 3911 
Q 2959 4141 2506 4141 
Q 1863 4141 1398 3698 
Q 934 3256 934 2222 
z
" transform="scale(0.015625)"/>
       </defs>
       <use xlink:href="#ArialMT-4b"/>
       <use xlink:href="#ArialMT-49" x="66.699219"/>
       <use xlink:href="#ArialMT-4c" x="94.482422"/>
       <use xlink:href="#ArialMT-4f" x="150.097656"/>
      </g>
     </g>
    </g>
    <g id="xtick_3">
     <g id="line2d_3">
      <g>
       <use xlink:href="#mfe51dd5152" x="277.274891" y="301.42" style="fill: #262626; stroke: #262626; stroke-width: 1.875"/>
      </g>
     </g>
     <g id="text_3">
      <!-- MEGA -->
      <g style="fill: #262626" transform="translate(252.97993 325.730391) scale(0.165 -0.165)">
       <defs>
        <path id="ArialMT-4d" d="M 475 0 
L 475 4581 
L 1388 4581 
L 2472 1338 
Q 2622 884 2691 659 
Q 2769 909 2934 1394 
L 4031 4581 
L 4847 4581 
L 4847 0 
L 4263 0 
L 4263 3834 
L 2931 0 
L 2384 0 
L 1059 3900 
L 1059 0 
L 475 0 
z
" transform="scale(0.015625)"/>
        <path id="ArialMT-45" d="M 506 0 
L 506 4581 
L 3819 4581 
L 3819 4041 
L 1113 4041 
L 1113 2638 
L 3647 2638 
L 3647 2100 
L 1113 2100 
L 1113 541 
L 3925 541 
L 3925 0 
L 506 0 
z
" transform="scale(0.015625)"/>
       </defs>
       <use xlink:href="#ArialMT-4d"/>
       <use xlink:href="#ArialMT-45" x="83.300781"/>
       <use xlink:href="#ArialMT-47" x="150"/>
       <use xlink:href="#ArialMT-41" x="227.783203"/>
      </g>
     </g>
    </g>
   </g>
   <g id="matplotlib.axis_2">
    <g id="ytick_1">
     <g id="line2d_4">
      <defs>
       <path id="m53b9d9fee8" d="M 0 0 
L -9 0 
" style="stroke: #262626; stroke-width: 1.875"/>
      </defs>
      <g>
       <use xlink:href="#m53b9d9fee8" x="67.899141" y="243.928736" style="fill: #262626; stroke: #262626; stroke-width: 1.875"/>
      </g>
     </g>
     <g id="text_4">
      <!-- 100 -->
      <g style="fill: #262626" transform="translate(27.8725 249.833931) scale(0.165 -0.165)">
       <defs>
        <path id="ArialMT-31" d="M 2384 0 
L 1822 0 
L 1822 3584 
Q 1619 3391 1289 3197 
Q 959 3003 697 2906 
L 697 3450 
Q 1169 3672 1522 3987 
Q 1875 4303 2022 4600 
L 2384 4600 
L 2384 0 
z
" transform="scale(0.015625)"/>
        <path id="ArialMT-30" d="M 266 2259 
Q 266 3072 433 3567 
Q 600 4063 929 4331 
Q 1259 4600 1759 4600 
Q 2128 4600 2406 4451 
Q 2684 4303 2865 4023 
Q 3047 3744 3150 3342 
Q 3253 2941 3253 2259 
Q 3253 1453 3087 958 
Q 2922 463 2592 192 
Q 2263 -78 1759 -78 
Q 1097 -78 719 397 
Q 266 969 266 2259 
z
M 844 2259 
Q 844 1131 1108 757 
Q 1372 384 1759 384 
Q 2147 384 2411 759 
Q 2675 1134 2675 2259 
Q 2675 3391 2411 3762 
Q 2147 4134 1753 4134 
Q 1366 4134 1134 3806 
Q 844 3388 844 2259 
z
" transform="scale(0.015625)"/>
       </defs>
       <use xlink:href="#ArialMT-31"/>
       <use xlink:href="#ArialMT-30" x="55.615234"/>
       <use xlink:href="#ArialMT-30" x="111.230469"/>
      </g>
     </g>
    </g>
    <g id="ytick_2">
     <g id="line2d_5">
      <g>
       <use xlink:href="#m53b9d9fee8" x="67.899141" y="176.291954" style="fill: #262626; stroke: #262626; stroke-width: 1.875"/>
      </g>
     </g>
     <g id="text_5">
      <!-- 120 -->
      <g style="fill: #262626" transform="translate(27.8725 182.197149) scale(0.165 -0.165)">
       <defs>
        <path id="ArialMT-32" d="M 3222 541 
L 3222 0 
L 194 0 
Q 188 203 259 391 
Q 375 700 629 1000 
Q 884 1300 1366 1694 
Q 2113 2306 2375 2664 
Q 2638 3022 2638 3341 
Q 2638 3675 2398 3904 
Q 2159 4134 1775 4134 
Q 1369 4134 1125 3890 
Q 881 3647 878 3216 
L 300 3275 
Q 359 3922 746 4261 
Q 1134 4600 1788 4600 
Q 2447 4600 2831 4234 
Q 3216 3869 3216 3328 
Q 3216 3053 3103 2787 
Q 2991 2522 2730 2228 
Q 2469 1934 1863 1422 
Q 1356 997 1212 845 
Q 1069 694 975 541 
L 3222 541 
z
" transform="scale(0.015625)"/>
       </defs>
       <use xlink:href="#ArialMT-31"/>
       <use xlink:href="#ArialMT-32" x="55.615234"/>
       <use xlink:href="#ArialMT-30" x="111.230469"/>
      </g>
     </g>
    </g>
    <g id="ytick_3">
     <g id="line2d_6">
      <g>
       <use xlink:href="#m53b9d9fee8" x="67.899141" y="108.655172" style="fill: #262626; stroke: #262626; stroke-width: 1.875"/>
      </g>
     </g>
     <g id="text_6">
      <!-- 140 -->
      <g style="fill: #262626" transform="translate(27.8725 114.560368) scale(0.165 -0.165)">
       <defs>
        <path id="ArialMT-34" d="M 2069 0 
L 2069 1097 
L 81 1097 
L 81 1613 
L 2172 4581 
L 2631 4581 
L 2631 1613 
L 3250 1613 
L 3250 1097 
L 2631 1097 
L 2631 0 
L 2069 0 
z
M 2069 1613 
L 2069 3678 
L 634 1613 
L 2069 1613 
z
" transform="scale(0.015625)"/>
       </defs>
       <use xlink:href="#ArialMT-31"/>
       <use xlink:href="#ArialMT-34" x="55.615234"/>
       <use xlink:href="#ArialMT-30" x="111.230469"/>
      </g>
     </g>
    </g>
    <g id="ytick_4">
     <g id="line2d_7">
      <g>
       <use xlink:href="#m53b9d9fee8" x="67.899141" y="41.018391" style="fill: #262626; stroke: #262626; stroke-width: 1.875"/>
      </g>
     </g>
     <g id="text_7">
      <!-- 160 -->
      <g style="fill: #262626" transform="translate(27.8725 46.923586) scale(0.165 -0.165)">
       <defs>
        <path id="ArialMT-36" d="M 3184 3459 
L 2625 3416 
Q 2550 3747 2413 3897 
Q 2184 4138 1850 4138 
Q 1581 4138 1378 3988 
Q 1113 3794 959 3422 
Q 806 3050 800 2363 
Q 1003 2672 1297 2822 
Q 1591 2972 1913 2972 
Q 2475 2972 2870 2558 
Q 3266 2144 3266 1488 
Q 3266 1056 3080 686 
Q 2894 316 2569 119 
Q 2244 -78 1831 -78 
Q 1128 -78 684 439 
Q 241 956 241 2144 
Q 241 3472 731 4075 
Q 1159 4600 1884 4600 
Q 2425 4600 2770 4297 
Q 3116 3994 3184 3459 
z
M 888 1484 
Q 888 1194 1011 928 
Q 1134 663 1356 523 
Q 1578 384 1822 384 
Q 2178 384 2434 671 
Q 2691 959 2691 1453 
Q 2691 1928 2437 2201 
Q 2184 2475 1800 2475 
Q 1419 2475 1153 2201 
Q 888 1928 888 1484 
z
" transform="scale(0.015625)"/>
       </defs>
       <use xlink:href="#ArialMT-31"/>
       <use xlink:href="#ArialMT-36" x="55.615234"/>
       <use xlink:href="#ArialMT-30" x="111.230469"/>
      </g>
     </g>
    </g>
    <g id="text_8">
     <!-- Density -->
     <g style="fill: #262626" transform="translate(20.084062 184.319375) rotate(-90) scale(0.18 -0.18)">
      <defs>
       <path id="ArialMT-44" d="M 494 0 
L 494 4581 
L 2072 4581 
Q 2606 4581 2888 4516 
Q 3281 4425 3559 4188 
Q 3922 3881 4101 3404 
Q 4281 2928 4281 2316 
Q 4281 1794 4159 1391 
Q 4038 988 3847 723 
Q 3656 459 3429 307 
Q 3203 156 2883 78 
Q 2563 0 2147 0 
L 494 0 
z
M 1100 541 
L 2078 541 
Q 2531 541 2789 625 
Q 3047 709 3200 863 
Q 3416 1078 3536 1442 
Q 3656 1806 3656 2325 
Q 3656 3044 3420 3430 
Q 3184 3816 2847 3947 
Q 2603 4041 2063 4041 
L 1100 4041 
L 1100 541 
z
" transform="scale(0.015625)"/>
       <path id="ArialMT-65" d="M 2694 1069 
L 3275 997 
Q 3138 488 2766 206 
Q 2394 -75 1816 -75 
Q 1088 -75 661 373 
Q 234 822 234 1631 
Q 234 2469 665 2931 
Q 1097 3394 1784 3394 
Q 2450 3394 2872 2941 
Q 3294 2488 3294 1666 
Q 3294 1616 3291 1516 
L 816 1516 
Q 847 969 1125 678 
Q 1403 388 1819 388 
Q 2128 388 2347 550 
Q 2566 713 2694 1069 
z
M 847 1978 
L 2700 1978 
Q 2663 2397 2488 2606 
Q 2219 2931 1791 2931 
Q 1403 2931 1139 2672 
Q 875 2413 847 1978 
z
" transform="scale(0.015625)"/>
       <path id="ArialMT-6e" d="M 422 0 
L 422 3319 
L 928 3319 
L 928 2847 
Q 1294 3394 1984 3394 
Q 2284 3394 2536 3286 
Q 2788 3178 2913 3003 
Q 3038 2828 3088 2588 
Q 3119 2431 3119 2041 
L 3119 0 
L 2556 0 
L 2556 2019 
Q 2556 2363 2490 2533 
Q 2425 2703 2258 2804 
Q 2091 2906 1866 2906 
Q 1506 2906 1245 2678 
Q 984 2450 984 1813 
L 984 0 
L 422 0 
z
" transform="scale(0.015625)"/>
       <path id="ArialMT-73" d="M 197 991 
L 753 1078 
Q 800 744 1014 566 
Q 1228 388 1613 388 
Q 2000 388 2187 545 
Q 2375 703 2375 916 
Q 2375 1106 2209 1216 
Q 2094 1291 1634 1406 
Q 1016 1563 777 1677 
Q 538 1791 414 1992 
Q 291 2194 291 2438 
Q 291 2659 392 2848 
Q 494 3038 669 3163 
Q 800 3259 1026 3326 
Q 1253 3394 1513 3394 
Q 1903 3394 2198 3281 
Q 2494 3169 2634 2976 
Q 2775 2784 2828 2463 
L 2278 2388 
Q 2241 2644 2061 2787 
Q 1881 2931 1553 2931 
Q 1166 2931 1000 2803 
Q 834 2675 834 2503 
Q 834 2394 903 2306 
Q 972 2216 1119 2156 
Q 1203 2125 1616 2013 
Q 2213 1853 2448 1751 
Q 2684 1650 2818 1456 
Q 2953 1263 2953 975 
Q 2953 694 2789 445 
Q 2625 197 2315 61 
Q 2006 -75 1616 -75 
Q 969 -75 630 194 
Q 291 463 197 991 
z
" transform="scale(0.015625)"/>
       <path id="ArialMT-69" d="M 425 3934 
L 425 4581 
L 988 4581 
L 988 3934 
L 425 3934 
z
M 425 0 
L 425 3319 
L 988 3319 
L 988 0 
L 425 0 
z
" transform="scale(0.015625)"/>
       <path id="ArialMT-74" d="M 1650 503 
L 1731 6 
Q 1494 -44 1306 -44 
Q 1000 -44 831 53 
Q 663 150 594 308 
Q 525 466 525 972 
L 525 2881 
L 113 2881 
L 113 3319 
L 525 3319 
L 525 4141 
L 1084 4478 
L 1084 3319 
L 1650 3319 
L 1650 2881 
L 1084 2881 
L 1084 941 
Q 1084 700 1114 631 
Q 1144 563 1211 522 
Q 1278 481 1403 481 
Q 1497 481 1650 503 
z
" transform="scale(0.015625)"/>
       <path id="ArialMT-79" d="M 397 -1278 
L 334 -750 
Q 519 -800 656 -800 
Q 844 -800 956 -737 
Q 1069 -675 1141 -563 
Q 1194 -478 1313 -144 
Q 1328 -97 1363 -6 
L 103 3319 
L 709 3319 
L 1400 1397 
Q 1534 1031 1641 628 
Q 1738 1016 1872 1384 
L 2581 3319 
L 3144 3319 
L 1881 -56 
Q 1678 -603 1566 -809 
Q 1416 -1088 1222 -1217 
Q 1028 -1347 759 -1347 
Q 597 -1347 397 -1278 
z
" transform="scale(0.015625)"/>
      </defs>
      <use xlink:href="#ArialMT-44"/>
      <use xlink:href="#ArialMT-65" x="72.216797"/>
      <use xlink:href="#ArialMT-6e" x="127.832031"/>
      <use xlink:href="#ArialMT-73" x="183.447266"/>
      <use xlink:href="#ArialMT-69" x="233.447266"/>
      <use xlink:href="#ArialMT-74" x="255.664062"/>
      <use xlink:href="#ArialMT-79" x="283.447266"/>
     </g>
    </g>
   </g>
   <g id="PolyCollection_1">
    <path d="M 9362.345335 582.112487 
L 9362.345335 582.112644 
L 9389.298568 582.112644 
L 9416.251802 582.112644 
L 9443.205035 582.112644 
L 9470.158268 582.112644 
L 9497.111501 582.112644 
L 9524.064735 582.112644 
L 9551.017968 582.112644 
L 9577.971201 582.112644 
L 9604.924434 582.112644 
L 9631.877667 582.112644 
L 9658.830901 582.112644 
L 9685.784134 582.112644 
L 9712.737367 582.112644 
L 9739.6906 582.112644 
L 9766.643834 582.112644 
L 9793.597067 582.112644 
L 9820.5503 582.112644 
L 9847.503533 582.112644 
L 9874.456766 582.112644 
L 9901.41 582.112644 
L 9928.363233 582.112644 
L 9955.316466 582.112644 
L 9982.269699 582.112644 
L 10009.222933 582.112644 
L 10036.176166 582.112644 
L 10063.129399 582.112644 
L 10090.082632 582.112644 
L 10117.035865 582.112644 
L 10143.989099 582.112644 
L 10170.942332 582.112644 
L 10197.895565 582.112644 
L 10224.848798 582.112644 
L 10251.802032 582.112644 
L 10278.755265 582.112644 
L 10305.708498 582.112644 
L 10332.661731 582.112644 
L 10359.614964 582.112644 
L 10386.568198 582.112644 
L 10413.521431 582.112644 
L 10440.474664 582.112644 
L 10467.427897 582.112644 
L 10494.38113 582.112644 
L 10521.334364 582.112644 
L 10548.287597 582.112644 
L 10575.24083 582.112644 
L 10602.194063 582.112644 
L 10629.147297 582.112644 
L 10656.10053 582.112644 
L 10683.053763 582.112644 
L 10710.006996 582.112644 
L 10736.960229 582.112644 
L 10763.913463 582.112644 
L 10790.866696 582.112644 
L 10817.819929 582.112644 
L 10844.773162 582.112644 
L 10871.726396 582.112644 
L 10898.679629 582.112644 
L 10925.632862 582.112644 
L 10952.586095 582.112644 
L 10979.539328 582.112644 
L 11006.492562 582.112644 
L 11033.445795 582.112644 
L 11060.399028 582.112644 
L 11087.352261 582.112644 
L 11114.305495 582.112644 
L 11141.258728 582.112644 
L 11168.211961 582.112644 
L 11195.165194 582.112644 
L 11222.118427 582.112644 
L 11249.071661 582.112644 
L 11276.024894 582.112644 
L 11302.978127 582.112644 
L 11329.93136 582.112644 
L 11356.884594 582.112644 
L 11383.837827 582.112644 
L 11410.79106 582.112644 
L 11437.744293 582.112644 
L 11464.697526 582.112644 
L 11491.65076 582.112644 
L 11518.603993 582.112644 
L 11545.557226 582.112644 
L 11572.510459 582.112644 
L 11599.463693 582.112644 
L 11626.416926 582.112644 
L 11653.370159 582.112644 
L 11680.323392 582.112644 
L 11707.276625 582.112644 
L 11734.229859 582.112644 
L 11761.183092 582.112644 
L 11788.136325 582.112644 
L 11815.089558 582.112644 
L 11842.042791 582.112644 
L 11868.996025 582.112644 
L 11895.949258 582.112644 
L 11922.902491 582.112644 
L 11949.855724 582.112644 
L 11976.808958 582.112644 
L 12003.762191 582.112644 
L 12030.715424 582.112644 
L 12057.668657 582.112644 
L 12084.62189 582.112644 
L 12111.575124 582.112644 
L 12138.528357 582.112644 
L 12165.48159 582.112644 
L 12192.434823 582.112644 
L 12219.388057 582.112644 
L 12246.34129 582.112644 
L 12273.294523 582.112644 
L 12300.247756 582.112644 
L 12327.200989 582.112644 
L 12354.154223 582.112644 
L 12381.107456 582.112644 
L 12408.060689 582.112644 
L 12435.013922 582.112644 
L 12461.967156 582.112644 
L 12488.920389 582.112644 
L 12515.873622 582.112644 
L 12542.826855 582.112644 
L 12569.780088 582.112644 
L 12596.733322 582.112644 
L 12623.686555 582.112644 
L 12650.639788 582.112644 
L 12677.593021 582.112644 
L 12704.546255 582.112644 
L 12731.499488 582.112644 
L 12758.452721 582.112644 
L 12785.405954 582.112644 
L 12812.359187 582.112644 
L 12839.312421 582.112644 
L 12866.265654 582.112644 
L 12893.218887 582.112644 
L 12920.17212 582.112644 
L 12947.125353 582.112644 
L 12974.078587 582.112644 
L 13001.03182 582.112644 
L 13027.985053 582.112644 
L 13054.938286 582.112644 
L 13081.89152 582.112644 
L 13108.844753 582.112644 
L 13135.797986 582.112644 
L 13162.751219 582.112644 
L 13189.704452 582.112644 
L 13216.657686 582.112644 
L 13243.610919 582.112644 
L 13270.564152 582.112644 
L 13297.517385 582.112644 
L 13324.470619 582.112644 
L 13351.423852 582.112644 
L 13378.377085 582.112644 
L 13405.330318 582.112644 
L 13432.283551 582.112644 
L 13459.236785 582.112644 
L 13486.190018 582.112644 
L 13513.143251 582.112644 
L 13540.096484 582.112644 
L 13567.049718 582.112644 
L 13594.002951 582.112644 
L 13620.956184 582.112644 
L 13647.909417 582.112644 
L 13674.86265 582.112644 
L 13701.815884 582.112644 
L 13728.769117 582.112644 
L 13755.72235 582.112644 
L 13782.675583 582.112644 
L 13809.628817 582.112644 
L 13836.58205 582.112644 
L 13863.535283 582.112644 
L 13890.488516 582.112644 
L 13917.441749 582.112644 
L 13944.394983 582.112644 
L 13971.348216 582.112644 
L 13998.301449 582.112644 
L 14025.254682 582.112644 
L 14052.207915 582.112644 
L 14079.161149 582.112644 
L 14106.114382 582.112644 
L 14133.067615 582.112644 
L 14160.020848 582.112644 
L 14186.974082 582.112644 
L 14213.927315 582.112644 
L 14240.880548 582.112644 
L 14267.833781 582.112644 
L 14294.787014 582.112644 
L 14321.740248 582.112644 
L 14348.693481 582.112644 
L 14375.646714 582.112644 
L 14402.599947 582.112644 
L 14429.553181 582.112644 
L 14456.506414 582.112644 
L 14483.459647 582.112644 
L 14510.41288 582.112644 
L 14537.366113 582.112644 
L 14564.319347 582.112644 
L 14591.27258 582.112644 
L 14618.225813 582.112644 
L 14645.179046 582.112644 
L 14672.13228 582.112644 
L 14699.085513 582.112644 
L 14726.038746 582.112644 
L 14726.038746 582.112471 
L 14726.038746 582.112471 
L 14699.085513 582.11244 
L 14672.13228 582.112403 
L 14645.179046 582.11236 
L 14618.225813 582.112311 
L 14591.27258 582.112255 
L 14564.319347 582.11219 
L 14537.366113 582.112116 
L 14510.41288 582.112031 
L 14483.459647 582.111935 
L 14456.506414 582.111827 
L 14429.553181 582.111704 
L 14402.599947 582.111566 
L 14375.646714 582.111412 
L 14348.693481 582.11124 
L 14321.740248 582.111048 
L 14294.787014 582.110835 
L 14267.833781 582.110599 
L 14240.880548 582.110339 
L 14213.927315 582.110053 
L 14186.974082 582.109741 
L 14160.020848 582.109399 
L 14133.067615 582.109028 
L 14106.114382 582.108625 
L 14079.161149 582.10819 
L 14052.207915 582.10772 
L 14025.254682 582.107217 
L 13998.301449 582.106677 
L 13971.348216 582.106102 
L 13944.394983 582.10549 
L 13917.441749 582.104841 
L 13890.488516 582.104156 
L 13863.535283 582.103433 
L 13836.58205 582.102675 
L 13809.628817 582.101881 
L 13782.675583 582.101052 
L 13755.72235 582.100189 
L 13728.769117 582.099293 
L 13701.815884 582.098367 
L 13674.86265 582.09741 
L 13647.909417 582.096426 
L 13620.956184 582.095415 
L 13594.002951 582.094379 
L 13567.049718 582.093321 
L 13540.096484 582.092242 
L 13513.143251 582.091144 
L 13486.190018 582.090029 
L 13459.236785 582.088898 
L 13432.283551 582.087753 
L 13405.330318 582.086596 
L 13378.377085 582.085428 
L 13351.423852 582.084249 
L 13324.470619 582.083062 
L 13297.517385 582.081866 
L 13270.564152 582.080663 
L 13243.610919 582.079452 
L 13216.657686 582.078236 
L 13189.704452 582.077013 
L 13162.751219 582.075785 
L 13135.797986 582.074552 
L 13108.844753 582.073314 
L 13081.89152 582.072072 
L 13054.938286 582.070827 
L 13027.985053 582.069579 
L 13001.03182 582.06833 
L 12974.078587 582.067082 
L 12947.125353 582.065836 
L 12920.17212 582.064594 
L 12893.218887 582.06336 
L 12866.265654 582.062136 
L 12839.312421 582.060926 
L 12812.359187 582.059734 
L 12785.405954 582.058564 
L 12758.452721 582.057421 
L 12731.499488 582.05631 
L 12704.546255 582.055236 
L 12677.593021 582.054204 
L 12650.639788 582.053221 
L 12623.686555 582.052291 
L 12596.733322 582.05142 
L 12569.780088 582.050613 
L 12542.826855 582.049875 
L 12515.873622 582.049212 
L 12488.920389 582.048626 
L 12461.967156 582.048122 
L 12435.013922 582.047703 
L 12408.060689 582.04737 
L 12381.107456 582.047126 
L 12354.154223 582.04697 
L 12327.200989 582.046902 
L 12300.247756 582.046922 
L 12273.294523 582.047027 
L 12246.34129 582.047213 
L 12219.388057 582.047478 
L 12192.434823 582.047817 
L 12165.48159 582.048224 
L 12138.528357 582.048694 
L 12111.575124 582.049219 
L 12084.62189 582.049794 
L 12057.668657 582.05041 
L 12030.715424 582.051061 
L 12003.762191 582.051739 
L 11976.808958 582.052436 
L 11949.855724 582.053145 
L 11922.902491 582.053859 
L 11895.949258 582.054572 
L 11868.996025 582.055278 
L 11842.042791 582.05597 
L 11815.089558 582.056644 
L 11788.136325 582.057297 
L 11761.183092 582.057924 
L 11734.229859 582.058523 
L 11707.276625 582.059093 
L 11680.323392 582.059634 
L 11653.370159 582.060144 
L 11626.416926 582.060625 
L 11599.463693 582.061078 
L 11572.510459 582.061506 
L 11545.557226 582.061913 
L 11518.603993 582.062301 
L 11491.65076 582.062674 
L 11464.697526 582.063038 
L 11437.744293 582.063397 
L 11410.79106 582.063755 
L 11383.837827 582.064119 
L 11356.884594 582.064494 
L 11329.93136 582.064884 
L 11302.978127 582.065294 
L 11276.024894 582.065729 
L 11249.071661 582.066195 
L 11222.118427 582.066693 
L 11195.165194 582.06723 
L 11168.211961 582.067806 
L 11141.258728 582.068426 
L 11114.305495 582.06909 
L 11087.352261 582.069802 
L 11060.399028 582.07056 
L 11033.445795 582.071366 
L 11006.492562 582.072219 
L 10979.539328 582.073119 
L 10952.586095 582.074064 
L 10925.632862 582.075051 
L 10898.679629 582.076079 
L 10871.726396 582.077145 
L 10844.773162 582.078244 
L 10817.819929 582.079375 
L 10790.866696 582.080531 
L 10763.913463 582.08171 
L 10736.960229 582.082907 
L 10710.006996 582.084118 
L 10683.053763 582.085337 
L 10656.10053 582.086561 
L 10629.147297 582.087783 
L 10602.194063 582.089001 
L 10575.24083 582.09021 
L 10548.287597 582.091405 
L 10521.334364 582.092582 
L 10494.38113 582.093737 
L 10467.427897 582.094868 
L 10440.474664 582.09597 
L 10413.521431 582.09704 
L 10386.568198 582.098077 
L 10359.614964 582.099078 
L 10332.661731 582.100041 
L 10305.708498 582.100963 
L 10278.755265 582.101845 
L 10251.802032 582.102685 
L 10224.848798 582.103483 
L 10197.895565 582.104238 
L 10170.942332 582.10495 
L 10143.989099 582.10562 
L 10117.035865 582.106248 
L 10090.082632 582.106834 
L 10063.129399 582.107381 
L 10036.176166 582.107888 
L 10009.222933 582.108358 
L 9982.269699 582.108791 
L 9955.316466 582.10919 
L 9928.363233 582.109556 
L 9901.41 582.10989 
L 9874.456766 582.110195 
L 9847.503533 582.110471 
L 9820.5503 582.110722 
L 9793.597067 582.110948 
L 9766.643834 582.111152 
L 9739.6906 582.111335 
L 9712.737367 582.111499 
L 9685.784134 582.111645 
L 9658.830901 582.111774 
L 9631.877667 582.111889 
L 9604.924434 582.111991 
L 9577.971201 582.11208 
L 9551.017968 582.112159 
L 9524.064735 582.112228 
L 9497.111501 582.112288 
L 9470.158268 582.11234 
L 9443.205035 582.112385 
L 9416.251802 582.112424 
L 9389.298568 582.112458 
L 9362.345335 582.112487 
z
" clip-path="url(#pe6033bef6f)" style="fill: #55a868; fill-opacity: 0.25; stroke: #55a868; stroke-width: 1.5"/>
   </g>
   <g id="PolyCollection_2">
    <path d="M 7612.933327 582.111952 
L 7612.933327 582.112644 
L 7617.066436 582.112644 
L 7621.199544 582.112644 
L 7625.332653 582.112644 
L 7629.465762 582.112644 
L 7633.59887 582.112644 
L 7637.731979 582.112644 
L 7641.865088 582.112644 
L 7645.998196 582.112644 
L 7650.131305 582.112644 
L 7654.264414 582.112644 
L 7658.397522 582.112644 
L 7662.530631 582.112644 
L 7666.66374 582.112644 
L 7670.796849 582.112644 
L 7674.929957 582.112644 
L 7679.063066 582.112644 
L 7683.196175 582.112644 
L 7687.329283 582.112644 
L 7691.462392 582.112644 
L 7695.595501 582.112644 
L 7699.728609 582.112644 
L 7703.861718 582.112644 
L 7707.994827 582.112644 
L 7712.127935 582.112644 
L 7716.261044 582.112644 
L 7720.394153 582.112644 
L 7724.527261 582.112644 
L 7728.66037 582.112644 
L 7732.793479 582.112644 
L 7736.926587 582.112644 
L 7741.059696 582.112644 
L 7745.192805 582.112644 
L 7749.325913 582.112644 
L 7753.459022 582.112644 
L 7757.592131 582.112644 
L 7761.725239 582.112644 
L 7765.858348 582.112644 
L 7769.991457 582.112644 
L 7774.124566 582.112644 
L 7778.257674 582.112644 
L 7782.390783 582.112644 
L 7786.523892 582.112644 
L 7790.657 582.112644 
L 7794.790109 582.112644 
L 7798.923218 582.112644 
L 7803.056326 582.112644 
L 7807.189435 582.112644 
L 7811.322544 582.112644 
L 7815.455652 582.112644 
L 7819.588761 582.112644 
L 7823.72187 582.112644 
L 7827.854978 582.112644 
L 7831.988087 582.112644 
L 7836.121196 582.112644 
L 7840.254304 582.112644 
L 7844.387413 582.112644 
L 7848.520522 582.112644 
L 7852.65363 582.112644 
L 7856.786739 582.112644 
L 7860.919848 582.112644 
L 7865.052956 582.112644 
L 7869.186065 582.112644 
L 7873.319174 582.112644 
L 7877.452283 582.112644 
L 7881.585391 582.112644 
L 7885.7185 582.112644 
L 7889.851609 582.112644 
L 7893.984717 582.112644 
L 7898.117826 582.112644 
L 7902.250935 582.112644 
L 7906.384043 582.112644 
L 7910.517152 582.112644 
L 7914.650261 582.112644 
L 7918.783369 582.112644 
L 7922.916478 582.112644 
L 7927.049587 582.112644 
L 7931.182695 582.112644 
L 7935.315804 582.112644 
L 7939.448913 582.112644 
L 7943.582021 582.112644 
L 7947.71513 582.112644 
L 7951.848239 582.112644 
L 7955.981347 582.112644 
L 7960.114456 582.112644 
L 7964.247565 582.112644 
L 7968.380673 582.112644 
L 7972.513782 582.112644 
L 7976.646891 582.112644 
L 7980.779999 582.112644 
L 7984.913108 582.112644 
L 7989.046217 582.112644 
L 7993.179326 582.112644 
L 7997.312434 582.112644 
L 8001.445543 582.112644 
L 8005.578652 582.112644 
L 8009.71176 582.112644 
L 8013.844869 582.112644 
L 8017.977978 582.112644 
L 8022.111086 582.112644 
L 8026.244195 582.112644 
L 8030.377304 582.112644 
L 8034.510412 582.112644 
L 8038.643521 582.112644 
L 8042.77663 582.112644 
L 8046.909738 582.112644 
L 8051.042847 582.112644 
L 8055.175956 582.112644 
L 8059.309064 582.112644 
L 8063.442173 582.112644 
L 8067.575282 582.112644 
L 8071.70839 582.112644 
L 8075.841499 582.112644 
L 8079.974608 582.112644 
L 8084.107716 582.112644 
L 8088.240825 582.112644 
L 8092.373934 582.112644 
L 8096.507043 582.112644 
L 8100.640151 582.112644 
L 8104.77326 582.112644 
L 8108.906369 582.112644 
L 8113.039477 582.112644 
L 8117.172586 582.112644 
L 8121.305695 582.112644 
L 8125.438803 582.112644 
L 8129.571912 582.112644 
L 8133.705021 582.112644 
L 8137.838129 582.112644 
L 8141.971238 582.112644 
L 8146.104347 582.112644 
L 8150.237455 582.112644 
L 8154.370564 582.112644 
L 8158.503673 582.112644 
L 8162.636781 582.112644 
L 8166.76989 582.112644 
L 8170.902999 582.112644 
L 8175.036107 582.112644 
L 8179.169216 582.112644 
L 8183.302325 582.112644 
L 8187.435433 582.112644 
L 8191.568542 582.112644 
L 8195.701651 582.112644 
L 8199.83476 582.112644 
L 8203.967868 582.112644 
L 8208.100977 582.112644 
L 8212.234086 582.112644 
L 8216.367194 582.112644 
L 8220.500303 582.112644 
L 8224.633412 582.112644 
L 8228.76652 582.112644 
L 8232.899629 582.112644 
L 8237.032738 582.112644 
L 8241.165846 582.112644 
L 8245.298955 582.112644 
L 8249.432064 582.112644 
L 8253.565172 582.112644 
L 8257.698281 582.112644 
L 8261.83139 582.112644 
L 8265.964498 582.112644 
L 8270.097607 582.112644 
L 8274.230716 582.112644 
L 8278.363824 582.112644 
L 8282.496933 582.112644 
L 8286.630042 582.112644 
L 8290.76315 582.112644 
L 8294.896259 582.112644 
L 8299.029368 582.112644 
L 8303.162476 582.112644 
L 8307.295585 582.112644 
L 8311.428694 582.112644 
L 8315.561803 582.112644 
L 8319.694911 582.112644 
L 8323.82802 582.112644 
L 8327.961129 582.112644 
L 8332.094237 582.112644 
L 8336.227346 582.112644 
L 8340.360455 582.112644 
L 8344.493563 582.112644 
L 8348.626672 582.112644 
L 8352.759781 582.112644 
L 8356.892889 582.112644 
L 8361.025998 582.112644 
L 8365.159107 582.112644 
L 8369.292215 582.112644 
L 8373.425324 582.112644 
L 8377.558433 582.112644 
L 8381.691541 582.112644 
L 8385.82465 582.112644 
L 8389.957759 582.112644 
L 8394.090867 582.112644 
L 8398.223976 582.112644 
L 8402.357085 582.112644 
L 8406.490193 582.112644 
L 8410.623302 582.112644 
L 8414.756411 582.112644 
L 8418.88952 582.112644 
L 8423.022628 582.112644 
L 8427.155737 582.112644 
L 8431.288846 582.112644 
L 8435.421954 582.112644 
L 8435.421954 582.111325 
L 8435.421954 582.111325 
L 8431.288846 582.111142 
L 8427.155737 582.110938 
L 8423.022628 582.11071 
L 8418.88952 582.110456 
L 8414.756411 582.110172 
L 8410.623302 582.109857 
L 8406.490193 582.109508 
L 8402.357085 582.109122 
L 8398.223976 582.108695 
L 8394.090867 582.108225 
L 8389.957759 582.107709 
L 8385.82465 582.107142 
L 8381.691541 582.106522 
L 8377.558433 582.105845 
L 8373.425324 582.105108 
L 8369.292215 582.104305 
L 8365.159107 582.103435 
L 8361.025998 582.102493 
L 8356.892889 582.101475 
L 8352.759781 582.100378 
L 8348.626672 582.099199 
L 8344.493563 582.097933 
L 8340.360455 582.096579 
L 8336.227346 582.095133 
L 8332.094237 582.093592 
L 8327.961129 582.091954 
L 8323.82802 582.090217 
L 8319.694911 582.088379 
L 8315.561803 582.086439 
L 8311.428694 582.084397 
L 8307.295585 582.082251 
L 8303.162476 582.080004 
L 8299.029368 582.077654 
L 8294.896259 582.075205 
L 8290.76315 582.072658 
L 8286.630042 582.070015 
L 8282.496933 582.067282 
L 8278.363824 582.064461 
L 8274.230716 582.061557 
L 8270.097607 582.058578 
L 8265.964498 582.055528 
L 8261.83139 582.052415 
L 8257.698281 582.049246 
L 8253.565172 582.04603 
L 8249.432064 582.042776 
L 8245.298955 582.039493 
L 8241.165846 582.036191 
L 8237.032738 582.032881 
L 8232.899629 582.029572 
L 8228.76652 582.026277 
L 8224.633412 582.023006 
L 8220.500303 582.01977 
L 8216.367194 582.016581 
L 8212.234086 582.013449 
L 8208.100977 582.010386 
L 8203.967868 582.007403 
L 8199.83476 582.004509 
L 8195.701651 582.001715 
L 8191.568542 581.999029 
L 8187.435433 581.996461 
L 8183.302325 581.994019 
L 8179.169216 581.991708 
L 8175.036107 581.989536 
L 8170.902999 581.987508 
L 8166.76989 581.985628 
L 8162.636781 581.9839 
L 8158.503673 581.982324 
L 8154.370564 581.980904 
L 8150.237455 581.979637 
L 8146.104347 581.978524 
L 8141.971238 581.977563 
L 8137.838129 581.976749 
L 8133.705021 581.97608 
L 8129.571912 581.975549 
L 8125.438803 581.975151 
L 8121.305695 581.974879 
L 8117.172586 581.974726 
L 8113.039477 581.974683 
L 8108.906369 581.974743 
L 8104.77326 581.974895 
L 8100.640151 581.975131 
L 8096.507043 581.975441 
L 8092.373934 581.975816 
L 8088.240825 581.976246 
L 8084.107716 581.976722 
L 8079.974608 581.977234 
L 8075.841499 581.977774 
L 8071.70839 581.978333 
L 8067.575282 581.978903 
L 8063.442173 581.979478 
L 8059.309064 581.98005 
L 8055.175956 581.980615 
L 8051.042847 581.981166 
L 8046.909738 581.9817 
L 8042.77663 581.982214 
L 8038.643521 581.982705 
L 8034.510412 581.983172 
L 8030.377304 581.983614 
L 8026.244195 581.984032 
L 8022.111086 581.984427 
L 8017.977978 581.984801 
L 8013.844869 581.985156 
L 8009.71176 581.985497 
L 8005.578652 581.985828 
L 8001.445543 581.986153 
L 7997.312434 581.986478 
L 7993.179326 581.986808 
L 7989.046217 581.987151 
L 7984.913108 581.987512 
L 7980.779999 581.987898 
L 7976.646891 581.988315 
L 7972.513782 581.988772 
L 7968.380673 581.989273 
L 7964.247565 581.989827 
L 7960.114456 581.990439 
L 7955.981347 581.991116 
L 7951.848239 581.991862 
L 7947.71513 581.992684 
L 7943.582021 581.993586 
L 7939.448913 581.994573 
L 7935.315804 581.995648 
L 7931.182695 581.996814 
L 7927.049587 581.998073 
L 7922.916478 581.999427 
L 7918.783369 582.000878 
L 7914.650261 582.002425 
L 7910.517152 582.004068 
L 7906.384043 582.005806 
L 7902.250935 582.007637 
L 7898.117826 582.009559 
L 7893.984717 582.011569 
L 7889.851609 582.013662 
L 7885.7185 582.015835 
L 7881.585391 582.018083 
L 7877.452283 582.020401 
L 7873.319174 582.022782 
L 7869.186065 582.025221 
L 7865.052956 582.027712 
L 7860.919848 582.030247 
L 7856.786739 582.03282 
L 7852.65363 582.035424 
L 7848.520522 582.038052 
L 7844.387413 582.040696 
L 7840.254304 582.043349 
L 7836.121196 582.046005 
L 7831.988087 582.048655 
L 7827.854978 582.051293 
L 7823.72187 582.053913 
L 7819.588761 582.056508 
L 7815.455652 582.059072 
L 7811.322544 582.061599 
L 7807.189435 582.064084 
L 7803.056326 582.06652 
L 7798.923218 582.068905 
L 7794.790109 582.071233 
L 7790.657 582.0735 
L 7786.523892 582.075703 
L 7782.390783 582.077839 
L 7778.257674 582.079905 
L 7774.124566 582.081899 
L 7769.991457 582.083819 
L 7765.858348 582.085665 
L 7761.725239 582.087434 
L 7757.592131 582.089127 
L 7753.459022 582.090742 
L 7749.325913 582.092281 
L 7745.192805 582.093744 
L 7741.059696 582.095132 
L 7736.926587 582.096446 
L 7732.793479 582.097686 
L 7728.66037 582.098855 
L 7724.527261 582.099955 
L 7720.394153 582.100987 
L 7716.261044 582.101954 
L 7712.127935 582.102857 
L 7707.994827 582.1037 
L 7703.861718 582.104484 
L 7699.728609 582.105213 
L 7695.595501 582.105888 
L 7691.462392 582.106513 
L 7687.329283 582.10709 
L 7683.196175 582.107621 
L 7679.063066 582.10811 
L 7674.929957 582.108558 
L 7670.796849 582.108969 
L 7666.66374 582.109344 
L 7662.530631 582.109686 
L 7658.397522 582.109997 
L 7654.264414 582.11028 
L 7650.131305 582.110537 
L 7645.998196 582.110768 
L 7641.865088 582.110978 
L 7637.731979 582.111167 
L 7633.59887 582.111336 
L 7629.465762 582.111489 
L 7625.332653 582.111625 
L 7621.199544 582.111747 
L 7617.066436 582.111856 
L 7612.933327 582.111952 
z
" clip-path="url(#pe6033bef6f)" style="fill: #dd8452; fill-opacity: 0.25; stroke: #dd8452; stroke-width: 1.5"/>
   </g>
   <g id="PolyCollection_3">
    <path d="M 11692.747848 582.112335 
L 11692.747848 582.112644 
L 11706.380489 582.112644 
L 11720.01313 582.112644 
L 11733.645771 582.112644 
L 11747.278412 582.112644 
L 11760.911054 582.112644 
L 11774.543695 582.112644 
L 11788.176336 582.112644 
L 11801.808977 582.112644 
L 11815.441618 582.112644 
L 11829.074259 582.112644 
L 11842.7069 582.112644 
L 11856.339541 582.112644 
L 11869.972183 582.112644 
L 11883.604824 582.112644 
L 11897.237465 582.112644 
L 11910.870106 582.112644 
L 11924.502747 582.112644 
L 11938.135388 582.112644 
L 11951.768029 582.112644 
L 11965.400671 582.112644 
L 11979.033312 582.112644 
L 11992.665953 582.112644 
L 12006.298594 582.112644 
L 12019.931235 582.112644 
L 12033.563876 582.112644 
L 12047.196517 582.112644 
L 12060.829158 582.112644 
L 12074.4618 582.112644 
L 12088.094441 582.112644 
L 12101.727082 582.112644 
L 12115.359723 582.112644 
L 12128.992364 582.112644 
L 12142.625005 582.112644 
L 12156.257646 582.112644 
L 12169.890288 582.112644 
L 12183.522929 582.112644 
L 12197.15557 582.112644 
L 12210.788211 582.112644 
L 12224.420852 582.112644 
L 12238.053493 582.112644 
L 12251.686134 582.112644 
L 12265.318775 582.112644 
L 12278.951417 582.112644 
L 12292.584058 582.112644 
L 12306.216699 582.112644 
L 12319.84934 582.112644 
L 12333.481981 582.112644 
L 12347.114622 582.112644 
L 12360.747263 582.112644 
L 12374.379905 582.112644 
L 12388.012546 582.112644 
L 12401.645187 582.112644 
L 12415.277828 582.112644 
L 12428.910469 582.112644 
L 12442.54311 582.112644 
L 12456.175751 582.112644 
L 12469.808392 582.112644 
L 12483.441034 582.112644 
L 12497.073675 582.112644 
L 12510.706316 582.112644 
L 12524.338957 582.112644 
L 12537.971598 582.112644 
L 12551.604239 582.112644 
L 12565.23688 582.112644 
L 12578.869522 582.112644 
L 12592.502163 582.112644 
L 12606.134804 582.112644 
L 12619.767445 582.112644 
L 12633.400086 582.112644 
L 12647.032727 582.112644 
L 12660.665368 582.112644 
L 12674.298009 582.112644 
L 12687.930651 582.112644 
L 12701.563292 582.112644 
L 12715.195933 582.112644 
L 12728.828574 582.112644 
L 12742.461215 582.112644 
L 12756.093856 582.112644 
L 12769.726497 582.112644 
L 12783.359139 582.112644 
L 12796.99178 582.112644 
L 12810.624421 582.112644 
L 12824.257062 582.112644 
L 12837.889703 582.112644 
L 12851.522344 582.112644 
L 12865.154985 582.112644 
L 12878.787626 582.112644 
L 12892.420268 582.112644 
L 12906.052909 582.112644 
L 12919.68555 582.112644 
L 12933.318191 582.112644 
L 12946.950832 582.112644 
L 12960.583473 582.112644 
L 12974.216114 582.112644 
L 12987.848756 582.112644 
L 13001.481397 582.112644 
L 13015.114038 582.112644 
L 13028.746679 582.112644 
L 13042.37932 582.112644 
L 13056.011961 582.112644 
L 13069.644602 582.112644 
L 13083.277243 582.112644 
L 13096.909885 582.112644 
L 13110.542526 582.112644 
L 13124.175167 582.112644 
L 13137.807808 582.112644 
L 13151.440449 582.112644 
L 13165.07309 582.112644 
L 13178.705731 582.112644 
L 13192.338373 582.112644 
L 13205.971014 582.112644 
L 13219.603655 582.112644 
L 13233.236296 582.112644 
L 13246.868937 582.112644 
L 13260.501578 582.112644 
L 13274.134219 582.112644 
L 13287.76686 582.112644 
L 13301.399502 582.112644 
L 13315.032143 582.112644 
L 13328.664784 582.112644 
L 13342.297425 582.112644 
L 13355.930066 582.112644 
L 13369.562707 582.112644 
L 13383.195348 582.112644 
L 13396.82799 582.112644 
L 13410.460631 582.112644 
L 13424.093272 582.112644 
L 13437.725913 582.112644 
L 13451.358554 582.112644 
L 13464.991195 582.112644 
L 13478.623836 582.112644 
L 13492.256477 582.112644 
L 13505.889119 582.112644 
L 13519.52176 582.112644 
L 13533.154401 582.112644 
L 13546.787042 582.112644 
L 13560.419683 582.112644 
L 13574.052324 582.112644 
L 13587.684965 582.112644 
L 13601.317607 582.112644 
L 13614.950248 582.112644 
L 13628.582889 582.112644 
L 13642.21553 582.112644 
L 13655.848171 582.112644 
L 13669.480812 582.112644 
L 13683.113453 582.112644 
L 13696.746094 582.112644 
L 13710.378736 582.112644 
L 13724.011377 582.112644 
L 13737.644018 582.112644 
L 13751.276659 582.112644 
L 13764.9093 582.112644 
L 13778.541941 582.112644 
L 13792.174582 582.112644 
L 13805.807224 582.112644 
L 13819.439865 582.112644 
L 13833.072506 582.112644 
L 13846.705147 582.112644 
L 13860.337788 582.112644 
L 13873.970429 582.112644 
L 13887.60307 582.112644 
L 13901.235711 582.112644 
L 13914.868353 582.112644 
L 13928.500994 582.112644 
L 13942.133635 582.112644 
L 13955.766276 582.112644 
L 13969.398917 582.112644 
L 13983.031558 582.112644 
L 13996.664199 582.112644 
L 14010.29684 582.112644 
L 14023.929482 582.112644 
L 14037.562123 582.112644 
L 14051.194764 582.112644 
L 14064.827405 582.112644 
L 14078.460046 582.112644 
L 14092.092687 582.112644 
L 14105.725328 582.112644 
L 14119.35797 582.112644 
L 14132.990611 582.112644 
L 14146.623252 582.112644 
L 14160.255893 582.112644 
L 14173.888534 582.112644 
L 14187.521175 582.112644 
L 14201.153816 582.112644 
L 14214.786457 582.112644 
L 14228.419099 582.112644 
L 14242.05174 582.112644 
L 14255.684381 582.112644 
L 14269.317022 582.112644 
L 14282.949663 582.112644 
L 14296.582304 582.112644 
L 14310.214945 582.112644 
L 14323.847587 582.112644 
L 14337.480228 582.112644 
L 14351.112869 582.112644 
L 14364.74551 582.112644 
L 14378.378151 582.112644 
L 14392.010792 582.112644 
L 14405.643433 582.112644 
L 14405.643433 582.1124 
L 14405.643433 582.1124 
L 14392.010792 582.112364 
L 14378.378151 582.112322 
L 14364.74551 582.112276 
L 14351.112869 582.112223 
L 14337.480228 582.112164 
L 14323.847587 582.112098 
L 14310.214945 582.112024 
L 14296.582304 582.111941 
L 14282.949663 582.111848 
L 14269.317022 582.111746 
L 14255.684381 582.111632 
L 14242.05174 582.111505 
L 14228.419099 582.111366 
L 14214.786457 582.111212 
L 14201.153816 582.111043 
L 14187.521175 582.110858 
L 14173.888534 582.110655 
L 14160.255893 582.110434 
L 14146.623252 582.110192 
L 14132.990611 582.10993 
L 14119.35797 582.109645 
L 14105.725328 582.109337 
L 14092.092687 582.109005 
L 14078.460046 582.108647 
L 14064.827405 582.108263 
L 14051.194764 582.10785 
L 14037.562123 582.10741 
L 14023.929482 582.10694 
L 14010.29684 582.10644 
L 13996.664199 582.105909 
L 13983.031558 582.105346 
L 13969.398917 582.104753 
L 13955.766276 582.104127 
L 13942.133635 582.10347 
L 13928.500994 582.102781 
L 13914.868353 582.10206 
L 13901.235711 582.101309 
L 13887.60307 582.100527 
L 13873.970429 582.099717 
L 13860.337788 582.098878 
L 13846.705147 582.098013 
L 13833.072506 582.097123 
L 13819.439865 582.096209 
L 13805.807224 582.095275 
L 13792.174582 582.094322 
L 13778.541941 582.093353 
L 13764.9093 582.09237 
L 13751.276659 582.091376 
L 13737.644018 582.090375 
L 13724.011377 582.089369 
L 13710.378736 582.088361 
L 13696.746094 582.087356 
L 13683.113453 582.086356 
L 13669.480812 582.085365 
L 13655.848171 582.084386 
L 13642.21553 582.083423 
L 13628.582889 582.082479 
L 13614.950248 582.081557 
L 13601.317607 582.080661 
L 13587.684965 582.079793 
L 13574.052324 582.078956 
L 13560.419683 582.078152 
L 13546.787042 582.077385 
L 13533.154401 582.076655 
L 13519.52176 582.075965 
L 13505.889119 582.075316 
L 13492.256477 582.074708 
L 13478.623836 582.074143 
L 13464.991195 582.07362 
L 13451.358554 582.073139 
L 13437.725913 582.0727 
L 13424.093272 582.072301 
L 13410.460631 582.071942 
L 13396.82799 582.07162 
L 13383.195348 582.071333 
L 13369.562707 582.071079 
L 13355.930066 582.070855 
L 13342.297425 582.070657 
L 13328.664784 582.070483 
L 13315.032143 582.070329 
L 13301.399502 582.07019 
L 13287.76686 582.070064 
L 13274.134219 582.069946 
L 13260.501578 582.069832 
L 13246.868937 582.069718 
L 13233.236296 582.069601 
L 13219.603655 582.069475 
L 13205.971014 582.069338 
L 13192.338373 582.069187 
L 13178.705731 582.069017 
L 13165.07309 582.068827 
L 13151.440449 582.068613 
L 13137.807808 582.068373 
L 13124.175167 582.068107 
L 13110.542526 582.067811 
L 13096.909885 582.067486 
L 13083.277243 582.067131 
L 13069.644602 582.066746 
L 13056.011961 582.066333 
L 13042.37932 582.065891 
L 13028.746679 582.065424 
L 13015.114038 582.064932 
L 13001.481397 582.064419 
L 12987.848756 582.063889 
L 12974.216114 582.063343 
L 12960.583473 582.062787 
L 12946.950832 582.062225 
L 12933.318191 582.061661 
L 12919.68555 582.0611 
L 12906.052909 582.060548 
L 12892.420268 582.060009 
L 12878.787626 582.05949 
L 12865.154985 582.058995 
L 12851.522344 582.058531 
L 12837.889703 582.058102 
L 12824.257062 582.057714 
L 12810.624421 582.057372 
L 12796.99178 582.057082 
L 12783.359139 582.056847 
L 12769.726497 582.056672 
L 12756.093856 582.056562 
L 12742.461215 582.056519 
L 12728.828574 582.056547 
L 12715.195933 582.056649 
L 12701.563292 582.056827 
L 12687.930651 582.057082 
L 12674.298009 582.057416 
L 12660.665368 582.057829 
L 12647.032727 582.058321 
L 12633.400086 582.058892 
L 12619.767445 582.059541 
L 12606.134804 582.060266 
L 12592.502163 582.061066 
L 12578.869522 582.061936 
L 12565.23688 582.062876 
L 12551.604239 582.06388 
L 12537.971598 582.064946 
L 12524.338957 582.066069 
L 12510.706316 582.067245 
L 12497.073675 582.068469 
L 12483.441034 582.069736 
L 12469.808392 582.07104 
L 12456.175751 582.072378 
L 12442.54311 582.073742 
L 12428.910469 582.075129 
L 12415.277828 582.076532 
L 12401.645187 582.077946 
L 12388.012546 582.079366 
L 12374.379905 582.080787 
L 12360.747263 582.082203 
L 12347.114622 582.083611 
L 12333.481981 582.085005 
L 12319.84934 582.086382 
L 12306.216699 582.087737 
L 12292.584058 582.089066 
L 12278.951417 582.090367 
L 12265.318775 582.091636 
L 12251.686134 582.09287 
L 12238.053493 582.094067 
L 12224.420852 582.095225 
L 12210.788211 582.096341 
L 12197.15557 582.097416 
L 12183.522929 582.098447 
L 12169.890288 582.099433 
L 12156.257646 582.100375 
L 12142.625005 582.101272 
L 12128.992364 582.102123 
L 12115.359723 582.10293 
L 12101.727082 582.103692 
L 12088.094441 582.10441 
L 12074.4618 582.105085 
L 12060.829158 582.105719 
L 12047.196517 582.106312 
L 12033.563876 582.106865 
L 12019.931235 582.10738 
L 12006.298594 582.107859 
L 11992.665953 582.108303 
L 11979.033312 582.108713 
L 11965.400671 582.109091 
L 11951.768029 582.10944 
L 11938.135388 582.10976 
L 11924.502747 582.110053 
L 11910.870106 582.110321 
L 11897.237465 582.110565 
L 11883.604824 582.110787 
L 11869.972183 582.110989 
L 11856.339541 582.111172 
L 11842.7069 582.111337 
L 11829.074259 582.111486 
L 11815.441618 582.11162 
L 11801.808977 582.11174 
L 11788.176336 582.111848 
L 11774.543695 582.111945 
L 11760.911054 582.11203 
L 11747.278412 582.112107 
L 11733.645771 582.112175 
L 11720.01313 582.112235 
L 11706.380489 582.112288 
L 11692.747848 582.112335 
z
" clip-path="url(#pe6033bef6f)" style="fill: #4c72b0; fill-opacity: 0.25; stroke: #4c72b0; stroke-width: 1.5"/>
   </g>
   <g id="patch_3">
    <path d="M 7898.552191 582.112644 
L 8833.763874 582.112644 
L 8833.763874 582.112644 
L 7898.552191 582.112644 
z
" clip-path="url(#pe6033bef6f)" style="fill: #55a868; fill-opacity: 0.5; stroke: #ffffff; stroke-width: 1.5; stroke-linejoin: miter"/>
   </g>
   <g id="patch_4">
    <path d="M 8833.763874 582.112644 
L 9768.975557 582.112644 
L 9768.975557 582.112644 
L 8833.763874 582.112644 
z
" clip-path="url(#pe6033bef6f)" style="fill: #55a868; fill-opacity: 0.5; stroke: #ffffff; stroke-width: 1.5; stroke-linejoin: miter"/>
   </g>
   <g id="patch_5">
    <path d="M 9768.975557 582.112644 
L 10704.187241 582.112644 
L 10704.187241 582.112644 
L 9768.975557 582.112644 
z
" clip-path="url(#pe6033bef6f)" style="fill: #55a868; fill-opacity: 0.5; stroke: #ffffff; stroke-width: 1.5; stroke-linejoin: miter"/>
   </g>
   <g id="patch_6">
    <path d="M 10704.187241 582.112644 
L 11639.398924 582.112644 
L 11639.398924 568.585287 
L 10704.187241 568.585287 
z
" clip-path="url(#pe6033bef6f)" style="fill: #55a868; fill-opacity: 0.5; stroke: #ffffff; stroke-width: 1.5; stroke-linejoin: miter"/>
   </g>
   <g id="patch_7">
    <path d="M 11639.398924 582.112644 
L 12574.610607 582.112644 
L 12574.610607 565.203448 
L 11639.398924 565.203448 
z
" clip-path="url(#pe6033bef6f)" style="fill: #55a868; fill-opacity: 0.5; stroke: #ffffff; stroke-width: 1.5; stroke-linejoin: miter"/>
   </g>
   <g id="patch_8">
    <path d="M 12574.610607 582.112644 
L 13509.822291 582.112644 
L 13509.822291 575.348966 
L 12574.610607 575.348966 
z
" clip-path="url(#pe6033bef6f)" style="fill: #55a868; fill-opacity: 0.5; stroke: #ffffff; stroke-width: 1.5; stroke-linejoin: miter"/>
   </g>
   <g id="patch_9">
    <path d="M 7898.552191 582.112644 
L 8833.763874 582.112644 
L 8833.763874 568.585287 
L 7898.552191 568.585287 
z
" clip-path="url(#pe6033bef6f)" style="fill: #dd8452; fill-opacity: 0.5; stroke: #ffffff; stroke-width: 1.5; stroke-linejoin: miter"/>
   </g>
   <g id="patch_10">
    <path d="M 8833.763874 582.112644 
L 9768.975557 582.112644 
L 9768.975557 582.112644 
L 8833.763874 582.112644 
z
" clip-path="url(#pe6033bef6f)" style="fill: #dd8452; fill-opacity: 0.5; stroke: #ffffff; stroke-width: 1.5; stroke-linejoin: miter"/>
   </g>
   <g id="patch_11">
    <path d="M 9768.975557 582.112644 
L 10704.187241 582.112644 
L 10704.187241 582.112644 
L 9768.975557 582.112644 
z
" clip-path="url(#pe6033bef6f)" style="fill: #dd8452; fill-opacity: 0.5; stroke: #ffffff; stroke-width: 1.5; stroke-linejoin: miter"/>
   </g>
   <g id="patch_12">
    <path d="M 10704.187241 582.112644 
L 11639.398924 582.112644 
L 11639.398924 582.112644 
L 10704.187241 582.112644 
z
" clip-path="url(#pe6033bef6f)" style="fill: #dd8452; fill-opacity: 0.5; stroke: #ffffff; stroke-width: 1.5; stroke-linejoin: miter"/>
   </g>
   <g id="patch_13">
    <path d="M 11639.398924 582.112644 
L 12574.610607 582.112644 
L 12574.610607 582.112644 
L 11639.398924 582.112644 
z
" clip-path="url(#pe6033bef6f)" style="fill: #dd8452; fill-opacity: 0.5; stroke: #ffffff; stroke-width: 1.5; stroke-linejoin: miter"/>
   </g>
   <g id="patch_14">
    <path d="M 12574.610607 582.112644 
L 13509.822291 582.112644 
L 13509.822291 582.112644 
L 12574.610607 582.112644 
z
" clip-path="url(#pe6033bef6f)" style="fill: #dd8452; fill-opacity: 0.5; stroke: #ffffff; stroke-width: 1.5; stroke-linejoin: miter"/>
   </g>
   <g id="patch_15">
    <path d="M 7898.552191 582.112644 
L 8833.763874 582.112644 
L 8833.763874 582.112644 
L 7898.552191 582.112644 
z
" clip-path="url(#pe6033bef6f)" style="fill: #4c72b0; fill-opacity: 0.5; stroke: #ffffff; stroke-width: 1.5; stroke-linejoin: miter"/>
   </g>
   <g id="patch_16">
    <path d="M 8833.763874 582.112644 
L 9768.975557 582.112644 
L 9768.975557 582.112644 
L 8833.763874 582.112644 
z
" clip-path="url(#pe6033bef6f)" style="fill: #4c72b0; fill-opacity: 0.5; stroke: #ffffff; stroke-width: 1.5; stroke-linejoin: miter"/>
   </g>
   <g id="patch_17">
    <path d="M 9768.975557 582.112644 
L 10704.187241 582.112644 
L 10704.187241 582.112644 
L 9768.975557 582.112644 
z
" clip-path="url(#pe6033bef6f)" style="fill: #4c72b0; fill-opacity: 0.5; stroke: #ffffff; stroke-width: 1.5; stroke-linejoin: miter"/>
   </g>
   <g id="patch_18">
    <path d="M 10704.187241 582.112644 
L 11639.398924 582.112644 
L 11639.398924 582.112644 
L 10704.187241 582.112644 
z
" clip-path="url(#pe6033bef6f)" style="fill: #4c72b0; fill-opacity: 0.5; stroke: #ffffff; stroke-width: 1.5; stroke-linejoin: miter"/>
   </g>
   <g id="patch_19">
    <path d="M 11639.398924 582.112644 
L 12574.610607 582.112644 
L 12574.610607 582.112644 
L 11639.398924 582.112644 
z
" clip-path="url(#pe6033bef6f)" style="fill: #4c72b0; fill-opacity: 0.5; stroke: #ffffff; stroke-width: 1.5; stroke-linejoin: miter"/>
   </g>
   <g id="patch_20">
    <path d="M 12574.610607 582.112644 
L 13509.822291 582.112644 
L 13509.822291 565.203448 
L 12574.610607 565.203448 
z
" clip-path="url(#pe6033bef6f)" style="fill: #4c72b0; fill-opacity: 0.5; stroke: #ffffff; stroke-width: 1.5; stroke-linejoin: miter"/>
   </g>
   <g id="LineCollection_1">
    <path clip-path="url(#pe6033bef6f)" style="fill: none; stroke: #4c72b0"/>
    <path clip-path="url(#pe6033bef6f)" style="fill: none; stroke: #4c72b0"/>
    <path clip-path="url(#pe6033bef6f)" style="fill: none; stroke: #4c72b0"/>
    <path clip-path="url(#pe6033bef6f)" style="fill: none; stroke: #4c72b0"/>
    <path clip-path="url(#pe6033bef6f)" style="fill: none; stroke: #4c72b0"/>
    <path clip-path="url(#pe6033bef6f)" style="fill: none; stroke: #dd8452"/>
    <path clip-path="url(#pe6033bef6f)" style="fill: none; stroke: #dd8452"/>
    <path clip-path="url(#pe6033bef6f)" style="fill: none; stroke: #dd8452"/>
    <path clip-path="url(#pe6033bef6f)" style="fill: none; stroke: #dd8452"/>
    <path clip-path="url(#pe6033bef6f)" style="fill: none; stroke: #55a868"/>
    <path clip-path="url(#pe6033bef6f)" style="fill: none; stroke: #55a868"/>
    <path clip-path="url(#pe6033bef6f)" style="fill: none; stroke: #55a868"/>
    <path clip-path="url(#pe6033bef6f)" style="fill: none; stroke: #55a868"/>
    <path clip-path="url(#pe6033bef6f)" style="fill: none; stroke: #55a868"/>
    <path clip-path="url(#pe6033bef6f)" style="fill: none; stroke: #55a868"/>
    <path clip-path="url(#pe6033bef6f)" style="fill: none; stroke: #55a868"/>
    <path clip-path="url(#pe6033bef6f)" style="fill: none; stroke: #55a868"/>
    <path clip-path="url(#pe6033bef6f)" style="fill: none; stroke: #55a868"/>
    <path clip-path="url(#pe6033bef6f)" style="fill: none; stroke: #55a868"/>
    <path clip-path="url(#pe6033bef6f)" style="fill: none; stroke: #55a868"/>
   </g>
   <g id="patch_21">
    <path d="M 76.274171 74.836782 
L 143.274411 74.836782 
L 143.274411 47.782069 
L 76.274171 47.782069 
L 76.274171 74.836782 
z
" clip-path="url(#pe6033bef6f)" style="fill: #5875a4; stroke: #4c4c4c; stroke-linejoin: miter"/>
   </g>
   <g id="line2d_8">
    <path d="M 109.774291 74.836782 
L 109.774291 78.218621 
" clip-path="url(#pe6033bef6f)" style="fill: none; stroke: #4c4c4c"/>
   </g>
   <g id="line2d_9">
    <path d="M 109.774291 47.782069 
L 109.774291 41.018391 
" clip-path="url(#pe6033bef6f)" style="fill: none; stroke: #4c4c4c"/>
   </g>
   <g id="line2d_10">
    <path d="M 93.024231 78.218621 
L 126.524351 78.218621 
" clip-path="url(#pe6033bef6f)" style="fill: none; stroke: #4c4c4c; stroke-linecap: round"/>
   </g>
   <g id="line2d_11">
    <path d="M 93.024231 41.018391 
L 126.524351 41.018391 
" clip-path="url(#pe6033bef6f)" style="fill: none; stroke: #4c4c4c; stroke-linecap: round"/>
   </g>
   <g id="line2d_12"/>
   <g id="patch_22">
    <path d="M 160.024471 265.06523 
L 227.024711 265.06523 
L 227.024711 257.456092 
L 160.024471 257.456092 
L 160.024471 265.06523 
z
" clip-path="url(#pe6033bef6f)" style="fill: #cc8963; stroke: #4c4c4c; stroke-linejoin: miter"/>
   </g>
   <g id="line2d_13">
    <path d="M 193.524591 265.06523 
L 193.524591 267.601609 
" clip-path="url(#pe6033bef6f)" style="fill: none; stroke: #4c4c4c"/>
   </g>
   <g id="line2d_14">
    <path d="M 193.524591 257.456092 
L 193.524591 257.456092 
" clip-path="url(#pe6033bef6f)" style="fill: none; stroke: #4c4c4c"/>
   </g>
   <g id="line2d_15">
    <path d="M 176.774531 267.601609 
L 210.274651 267.601609 
" clip-path="url(#pe6033bef6f)" style="fill: none; stroke: #4c4c4c; stroke-linecap: round"/>
   </g>
   <g id="line2d_16">
    <path d="M 176.774531 257.456092 
L 210.274651 257.456092 
" clip-path="url(#pe6033bef6f)" style="fill: none; stroke: #4c4c4c; stroke-linecap: round"/>
   </g>
   <g id="line2d_17"/>
   <g id="patch_23">
    <path d="M 243.774771 125.564368 
L 310.775011 125.564368 
L 310.775011 84.982299 
L 243.774771 84.982299 
L 243.774771 125.564368 
z
" clip-path="url(#pe6033bef6f)" style="fill: #5f9e6e; stroke: #4c4c4c; stroke-linejoin: miter"/>
   </g>
   <g id="line2d_18">
    <path d="M 277.274891 125.564368 
L 277.274891 149.237241 
" clip-path="url(#pe6033bef6f)" style="fill: none; stroke: #4c4c4c"/>
   </g>
   <g id="line2d_19">
    <path d="M 277.274891 84.982299 
L 277.274891 51.163908 
" clip-path="url(#pe6033bef6f)" style="fill: none; stroke: #4c4c4c"/>
   </g>
   <g id="line2d_20">
    <path d="M 260.524831 149.237241 
L 294.024951 149.237241 
" clip-path="url(#pe6033bef6f)" style="fill: none; stroke: #4c4c4c; stroke-linecap: round"/>
   </g>
   <g id="line2d_21">
    <path d="M 260.524831 51.163908 
L 294.024951 51.163908 
" clip-path="url(#pe6033bef6f)" style="fill: none; stroke: #4c4c4c; stroke-linecap: round"/>
   </g>
   <g id="line2d_22"/>
   <g id="line2d_23">
    <path d="M 76.274171 68.073103 
L 143.274411 68.073103 
" clip-path="url(#pe6033bef6f)" style="fill: none; stroke: #4c4c4c"/>
   </g>
   <g id="line2d_24">
    <path d="M 160.024471 260.837931 
L 227.024711 260.837931 
" clip-path="url(#pe6033bef6f)" style="fill: none; stroke: #4c4c4c"/>
   </g>
   <g id="line2d_25">
    <path d="M 243.774771 91.745977 
L 310.775011 91.745977 
" clip-path="url(#pe6033bef6f)" style="fill: none; stroke: #4c4c4c"/>
   </g>
   <g id="patch_24">
    <path d="M 67.899141 301.42 
L 67.899141 7.2 
" style="fill: none; stroke: #262626; stroke-width: 1.875; stroke-linejoin: miter; stroke-linecap: square"/>
   </g>
   <g id="patch_25">
    <path d="M 67.899141 301.42 
L 319.150041 301.42 
" style="fill: none; stroke: #262626; stroke-width: 1.875; stroke-linejoin: miter; stroke-linecap: square"/>
   </g>
   <g id="PathCollection_1">
    <defs>
     <path id="mfc90390f9e" d="M 0 2 
C 0.530406 2 1.03916 1.789267 1.414214 1.414214 
C 1.789267 1.03916 2 0.530406 2 0 
C 2 -0.530406 1.789267 -1.03916 1.414214 -1.414214 
C 1.03916 -1.789267 0.530406 -2 0 -2 
C -0.530406 -2 -1.03916 -1.789267 -1.414214 -1.414214 
C -1.789267 -1.03916 -2 -0.530406 -2 0 
C -2 0.530406 -1.789267 1.03916 -1.414214 1.414214 
C -1.03916 1.789267 -0.530406 2 0 2 
z
"/>
    </defs>
    <g clip-path="url(#pe6033bef6f)">
     <use xlink:href="#mfc90390f9e" x="116.396141" y="68.073103" style="fill: #4c4c4c"/>
     <use xlink:href="#mfc90390f9e" x="111.654567" y="74.836782" style="fill: #4c4c4c"/>
     <use xlink:href="#mfc90390f9e" x="103.878721" y="78.218621" style="fill: #4c4c4c"/>
     <use xlink:href="#mfc90390f9e" x="106.9278" y="41.018391" style="fill: #4c4c4c"/>
     <use xlink:href="#mfc90390f9e" x="110.177408" y="47.782069" style="fill: #4c4c4c"/>
    </g>
   </g>
   <g id="PathCollection_2">
    <g clip-path="url(#pe6033bef6f)">
     <use xlink:href="#mfc90390f9e" x="200.555124" y="257.456092" style="fill: #4c4c4c"/>
     <use xlink:href="#mfc90390f9e" x="191.546485" y="257.456092" style="fill: #4c4c4c"/>
     <use xlink:href="#mfc90390f9e" x="192.513878" y="267.601609" style="fill: #4c4c4c"/>
     <use xlink:href="#mfc90390f9e" x="192.279956" y="264.21977" style="fill: #4c4c4c"/>
    </g>
   </g>
   <g id="PathCollection_3">
    <g clip-path="url(#pe6033bef6f)">
     <use xlink:href="#mfc90390f9e" x="270.370565" y="149.237241" style="fill: #4c4c4c"/>
     <use xlink:href="#mfc90390f9e" x="270.893082" y="51.163908" style="fill: #4c4c4c"/>
     <use xlink:href="#mfc90390f9e" x="273.469538" y="91.745977" style="fill: #4c4c4c"/>
     <use xlink:href="#mfc90390f9e" x="272.581577" y="98.509655" style="fill: #4c4c4c"/>
     <use xlink:href="#mfc90390f9e" x="271.435682" y="84.982299" style="fill: #4c4c4c"/>
     <use xlink:href="#mfc90390f9e" x="275.30417" y="128.946207" style="fill: #4c4c4c"/>
     <use xlink:href="#mfc90390f9e" x="275.424931" y="84.982299" style="fill: #4c4c4c"/>
     <use xlink:href="#mfc90390f9e" x="273.393448" y="139.091724" style="fill: #4c4c4c"/>
     <use xlink:href="#mfc90390f9e" x="281.909392" y="84.982299" style="fill: #4c4c4c"/>
     <use xlink:href="#mfc90390f9e" x="282.474498" y="57.927586" style="fill: #4c4c4c"/>
     <use xlink:href="#mfc90390f9e" x="277.027351" y="122.182529" style="fill: #4c4c4c"/>
    </g>
   </g>
  </g>
  <g id="legend_1">
   <g id="patch_26">
    <path d="M 340.489219 149.030625 
L 373.489219 149.030625 
L 373.489219 137.480625 
L 340.489219 137.480625 
z
" style="fill: #4c72b0; fill-opacity: 0.25; stroke: #4c72b0; stroke-width: 1.5; stroke-linejoin: miter"/>
   </g>
   <g id="text_9">
    <!-- GIGA -->
    <g style="fill: #262626" transform="translate(386.689219 149.030625) scale(0.165 -0.165)">
     <use xlink:href="#ArialMT-47"/>
     <use xlink:href="#ArialMT-49" x="77.783203"/>
     <use xlink:href="#ArialMT-47" x="105.566406"/>
     <use xlink:href="#ArialMT-41" x="183.349609"/>
    </g>
   </g>
   <g id="patch_27">
    <path d="M 340.489219 172.370391 
L 373.489219 172.370391 
L 373.489219 160.820391 
L 340.489219 160.820391 
z
" style="fill: #dd8452; fill-opacity: 0.25; stroke: #dd8452; stroke-width: 1.5; stroke-linejoin: miter"/>
   </g>
   <g id="text_10">
    <!-- KILO -->
    <g style="fill: #262626" transform="translate(386.689219 172.370391) scale(0.165 -0.165)">
     <use xlink:href="#ArialMT-4b"/>
     <use xlink:href="#ArialMT-49" x="66.699219"/>
     <use xlink:href="#ArialMT-4c" x="94.482422"/>
     <use xlink:href="#ArialMT-4f" x="150.097656"/>
    </g>
   </g>
   <g id="patch_28">
    <path d="M 340.489219 195.710156 
L 373.489219 195.710156 
L 373.489219 184.160156 
L 340.489219 184.160156 
z
" style="fill: #55a868; fill-opacity: 0.25; stroke: #55a868; stroke-width: 1.5; stroke-linejoin: miter"/>
   </g>
   <g id="text_11">
    <!-- MEGA -->
    <g style="fill: #262626" transform="translate(386.689219 195.710156) scale(0.165 -0.165)">
     <use xlink:href="#ArialMT-4d"/>
     <use xlink:href="#ArialMT-45" x="83.300781"/>
     <use xlink:href="#ArialMT-47" x="150"/>
     <use xlink:href="#ArialMT-41" x="227.783203"/>
    </g>
   </g>
  </g>
 </g>
 <defs>
  <clipPath id="pe6033bef6f">
   <rect x="67.899141" y="7.2" width="251.2509" height="294.22"/>
  </clipPath>
 </defs>
</svg>
