<?xml version="1.0" encoding="utf-8" standalone="no"?>
<!DOCTYPE svg PUBLIC "-//W3C//DTD SVG 1.1//EN"
  "http://www.w3.org/Graphics/SVG/1.1/DTD/svg11.dtd">
<svg xmlns:xlink="http://www.w3.org/1999/xlink" width="507.009141pt" height="336.614531pt" viewBox="0 0 507.009141 336.614531" xmlns="http://www.w3.org/2000/svg" version="1.1">
 <metadata>
  <rdf:RDF xmlns:dc="http://purl.org/dc/elements/1.1/" xmlns:cc="http://creativecommons.org/ns#" xmlns:rdf="http://www.w3.org/1999/02/22-rdf-syntax-ns#">
   <cc:Work>
    <dc:type rdf:resource="http://purl.org/dc/dcmitype/StillImage"/>
    <dc:date>2023-10-30T01:44:33.200203</dc:date>
    <dc:format>image/svg+xml</dc:format>
    <dc:creator>
     <cc:Agent>
      <dc:title>Matplotlib v3.8.0, https://matplotlib.org/</dc:title>
     </cc:Agent>
    </dc:creator>
   </cc:Work>
  </rdf:RDF>
 </metadata>
 <defs>
  <style type="text/css">*{stroke-linejoin: round; stroke-linecap: butt}</style>
 </defs>
 <g id="figure_1">
  <g id="patch_1">
   <path d="M 0 336.614531 
L 507.009141 336.614531 
L 507.009141 0 
L 0 0 
z
" style="fill: #ffffff"/>
  </g>
  <g id="axes_1">
   <g id="patch_2">
    <path d="M 67.899141 301.42 
L 318.581241 301.42 
L 318.581241 7.2 
L 67.899141 7.2 
z
" style="fill: #ffffff"/>
   </g>
   <g id="matplotlib.axis_1">
    <g id="xtick_1">
     <g id="line2d_1">
      <defs>
       <path id="mba7d33eaf8" d="M 0 0 
L 0 9 
" style="stroke: #262626; stroke-width: 1.875"/>
      </defs>
      <g>
       <use xlink:href="#mba7d33eaf8" x="130.569666" y="301.42" style="fill: #262626; stroke: #262626; stroke-width: 1.875"/>
      </g>
     </g>
     <g id="text_1">
      <!-- KILO-edByte -->
      <g style="fill: #262626" transform="translate(83.339705 325.941797) scale(0.165 -0.165)">
       <defs>
        <path id="ArialMT-4b" d="M 469 0 
L 469 4581 
L 1075 4581 
L 1075 2309 
L 3350 4581 
L 4172 4581 
L 2250 2725 
L 4256 0 
L 3456 0 
L 1825 2319 
L 1075 1588 
L 1075 0 
L 469 0 
z
" transform="scale(0.015625)"/>
        <path id="ArialMT-49" d="M 597 0 
L 597 4581 
L 1203 4581 
L 1203 0 
L 597 0 
z
" transform="scale(0.015625)"/>
        <path id="ArialMT-4c" d="M 469 0 
L 469 4581 
L 1075 4581 
L 1075 541 
L 3331 541 
L 3331 0 
L 469 0 
z
" transform="scale(0.015625)"/>
        <path id="ArialMT-4f" d="M 309 2231 
Q 309 3372 921 4017 
Q 1534 4663 2503 4663 
Q 3138 4663 3647 4359 
Q 4156 4056 4423 3514 
Q 4691 2972 4691 2284 
Q 4691 1588 4409 1038 
Q 4128 488 3612 205 
Q 3097 -78 2500 -78 
Q 1853 -78 1343 234 
Q 834 547 571 1087 
Q 309 1628 309 2231 
z
M 934 2222 
Q 934 1394 1379 917 
Q 1825 441 2497 441 
Q 3181 441 3623 922 
Q 4066 1403 4066 2288 
Q 4066 2847 3877 3264 
Q 3688 3681 3323 3911 
Q 2959 4141 2506 4141 
Q 1863 4141 1398 3698 
Q 934 3256 934 2222 
z
" transform="scale(0.015625)"/>
        <path id="ArialMT-2d" d="M 203 1375 
L 203 1941 
L 1931 1941 
L 1931 1375 
L 203 1375 
z
" transform="scale(0.015625)"/>
        <path id="ArialMT-65" d="M 2694 1069 
L 3275 997 
Q 3138 488 2766 206 
Q 2394 -75 1816 -75 
Q 1088 -75 661 373 
Q 234 822 234 1631 
Q 234 2469 665 2931 
Q 1097 3394 1784 3394 
Q 2450 3394 2872 2941 
Q 3294 2488 3294 1666 
Q 3294 1616 3291 1516 
L 816 1516 
Q 847 969 1125 678 
Q 1403 388 1819 388 
Q 2128 388 2347 550 
Q 2566 713 2694 1069 
z
M 847 1978 
L 2700 1978 
Q 2663 2397 2488 2606 
Q 2219 2931 1791 2931 
Q 1403 2931 1139 2672 
Q 875 2413 847 1978 
z
" transform="scale(0.015625)"/>
        <path id="ArialMT-64" d="M 2575 0 
L 2575 419 
Q 2259 -75 1647 -75 
Q 1250 -75 917 144 
Q 584 363 401 755 
Q 219 1147 219 1656 
Q 219 2153 384 2558 
Q 550 2963 881 3178 
Q 1213 3394 1622 3394 
Q 1922 3394 2156 3267 
Q 2391 3141 2538 2938 
L 2538 4581 
L 3097 4581 
L 3097 0 
L 2575 0 
z
M 797 1656 
Q 797 1019 1065 703 
Q 1334 388 1700 388 
Q 2069 388 2326 689 
Q 2584 991 2584 1609 
Q 2584 2291 2321 2609 
Q 2059 2928 1675 2928 
Q 1300 2928 1048 2622 
Q 797 2316 797 1656 
z
" transform="scale(0.015625)"/>
        <path id="ArialMT-42" d="M 469 0 
L 469 4581 
L 2188 4581 
Q 2713 4581 3030 4442 
Q 3347 4303 3526 4014 
Q 3706 3725 3706 3409 
Q 3706 3116 3547 2856 
Q 3388 2597 3066 2438 
Q 3481 2316 3704 2022 
Q 3928 1728 3928 1328 
Q 3928 1006 3792 729 
Q 3656 453 3456 303 
Q 3256 153 2954 76 
Q 2653 0 2216 0 
L 469 0 
z
M 1075 2656 
L 2066 2656 
Q 2469 2656 2644 2709 
Q 2875 2778 2992 2937 
Q 3109 3097 3109 3338 
Q 3109 3566 3000 3739 
Q 2891 3913 2687 3977 
Q 2484 4041 1991 4041 
L 1075 4041 
L 1075 2656 
z
M 1075 541 
L 2216 541 
Q 2509 541 2628 563 
Q 2838 600 2978 687 
Q 3119 775 3209 942 
Q 3300 1109 3300 1328 
Q 3300 1584 3169 1773 
Q 3038 1963 2805 2039 
Q 2572 2116 2134 2116 
L 1075 2116 
L 1075 541 
z
" transform="scale(0.015625)"/>
        <path id="ArialMT-79" d="M 397 -1278 
L 334 -750 
Q 519 -800 656 -800 
Q 844 -800 956 -737 
Q 1069 -675 1141 -563 
Q 1194 -478 1313 -144 
Q 1328 -97 1363 -6 
L 103 3319 
L 709 3319 
L 1400 1397 
Q 1534 1031 1641 628 
Q 1738 1016 1872 1384 
L 2581 3319 
L 3144 3319 
L 1881 -56 
Q 1678 -603 1566 -809 
Q 1416 -1088 1222 -1217 
Q 1028 -1347 759 -1347 
Q 597 -1347 397 -1278 
z
" transform="scale(0.015625)"/>
        <path id="ArialMT-74" d="M 1650 503 
L 1731 6 
Q 1494 -44 1306 -44 
Q 1000 -44 831 53 
Q 663 150 594 308 
Q 525 466 525 972 
L 525 2881 
L 113 2881 
L 113 3319 
L 525 3319 
L 525 4141 
L 1084 4478 
L 1084 3319 
L 1650 3319 
L 1650 2881 
L 1084 2881 
L 1084 941 
Q 1084 700 1114 631 
Q 1144 563 1211 522 
Q 1278 481 1403 481 
Q 1497 481 1650 503 
z
" transform="scale(0.015625)"/>
       </defs>
       <use xlink:href="#ArialMT-4b"/>
       <use xlink:href="#ArialMT-49" x="66.699219"/>
       <use xlink:href="#ArialMT-4c" x="94.482422"/>
       <use xlink:href="#ArialMT-4f" x="150.097656"/>
       <use xlink:href="#ArialMT-2d" x="227.880859"/>
       <use xlink:href="#ArialMT-65" x="261.181641"/>
       <use xlink:href="#ArialMT-64" x="316.796875"/>
       <use xlink:href="#ArialMT-42" x="372.412109"/>
       <use xlink:href="#ArialMT-79" x="439.111328"/>
       <use xlink:href="#ArialMT-74" x="489.111328"/>
       <use xlink:href="#ArialMT-65" x="516.894531"/>
      </g>
     </g>
    </g>
    <g id="xtick_2">
     <g id="line2d_2">
      <g>
       <use xlink:href="#mba7d33eaf8" x="255.910716" y="301.42" style="fill: #262626; stroke: #262626; stroke-width: 1.875"/>
      </g>
     </g>
     <g id="text_2">
      <!-- MEGA-edByte -->
      <g style="fill: #262626" transform="translate(203.185481 325.931484) scale(0.165 -0.165)">
       <defs>
        <path id="ArialMT-4d" d="M 475 0 
L 475 4581 
L 1388 4581 
L 2472 1338 
Q 2622 884 2691 659 
Q 2769 909 2934 1394 
L 4031 4581 
L 4847 4581 
L 4847 0 
L 4263 0 
L 4263 3834 
L 2931 0 
L 2384 0 
L 1059 3900 
L 1059 0 
L 475 0 
z
" transform="scale(0.015625)"/>
        <path id="ArialMT-45" d="M 506 0 
L 506 4581 
L 3819 4581 
L 3819 4041 
L 1113 4041 
L 1113 2638 
L 3647 2638 
L 3647 2100 
L 1113 2100 
L 1113 541 
L 3925 541 
L 3925 0 
L 506 0 
z
" transform="scale(0.015625)"/>
        <path id="ArialMT-47" d="M 2638 1797 
L 2638 2334 
L 4578 2338 
L 4578 638 
Q 4131 281 3656 101 
Q 3181 -78 2681 -78 
Q 2006 -78 1454 211 
Q 903 500 622 1047 
Q 341 1594 341 2269 
Q 341 2938 620 3517 
Q 900 4097 1425 4378 
Q 1950 4659 2634 4659 
Q 3131 4659 3532 4498 
Q 3934 4338 4162 4050 
Q 4391 3763 4509 3300 
L 3963 3150 
Q 3859 3500 3706 3700 
Q 3553 3900 3268 4020 
Q 2984 4141 2638 4141 
Q 2222 4141 1919 4014 
Q 1616 3888 1430 3681 
Q 1244 3475 1141 3228 
Q 966 2803 966 2306 
Q 966 1694 1177 1281 
Q 1388 869 1791 669 
Q 2194 469 2647 469 
Q 3041 469 3416 620 
Q 3791 772 3984 944 
L 3984 1797 
L 2638 1797 
z
" transform="scale(0.015625)"/>
        <path id="ArialMT-41" d="M -9 0 
L 1750 4581 
L 2403 4581 
L 4278 0 
L 3588 0 
L 3053 1388 
L 1138 1388 
L 634 0 
L -9 0 
z
M 1313 1881 
L 2866 1881 
L 2388 3150 
Q 2169 3728 2063 4100 
Q 1975 3659 1816 3225 
L 1313 1881 
z
" transform="scale(0.015625)"/>
       </defs>
       <use xlink:href="#ArialMT-4d"/>
       <use xlink:href="#ArialMT-45" x="83.300781"/>
       <use xlink:href="#ArialMT-47" x="150"/>
       <use xlink:href="#ArialMT-41" x="227.783203"/>
       <use xlink:href="#ArialMT-2d" x="294.482422"/>
       <use xlink:href="#ArialMT-65" x="327.783203"/>
       <use xlink:href="#ArialMT-64" x="383.398438"/>
       <use xlink:href="#ArialMT-42" x="439.013672"/>
       <use xlink:href="#ArialMT-79" x="505.712891"/>
       <use xlink:href="#ArialMT-74" x="555.712891"/>
       <use xlink:href="#ArialMT-65" x="583.496094"/>
      </g>
     </g>
    </g>
   </g>
   <g id="matplotlib.axis_2">
    <g id="ytick_1">
     <g id="line2d_3">
      <defs>
       <path id="m29c6d9b976" d="M 0 0 
L -9 0 
" style="stroke: #262626; stroke-width: 1.875"/>
      </defs>
      <g>
       <use xlink:href="#m29c6d9b976" x="67.899141" y="301.42" style="fill: #262626; stroke: #262626; stroke-width: 1.875"/>
      </g>
     </g>
     <g id="text_3">
      <!-- 0 -->
      <g style="fill: #262626" transform="translate(46.223594 307.325195) scale(0.165 -0.165)">
       <defs>
        <path id="ArialMT-30" d="M 266 2259 
Q 266 3072 433 3567 
Q 600 4063 929 4331 
Q 1259 4600 1759 4600 
Q 2128 4600 2406 4451 
Q 2684 4303 2865 4023 
Q 3047 3744 3150 3342 
Q 3253 2941 3253 2259 
Q 3253 1453 3087 958 
Q 2922 463 2592 192 
Q 2263 -78 1759 -78 
Q 1097 -78 719 397 
Q 266 969 266 2259 
z
M 844 2259 
Q 844 1131 1108 757 
Q 1372 384 1759 384 
Q 2147 384 2411 759 
Q 2675 1134 2675 2259 
Q 2675 3391 2411 3762 
Q 2147 4134 1753 4134 
Q 1366 4134 1134 3806 
Q 844 3388 844 2259 
z
" transform="scale(0.015625)"/>
       </defs>
       <use xlink:href="#ArialMT-30"/>
      </g>
     </g>
    </g>
    <g id="ytick_2">
     <g id="line2d_4">
      <g>
       <use xlink:href="#m29c6d9b976" x="67.899141" y="263.426715" style="fill: #262626; stroke: #262626; stroke-width: 1.875"/>
      </g>
     </g>
     <g id="text_4">
      <!-- 25 -->
      <g style="fill: #262626" transform="translate(37.048047 269.33191) scale(0.165 -0.165)">
       <defs>
        <path id="ArialMT-32" d="M 3222 541 
L 3222 0 
L 194 0 
Q 188 203 259 391 
Q 375 700 629 1000 
Q 884 1300 1366 1694 
Q 2113 2306 2375 2664 
Q 2638 3022 2638 3341 
Q 2638 3675 2398 3904 
Q 2159 4134 1775 4134 
Q 1369 4134 1125 3890 
Q 881 3647 878 3216 
L 300 3275 
Q 359 3922 746 4261 
Q 1134 4600 1788 4600 
Q 2447 4600 2831 4234 
Q 3216 3869 3216 3328 
Q 3216 3053 3103 2787 
Q 2991 2522 2730 2228 
Q 2469 1934 1863 1422 
Q 1356 997 1212 845 
Q 1069 694 975 541 
L 3222 541 
z
" transform="scale(0.015625)"/>
        <path id="ArialMT-35" d="M 266 1200 
L 856 1250 
Q 922 819 1161 601 
Q 1400 384 1738 384 
Q 2144 384 2425 690 
Q 2706 997 2706 1503 
Q 2706 1984 2436 2262 
Q 2166 2541 1728 2541 
Q 1456 2541 1237 2417 
Q 1019 2294 894 2097 
L 366 2166 
L 809 4519 
L 3088 4519 
L 3088 3981 
L 1259 3981 
L 1013 2750 
Q 1425 3038 1878 3038 
Q 2478 3038 2890 2622 
Q 3303 2206 3303 1553 
Q 3303 931 2941 478 
Q 2500 -78 1738 -78 
Q 1113 -78 717 272 
Q 322 622 266 1200 
z
" transform="scale(0.015625)"/>
       </defs>
       <use xlink:href="#ArialMT-32"/>
       <use xlink:href="#ArialMT-35" x="55.615234"/>
      </g>
     </g>
    </g>
    <g id="ytick_3">
     <g id="line2d_5">
      <g>
       <use xlink:href="#m29c6d9b976" x="67.899141" y="225.43343" style="fill: #262626; stroke: #262626; stroke-width: 1.875"/>
      </g>
     </g>
     <g id="text_5">
      <!-- 50 -->
      <g style="fill: #262626" transform="translate(37.048047 231.338625) scale(0.165 -0.165)">
       <use xlink:href="#ArialMT-35"/>
       <use xlink:href="#ArialMT-30" x="55.615234"/>
      </g>
     </g>
    </g>
    <g id="ytick_4">
     <g id="line2d_6">
      <g>
       <use xlink:href="#m29c6d9b976" x="67.899141" y="187.440145" style="fill: #262626; stroke: #262626; stroke-width: 1.875"/>
      </g>
     </g>
     <g id="text_6">
      <!-- 75 -->
      <g style="fill: #262626" transform="translate(37.048047 193.34534) scale(0.165 -0.165)">
       <defs>
        <path id="ArialMT-37" d="M 303 3981 
L 303 4522 
L 3269 4522 
L 3269 4084 
Q 2831 3619 2401 2847 
Q 1972 2075 1738 1259 
Q 1569 684 1522 0 
L 944 0 
Q 953 541 1156 1306 
Q 1359 2072 1739 2783 
Q 2119 3494 2547 3981 
L 303 3981 
z
" transform="scale(0.015625)"/>
       </defs>
       <use xlink:href="#ArialMT-37"/>
       <use xlink:href="#ArialMT-35" x="55.615234"/>
      </g>
     </g>
    </g>
    <g id="ytick_5">
     <g id="line2d_7">
      <g>
       <use xlink:href="#m29c6d9b976" x="67.899141" y="149.44686" style="fill: #262626; stroke: #262626; stroke-width: 1.875"/>
      </g>
     </g>
     <g id="text_7">
      <!-- 100 -->
      <g style="fill: #262626" transform="translate(27.8725 155.352055) scale(0.165 -0.165)">
       <defs>
        <path id="ArialMT-31" d="M 2384 0 
L 1822 0 
L 1822 3584 
Q 1619 3391 1289 3197 
Q 959 3003 697 2906 
L 697 3450 
Q 1169 3672 1522 3987 
Q 1875 4303 2022 4600 
L 2384 4600 
L 2384 0 
z
" transform="scale(0.015625)"/>
       </defs>
       <use xlink:href="#ArialMT-31"/>
       <use xlink:href="#ArialMT-30" x="55.615234"/>
       <use xlink:href="#ArialMT-30" x="111.230469"/>
      </g>
     </g>
    </g>
    <g id="ytick_6">
     <g id="line2d_8">
      <g>
       <use xlink:href="#m29c6d9b976" x="67.899141" y="111.453574" style="fill: #262626; stroke: #262626; stroke-width: 1.875"/>
      </g>
     </g>
     <g id="text_8">
      <!-- 125 -->
      <g style="fill: #262626" transform="translate(27.8725 117.35877) scale(0.165 -0.165)">
       <use xlink:href="#ArialMT-31"/>
       <use xlink:href="#ArialMT-32" x="55.615234"/>
       <use xlink:href="#ArialMT-35" x="111.230469"/>
      </g>
     </g>
    </g>
    <g id="ytick_7">
     <g id="line2d_9">
      <g>
       <use xlink:href="#m29c6d9b976" x="67.899141" y="73.460289" style="fill: #262626; stroke: #262626; stroke-width: 1.875"/>
      </g>
     </g>
     <g id="text_9">
      <!-- 150 -->
      <g style="fill: #262626" transform="translate(27.8725 79.365485) scale(0.165 -0.165)">
       <use xlink:href="#ArialMT-31"/>
       <use xlink:href="#ArialMT-35" x="55.615234"/>
       <use xlink:href="#ArialMT-30" x="111.230469"/>
      </g>
     </g>
    </g>
    <g id="ytick_8">
     <g id="line2d_10">
      <g>
       <use xlink:href="#m29c6d9b976" x="67.899141" y="35.467004" style="fill: #262626; stroke: #262626; stroke-width: 1.875"/>
      </g>
     </g>
     <g id="text_10">
      <!-- 175 -->
      <g style="fill: #262626" transform="translate(27.8725 41.372199) scale(0.165 -0.165)">
       <use xlink:href="#ArialMT-31"/>
       <use xlink:href="#ArialMT-37" x="55.615234"/>
       <use xlink:href="#ArialMT-35" x="111.230469"/>
      </g>
     </g>
    </g>
    <g id="text_11">
     <!-- Density -->
     <g style="fill: #262626" transform="translate(20.084062 184.319375) rotate(-90) scale(0.18 -0.18)">
      <defs>
       <path id="ArialMT-44" d="M 494 0 
L 494 4581 
L 2072 4581 
Q 2606 4581 2888 4516 
Q 3281 4425 3559 4188 
Q 3922 3881 4101 3404 
Q 4281 2928 4281 2316 
Q 4281 1794 4159 1391 
Q 4038 988 3847 723 
Q 3656 459 3429 307 
Q 3203 156 2883 78 
Q 2563 0 2147 0 
L 494 0 
z
M 1100 541 
L 2078 541 
Q 2531 541 2789 625 
Q 3047 709 3200 863 
Q 3416 1078 3536 1442 
Q 3656 1806 3656 2325 
Q 3656 3044 3420 3430 
Q 3184 3816 2847 3947 
Q 2603 4041 2063 4041 
L 1100 4041 
L 1100 541 
z
" transform="scale(0.015625)"/>
       <path id="ArialMT-6e" d="M 422 0 
L 422 3319 
L 928 3319 
L 928 2847 
Q 1294 3394 1984 3394 
Q 2284 3394 2536 3286 
Q 2788 3178 2913 3003 
Q 3038 2828 3088 2588 
Q 3119 2431 3119 2041 
L 3119 0 
L 2556 0 
L 2556 2019 
Q 2556 2363 2490 2533 
Q 2425 2703 2258 2804 
Q 2091 2906 1866 2906 
Q 1506 2906 1245 2678 
Q 984 2450 984 1813 
L 984 0 
L 422 0 
z
" transform="scale(0.015625)"/>
       <path id="ArialMT-73" d="M 197 991 
L 753 1078 
Q 800 744 1014 566 
Q 1228 388 1613 388 
Q 2000 388 2187 545 
Q 2375 703 2375 916 
Q 2375 1106 2209 1216 
Q 2094 1291 1634 1406 
Q 1016 1563 777 1677 
Q 538 1791 414 1992 
Q 291 2194 291 2438 
Q 291 2659 392 2848 
Q 494 3038 669 3163 
Q 800 3259 1026 3326 
Q 1253 3394 1513 3394 
Q 1903 3394 2198 3281 
Q 2494 3169 2634 2976 
Q 2775 2784 2828 2463 
L 2278 2388 
Q 2241 2644 2061 2787 
Q 1881 2931 1553 2931 
Q 1166 2931 1000 2803 
Q 834 2675 834 2503 
Q 834 2394 903 2306 
Q 972 2216 1119 2156 
Q 1203 2125 1616 2013 
Q 2213 1853 2448 1751 
Q 2684 1650 2818 1456 
Q 2953 1263 2953 975 
Q 2953 694 2789 445 
Q 2625 197 2315 61 
Q 2006 -75 1616 -75 
Q 969 -75 630 194 
Q 291 463 197 991 
z
" transform="scale(0.015625)"/>
       <path id="ArialMT-69" d="M 425 3934 
L 425 4581 
L 988 4581 
L 988 3934 
L 425 3934 
z
M 425 0 
L 425 3319 
L 988 3319 
L 988 0 
L 425 0 
z
" transform="scale(0.015625)"/>
      </defs>
      <use xlink:href="#ArialMT-44"/>
      <use xlink:href="#ArialMT-65" x="72.216797"/>
      <use xlink:href="#ArialMT-6e" x="127.832031"/>
      <use xlink:href="#ArialMT-73" x="183.447266"/>
      <use xlink:href="#ArialMT-69" x="233.447266"/>
      <use xlink:href="#ArialMT-74" x="255.664062"/>
      <use xlink:href="#ArialMT-79" x="283.447266"/>
     </g>
    </g>
   </g>
   <g id="PolyCollection_1">
    <path d="M 12172.89539 301.419938 
L 12172.89539 301.42 
L 12243.342766 301.42 
L 12313.790141 301.42 
L 12384.237517 301.42 
L 12454.684893 301.42 
L 12525.132268 301.42 
L 12595.579644 301.42 
L 12666.02702 301.42 
L 12736.474395 301.42 
L 12806.921771 301.42 
L 12877.369147 301.42 
L 12947.816522 301.42 
L 13018.263898 301.42 
L 13088.711273 301.42 
L 13159.158649 301.42 
L 13229.606025 301.42 
L 13300.0534 301.42 
L 13370.500776 301.42 
L 13440.948152 301.42 
L 13511.395527 301.42 
L 13581.842903 301.42 
L 13652.290279 301.42 
L 13722.737654 301.42 
L 13793.18503 301.42 
L 13863.632405 301.42 
L 13934.079781 301.42 
L 14004.527157 301.42 
L 14074.974532 301.42 
L 14145.421908 301.42 
L 14215.869284 301.42 
L 14286.316659 301.42 
L 14356.764035 301.42 
L 14427.21141 301.42 
L 14497.658786 301.42 
L 14568.106162 301.42 
L 14638.553537 301.42 
L 14709.000913 301.42 
L 14779.448289 301.42 
L 14849.895664 301.42 
L 14920.34304 301.42 
L 14990.790416 301.42 
L 15061.237791 301.42 
L 15131.685167 301.42 
L 15202.132542 301.42 
L 15272.579918 301.42 
L 15343.027294 301.42 
L 15413.474669 301.42 
L 15483.922045 301.42 
L 15554.369421 301.42 
L 15624.816796 301.42 
L 15695.264172 301.42 
L 15765.711547 301.42 
L 15836.158923 301.42 
L 15906.606299 301.42 
L 15977.053674 301.42 
L 16047.50105 301.42 
L 16117.948426 301.42 
L 16188.395801 301.42 
L 16258.843177 301.42 
L 16329.290553 301.42 
L 16399.737928 301.42 
L 16470.185304 301.42 
L 16540.632679 301.42 
L 16611.080055 301.42 
L 16681.527431 301.42 
L 16751.974806 301.42 
L 16822.422182 301.42 
L 16892.869558 301.42 
L 16963.316933 301.42 
L 17033.764309 301.42 
L 17104.211684 301.42 
L 17174.65906 301.42 
L 17245.106436 301.42 
L 17315.553811 301.42 
L 17386.001187 301.42 
L 17456.448563 301.42 
L 17526.895938 301.42 
L 17597.343314 301.42 
L 17667.79069 301.42 
L 17738.238065 301.42 
L 17808.685441 301.42 
L 17879.132816 301.42 
L 17949.580192 301.42 
L 18020.027568 301.42 
L 18090.474943 301.42 
L 18160.922319 301.42 
L 18231.369695 301.42 
L 18301.81707 301.42 
L 18372.264446 301.42 
L 18442.711821 301.42 
L 18513.159197 301.42 
L 18583.606573 301.42 
L 18654.053948 301.42 
L 18724.501324 301.42 
L 18794.9487 301.42 
L 18865.396075 301.42 
L 18935.843451 301.42 
L 19006.290827 301.42 
L 19076.738202 301.42 
L 19147.185578 301.42 
L 19217.632953 301.42 
L 19288.080329 301.42 
L 19358.527705 301.42 
L 19428.97508 301.42 
L 19499.422456 301.42 
L 19569.869832 301.42 
L 19640.317207 301.42 
L 19710.764583 301.42 
L 19781.211958 301.42 
L 19851.659334 301.42 
L 19922.10671 301.42 
L 19992.554085 301.42 
L 20063.001461 301.42 
L 20133.448837 301.42 
L 20203.896212 301.42 
L 20274.343588 301.42 
L 20344.790964 301.42 
L 20415.238339 301.42 
L 20485.685715 301.42 
L 20556.13309 301.42 
L 20626.580466 301.42 
L 20697.027842 301.42 
L 20767.475217 301.42 
L 20837.922593 301.42 
L 20908.369969 301.42 
L 20978.817344 301.42 
L 21049.26472 301.42 
L 21119.712096 301.42 
L 21190.159471 301.42 
L 21260.606847 301.42 
L 21331.054222 301.42 
L 21401.501598 301.42 
L 21471.948974 301.42 
L 21542.396349 301.42 
L 21612.843725 301.42 
L 21683.291101 301.42 
L 21753.738476 301.42 
L 21824.185852 301.42 
L 21894.633227 301.42 
L 21965.080603 301.42 
L 22035.527979 301.42 
L 22105.975354 301.42 
L 22176.42273 301.42 
L 22246.870106 301.42 
L 22317.317481 301.42 
L 22387.764857 301.42 
L 22458.212233 301.42 
L 22528.659608 301.42 
L 22599.106984 301.42 
L 22669.554359 301.42 
L 22740.001735 301.42 
L 22810.449111 301.42 
L 22880.896486 301.42 
L 22951.343862 301.42 
L 23021.791238 301.42 
L 23092.238613 301.42 
L 23162.685989 301.42 
L 23233.133364 301.42 
L 23303.58074 301.42 
L 23374.028116 301.42 
L 23444.475491 301.42 
L 23514.922867 301.42 
L 23585.370243 301.42 
L 23655.817618 301.42 
L 23726.264994 301.42 
L 23796.71237 301.42 
L 23867.159745 301.42 
L 23937.607121 301.42 
L 24008.054496 301.42 
L 24078.501872 301.42 
L 24148.949248 301.42 
L 24219.396623 301.42 
L 24289.843999 301.42 
L 24360.291375 301.42 
L 24430.73875 301.42 
L 24501.186126 301.42 
L 24571.633501 301.42 
L 24642.080877 301.42 
L 24712.528253 301.42 
L 24782.975628 301.42 
L 24853.423004 301.42 
L 24923.87038 301.42 
L 24994.317755 301.42 
L 25064.765131 301.42 
L 25135.212507 301.42 
L 25205.659882 301.42 
L 25276.107258 301.42 
L 25346.554633 301.42 
L 25417.002009 301.42 
L 25487.449385 301.42 
L 25557.89676 301.42 
L 25628.344136 301.42 
L 25698.791512 301.42 
L 25769.238887 301.42 
L 25839.686263 301.42 
L 25910.133638 301.42 
L 25980.581014 301.42 
L 26051.02839 301.42 
L 26121.475765 301.42 
L 26191.923141 301.42 
L 26191.923141 301.419908 
L 26191.923141 301.419908 
L 26121.475765 301.419892 
L 26051.02839 301.419873 
L 25980.581014 301.419852 
L 25910.133638 301.419828 
L 25839.686263 301.419801 
L 25769.238887 301.41977 
L 25698.791512 301.419734 
L 25628.344136 301.419694 
L 25557.89676 301.419649 
L 25487.449385 301.419599 
L 25417.002009 301.419543 
L 25346.554633 301.41948 
L 25276.107258 301.41941 
L 25205.659882 301.419333 
L 25135.212507 301.419247 
L 25064.765131 301.419153 
L 24994.317755 301.41905 
L 24923.87038 301.418938 
L 24853.423004 301.418815 
L 24782.975628 301.418682 
L 24712.528253 301.418537 
L 24642.080877 301.418382 
L 24571.633501 301.418214 
L 24501.186126 301.418035 
L 24430.73875 301.417844 
L 24360.291375 301.41764 
L 24289.843999 301.417425 
L 24219.396623 301.417197 
L 24148.949248 301.416957 
L 24078.501872 301.416706 
L 24008.054496 301.416444 
L 23937.607121 301.416171 
L 23867.159745 301.415888 
L 23796.71237 301.415596 
L 23726.264994 301.415296 
L 23655.817618 301.414989 
L 23585.370243 301.414675 
L 23514.922867 301.414357 
L 23444.475491 301.414035 
L 23374.028116 301.413711 
L 23303.58074 301.413386 
L 23233.133364 301.413062 
L 23162.685989 301.41274 
L 23092.238613 301.412422 
L 23021.791238 301.412109 
L 22951.343862 301.411803 
L 22880.896486 301.411505 
L 22810.449111 301.411216 
L 22740.001735 301.410938 
L 22669.554359 301.410671 
L 22599.106984 301.410417 
L 22528.659608 301.410177 
L 22458.212233 301.40995 
L 22387.764857 301.409738 
L 22317.317481 301.40954 
L 22246.870106 301.409356 
L 22176.42273 301.409187 
L 22105.975354 301.409032 
L 22035.527979 301.408889 
L 21965.080603 301.408759 
L 21894.633227 301.408639 
L 21824.185852 301.408529 
L 21753.738476 301.408427 
L 21683.291101 301.408331 
L 21612.843725 301.40824 
L 21542.396349 301.408151 
L 21471.948974 301.408063 
L 21401.501598 301.407973 
L 21331.054222 301.407879 
L 21260.606847 301.407779 
L 21190.159471 301.40767 
L 21119.712096 301.407552 
L 21049.26472 301.40742 
L 20978.817344 301.407275 
L 20908.369969 301.407113 
L 20837.922593 301.406934 
L 20767.475217 301.406735 
L 20697.027842 301.406517 
L 20626.580466 301.406277 
L 20556.13309 301.406015 
L 20485.685715 301.40573 
L 20415.238339 301.405423 
L 20344.790964 301.405094 
L 20274.343588 301.404743 
L 20203.896212 301.404371 
L 20133.448837 301.403979 
L 20063.001461 301.403568 
L 19992.554085 301.40314 
L 19922.10671 301.402696 
L 19851.659334 301.40224 
L 19781.211958 301.401773 
L 19710.764583 301.401297 
L 19640.317207 301.400816 
L 19569.869832 301.400332 
L 19499.422456 301.399849 
L 19428.97508 301.399368 
L 19358.527705 301.398895 
L 19288.080329 301.398431 
L 19217.632953 301.397979 
L 19147.185578 301.397544 
L 19076.738202 301.397127 
L 19006.290827 301.396732 
L 18935.843451 301.396361 
L 18865.396075 301.396017 
L 18794.9487 301.395703 
L 18724.501324 301.39542 
L 18654.053948 301.395171 
L 18583.606573 301.394957 
L 18513.159197 301.394779 
L 18442.711821 301.394639 
L 18372.264446 301.394538 
L 18301.81707 301.394476 
L 18231.369695 301.394454 
L 18160.922319 301.394471 
L 18090.474943 301.394528 
L 18020.027568 301.394624 
L 17949.580192 301.394757 
L 17879.132816 301.394929 
L 17808.685441 301.395136 
L 17738.238065 301.395378 
L 17667.79069 301.395654 
L 17597.343314 301.395962 
L 17526.895938 301.396299 
L 17456.448563 301.396665 
L 17386.001187 301.397058 
L 17315.553811 301.397475 
L 17245.106436 301.397914 
L 17174.65906 301.398374 
L 17104.211684 301.398853 
L 17033.764309 301.399349 
L 16963.316933 301.399859 
L 16892.869558 301.400382 
L 16822.422182 301.400916 
L 16751.974806 301.40146 
L 16681.527431 301.402011 
L 16611.080055 301.402569 
L 16540.632679 301.403131 
L 16470.185304 301.403696 
L 16399.737928 301.404263 
L 16329.290553 301.40483 
L 16258.843177 301.405396 
L 16188.395801 301.405961 
L 16117.948426 301.406521 
L 16047.50105 301.407078 
L 15977.053674 301.407629 
L 15906.606299 301.408174 
L 15836.158923 301.408711 
L 15765.711547 301.40924 
L 15695.264172 301.40976 
L 15624.816796 301.410271 
L 15554.369421 301.41077 
L 15483.922045 301.411259 
L 15413.474669 301.411735 
L 15343.027294 301.412199 
L 15272.579918 301.412649 
L 15202.132542 301.413086 
L 15131.685167 301.413509 
L 15061.237791 301.413917 
L 14990.790416 301.41431 
L 14920.34304 301.414688 
L 14849.895664 301.415051 
L 14779.448289 301.415398 
L 14709.000913 301.41573 
L 14638.553537 301.416045 
L 14568.106162 301.416345 
L 14497.658786 301.41663 
L 14427.21141 301.416899 
L 14356.764035 301.417152 
L 14286.316659 301.417391 
L 14215.869284 301.417615 
L 14145.421908 301.417825 
L 14074.974532 301.41802 
L 14004.527157 301.418203 
L 13934.079781 301.418372 
L 13863.632405 301.418529 
L 13793.18503 301.418674 
L 13722.737654 301.418807 
L 13652.290279 301.41893 
L 13581.842903 301.419042 
L 13511.395527 301.419144 
L 13440.948152 301.419238 
L 13370.500776 301.419323 
L 13300.0534 301.4194 
L 13229.606025 301.419469 
L 13159.158649 301.419532 
L 13088.711273 301.419588 
L 13018.263898 301.419639 
L 12947.816522 301.419684 
L 12877.369147 301.419724 
L 12806.921771 301.41976 
L 12736.474395 301.419791 
L 12666.02702 301.419819 
L 12595.579644 301.419844 
L 12525.132268 301.419865 
L 12454.684893 301.419884 
L 12384.237517 301.419901 
L 12313.790141 301.419915 
L 12243.342766 301.419928 
L 12172.89539 301.419938 
z
" clip-path="url(#p4f86b308db)" style="fill: #dd8452; fill-opacity: 0.25; stroke: #dd8452; stroke-width: 1.5"/>
   </g>
   <g id="PolyCollection_2">
    <path d="M 11264.4688 301.419596 
L 11264.4688 301.42 
L 11271.612821 301.42 
L 11278.756842 301.42 
L 11285.900863 301.42 
L 11293.044884 301.42 
L 11300.188905 301.42 
L 11307.332926 301.42 
L 11314.476947 301.42 
L 11321.620968 301.42 
L 11328.764989 301.42 
L 11335.90901 301.42 
L 11343.053031 301.42 
L 11350.197052 301.42 
L 11357.341073 301.42 
L 11364.485094 301.42 
L 11371.629115 301.42 
L 11378.773136 301.42 
L 11385.917157 301.42 
L 11393.061178 301.42 
L 11400.205199 301.42 
L 11407.34922 301.42 
L 11414.493241 301.42 
L 11421.637262 301.42 
L 11428.781283 301.42 
L 11435.925304 301.42 
L 11443.069325 301.42 
L 11450.213346 301.42 
L 11457.357367 301.42 
L 11464.501388 301.42 
L 11471.645409 301.42 
L 11478.78943 301.42 
L 11485.933451 301.42 
L 11493.077472 301.42 
L 11500.221493 301.42 
L 11507.365514 301.42 
L 11514.509535 301.42 
L 11521.653556 301.42 
L 11528.797577 301.42 
L 11535.941598 301.42 
L 11543.085619 301.42 
L 11550.22964 301.42 
L 11557.373662 301.42 
L 11564.517683 301.42 
L 11571.661704 301.42 
L 11578.805725 301.42 
L 11585.949746 301.42 
L 11593.093767 301.42 
L 11600.237788 301.42 
L 11607.381809 301.42 
L 11614.52583 301.42 
L 11621.669851 301.42 
L 11628.813872 301.42 
L 11635.957893 301.42 
L 11643.101914 301.42 
L 11650.245935 301.42 
L 11657.389956 301.42 
L 11664.533977 301.42 
L 11671.677998 301.42 
L 11678.822019 301.42 
L 11685.96604 301.42 
L 11693.110061 301.42 
L 11700.254082 301.42 
L 11707.398103 301.42 
L 11714.542124 301.42 
L 11721.686145 301.42 
L 11728.830166 301.42 
L 11735.974187 301.42 
L 11743.118208 301.42 
L 11750.262229 301.42 
L 11757.40625 301.42 
L 11764.550271 301.42 
L 11771.694292 301.42 
L 11778.838313 301.42 
L 11785.982334 301.42 
L 11793.126355 301.42 
L 11800.270376 301.42 
L 11807.414397 301.42 
L 11814.558418 301.42 
L 11821.702439 301.42 
L 11828.84646 301.42 
L 11835.990481 301.42 
L 11843.134502 301.42 
L 11850.278523 301.42 
L 11857.422544 301.42 
L 11864.566565 301.42 
L 11871.710586 301.42 
L 11878.854607 301.42 
L 11885.998628 301.42 
L 11893.142649 301.42 
L 11900.28667 301.42 
L 11907.430691 301.42 
L 11914.574712 301.42 
L 11921.718733 301.42 
L 11928.862754 301.42 
L 11936.006775 301.42 
L 11943.150796 301.42 
L 11950.294817 301.42 
L 11957.438838 301.42 
L 11964.582859 301.42 
L 11971.72688 301.42 
L 11978.870901 301.42 
L 11986.014922 301.42 
L 11993.158943 301.42 
L 12000.302964 301.42 
L 12007.446985 301.42 
L 12014.591006 301.42 
L 12021.735027 301.42 
L 12028.879048 301.42 
L 12036.023069 301.42 
L 12043.16709 301.42 
L 12050.311111 301.42 
L 12057.455132 301.42 
L 12064.599153 301.42 
L 12071.743174 301.42 
L 12078.887195 301.42 
L 12086.031216 301.42 
L 12093.175237 301.42 
L 12100.319258 301.42 
L 12107.463279 301.42 
L 12114.6073 301.42 
L 12121.751321 301.42 
L 12128.895342 301.42 
L 12136.039363 301.42 
L 12143.183384 301.42 
L 12150.327405 301.42 
L 12157.471426 301.42 
L 12164.615447 301.42 
L 12171.759468 301.42 
L 12178.903489 301.42 
L 12186.04751 301.42 
L 12193.191531 301.42 
L 12200.335552 301.42 
L 12207.479573 301.42 
L 12214.623594 301.42 
L 12221.767615 301.42 
L 12228.911636 301.42 
L 12236.055658 301.42 
L 12243.199679 301.42 
L 12250.3437 301.42 
L 12257.487721 301.42 
L 12264.631742 301.42 
L 12271.775763 301.42 
L 12278.919784 301.42 
L 12286.063805 301.42 
L 12293.207826 301.42 
L 12300.351847 301.42 
L 12307.495868 301.42 
L 12314.639889 301.42 
L 12321.78391 301.42 
L 12328.927931 301.42 
L 12336.071952 301.42 
L 12343.215973 301.42 
L 12350.359994 301.42 
L 12357.504015 301.42 
L 12364.648036 301.42 
L 12371.792057 301.42 
L 12378.936078 301.42 
L 12386.080099 301.42 
L 12393.22412 301.42 
L 12400.368141 301.42 
L 12407.512162 301.42 
L 12414.656183 301.42 
L 12421.800204 301.42 
L 12428.944225 301.42 
L 12436.088246 301.42 
L 12443.232267 301.42 
L 12450.376288 301.42 
L 12457.520309 301.42 
L 12464.66433 301.42 
L 12471.808351 301.42 
L 12478.952372 301.42 
L 12486.096393 301.42 
L 12493.240414 301.42 
L 12500.384435 301.42 
L 12507.528456 301.42 
L 12514.672477 301.42 
L 12521.816498 301.42 
L 12528.960519 301.42 
L 12536.10454 301.42 
L 12543.248561 301.42 
L 12550.392582 301.42 
L 12557.536603 301.42 
L 12564.680624 301.42 
L 12571.824645 301.42 
L 12578.968666 301.42 
L 12586.112687 301.42 
L 12593.256708 301.42 
L 12600.400729 301.42 
L 12607.54475 301.42 
L 12614.688771 301.42 
L 12621.832792 301.42 
L 12628.976813 301.42 
L 12636.120834 301.42 
L 12643.264855 301.42 
L 12650.408876 301.42 
L 12657.552897 301.42 
L 12664.696918 301.42 
L 12671.840939 301.42 
L 12678.98496 301.42 
L 12686.128981 301.42 
L 12686.128981 301.419193 
L 12686.128981 301.419193 
L 12678.98496 301.419088 
L 12671.840939 301.418971 
L 12664.696918 301.418841 
L 12657.552897 301.418697 
L 12650.408876 301.418538 
L 12643.264855 301.418362 
L 12636.120834 301.418167 
L 12628.976813 301.417953 
L 12621.832792 301.417718 
L 12614.688771 301.417461 
L 12607.54475 301.417178 
L 12600.400729 301.41687 
L 12593.256708 301.416534 
L 12586.112687 301.416168 
L 12578.968666 301.415771 
L 12571.824645 301.415341 
L 12564.680624 301.414875 
L 12557.536603 301.414372 
L 12550.392582 301.41383 
L 12543.248561 301.413247 
L 12536.10454 301.412622 
L 12528.960519 301.411952 
L 12521.816498 301.411236 
L 12514.672477 301.410472 
L 12507.528456 301.40966 
L 12500.384435 301.408796 
L 12493.240414 301.407881 
L 12486.096393 301.406913 
L 12478.952372 301.405892 
L 12471.808351 301.404816 
L 12464.66433 301.403685 
L 12457.520309 301.402499 
L 12450.376288 301.401259 
L 12443.232267 301.399964 
L 12436.088246 301.398615 
L 12428.944225 301.397213 
L 12421.800204 301.395761 
L 12414.656183 301.394258 
L 12407.512162 301.392708 
L 12400.368141 301.391112 
L 12393.22412 301.389474 
L 12386.080099 301.387796 
L 12378.936078 301.386082 
L 12371.792057 301.384336 
L 12364.648036 301.382563 
L 12357.504015 301.380765 
L 12350.359994 301.378949 
L 12343.215973 301.37712 
L 12336.071952 301.375282 
L 12328.927931 301.373442 
L 12321.78391 301.371605 
L 12314.639889 301.369778 
L 12307.495868 301.367966 
L 12300.351847 301.366176 
L 12293.207826 301.364414 
L 12286.063805 301.362686 
L 12278.919784 301.360999 
L 12271.775763 301.359359 
L 12264.631742 301.357772 
L 12257.487721 301.356244 
L 12250.3437 301.35478 
L 12243.199679 301.353387 
L 12236.055658 301.352068 
L 12228.911636 301.35083 
L 12221.767615 301.349676 
L 12214.623594 301.34861 
L 12207.479573 301.347635 
L 12200.335552 301.346756 
L 12193.191531 301.345973 
L 12186.04751 301.345289 
L 12178.903489 301.344705 
L 12171.759468 301.344222 
L 12164.615447 301.34384 
L 12157.471426 301.343558 
L 12150.327405 301.343376 
L 12143.183384 301.343291 
L 12136.039363 301.343303 
L 12128.895342 301.343407 
L 12121.751321 301.3436 
L 12114.6073 301.34388 
L 12107.463279 301.344241 
L 12100.319258 301.34468 
L 12093.175237 301.345191 
L 12086.031216 301.345769 
L 12078.887195 301.346409 
L 12071.743174 301.347104 
L 12064.599153 301.34785 
L 12057.455132 301.34864 
L 12050.311111 301.349469 
L 12043.16709 301.35033 
L 12036.023069 301.351217 
L 12028.879048 301.352126 
L 12021.735027 301.353049 
L 12014.591006 301.353982 
L 12007.446985 301.35492 
L 12000.302964 301.355859 
L 11993.158943 301.356792 
L 11986.014922 301.357718 
L 11978.870901 301.358631 
L 11971.72688 301.359529 
L 11964.582859 301.360409 
L 11957.438838 301.361268 
L 11950.294817 301.362105 
L 11943.150796 301.362919 
L 11936.006775 301.363708 
L 11928.862754 301.364472 
L 11921.718733 301.365211 
L 11914.574712 301.365926 
L 11907.430691 301.366616 
L 11900.28667 301.367284 
L 11893.142649 301.36793 
L 11885.998628 301.368557 
L 11878.854607 301.369167 
L 11871.710586 301.369761 
L 11864.566565 301.370343 
L 11857.422544 301.370915 
L 11850.278523 301.371479 
L 11843.134502 301.37204 
L 11835.990481 301.372598 
L 11828.84646 301.373158 
L 11821.702439 301.373722 
L 11814.558418 301.374292 
L 11807.414397 301.374872 
L 11800.270376 301.375463 
L 11793.126355 301.376069 
L 11785.982334 301.37669 
L 11778.838313 301.377329 
L 11771.694292 301.377988 
L 11764.550271 301.378667 
L 11757.40625 301.379368 
L 11750.262229 301.380092 
L 11743.118208 301.380839 
L 11735.974187 301.381609 
L 11728.830166 301.382401 
L 11721.686145 301.383217 
L 11714.542124 301.384055 
L 11707.398103 301.384914 
L 11700.254082 301.385793 
L 11693.110061 301.386691 
L 11685.96604 301.387606 
L 11678.822019 301.388536 
L 11671.677998 301.38948 
L 11664.533977 301.390436 
L 11657.389956 301.391401 
L 11650.245935 301.392373 
L 11643.101914 301.39335 
L 11635.957893 301.394329 
L 11628.813872 301.395309 
L 11621.669851 301.396286 
L 11614.52583 301.397258 
L 11607.381809 301.398224 
L 11600.237788 301.39918 
L 11593.093767 301.400125 
L 11585.949746 301.401056 
L 11578.805725 301.401972 
L 11571.661704 301.40287 
L 11564.517683 301.403749 
L 11557.373662 301.404608 
L 11550.22964 301.405444 
L 11543.085619 301.406257 
L 11535.941598 301.407045 
L 11528.797577 301.407808 
L 11521.653556 301.408545 
L 11514.509535 301.409254 
L 11507.365514 301.409936 
L 11500.221493 301.41059 
L 11493.077472 301.411216 
L 11485.933451 301.411814 
L 11478.78943 301.412383 
L 11471.645409 301.412925 
L 11464.501388 301.413439 
L 11457.357367 301.413926 
L 11450.213346 301.414386 
L 11443.069325 301.414819 
L 11435.925304 301.415227 
L 11428.781283 301.41561 
L 11421.637262 301.41597 
L 11414.493241 301.416306 
L 11407.34922 301.416619 
L 11400.205199 301.416911 
L 11393.061178 301.417183 
L 11385.917157 301.417435 
L 11378.773136 301.417668 
L 11371.629115 301.417884 
L 11364.485094 301.418083 
L 11357.341073 301.418266 
L 11350.197052 301.418434 
L 11343.053031 301.418588 
L 11335.90901 301.41873 
L 11328.764989 301.418859 
L 11321.620968 301.418976 
L 11314.476947 301.419083 
L 11307.332926 301.41918 
L 11300.188905 301.419269 
L 11293.044884 301.419348 
L 11285.900863 301.41942 
L 11278.756842 301.419485 
L 11271.612821 301.419544 
L 11264.4688 301.419596 
z
" clip-path="url(#p4f86b308db)" style="fill: #4c72b0; fill-opacity: 0.25; stroke: #4c72b0; stroke-width: 1.5"/>
   </g>
   <g id="patch_3">
    <path d="M 11787.287316 301.42 
L 13867.948746 301.42 
L 13867.948746 301.42 
L 11787.287316 301.42 
z
" clip-path="url(#p4f86b308db)" style="fill: #dd8452; fill-opacity: 0.5; stroke: #ffffff; stroke-width: 1.5; stroke-linejoin: miter"/>
   </g>
   <g id="patch_4">
    <path d="M 13867.948746 301.42 
L 15948.610176 301.42 
L 15948.610176 301.42 
L 13867.948746 301.42 
z
" clip-path="url(#p4f86b308db)" style="fill: #dd8452; fill-opacity: 0.5; stroke: #ffffff; stroke-width: 1.5; stroke-linejoin: miter"/>
   </g>
   <g id="patch_5">
    <path d="M 15948.610176 301.42 
L 18029.271606 301.42 
L 18029.271606 298.380537 
L 15948.610176 298.380537 
z
" clip-path="url(#p4f86b308db)" style="fill: #dd8452; fill-opacity: 0.5; stroke: #ffffff; stroke-width: 1.5; stroke-linejoin: miter"/>
   </g>
   <g id="patch_6">
    <path d="M 18029.271606 301.42 
L 20109.933036 301.42 
L 20109.933036 293.821343 
L 18029.271606 293.821343 
z
" clip-path="url(#p4f86b308db)" style="fill: #dd8452; fill-opacity: 0.5; stroke: #ffffff; stroke-width: 1.5; stroke-linejoin: miter"/>
   </g>
   <g id="patch_7">
    <path d="M 20109.933036 301.42 
L 22190.594466 301.42 
L 22190.594466 298.380537 
L 20109.933036 298.380537 
z
" clip-path="url(#p4f86b308db)" style="fill: #dd8452; fill-opacity: 0.5; stroke: #ffffff; stroke-width: 1.5; stroke-linejoin: miter"/>
   </g>
   <g id="patch_8">
    <path d="M 11787.287316 301.42 
L 13867.948746 301.42 
L 13867.948746 296.860806 
L 11787.287316 296.860806 
z
" clip-path="url(#p4f86b308db)" style="fill: #4c72b0; fill-opacity: 0.5; stroke: #ffffff; stroke-width: 1.5; stroke-linejoin: miter"/>
   </g>
   <g id="patch_9">
    <path d="M 13867.948746 301.42 
L 15948.610176 301.42 
L 15948.610176 301.42 
L 13867.948746 301.42 
z
" clip-path="url(#p4f86b308db)" style="fill: #4c72b0; fill-opacity: 0.5; stroke: #ffffff; stroke-width: 1.5; stroke-linejoin: miter"/>
   </g>
   <g id="patch_10">
    <path d="M 15948.610176 301.42 
L 18029.271606 301.42 
L 18029.271606 301.42 
L 15948.610176 301.42 
z
" clip-path="url(#p4f86b308db)" style="fill: #4c72b0; fill-opacity: 0.5; stroke: #ffffff; stroke-width: 1.5; stroke-linejoin: miter"/>
   </g>
   <g id="patch_11">
    <path d="M 18029.271606 301.42 
L 20109.933036 301.42 
L 20109.933036 301.42 
L 18029.271606 301.42 
z
" clip-path="url(#p4f86b308db)" style="fill: #4c72b0; fill-opacity: 0.5; stroke: #ffffff; stroke-width: 1.5; stroke-linejoin: miter"/>
   </g>
   <g id="patch_12">
    <path d="M 20109.933036 301.42 
L 22190.594466 301.42 
L 22190.594466 301.42 
L 20109.933036 301.42 
z
" clip-path="url(#p4f86b308db)" style="fill: #4c72b0; fill-opacity: 0.5; stroke: #ffffff; stroke-width: 1.5; stroke-linejoin: miter"/>
   </g>
   <g id="LineCollection_1">
    <path clip-path="url(#p4f86b308db)" style="fill: none; stroke: #4c72b0"/>
    <path clip-path="url(#p4f86b308db)" style="fill: none; stroke: #4c72b0"/>
    <path clip-path="url(#p4f86b308db)" style="fill: none; stroke: #4c72b0"/>
    <path clip-path="url(#p4f86b308db)" style="fill: none; stroke: #dd8452"/>
    <path clip-path="url(#p4f86b308db)" style="fill: none; stroke: #dd8452"/>
    <path clip-path="url(#p4f86b308db)" style="fill: none; stroke: #dd8452"/>
    <path clip-path="url(#p4f86b308db)" style="fill: none; stroke: #dd8452"/>
    <path clip-path="url(#p4f86b308db)" style="fill: none; stroke: #dd8452"/>
    <path clip-path="url(#p4f86b308db)" style="fill: none; stroke: #dd8452"/>
    <path clip-path="url(#p4f86b308db)" style="fill: none; stroke: #dd8452"/>
    <path clip-path="url(#p4f86b308db)" style="fill: none; stroke: #dd8452"/>
    <path clip-path="url(#p4f86b308db)" style="fill: none; stroke: #dd8452"/>
   </g>
   <g id="patch_13">
    <path d="M 80.433246 157.805382 
L 180.706086 157.805382 
L 180.706086 155.525785 
L 80.433246 155.525785 
L 80.433246 157.805382 
z
" clip-path="url(#p4f86b308db)" style="fill: #5875a4; stroke: #4c4c4c; stroke-linejoin: miter"/>
   </g>
   <g id="line2d_11">
    <path d="M 130.569666 157.805382 
L 130.569666 160.084979 
" clip-path="url(#p4f86b308db)" style="fill: none; stroke: #4c4c4c"/>
   </g>
   <g id="line2d_12">
    <path d="M 130.569666 155.525785 
L 130.569666 155.525785 
" clip-path="url(#p4f86b308db)" style="fill: none; stroke: #4c4c4c"/>
   </g>
   <g id="line2d_13">
    <path d="M 105.501456 160.084979 
L 155.637876 160.084979 
" clip-path="url(#p4f86b308db)" style="fill: none; stroke: #4c4c4c; stroke-linecap: round"/>
   </g>
   <g id="line2d_14">
    <path d="M 105.501456 155.525785 
L 155.637876 155.525785 
" clip-path="url(#p4f86b308db)" style="fill: none; stroke: #4c4c4c; stroke-linecap: round"/>
   </g>
   <g id="line2d_15"/>
   <g id="patch_14">
    <path d="M 205.774296 84.098409 
L 306.047136 84.098409 
L 306.047136 62.822169 
L 205.774296 62.822169 
L 205.774296 84.098409 
z
" clip-path="url(#p4f86b308db)" style="fill: #cc8963; stroke: #4c4c4c; stroke-linejoin: miter"/>
   </g>
   <g id="line2d_16">
    <path d="M 255.910716 84.098409 
L 255.910716 106.89438 
" clip-path="url(#p4f86b308db)" style="fill: none; stroke: #4c4c4c"/>
   </g>
   <g id="line2d_17">
    <path d="M 255.910716 62.822169 
L 255.910716 33.947273 
" clip-path="url(#p4f86b308db)" style="fill: none; stroke: #4c4c4c"/>
   </g>
   <g id="line2d_18">
    <path d="M 230.842506 106.89438 
L 280.978926 106.89438 
" clip-path="url(#p4f86b308db)" style="fill: none; stroke: #4c4c4c; stroke-linecap: round"/>
   </g>
   <g id="line2d_19">
    <path d="M 230.842506 33.947273 
L 280.978926 33.947273 
" clip-path="url(#p4f86b308db)" style="fill: none; stroke: #4c4c4c; stroke-linecap: round"/>
   </g>
   <g id="line2d_20"/>
   <g id="line2d_21">
    <path d="M 80.433246 155.525785 
L 180.706086 155.525785 
" clip-path="url(#p4f86b308db)" style="fill: none; stroke: #4c4c4c"/>
   </g>
   <g id="line2d_22">
    <path d="M 205.774296 78.019483 
L 306.047136 78.019483 
" clip-path="url(#p4f86b308db)" style="fill: none; stroke: #4c4c4c"/>
   </g>
   <g id="patch_15">
    <path d="M 67.899141 301.42 
L 67.899141 7.2 
" style="fill: none; stroke: #262626; stroke-width: 1.875; stroke-linejoin: miter; stroke-linecap: square"/>
   </g>
   <g id="patch_16">
    <path d="M 67.899141 301.42 
L 318.581241 301.42 
" style="fill: none; stroke: #262626; stroke-width: 1.875; stroke-linejoin: miter; stroke-linecap: square"/>
   </g>
   <g id="legend_1">
    <g id="patch_17">
     <path d="M 79.449141 293.17 
L 237.699609 293.17 
Q 240.999609 293.17 240.999609 289.87 
L 240.999609 244.04125 
Q 240.999609 240.74125 237.699609 240.74125 
L 79.449141 240.74125 
Q 76.149141 240.74125 76.149141 244.04125 
L 76.149141 289.87 
Q 76.149141 293.17 79.449141 293.17 
z
" style="fill: #ffffff; opacity: 0.8; stroke: #cccccc; stroke-width: 1.5; stroke-linejoin: miter"/>
    </g>
    <g id="patch_18">
     <path d="M 82.749141 259.363047 
L 115.749141 259.363047 
L 115.749141 247.813047 
L 82.749141 247.813047 
z
" style="fill: #4c72b0; fill-opacity: 0.5; stroke: #ffffff; stroke-width: 1.5; stroke-linejoin: miter"/>
    </g>
    <g id="text_12">
     <!-- KILO-edByte -->
     <g style="fill: #262626" transform="translate(128.949141 259.363047) scale(0.165 -0.165)">
      <use xlink:href="#ArialMT-4b"/>
      <use xlink:href="#ArialMT-49" x="66.699219"/>
      <use xlink:href="#ArialMT-4c" x="94.482422"/>
      <use xlink:href="#ArialMT-4f" x="150.097656"/>
      <use xlink:href="#ArialMT-2d" x="227.880859"/>
      <use xlink:href="#ArialMT-65" x="261.181641"/>
      <use xlink:href="#ArialMT-64" x="316.796875"/>
      <use xlink:href="#ArialMT-42" x="372.412109"/>
      <use xlink:href="#ArialMT-79" x="439.111328"/>
      <use xlink:href="#ArialMT-74" x="489.111328"/>
      <use xlink:href="#ArialMT-65" x="516.894531"/>
     </g>
    </g>
    <g id="patch_19">
     <path d="M 82.749141 283.097266 
L 115.749141 283.097266 
L 115.749141 271.547266 
L 82.749141 271.547266 
z
" style="fill: #dd8452; fill-opacity: 0.5; stroke: #ffffff; stroke-width: 1.5; stroke-linejoin: miter"/>
    </g>
    <g id="text_13">
     <!-- MEGA-edByte -->
     <g style="fill: #262626" transform="translate(128.949141 283.097266) scale(0.165 -0.165)">
      <use xlink:href="#ArialMT-4d"/>
      <use xlink:href="#ArialMT-45" x="83.300781"/>
      <use xlink:href="#ArialMT-47" x="150"/>
      <use xlink:href="#ArialMT-41" x="227.783203"/>
      <use xlink:href="#ArialMT-2d" x="294.482422"/>
      <use xlink:href="#ArialMT-65" x="327.783203"/>
      <use xlink:href="#ArialMT-64" x="383.398438"/>
      <use xlink:href="#ArialMT-42" x="439.013672"/>
      <use xlink:href="#ArialMT-79" x="505.712891"/>
      <use xlink:href="#ArialMT-74" x="555.712891"/>
      <use xlink:href="#ArialMT-65" x="583.496094"/>
     </g>
    </g>
   </g>
  </g>
  <g id="legend_2">
   <g id="patch_20">
    <path d="M 340.508672 160.714687 
L 373.508672 160.714687 
L 373.508672 149.164687 
L 340.508672 149.164687 
z
" style="fill: #4c72b0; fill-opacity: 0.25; stroke: #4c72b0; stroke-width: 1.5; stroke-linejoin: miter"/>
   </g>
   <g id="text_14">
    <!-- KILO-edByte -->
    <g style="fill: #262626" transform="translate(386.708672 160.714687) scale(0.165 -0.165)">
     <use xlink:href="#ArialMT-4b"/>
     <use xlink:href="#ArialMT-49" x="66.699219"/>
     <use xlink:href="#ArialMT-4c" x="94.482422"/>
     <use xlink:href="#ArialMT-4f" x="150.097656"/>
     <use xlink:href="#ArialMT-2d" x="227.880859"/>
     <use xlink:href="#ArialMT-65" x="261.181641"/>
     <use xlink:href="#ArialMT-64" x="316.796875"/>
     <use xlink:href="#ArialMT-42" x="372.412109"/>
     <use xlink:href="#ArialMT-79" x="439.111328"/>
     <use xlink:href="#ArialMT-74" x="489.111328"/>
     <use xlink:href="#ArialMT-65" x="516.894531"/>
    </g>
   </g>
   <g id="patch_21">
    <path d="M 340.508672 184.448906 
L 373.508672 184.448906 
L 373.508672 172.898906 
L 340.508672 172.898906 
z
" style="fill: #dd8452; fill-opacity: 0.25; stroke: #dd8452; stroke-width: 1.5; stroke-linejoin: miter"/>
   </g>
   <g id="text_15">
    <!-- MEGA-edByte -->
    <g style="fill: #262626" transform="translate(386.708672 184.448906) scale(0.165 -0.165)">
     <use xlink:href="#ArialMT-4d"/>
     <use xlink:href="#ArialMT-45" x="83.300781"/>
     <use xlink:href="#ArialMT-47" x="150"/>
     <use xlink:href="#ArialMT-41" x="227.783203"/>
     <use xlink:href="#ArialMT-2d" x="294.482422"/>
     <use xlink:href="#ArialMT-65" x="327.783203"/>
     <use xlink:href="#ArialMT-64" x="383.398438"/>
     <use xlink:href="#ArialMT-42" x="439.013672"/>
     <use xlink:href="#ArialMT-79" x="505.712891"/>
     <use xlink:href="#ArialMT-74" x="555.712891"/>
     <use xlink:href="#ArialMT-65" x="583.496094"/>
    </g>
   </g>
  </g>
 </g>
 <defs>
  <clipPath id="p4f86b308db">
   <rect x="67.899141" y="7.2" width="250.6821" height="294.22"/>
  </clipPath>
 </defs>
</svg>
