<?xml version="1.0" encoding="utf-8" standalone="no"?>
<!DOCTYPE svg PUBLIC "-//W3C//DTD SVG 1.1//EN"
  "http://www.w3.org/Graphics/SVG/1.1/DTD/svg11.dtd">
<svg xmlns:xlink="http://www.w3.org/1999/xlink" width="507.009141pt" height="336.614531pt" viewBox="0 0 507.009141 336.614531" xmlns="http://www.w3.org/2000/svg" version="1.1">
 <metadata>
  <rdf:RDF xmlns:dc="http://purl.org/dc/elements/1.1/" xmlns:cc="http://creativecommons.org/ns#" xmlns:rdf="http://www.w3.org/1999/02/22-rdf-syntax-ns#">
   <cc:Work>
    <dc:type rdf:resource="http://purl.org/dc/dcmitype/StillImage"/>
    <dc:date>2023-10-30T02:10:36.637930</dc:date>
    <dc:format>image/svg+xml</dc:format>
    <dc:creator>
     <cc:Agent>
      <dc:title>Matplotlib v3.8.0, https://matplotlib.org/</dc:title>
     </cc:Agent>
    </dc:creator>
   </cc:Work>
  </rdf:RDF>
 </metadata>
 <defs>
  <style type="text/css">*{stroke-linejoin: round; stroke-linecap: butt}</style>
 </defs>
 <g id="figure_1">
  <g id="patch_1">
   <path d="M 0 336.614531 
L 507.009141 336.614531 
L 507.009141 0 
L 0 0 
z
" style="fill: #ffffff"/>
  </g>
  <g id="axes_1">
   <g id="patch_2">
    <path d="M 67.899141 301.42 
L 318.581241 301.42 
L 318.581241 7.2 
L 67.899141 7.2 
z
" style="fill: #ffffff"/>
   </g>
   <g id="matplotlib.axis_1">
    <g id="xtick_1">
     <g id="line2d_1">
      <defs>
       <path id="m665efde36b" d="M 0 0 
L 0 9 
" style="stroke: #262626; stroke-width: 1.875"/>
      </defs>
      <g>
       <use xlink:href="#m665efde36b" x="130.569666" y="301.42" style="fill: #262626; stroke: #262626; stroke-width: 1.875"/>
      </g>
     </g>
     <g id="text_1">
      <!-- KILO-edByte -->
      <g style="fill: #262626" transform="translate(83.339705 325.941797) scale(0.165 -0.165)">
       <defs>
        <path id="ArialMT-4b" d="M 469 0 
L 469 4581 
L 1075 4581 
L 1075 2309 
L 3350 4581 
L 4172 4581 
L 2250 2725 
L 4256 0 
L 3456 0 
L 1825 2319 
L 1075 1588 
L 1075 0 
L 469 0 
z
" transform="scale(0.015625)"/>
        <path id="ArialMT-49" d="M 597 0 
L 597 4581 
L 1203 4581 
L 1203 0 
L 597 0 
z
" transform="scale(0.015625)"/>
        <path id="ArialMT-4c" d="M 469 0 
L 469 4581 
L 1075 4581 
L 1075 541 
L 3331 541 
L 3331 0 
L 469 0 
z
" transform="scale(0.015625)"/>
        <path id="ArialMT-4f" d="M 309 2231 
Q 309 3372 921 4017 
Q 1534 4663 2503 4663 
Q 3138 4663 3647 4359 
Q 4156 4056 4423 3514 
Q 4691 2972 4691 2284 
Q 4691 1588 4409 1038 
Q 4128 488 3612 205 
Q 3097 -78 2500 -78 
Q 1853 -78 1343 234 
Q 834 547 571 1087 
Q 309 1628 309 2231 
z
M 934 2222 
Q 934 1394 1379 917 
Q 1825 441 2497 441 
Q 3181 441 3623 922 
Q 4066 1403 4066 2288 
Q 4066 2847 3877 3264 
Q 3688 3681 3323 3911 
Q 2959 4141 2506 4141 
Q 1863 4141 1398 3698 
Q 934 3256 934 2222 
z
" transform="scale(0.015625)"/>
        <path id="ArialMT-2d" d="M 203 1375 
L 203 1941 
L 1931 1941 
L 1931 1375 
L 203 1375 
z
" transform="scale(0.015625)"/>
        <path id="ArialMT-65" d="M 2694 1069 
L 3275 997 
Q 3138 488 2766 206 
Q 2394 -75 1816 -75 
Q 1088 -75 661 373 
Q 234 822 234 1631 
Q 234 2469 665 2931 
Q 1097 3394 1784 3394 
Q 2450 3394 2872 2941 
Q 3294 2488 3294 1666 
Q 3294 1616 3291 1516 
L 816 1516 
Q 847 969 1125 678 
Q 1403 388 1819 388 
Q 2128 388 2347 550 
Q 2566 713 2694 1069 
z
M 847 1978 
L 2700 1978 
Q 2663 2397 2488 2606 
Q 2219 2931 1791 2931 
Q 1403 2931 1139 2672 
Q 875 2413 847 1978 
z
" transform="scale(0.015625)"/>
        <path id="ArialMT-64" d="M 2575 0 
L 2575 419 
Q 2259 -75 1647 -75 
Q 1250 -75 917 144 
Q 584 363 401 755 
Q 219 1147 219 1656 
Q 219 2153 384 2558 
Q 550 2963 881 3178 
Q 1213 3394 1622 3394 
Q 1922 3394 2156 3267 
Q 2391 3141 2538 2938 
L 2538 4581 
L 3097 4581 
L 3097 0 
L 2575 0 
z
M 797 1656 
Q 797 1019 1065 703 
Q 1334 388 1700 388 
Q 2069 388 2326 689 
Q 2584 991 2584 1609 
Q 2584 2291 2321 2609 
Q 2059 2928 1675 2928 
Q 1300 2928 1048 2622 
Q 797 2316 797 1656 
z
" transform="scale(0.015625)"/>
        <path id="ArialMT-42" d="M 469 0 
L 469 4581 
L 2188 4581 
Q 2713 4581 3030 4442 
Q 3347 4303 3526 4014 
Q 3706 3725 3706 3409 
Q 3706 3116 3547 2856 
Q 3388 2597 3066 2438 
Q 3481 2316 3704 2022 
Q 3928 1728 3928 1328 
Q 3928 1006 3792 729 
Q 3656 453 3456 303 
Q 3256 153 2954 76 
Q 2653 0 2216 0 
L 469 0 
z
M 1075 2656 
L 2066 2656 
Q 2469 2656 2644 2709 
Q 2875 2778 2992 2937 
Q 3109 3097 3109 3338 
Q 3109 3566 3000 3739 
Q 2891 3913 2687 3977 
Q 2484 4041 1991 4041 
L 1075 4041 
L 1075 2656 
z
M 1075 541 
L 2216 541 
Q 2509 541 2628 563 
Q 2838 600 2978 687 
Q 3119 775 3209 942 
Q 3300 1109 3300 1328 
Q 3300 1584 3169 1773 
Q 3038 1963 2805 2039 
Q 2572 2116 2134 2116 
L 1075 2116 
L 1075 541 
z
" transform="scale(0.015625)"/>
        <path id="ArialMT-79" d="M 397 -1278 
L 334 -750 
Q 519 -800 656 -800 
Q 844 -800 956 -737 
Q 1069 -675 1141 -563 
Q 1194 -478 1313 -144 
Q 1328 -97 1363 -6 
L 103 3319 
L 709 3319 
L 1400 1397 
Q 1534 1031 1641 628 
Q 1738 1016 1872 1384 
L 2581 3319 
L 3144 3319 
L 1881 -56 
Q 1678 -603 1566 -809 
Q 1416 -1088 1222 -1217 
Q 1028 -1347 759 -1347 
Q 597 -1347 397 -1278 
z
" transform="scale(0.015625)"/>
        <path id="ArialMT-74" d="M 1650 503 
L 1731 6 
Q 1494 -44 1306 -44 
Q 1000 -44 831 53 
Q 663 150 594 308 
Q 525 466 525 972 
L 525 2881 
L 113 2881 
L 113 3319 
L 525 3319 
L 525 4141 
L 1084 4478 
L 1084 3319 
L 1650 3319 
L 1650 2881 
L 1084 2881 
L 1084 941 
Q 1084 700 1114 631 
Q 1144 563 1211 522 
Q 1278 481 1403 481 
Q 1497 481 1650 503 
z
" transform="scale(0.015625)"/>
       </defs>
       <use xlink:href="#ArialMT-4b"/>
       <use xlink:href="#ArialMT-49" x="66.699219"/>
       <use xlink:href="#ArialMT-4c" x="94.482422"/>
       <use xlink:href="#ArialMT-4f" x="150.097656"/>
       <use xlink:href="#ArialMT-2d" x="227.880859"/>
       <use xlink:href="#ArialMT-65" x="261.181641"/>
       <use xlink:href="#ArialMT-64" x="316.796875"/>
       <use xlink:href="#ArialMT-42" x="372.412109"/>
       <use xlink:href="#ArialMT-79" x="439.111328"/>
       <use xlink:href="#ArialMT-74" x="489.111328"/>
       <use xlink:href="#ArialMT-65" x="516.894531"/>
      </g>
     </g>
    </g>
    <g id="xtick_2">
     <g id="line2d_2">
      <g>
       <use xlink:href="#m665efde36b" x="255.910716" y="301.42" style="fill: #262626; stroke: #262626; stroke-width: 1.875"/>
      </g>
     </g>
     <g id="text_2">
      <!-- MEGA-edByte -->
      <g style="fill: #262626" transform="translate(203.185481 325.931484) scale(0.165 -0.165)">
       <defs>
        <path id="ArialMT-4d" d="M 475 0 
L 475 4581 
L 1388 4581 
L 2472 1338 
Q 2622 884 2691 659 
Q 2769 909 2934 1394 
L 4031 4581 
L 4847 4581 
L 4847 0 
L 4263 0 
L 4263 3834 
L 2931 0 
L 2384 0 
L 1059 3900 
L 1059 0 
L 475 0 
z
" transform="scale(0.015625)"/>
        <path id="ArialMT-45" d="M 506 0 
L 506 4581 
L 3819 4581 
L 3819 4041 
L 1113 4041 
L 1113 2638 
L 3647 2638 
L 3647 2100 
L 1113 2100 
L 1113 541 
L 3925 541 
L 3925 0 
L 506 0 
z
" transform="scale(0.015625)"/>
        <path id="ArialMT-47" d="M 2638 1797 
L 2638 2334 
L 4578 2338 
L 4578 638 
Q 4131 281 3656 101 
Q 3181 -78 2681 -78 
Q 2006 -78 1454 211 
Q 903 500 622 1047 
Q 341 1594 341 2269 
Q 341 2938 620 3517 
Q 900 4097 1425 4378 
Q 1950 4659 2634 4659 
Q 3131 4659 3532 4498 
Q 3934 4338 4162 4050 
Q 4391 3763 4509 3300 
L 3963 3150 
Q 3859 3500 3706 3700 
Q 3553 3900 3268 4020 
Q 2984 4141 2638 4141 
Q 2222 4141 1919 4014 
Q 1616 3888 1430 3681 
Q 1244 3475 1141 3228 
Q 966 2803 966 2306 
Q 966 1694 1177 1281 
Q 1388 869 1791 669 
Q 2194 469 2647 469 
Q 3041 469 3416 620 
Q 3791 772 3984 944 
L 3984 1797 
L 2638 1797 
z
" transform="scale(0.015625)"/>
        <path id="ArialMT-41" d="M -9 0 
L 1750 4581 
L 2403 4581 
L 4278 0 
L 3588 0 
L 3053 1388 
L 1138 1388 
L 634 0 
L -9 0 
z
M 1313 1881 
L 2866 1881 
L 2388 3150 
Q 2169 3728 2063 4100 
Q 1975 3659 1816 3225 
L 1313 1881 
z
" transform="scale(0.015625)"/>
       </defs>
       <use xlink:href="#ArialMT-4d"/>
       <use xlink:href="#ArialMT-45" x="83.300781"/>
       <use xlink:href="#ArialMT-47" x="150"/>
       <use xlink:href="#ArialMT-41" x="227.783203"/>
       <use xlink:href="#ArialMT-2d" x="294.482422"/>
       <use xlink:href="#ArialMT-65" x="327.783203"/>
       <use xlink:href="#ArialMT-64" x="383.398438"/>
       <use xlink:href="#ArialMT-42" x="439.013672"/>
       <use xlink:href="#ArialMT-79" x="505.712891"/>
       <use xlink:href="#ArialMT-74" x="555.712891"/>
       <use xlink:href="#ArialMT-65" x="583.496094"/>
      </g>
     </g>
    </g>
   </g>
   <g id="matplotlib.axis_2">
    <g id="ytick_1">
     <g id="line2d_3">
      <defs>
       <path id="m09e4bd44dc" d="M 0 0 
L -9 0 
" style="stroke: #262626; stroke-width: 1.875"/>
      </defs>
      <g>
       <use xlink:href="#m09e4bd44dc" x="67.899141" y="252.859417" style="fill: #262626; stroke: #262626; stroke-width: 1.875"/>
      </g>
     </g>
     <g id="text_3">
      <!-- 100 -->
      <g style="fill: #262626" transform="translate(27.8725 258.764613) scale(0.165 -0.165)">
       <defs>
        <path id="ArialMT-31" d="M 2384 0 
L 1822 0 
L 1822 3584 
Q 1619 3391 1289 3197 
Q 959 3003 697 2906 
L 697 3450 
Q 1169 3672 1522 3987 
Q 1875 4303 2022 4600 
L 2384 4600 
L 2384 0 
z
" transform="scale(0.015625)"/>
        <path id="ArialMT-30" d="M 266 2259 
Q 266 3072 433 3567 
Q 600 4063 929 4331 
Q 1259 4600 1759 4600 
Q 2128 4600 2406 4451 
Q 2684 4303 2865 4023 
Q 3047 3744 3150 3342 
Q 3253 2941 3253 2259 
Q 3253 1453 3087 958 
Q 2922 463 2592 192 
Q 2263 -78 1759 -78 
Q 1097 -78 719 397 
Q 266 969 266 2259 
z
M 844 2259 
Q 844 1131 1108 757 
Q 1372 384 1759 384 
Q 2147 384 2411 759 
Q 2675 1134 2675 2259 
Q 2675 3391 2411 3762 
Q 2147 4134 1753 4134 
Q 1366 4134 1134 3806 
Q 844 3388 844 2259 
z
" transform="scale(0.015625)"/>
       </defs>
       <use xlink:href="#ArialMT-31"/>
       <use xlink:href="#ArialMT-30" x="55.615234"/>
       <use xlink:href="#ArialMT-30" x="111.230469"/>
      </g>
     </g>
    </g>
    <g id="ytick_2">
     <g id="line2d_4">
      <g>
       <use xlink:href="#m09e4bd44dc" x="67.899141" y="195.72932" style="fill: #262626; stroke: #262626; stroke-width: 1.875"/>
      </g>
     </g>
     <g id="text_4">
      <!-- 120 -->
      <g style="fill: #262626" transform="translate(27.8725 201.634516) scale(0.165 -0.165)">
       <defs>
        <path id="ArialMT-32" d="M 3222 541 
L 3222 0 
L 194 0 
Q 188 203 259 391 
Q 375 700 629 1000 
Q 884 1300 1366 1694 
Q 2113 2306 2375 2664 
Q 2638 3022 2638 3341 
Q 2638 3675 2398 3904 
Q 2159 4134 1775 4134 
Q 1369 4134 1125 3890 
Q 881 3647 878 3216 
L 300 3275 
Q 359 3922 746 4261 
Q 1134 4600 1788 4600 
Q 2447 4600 2831 4234 
Q 3216 3869 3216 3328 
Q 3216 3053 3103 2787 
Q 2991 2522 2730 2228 
Q 2469 1934 1863 1422 
Q 1356 997 1212 845 
Q 1069 694 975 541 
L 3222 541 
z
" transform="scale(0.015625)"/>
       </defs>
       <use xlink:href="#ArialMT-31"/>
       <use xlink:href="#ArialMT-32" x="55.615234"/>
       <use xlink:href="#ArialMT-30" x="111.230469"/>
      </g>
     </g>
    </g>
    <g id="ytick_3">
     <g id="line2d_5">
      <g>
       <use xlink:href="#m09e4bd44dc" x="67.899141" y="138.599223" style="fill: #262626; stroke: #262626; stroke-width: 1.875"/>
      </g>
     </g>
     <g id="text_5">
      <!-- 140 -->
      <g style="fill: #262626" transform="translate(27.8725 144.504419) scale(0.165 -0.165)">
       <defs>
        <path id="ArialMT-34" d="M 2069 0 
L 2069 1097 
L 81 1097 
L 81 1613 
L 2172 4581 
L 2631 4581 
L 2631 1613 
L 3250 1613 
L 3250 1097 
L 2631 1097 
L 2631 0 
L 2069 0 
z
M 2069 1613 
L 2069 3678 
L 634 1613 
L 2069 1613 
z
" transform="scale(0.015625)"/>
       </defs>
       <use xlink:href="#ArialMT-31"/>
       <use xlink:href="#ArialMT-34" x="55.615234"/>
       <use xlink:href="#ArialMT-30" x="111.230469"/>
      </g>
     </g>
    </g>
    <g id="ytick_4">
     <g id="line2d_6">
      <g>
       <use xlink:href="#m09e4bd44dc" x="67.899141" y="81.469126" style="fill: #262626; stroke: #262626; stroke-width: 1.875"/>
      </g>
     </g>
     <g id="text_6">
      <!-- 160 -->
      <g style="fill: #262626" transform="translate(27.8725 87.374322) scale(0.165 -0.165)">
       <defs>
        <path id="ArialMT-36" d="M 3184 3459 
L 2625 3416 
Q 2550 3747 2413 3897 
Q 2184 4138 1850 4138 
Q 1581 4138 1378 3988 
Q 1113 3794 959 3422 
Q 806 3050 800 2363 
Q 1003 2672 1297 2822 
Q 1591 2972 1913 2972 
Q 2475 2972 2870 2558 
Q 3266 2144 3266 1488 
Q 3266 1056 3080 686 
Q 2894 316 2569 119 
Q 2244 -78 1831 -78 
Q 1128 -78 684 439 
Q 241 956 241 2144 
Q 241 3472 731 4075 
Q 1159 4600 1884 4600 
Q 2425 4600 2770 4297 
Q 3116 3994 3184 3459 
z
M 888 1484 
Q 888 1194 1011 928 
Q 1134 663 1356 523 
Q 1578 384 1822 384 
Q 2178 384 2434 671 
Q 2691 959 2691 1453 
Q 2691 1928 2437 2201 
Q 2184 2475 1800 2475 
Q 1419 2475 1153 2201 
Q 888 1928 888 1484 
z
" transform="scale(0.015625)"/>
       </defs>
       <use xlink:href="#ArialMT-31"/>
       <use xlink:href="#ArialMT-36" x="55.615234"/>
       <use xlink:href="#ArialMT-30" x="111.230469"/>
      </g>
     </g>
    </g>
    <g id="ytick_5">
     <g id="line2d_7">
      <g>
       <use xlink:href="#m09e4bd44dc" x="67.899141" y="24.339029" style="fill: #262626; stroke: #262626; stroke-width: 1.875"/>
      </g>
     </g>
     <g id="text_7">
      <!-- 180 -->
      <g style="fill: #262626" transform="translate(27.8725 30.244224) scale(0.165 -0.165)">
       <defs>
        <path id="ArialMT-38" d="M 1131 2484 
Q 781 2613 612 2850 
Q 444 3088 444 3419 
Q 444 3919 803 4259 
Q 1163 4600 1759 4600 
Q 2359 4600 2725 4251 
Q 3091 3903 3091 3403 
Q 3091 3084 2923 2848 
Q 2756 2613 2416 2484 
Q 2838 2347 3058 2040 
Q 3278 1734 3278 1309 
Q 3278 722 2862 322 
Q 2447 -78 1769 -78 
Q 1091 -78 675 323 
Q 259 725 259 1325 
Q 259 1772 486 2073 
Q 713 2375 1131 2484 
z
M 1019 3438 
Q 1019 3113 1228 2906 
Q 1438 2700 1772 2700 
Q 2097 2700 2305 2904 
Q 2513 3109 2513 3406 
Q 2513 3716 2298 3927 
Q 2084 4138 1766 4138 
Q 1444 4138 1231 3931 
Q 1019 3725 1019 3438 
z
M 838 1322 
Q 838 1081 952 856 
Q 1066 631 1291 507 
Q 1516 384 1775 384 
Q 2178 384 2440 643 
Q 2703 903 2703 1303 
Q 2703 1709 2433 1975 
Q 2163 2241 1756 2241 
Q 1359 2241 1098 1978 
Q 838 1716 838 1322 
z
" transform="scale(0.015625)"/>
       </defs>
       <use xlink:href="#ArialMT-31"/>
       <use xlink:href="#ArialMT-38" x="55.615234"/>
       <use xlink:href="#ArialMT-30" x="111.230469"/>
      </g>
     </g>
    </g>
    <g id="text_8">
     <!-- Density -->
     <g style="fill: #262626" transform="translate(20.084062 184.319375) rotate(-90) scale(0.18 -0.18)">
      <defs>
       <path id="ArialMT-44" d="M 494 0 
L 494 4581 
L 2072 4581 
Q 2606 4581 2888 4516 
Q 3281 4425 3559 4188 
Q 3922 3881 4101 3404 
Q 4281 2928 4281 2316 
Q 4281 1794 4159 1391 
Q 4038 988 3847 723 
Q 3656 459 3429 307 
Q 3203 156 2883 78 
Q 2563 0 2147 0 
L 494 0 
z
M 1100 541 
L 2078 541 
Q 2531 541 2789 625 
Q 3047 709 3200 863 
Q 3416 1078 3536 1442 
Q 3656 1806 3656 2325 
Q 3656 3044 3420 3430 
Q 3184 3816 2847 3947 
Q 2603 4041 2063 4041 
L 1100 4041 
L 1100 541 
z
" transform="scale(0.015625)"/>
       <path id="ArialMT-6e" d="M 422 0 
L 422 3319 
L 928 3319 
L 928 2847 
Q 1294 3394 1984 3394 
Q 2284 3394 2536 3286 
Q 2788 3178 2913 3003 
Q 3038 2828 3088 2588 
Q 3119 2431 3119 2041 
L 3119 0 
L 2556 0 
L 2556 2019 
Q 2556 2363 2490 2533 
Q 2425 2703 2258 2804 
Q 2091 2906 1866 2906 
Q 1506 2906 1245 2678 
Q 984 2450 984 1813 
L 984 0 
L 422 0 
z
" transform="scale(0.015625)"/>
       <path id="ArialMT-73" d="M 197 991 
L 753 1078 
Q 800 744 1014 566 
Q 1228 388 1613 388 
Q 2000 388 2187 545 
Q 2375 703 2375 916 
Q 2375 1106 2209 1216 
Q 2094 1291 1634 1406 
Q 1016 1563 777 1677 
Q 538 1791 414 1992 
Q 291 2194 291 2438 
Q 291 2659 392 2848 
Q 494 3038 669 3163 
Q 800 3259 1026 3326 
Q 1253 3394 1513 3394 
Q 1903 3394 2198 3281 
Q 2494 3169 2634 2976 
Q 2775 2784 2828 2463 
L 2278 2388 
Q 2241 2644 2061 2787 
Q 1881 2931 1553 2931 
Q 1166 2931 1000 2803 
Q 834 2675 834 2503 
Q 834 2394 903 2306 
Q 972 2216 1119 2156 
Q 1203 2125 1616 2013 
Q 2213 1853 2448 1751 
Q 2684 1650 2818 1456 
Q 2953 1263 2953 975 
Q 2953 694 2789 445 
Q 2625 197 2315 61 
Q 2006 -75 1616 -75 
Q 969 -75 630 194 
Q 291 463 197 991 
z
" transform="scale(0.015625)"/>
       <path id="ArialMT-69" d="M 425 3934 
L 425 4581 
L 988 4581 
L 988 3934 
L 425 3934 
z
M 425 0 
L 425 3319 
L 988 3319 
L 988 0 
L 425 0 
z
" transform="scale(0.015625)"/>
      </defs>
      <use xlink:href="#ArialMT-44"/>
      <use xlink:href="#ArialMT-65" x="72.216797"/>
      <use xlink:href="#ArialMT-6e" x="127.832031"/>
      <use xlink:href="#ArialMT-73" x="183.447266"/>
      <use xlink:href="#ArialMT-69" x="233.447266"/>
      <use xlink:href="#ArialMT-74" x="255.664062"/>
      <use xlink:href="#ArialMT-79" x="283.447266"/>
     </g>
    </g>
   </g>
   <g id="PolyCollection_1">
    <path d="M 12172.89539 538.509787 
L 12172.89539 538.509903 
L 12243.342766 538.509903 
L 12313.790141 538.509903 
L 12384.237517 538.509903 
L 12454.684893 538.509903 
L 12525.132268 538.509903 
L 12595.579644 538.509903 
L 12666.02702 538.509903 
L 12736.474395 538.509903 
L 12806.921771 538.509903 
L 12877.369147 538.509903 
L 12947.816522 538.509903 
L 13018.263898 538.509903 
L 13088.711273 538.509903 
L 13159.158649 538.509903 
L 13229.606025 538.509903 
L 13300.0534 538.509903 
L 13370.500776 538.509903 
L 13440.948152 538.509903 
L 13511.395527 538.509903 
L 13581.842903 538.509903 
L 13652.290279 538.509903 
L 13722.737654 538.509903 
L 13793.18503 538.509903 
L 13863.632405 538.509903 
L 13934.079781 538.509903 
L 14004.527157 538.509903 
L 14074.974532 538.509903 
L 14145.421908 538.509903 
L 14215.869284 538.509903 
L 14286.316659 538.509903 
L 14356.764035 538.509903 
L 14427.21141 538.509903 
L 14497.658786 538.509903 
L 14568.106162 538.509903 
L 14638.553537 538.509903 
L 14709.000913 538.509903 
L 14779.448289 538.509903 
L 14849.895664 538.509903 
L 14920.34304 538.509903 
L 14990.790416 538.509903 
L 15061.237791 538.509903 
L 15131.685167 538.509903 
L 15202.132542 538.509903 
L 15272.579918 538.509903 
L 15343.027294 538.509903 
L 15413.474669 538.509903 
L 15483.922045 538.509903 
L 15554.369421 538.509903 
L 15624.816796 538.509903 
L 15695.264172 538.509903 
L 15765.711547 538.509903 
L 15836.158923 538.509903 
L 15906.606299 538.509903 
L 15977.053674 538.509903 
L 16047.50105 538.509903 
L 16117.948426 538.509903 
L 16188.395801 538.509903 
L 16258.843177 538.509903 
L 16329.290553 538.509903 
L 16399.737928 538.509903 
L 16470.185304 538.509903 
L 16540.632679 538.509903 
L 16611.080055 538.509903 
L 16681.527431 538.509903 
L 16751.974806 538.509903 
L 16822.422182 538.509903 
L 16892.869558 538.509903 
L 16963.316933 538.509903 
L 17033.764309 538.509903 
L 17104.211684 538.509903 
L 17174.65906 538.509903 
L 17245.106436 538.509903 
L 17315.553811 538.509903 
L 17386.001187 538.509903 
L 17456.448563 538.509903 
L 17526.895938 538.509903 
L 17597.343314 538.509903 
L 17667.79069 538.509903 
L 17738.238065 538.509903 
L 17808.685441 538.509903 
L 17879.132816 538.509903 
L 17949.580192 538.509903 
L 18020.027568 538.509903 
L 18090.474943 538.509903 
L 18160.922319 538.509903 
L 18231.369695 538.509903 
L 18301.81707 538.509903 
L 18372.264446 538.509903 
L 18442.711821 538.509903 
L 18513.159197 538.509903 
L 18583.606573 538.509903 
L 18654.053948 538.509903 
L 18724.501324 538.509903 
L 18794.9487 538.509903 
L 18865.396075 538.509903 
L 18935.843451 538.509903 
L 19006.290827 538.509903 
L 19076.738202 538.509903 
L 19147.185578 538.509903 
L 19217.632953 538.509903 
L 19288.080329 538.509903 
L 19358.527705 538.509903 
L 19428.97508 538.509903 
L 19499.422456 538.509903 
L 19569.869832 538.509903 
L 19640.317207 538.509903 
L 19710.764583 538.509903 
L 19781.211958 538.509903 
L 19851.659334 538.509903 
L 19922.10671 538.509903 
L 19992.554085 538.509903 
L 20063.001461 538.509903 
L 20133.448837 538.509903 
L 20203.896212 538.509903 
L 20274.343588 538.509903 
L 20344.790964 538.509903 
L 20415.238339 538.509903 
L 20485.685715 538.509903 
L 20556.13309 538.509903 
L 20626.580466 538.509903 
L 20697.027842 538.509903 
L 20767.475217 538.509903 
L 20837.922593 538.509903 
L 20908.369969 538.509903 
L 20978.817344 538.509903 
L 21049.26472 538.509903 
L 21119.712096 538.509903 
L 21190.159471 538.509903 
L 21260.606847 538.509903 
L 21331.054222 538.509903 
L 21401.501598 538.509903 
L 21471.948974 538.509903 
L 21542.396349 538.509903 
L 21612.843725 538.509903 
L 21683.291101 538.509903 
L 21753.738476 538.509903 
L 21824.185852 538.509903 
L 21894.633227 538.509903 
L 21965.080603 538.509903 
L 22035.527979 538.509903 
L 22105.975354 538.509903 
L 22176.42273 538.509903 
L 22246.870106 538.509903 
L 22317.317481 538.509903 
L 22387.764857 538.509903 
L 22458.212233 538.509903 
L 22528.659608 538.509903 
L 22599.106984 538.509903 
L 22669.554359 538.509903 
L 22740.001735 538.509903 
L 22810.449111 538.509903 
L 22880.896486 538.509903 
L 22951.343862 538.509903 
L 23021.791238 538.509903 
L 23092.238613 538.509903 
L 23162.685989 538.509903 
L 23233.133364 538.509903 
L 23303.58074 538.509903 
L 23374.028116 538.509903 
L 23444.475491 538.509903 
L 23514.922867 538.509903 
L 23585.370243 538.509903 
L 23655.817618 538.509903 
L 23726.264994 538.509903 
L 23796.71237 538.509903 
L 23867.159745 538.509903 
L 23937.607121 538.509903 
L 24008.054496 538.509903 
L 24078.501872 538.509903 
L 24148.949248 538.509903 
L 24219.396623 538.509903 
L 24289.843999 538.509903 
L 24360.291375 538.509903 
L 24430.73875 538.509903 
L 24501.186126 538.509903 
L 24571.633501 538.509903 
L 24642.080877 538.509903 
L 24712.528253 538.509903 
L 24782.975628 538.509903 
L 24853.423004 538.509903 
L 24923.87038 538.509903 
L 24994.317755 538.509903 
L 25064.765131 538.509903 
L 25135.212507 538.509903 
L 25205.659882 538.509903 
L 25276.107258 538.509903 
L 25346.554633 538.509903 
L 25417.002009 538.509903 
L 25487.449385 538.509903 
L 25557.89676 538.509903 
L 25628.344136 538.509903 
L 25698.791512 538.509903 
L 25769.238887 538.509903 
L 25839.686263 538.509903 
L 25910.133638 538.509903 
L 25980.581014 538.509903 
L 26051.02839 538.509903 
L 26121.475765 538.509903 
L 26191.923141 538.509903 
L 26191.923141 538.509729 
L 26191.923141 538.509729 
L 26121.475765 538.509699 
L 26051.02839 538.509665 
L 25980.581014 538.509625 
L 25910.133638 538.50958 
L 25839.686263 538.509528 
L 25769.238887 538.50947 
L 25698.791512 538.509403 
L 25628.344136 538.509328 
L 25557.89676 538.509244 
L 25487.449385 538.509149 
L 25417.002009 538.509043 
L 25346.554633 538.508925 
L 25276.107258 538.508794 
L 25205.659882 538.508649 
L 25135.212507 538.508488 
L 25064.765131 538.508312 
L 24994.317755 538.508118 
L 24923.87038 538.507906 
L 24853.423004 538.507675 
L 24782.975628 538.507425 
L 24712.528253 538.507154 
L 24642.080877 538.506861 
L 24571.633501 538.506546 
L 24501.186126 538.50621 
L 24430.73875 538.50585 
L 24360.291375 538.505467 
L 24289.843999 538.505062 
L 24219.396623 538.504634 
L 24148.949248 538.504184 
L 24078.501872 538.503712 
L 24008.054496 538.503219 
L 23937.607121 538.502706 
L 23867.159745 538.502174 
L 23796.71237 538.501625 
L 23726.264994 538.501061 
L 23655.817618 538.500483 
L 23585.370243 538.499894 
L 23514.922867 538.499296 
L 23444.475491 538.498691 
L 23374.028116 538.498082 
L 23303.58074 538.497471 
L 23233.133364 538.496862 
L 23162.685989 538.496257 
L 23092.238613 538.495659 
L 23021.791238 538.495071 
L 22951.343862 538.494495 
L 22880.896486 538.493935 
L 22810.449111 538.493392 
L 22740.001735 538.492869 
L 22669.554359 538.492368 
L 22599.106984 538.491891 
L 22528.659608 538.491439 
L 22458.212233 538.491013 
L 22387.764857 538.490613 
L 22317.317481 538.490242 
L 22246.870106 538.489897 
L 22176.42273 538.489579 
L 22105.975354 538.489287 
L 22035.527979 538.489019 
L 21965.080603 538.488773 
L 21894.633227 538.488549 
L 21824.185852 538.488342 
L 21753.738476 538.48815 
L 21683.291101 538.48797 
L 21612.843725 538.487799 
L 21542.396349 538.487632 
L 21471.948974 538.487466 
L 21401.501598 538.487296 
L 21331.054222 538.48712 
L 21260.606847 538.486931 
L 21190.159471 538.486728 
L 21119.712096 538.486505 
L 21049.26472 538.486258 
L 20978.817344 538.485985 
L 20908.369969 538.485681 
L 20837.922593 538.485344 
L 20767.475217 538.484971 
L 20697.027842 538.484559 
L 20626.580466 538.484108 
L 20556.13309 538.483616 
L 20485.685715 538.483081 
L 20415.238339 538.482505 
L 20344.790964 538.481886 
L 20274.343588 538.481226 
L 20203.896212 538.480527 
L 20133.448837 538.479789 
L 20063.001461 538.479017 
L 19992.554085 538.478212 
L 19922.10671 538.477379 
L 19851.659334 538.476521 
L 19781.211958 538.475642 
L 19710.764583 538.474749 
L 19640.317207 538.473844 
L 19569.869832 538.472935 
L 19499.422456 538.472026 
L 19428.97508 538.471124 
L 19358.527705 538.470233 
L 19288.080329 538.469361 
L 19217.632953 538.468512 
L 19147.185578 538.467694 
L 19076.738202 538.46691 
L 19006.290827 538.466167 
L 18935.843451 538.465471 
L 18865.396075 538.464825 
L 18794.9487 538.464234 
L 18724.501324 538.463702 
L 18654.053948 538.463233 
L 18583.606573 538.462831 
L 18513.159197 538.462497 
L 18442.711821 538.462235 
L 18372.264446 538.462045 
L 18301.81707 538.461928 
L 18231.369695 538.461886 
L 18160.922319 538.461919 
L 18090.474943 538.462025 
L 18020.027568 538.462205 
L 17949.580192 538.462457 
L 17879.132816 538.462779 
L 17808.685441 538.463168 
L 17738.238065 538.463624 
L 17667.79069 538.464142 
L 17597.343314 538.46472 
L 17526.895938 538.465355 
L 17456.448563 538.466043 
L 17386.001187 538.46678 
L 17315.553811 538.467564 
L 17245.106436 538.46839 
L 17174.65906 538.469255 
L 17104.211684 538.470155 
L 17033.764309 538.471086 
L 16963.316933 538.472045 
L 16892.869558 538.473029 
L 16822.422182 538.474033 
L 16751.974806 538.475055 
L 16681.527431 538.476091 
L 16611.080055 538.477139 
L 16540.632679 538.478196 
L 16470.185304 538.479258 
L 16399.737928 538.480323 
L 16329.290553 538.48139 
L 16258.843177 538.482454 
L 16188.395801 538.483514 
L 16117.948426 538.484568 
L 16047.50105 538.485614 
L 15977.053674 538.48665 
L 15906.606299 538.487674 
L 15836.158923 538.488684 
L 15765.711547 538.489679 
L 15695.264172 538.490657 
L 15624.816796 538.491616 
L 15554.369421 538.492555 
L 15483.922045 538.493473 
L 15413.474669 538.494368 
L 15343.027294 538.49524 
L 15272.579918 538.496086 
L 15202.132542 538.496908 
L 15131.685167 538.497702 
L 15061.237791 538.498469 
L 14990.790416 538.499209 
L 14920.34304 538.499919 
L 14849.895664 538.500601 
L 14779.448289 538.501253 
L 14709.000913 538.501876 
L 14638.553537 538.502469 
L 14568.106162 538.503033 
L 14497.658786 538.503568 
L 14427.21141 538.504073 
L 14356.764035 538.50455 
L 14286.316659 538.504999 
L 14215.869284 538.50542 
L 14145.421908 538.505814 
L 14074.974532 538.506182 
L 14004.527157 538.506524 
L 13934.079781 538.506843 
L 13863.632405 538.507137 
L 13793.18503 538.50741 
L 13722.737654 538.50766 
L 13652.290279 538.507891 
L 13581.842903 538.508102 
L 13511.395527 538.508295 
L 13440.948152 538.508471 
L 13370.500776 538.50863 
L 13300.0534 538.508775 
L 13229.606025 538.508906 
L 13159.158649 538.509023 
L 13088.711273 538.509129 
L 13018.263898 538.509224 
L 12947.816522 538.509309 
L 12877.369147 538.509384 
L 12806.921771 538.509451 
L 12736.474395 538.509511 
L 12666.02702 538.509563 
L 12595.579644 538.509609 
L 12525.132268 538.50965 
L 12454.684893 538.509685 
L 12384.237517 538.509716 
L 12313.790141 538.509743 
L 12243.342766 538.509767 
L 12172.89539 538.509787 
z
" clip-path="url(#p74462ad428)" style="fill: #dd8452; fill-opacity: 0.25; stroke: #dd8452; stroke-width: 1.5"/>
   </g>
   <g id="PolyCollection_2">
    <path d="M 11264.4688 538.509144 
L 11264.4688 538.509903 
L 11271.612821 538.509903 
L 11278.756842 538.509903 
L 11285.900863 538.509903 
L 11293.044884 538.509903 
L 11300.188905 538.509903 
L 11307.332926 538.509903 
L 11314.476947 538.509903 
L 11321.620968 538.509903 
L 11328.764989 538.509903 
L 11335.90901 538.509903 
L 11343.053031 538.509903 
L 11350.197052 538.509903 
L 11357.341073 538.509903 
L 11364.485094 538.509903 
L 11371.629115 538.509903 
L 11378.773136 538.509903 
L 11385.917157 538.509903 
L 11393.061178 538.509903 
L 11400.205199 538.509903 
L 11407.34922 538.509903 
L 11414.493241 538.509903 
L 11421.637262 538.509903 
L 11428.781283 538.509903 
L 11435.925304 538.509903 
L 11443.069325 538.509903 
L 11450.213346 538.509903 
L 11457.357367 538.509903 
L 11464.501388 538.509903 
L 11471.645409 538.509903 
L 11478.78943 538.509903 
L 11485.933451 538.509903 
L 11493.077472 538.509903 
L 11500.221493 538.509903 
L 11507.365514 538.509903 
L 11514.509535 538.509903 
L 11521.653556 538.509903 
L 11528.797577 538.509903 
L 11535.941598 538.509903 
L 11543.085619 538.509903 
L 11550.22964 538.509903 
L 11557.373662 538.509903 
L 11564.517683 538.509903 
L 11571.661704 538.509903 
L 11578.805725 538.509903 
L 11585.949746 538.509903 
L 11593.093767 538.509903 
L 11600.237788 538.509903 
L 11607.381809 538.509903 
L 11614.52583 538.509903 
L 11621.669851 538.509903 
L 11628.813872 538.509903 
L 11635.957893 538.509903 
L 11643.101914 538.509903 
L 11650.245935 538.509903 
L 11657.389956 538.509903 
L 11664.533977 538.509903 
L 11671.677998 538.509903 
L 11678.822019 538.509903 
L 11685.96604 538.509903 
L 11693.110061 538.509903 
L 11700.254082 538.509903 
L 11707.398103 538.509903 
L 11714.542124 538.509903 
L 11721.686145 538.509903 
L 11728.830166 538.509903 
L 11735.974187 538.509903 
L 11743.118208 538.509903 
L 11750.262229 538.509903 
L 11757.40625 538.509903 
L 11764.550271 538.509903 
L 11771.694292 538.509903 
L 11778.838313 538.509903 
L 11785.982334 538.509903 
L 11793.126355 538.509903 
L 11800.270376 538.509903 
L 11807.414397 538.509903 
L 11814.558418 538.509903 
L 11821.702439 538.509903 
L 11828.84646 538.509903 
L 11835.990481 538.509903 
L 11843.134502 538.509903 
L 11850.278523 538.509903 
L 11857.422544 538.509903 
L 11864.566565 538.509903 
L 11871.710586 538.509903 
L 11878.854607 538.509903 
L 11885.998628 538.509903 
L 11893.142649 538.509903 
L 11900.28667 538.509903 
L 11907.430691 538.509903 
L 11914.574712 538.509903 
L 11921.718733 538.509903 
L 11928.862754 538.509903 
L 11936.006775 538.509903 
L 11943.150796 538.509903 
L 11950.294817 538.509903 
L 11957.438838 538.509903 
L 11964.582859 538.509903 
L 11971.72688 538.509903 
L 11978.870901 538.509903 
L 11986.014922 538.509903 
L 11993.158943 538.509903 
L 12000.302964 538.509903 
L 12007.446985 538.509903 
L 12014.591006 538.509903 
L 12021.735027 538.509903 
L 12028.879048 538.509903 
L 12036.023069 538.509903 
L 12043.16709 538.509903 
L 12050.311111 538.509903 
L 12057.455132 538.509903 
L 12064.599153 538.509903 
L 12071.743174 538.509903 
L 12078.887195 538.509903 
L 12086.031216 538.509903 
L 12093.175237 538.509903 
L 12100.319258 538.509903 
L 12107.463279 538.509903 
L 12114.6073 538.509903 
L 12121.751321 538.509903 
L 12128.895342 538.509903 
L 12136.039363 538.509903 
L 12143.183384 538.509903 
L 12150.327405 538.509903 
L 12157.471426 538.509903 
L 12164.615447 538.509903 
L 12171.759468 538.509903 
L 12178.903489 538.509903 
L 12186.04751 538.509903 
L 12193.191531 538.509903 
L 12200.335552 538.509903 
L 12207.479573 538.509903 
L 12214.623594 538.509903 
L 12221.767615 538.509903 
L 12228.911636 538.509903 
L 12236.055658 538.509903 
L 12243.199679 538.509903 
L 12250.3437 538.509903 
L 12257.487721 538.509903 
L 12264.631742 538.509903 
L 12271.775763 538.509903 
L 12278.919784 538.509903 
L 12286.063805 538.509903 
L 12293.207826 538.509903 
L 12300.351847 538.509903 
L 12307.495868 538.509903 
L 12314.639889 538.509903 
L 12321.78391 538.509903 
L 12328.927931 538.509903 
L 12336.071952 538.509903 
L 12343.215973 538.509903 
L 12350.359994 538.509903 
L 12357.504015 538.509903 
L 12364.648036 538.509903 
L 12371.792057 538.509903 
L 12378.936078 538.509903 
L 12386.080099 538.509903 
L 12393.22412 538.509903 
L 12400.368141 538.509903 
L 12407.512162 538.509903 
L 12414.656183 538.509903 
L 12421.800204 538.509903 
L 12428.944225 538.509903 
L 12436.088246 538.509903 
L 12443.232267 538.509903 
L 12450.376288 538.509903 
L 12457.520309 538.509903 
L 12464.66433 538.509903 
L 12471.808351 538.509903 
L 12478.952372 538.509903 
L 12486.096393 538.509903 
L 12493.240414 538.509903 
L 12500.384435 538.509903 
L 12507.528456 538.509903 
L 12514.672477 538.509903 
L 12521.816498 538.509903 
L 12528.960519 538.509903 
L 12536.10454 538.509903 
L 12543.248561 538.509903 
L 12550.392582 538.509903 
L 12557.536603 538.509903 
L 12564.680624 538.509903 
L 12571.824645 538.509903 
L 12578.968666 538.509903 
L 12586.112687 538.509903 
L 12593.256708 538.509903 
L 12600.400729 538.509903 
L 12607.54475 538.509903 
L 12614.688771 538.509903 
L 12621.832792 538.509903 
L 12628.976813 538.509903 
L 12636.120834 538.509903 
L 12643.264855 538.509903 
L 12650.408876 538.509903 
L 12657.552897 538.509903 
L 12664.696918 538.509903 
L 12671.840939 538.509903 
L 12678.98496 538.509903 
L 12686.128981 538.509903 
L 12686.128981 538.508385 
L 12686.128981 538.508385 
L 12678.98496 538.508188 
L 12671.840939 538.507969 
L 12664.696918 538.507725 
L 12657.552897 538.507454 
L 12650.408876 538.507154 
L 12643.264855 538.506823 
L 12636.120834 538.506458 
L 12628.976813 538.506056 
L 12621.832792 538.505614 
L 12614.688771 538.50513 
L 12607.54475 538.504599 
L 12600.400729 538.50402 
L 12593.256708 538.503388 
L 12586.112687 538.502701 
L 12578.968666 538.501954 
L 12571.824645 538.501145 
L 12564.680624 538.500269 
L 12557.536603 538.499324 
L 12550.392582 538.498306 
L 12543.248561 538.49721 
L 12536.10454 538.496035 
L 12528.960519 538.494776 
L 12521.816498 538.49343 
L 12514.672477 538.491995 
L 12507.528456 538.490467 
L 12500.384435 538.488844 
L 12493.240414 538.487124 
L 12486.096393 538.485305 
L 12478.952372 538.483385 
L 12471.808351 538.481362 
L 12464.66433 538.479237 
L 12457.520309 538.477008 
L 12450.376288 538.474676 
L 12443.232267 538.472242 
L 12436.088246 538.469707 
L 12428.944225 538.467073 
L 12421.800204 538.464342 
L 12414.656183 538.461518 
L 12407.512162 538.458604 
L 12400.368141 538.455604 
L 12393.22412 538.452525 
L 12386.080099 538.449372 
L 12378.936078 538.446151 
L 12371.792057 538.442869 
L 12364.648036 538.439535 
L 12357.504015 538.436157 
L 12350.359994 538.432744 
L 12343.215973 538.429305 
L 12336.071952 538.425851 
L 12328.927931 538.422392 
L 12321.78391 538.41894 
L 12314.639889 538.415505 
L 12307.495868 538.412099 
L 12300.351847 538.408734 
L 12293.207826 538.405422 
L 12286.063805 538.402175 
L 12278.919784 538.399004 
L 12271.775763 538.395921 
L 12264.631742 538.392938 
L 12257.487721 538.390066 
L 12250.3437 538.387315 
L 12243.199679 538.384696 
L 12236.055658 538.382218 
L 12228.911636 538.37989 
L 12221.767615 538.377721 
L 12214.623594 538.375717 
L 12207.479573 538.373886 
L 12200.335552 538.372232 
L 12193.191531 538.370761 
L 12186.04751 538.369475 
L 12178.903489 538.368378 
L 12171.759468 538.36747 
L 12164.615447 538.366751 
L 12157.471426 538.366222 
L 12150.327405 538.365879 
L 12143.183384 538.365721 
L 12136.039363 538.365741 
L 12128.895342 538.365937 
L 12121.751321 538.366301 
L 12114.6073 538.366826 
L 12107.463279 538.367506 
L 12100.319258 538.36833 
L 12093.175237 538.36929 
L 12086.031216 538.370377 
L 12078.887195 538.371579 
L 12071.743174 538.372887 
L 12064.599153 538.374289 
L 12057.455132 538.375775 
L 12050.311111 538.377332 
L 12043.16709 538.37895 
L 12036.023069 538.380618 
L 12028.879048 538.382325 
L 12021.735027 538.384061 
L 12014.591006 538.385815 
L 12007.446985 538.387579 
L 12000.302964 538.389342 
L 11993.158943 538.391097 
L 11986.014922 538.392836 
L 11978.870901 538.394553 
L 11971.72688 538.39624 
L 11964.582859 538.397894 
L 11957.438838 538.39951 
L 11950.294817 538.401083 
L 11943.150796 538.402613 
L 11936.006775 538.404096 
L 11928.862754 538.405532 
L 11921.718733 538.406921 
L 11914.574712 538.408264 
L 11907.430691 538.409562 
L 11900.28667 538.410817 
L 11893.142649 538.412032 
L 11885.998628 538.41321 
L 11878.854607 538.414356 
L 11871.710586 538.415473 
L 11864.566565 538.416567 
L 11857.422544 538.417642 
L 11850.278523 538.418703 
L 11843.134502 538.419756 
L 11835.990481 538.420806 
L 11828.84646 538.421858 
L 11821.702439 538.422917 
L 11814.558418 538.42399 
L 11807.414397 538.425079 
L 11800.270376 538.426191 
L 11793.126355 538.427329 
L 11785.982334 538.428497 
L 11778.838313 538.429699 
L 11771.694292 538.430937 
L 11764.550271 538.432214 
L 11757.40625 538.433531 
L 11750.262229 538.434892 
L 11743.118208 538.436295 
L 11735.974187 538.437742 
L 11728.830166 538.439232 
L 11721.686145 538.440765 
L 11714.542124 538.44234 
L 11707.398103 538.443954 
L 11700.254082 538.445607 
L 11693.110061 538.447294 
L 11685.96604 538.449014 
L 11678.822019 538.450763 
L 11671.677998 538.452537 
L 11664.533977 538.454334 
L 11657.389956 538.456147 
L 11650.245935 538.457975 
L 11643.101914 538.459811 
L 11635.957893 538.461652 
L 11628.813872 538.463493 
L 11621.669851 538.465329 
L 11614.52583 538.467157 
L 11607.381809 538.468972 
L 11600.237788 538.470769 
L 11593.093767 538.472545 
L 11585.949746 538.474295 
L 11578.805725 538.476016 
L 11571.661704 538.477705 
L 11564.517683 538.479357 
L 11557.373662 538.480971 
L 11550.22964 538.482543 
L 11543.085619 538.484071 
L 11535.941598 538.485553 
L 11528.797577 538.486987 
L 11521.653556 538.488371 
L 11514.509535 538.489705 
L 11507.365514 538.490987 
L 11500.221493 538.492216 
L 11493.077472 538.493393 
L 11485.933451 538.494516 
L 11478.78943 538.495587 
L 11471.645409 538.496605 
L 11464.501388 538.497571 
L 11457.357367 538.498486 
L 11450.213346 538.49935 
L 11443.069325 538.500165 
L 11435.925304 538.500932 
L 11428.781283 538.501652 
L 11421.637262 538.502327 
L 11414.493241 538.502959 
L 11407.34922 538.503548 
L 11400.205199 538.504097 
L 11393.061178 538.504608 
L 11385.917157 538.505081 
L 11378.773136 538.50552 
L 11371.629115 538.505925 
L 11364.485094 538.506299 
L 11357.341073 538.506643 
L 11350.197052 538.50696 
L 11343.053031 538.50725 
L 11335.90901 538.507515 
L 11328.764989 538.507757 
L 11321.620968 538.507979 
L 11314.476947 538.50818 
L 11307.332926 538.508362 
L 11300.188905 538.508528 
L 11293.044884 538.508678 
L 11285.900863 538.508813 
L 11278.756842 538.508935 
L 11271.612821 538.509045 
L 11264.4688 538.509144 
z
" clip-path="url(#p74462ad428)" style="fill: #4c72b0; fill-opacity: 0.25; stroke: #4c72b0; stroke-width: 1.5"/>
   </g>
   <g id="patch_3">
    <path d="M 11787.287316 538.509903 
L 13867.948746 538.509903 
L 13867.948746 538.509903 
L 11787.287316 538.509903 
z
" clip-path="url(#p74462ad428)" style="fill: #dd8452; fill-opacity: 0.5; stroke: #ffffff; stroke-width: 1.5; stroke-linejoin: miter"/>
   </g>
   <g id="patch_4">
    <path d="M 13867.948746 538.509903 
L 15948.610176 538.509903 
L 15948.610176 538.509903 
L 13867.948746 538.509903 
z
" clip-path="url(#p74462ad428)" style="fill: #dd8452; fill-opacity: 0.5; stroke: #ffffff; stroke-width: 1.5; stroke-linejoin: miter"/>
   </g>
   <g id="patch_5">
    <path d="M 15948.610176 538.509903 
L 18029.271606 538.509903 
L 18029.271606 532.796893 
L 15948.610176 532.796893 
z
" clip-path="url(#p74462ad428)" style="fill: #dd8452; fill-opacity: 0.5; stroke: #ffffff; stroke-width: 1.5; stroke-linejoin: miter"/>
   </g>
   <g id="patch_6">
    <path d="M 18029.271606 538.509903 
L 20109.933036 538.509903 
L 20109.933036 524.227379 
L 18029.271606 524.227379 
z
" clip-path="url(#p74462ad428)" style="fill: #dd8452; fill-opacity: 0.5; stroke: #ffffff; stroke-width: 1.5; stroke-linejoin: miter"/>
   </g>
   <g id="patch_7">
    <path d="M 20109.933036 538.509903 
L 22190.594466 538.509903 
L 22190.594466 532.796893 
L 20109.933036 532.796893 
z
" clip-path="url(#p74462ad428)" style="fill: #dd8452; fill-opacity: 0.5; stroke: #ffffff; stroke-width: 1.5; stroke-linejoin: miter"/>
   </g>
   <g id="patch_8">
    <path d="M 11787.287316 538.509903 
L 13867.948746 538.509903 
L 13867.948746 529.940388 
L 11787.287316 529.940388 
z
" clip-path="url(#p74462ad428)" style="fill: #4c72b0; fill-opacity: 0.5; stroke: #ffffff; stroke-width: 1.5; stroke-linejoin: miter"/>
   </g>
   <g id="patch_9">
    <path d="M 13867.948746 538.509903 
L 15948.610176 538.509903 
L 15948.610176 538.509903 
L 13867.948746 538.509903 
z
" clip-path="url(#p74462ad428)" style="fill: #4c72b0; fill-opacity: 0.5; stroke: #ffffff; stroke-width: 1.5; stroke-linejoin: miter"/>
   </g>
   <g id="patch_10">
    <path d="M 15948.610176 538.509903 
L 18029.271606 538.509903 
L 18029.271606 538.509903 
L 15948.610176 538.509903 
z
" clip-path="url(#p74462ad428)" style="fill: #4c72b0; fill-opacity: 0.5; stroke: #ffffff; stroke-width: 1.5; stroke-linejoin: miter"/>
   </g>
   <g id="patch_11">
    <path d="M 18029.271606 538.509903 
L 20109.933036 538.509903 
L 20109.933036 538.509903 
L 18029.271606 538.509903 
z
" clip-path="url(#p74462ad428)" style="fill: #4c72b0; fill-opacity: 0.5; stroke: #ffffff; stroke-width: 1.5; stroke-linejoin: miter"/>
   </g>
   <g id="patch_12">
    <path d="M 20109.933036 538.509903 
L 22190.594466 538.509903 
L 22190.594466 538.509903 
L 20109.933036 538.509903 
z
" clip-path="url(#p74462ad428)" style="fill: #4c72b0; fill-opacity: 0.5; stroke: #ffffff; stroke-width: 1.5; stroke-linejoin: miter"/>
   </g>
   <g id="LineCollection_1">
    <path clip-path="url(#p74462ad428)" style="fill: none; stroke: #4c72b0"/>
    <path clip-path="url(#p74462ad428)" style="fill: none; stroke: #4c72b0"/>
    <path clip-path="url(#p74462ad428)" style="fill: none; stroke: #4c72b0"/>
    <path clip-path="url(#p74462ad428)" style="fill: none; stroke: #dd8452"/>
    <path clip-path="url(#p74462ad428)" style="fill: none; stroke: #dd8452"/>
    <path clip-path="url(#p74462ad428)" style="fill: none; stroke: #dd8452"/>
    <path clip-path="url(#p74462ad428)" style="fill: none; stroke: #dd8452"/>
    <path clip-path="url(#p74462ad428)" style="fill: none; stroke: #dd8452"/>
    <path clip-path="url(#p74462ad428)" style="fill: none; stroke: #dd8452"/>
    <path clip-path="url(#p74462ad428)" style="fill: none; stroke: #dd8452"/>
    <path clip-path="url(#p74462ad428)" style="fill: none; stroke: #dd8452"/>
    <path clip-path="url(#p74462ad428)" style="fill: none; stroke: #dd8452"/>
   </g>
   <g id="patch_13">
    <path d="M 80.433246 268.570194 
L 180.706086 268.570194 
L 180.706086 264.285437 
L 80.433246 264.285437 
L 80.433246 268.570194 
z
" clip-path="url(#p74462ad428)" style="fill: #5875a4; stroke: #4c4c4c; stroke-linejoin: miter"/>
   </g>
   <g id="line2d_8">
    <path d="M 130.569666 268.570194 
L 130.569666 272.854951 
" clip-path="url(#p74462ad428)" style="fill: none; stroke: #4c4c4c"/>
   </g>
   <g id="line2d_9">
    <path d="M 130.569666 264.285437 
L 130.569666 264.285437 
" clip-path="url(#p74462ad428)" style="fill: none; stroke: #4c4c4c"/>
   </g>
   <g id="line2d_10">
    <path d="M 105.501456 272.854951 
L 155.637876 272.854951 
" clip-path="url(#p74462ad428)" style="fill: none; stroke: #4c4c4c; stroke-linecap: round"/>
   </g>
   <g id="line2d_11">
    <path d="M 105.501456 264.285437 
L 155.637876 264.285437 
" clip-path="url(#p74462ad428)" style="fill: none; stroke: #4c4c4c; stroke-linecap: round"/>
   </g>
   <g id="line2d_12"/>
   <g id="patch_14">
    <path d="M 205.774296 130.029709 
L 306.047136 130.029709 
L 306.047136 90.038641 
L 205.774296 90.038641 
L 205.774296 130.029709 
z
" clip-path="url(#p74462ad428)" style="fill: #cc8963; stroke: #4c4c4c; stroke-linejoin: miter"/>
   </g>
   <g id="line2d_13">
    <path d="M 255.910716 130.029709 
L 255.910716 172.877282 
" clip-path="url(#p74462ad428)" style="fill: none; stroke: #4c4c4c"/>
   </g>
   <g id="line2d_14">
    <path d="M 255.910716 90.038641 
L 255.910716 35.765049 
" clip-path="url(#p74462ad428)" style="fill: none; stroke: #4c4c4c"/>
   </g>
   <g id="line2d_15">
    <path d="M 230.842506 172.877282 
L 280.978926 172.877282 
" clip-path="url(#p74462ad428)" style="fill: none; stroke: #4c4c4c; stroke-linecap: round"/>
   </g>
   <g id="line2d_16">
    <path d="M 230.842506 35.765049 
L 280.978926 35.765049 
" clip-path="url(#p74462ad428)" style="fill: none; stroke: #4c4c4c; stroke-linecap: round"/>
   </g>
   <g id="line2d_17"/>
   <g id="line2d_18">
    <path d="M 80.433246 264.285437 
L 180.706086 264.285437 
" clip-path="url(#p74462ad428)" style="fill: none; stroke: #4c4c4c"/>
   </g>
   <g id="line2d_19">
    <path d="M 205.774296 118.603689 
L 306.047136 118.603689 
" clip-path="url(#p74462ad428)" style="fill: none; stroke: #4c4c4c"/>
   </g>
   <g id="patch_15">
    <path d="M 67.899141 301.42 
L 67.899141 7.2 
" style="fill: none; stroke: #262626; stroke-width: 1.875; stroke-linejoin: miter; stroke-linecap: square"/>
   </g>
   <g id="patch_16">
    <path d="M 67.899141 301.42 
L 318.581241 301.42 
" style="fill: none; stroke: #262626; stroke-width: 1.875; stroke-linejoin: miter; stroke-linecap: square"/>
   </g>
   <g id="PathCollection_1">
    <defs>
     <path id="m2f8d7c4517" d="M 0 2 
C 0.530406 2 1.03916 1.789267 1.414214 1.414214 
C 1.789267 1.03916 2 0.530406 2 0 
C 2 -0.530406 1.789267 -1.03916 1.414214 -1.414214 
C 1.03916 -1.789267 0.530406 -2 0 -2 
C -0.530406 -2 -1.03916 -1.789267 -1.414214 -1.414214 
C -1.789267 -1.03916 -2 -0.530406 -2 0 
C -2 0.530406 -1.789267 1.03916 -1.414214 1.414214 
C -1.03916 1.789267 -0.530406 2 0 2 
z
"/>
    </defs>
    <g clip-path="url(#p74462ad428)">
     <use xlink:href="#m2f8d7c4517" x="119.153249" y="264.285437" style="fill: #4c4c4c"/>
     <use xlink:href="#m2f8d7c4517" x="138.659937" y="264.285437" style="fill: #4c4c4c"/>
     <use xlink:href="#m2f8d7c4517" x="138.115464" y="272.854951" style="fill: #4c4c4c"/>
    </g>
   </g>
   <g id="PathCollection_2">
    <g clip-path="url(#p74462ad428)">
     <use xlink:href="#m2f8d7c4517" x="267.32738" y="172.877282" style="fill: #4c4c4c"/>
     <use xlink:href="#m2f8d7c4517" x="251.650607" y="90.038641" style="fill: #4c4c4c"/>
     <use xlink:href="#m2f8d7c4517" x="267.395714" y="124.316699" style="fill: #4c4c4c"/>
     <use xlink:href="#m2f8d7c4517" x="267.466432" y="130.029709" style="fill: #4c4c4c"/>
     <use xlink:href="#m2f8d7c4517" x="246.43204" y="118.603689" style="fill: #4c4c4c"/>
     <use xlink:href="#m2f8d7c4517" x="266.646034" y="155.738252" style="fill: #4c4c4c"/>
     <use xlink:href="#m2f8d7c4517" x="251.100194" y="35.765049" style="fill: #4c4c4c"/>
     <use xlink:href="#m2f8d7c4517" x="262.928923" y="38.621553" style="fill: #4c4c4c"/>
     <use xlink:href="#m2f8d7c4517" x="256.6055" y="118.603689" style="fill: #4c4c4c"/>
    </g>
   </g>
  </g>
  <g id="legend_1">
   <g id="patch_17">
    <path d="M 340.508672 160.714687 
L 373.508672 160.714687 
L 373.508672 149.164687 
L 340.508672 149.164687 
z
" style="fill: #4c72b0; fill-opacity: 0.25; stroke: #4c72b0; stroke-width: 1.5; stroke-linejoin: miter"/>
   </g>
   <g id="text_9">
    <!-- KILO-edByte -->
    <g style="fill: #262626" transform="translate(386.708672 160.714687) scale(0.165 -0.165)">
     <use xlink:href="#ArialMT-4b"/>
     <use xlink:href="#ArialMT-49" x="66.699219"/>
     <use xlink:href="#ArialMT-4c" x="94.482422"/>
     <use xlink:href="#ArialMT-4f" x="150.097656"/>
     <use xlink:href="#ArialMT-2d" x="227.880859"/>
     <use xlink:href="#ArialMT-65" x="261.181641"/>
     <use xlink:href="#ArialMT-64" x="316.796875"/>
     <use xlink:href="#ArialMT-42" x="372.412109"/>
     <use xlink:href="#ArialMT-79" x="439.111328"/>
     <use xlink:href="#ArialMT-74" x="489.111328"/>
     <use xlink:href="#ArialMT-65" x="516.894531"/>
    </g>
   </g>
   <g id="patch_18">
    <path d="M 340.508672 184.448906 
L 373.508672 184.448906 
L 373.508672 172.898906 
L 340.508672 172.898906 
z
" style="fill: #dd8452; fill-opacity: 0.25; stroke: #dd8452; stroke-width: 1.5; stroke-linejoin: miter"/>
   </g>
   <g id="text_10">
    <!-- MEGA-edByte -->
    <g style="fill: #262626" transform="translate(386.708672 184.448906) scale(0.165 -0.165)">
     <use xlink:href="#ArialMT-4d"/>
     <use xlink:href="#ArialMT-45" x="83.300781"/>
     <use xlink:href="#ArialMT-47" x="150"/>
     <use xlink:href="#ArialMT-41" x="227.783203"/>
     <use xlink:href="#ArialMT-2d" x="294.482422"/>
     <use xlink:href="#ArialMT-65" x="327.783203"/>
     <use xlink:href="#ArialMT-64" x="383.398438"/>
     <use xlink:href="#ArialMT-42" x="439.013672"/>
     <use xlink:href="#ArialMT-79" x="505.712891"/>
     <use xlink:href="#ArialMT-74" x="555.712891"/>
     <use xlink:href="#ArialMT-65" x="583.496094"/>
    </g>
   </g>
  </g>
 </g>
 <defs>
  <clipPath id="p74462ad428">
   <rect x="67.899141" y="7.2" width="250.6821" height="294.22"/>
  </clipPath>
 </defs>
</svg>
