<?xml version="1.0" encoding="utf-8" standalone="no"?>
<!DOCTYPE svg PUBLIC "-//W3C//DTD SVG 1.1//EN"
  "http://www.w3.org/Graphics/SVG/1.1/DTD/svg11.dtd">
<svg xmlns:xlink="http://www.w3.org/1999/xlink" width="454.713047pt" height="336.209766pt" viewBox="0 0 454.713047 336.209766" xmlns="http://www.w3.org/2000/svg" version="1.1">
 <metadata>
  <rdf:RDF xmlns:dc="http://purl.org/dc/elements/1.1/" xmlns:cc="http://creativecommons.org/ns#" xmlns:rdf="http://www.w3.org/1999/02/22-rdf-syntax-ns#">
   <cc:Work>
    <dc:type rdf:resource="http://purl.org/dc/dcmitype/StillImage"/>
    <dc:date>2023-11-21T00:58:31.796850</dc:date>
    <dc:format>image/svg+xml</dc:format>
    <dc:creator>
     <cc:Agent>
      <dc:title>Matplotlib v3.8.0, https://matplotlib.org/</dc:title>
     </cc:Agent>
    </dc:creator>
   </cc:Work>
  </rdf:RDF>
 </metadata>
 <defs>
  <style type="text/css">*{stroke-linejoin: round; stroke-linecap: butt}</style>
 </defs>
 <g id="figure_1">
  <g id="patch_1">
   <path d="M 0 336.209766 
L 454.713047 336.209766 
L 454.713047 0 
L 0 0 
z
" style="fill: #ffffff"/>
  </g>
  <g id="axes_1">
   <g id="patch_2">
    <path d="M 72.483047 301.42 
L 323.733947 301.42 
L 323.733947 7.2 
L 72.483047 7.2 
z
" style="fill: #ffffff"/>
   </g>
   <g id="matplotlib.axis_1">
    <g id="xtick_1">
     <g id="line2d_1">
      <defs>
       <path id="mc5ce939642" d="M 0 0 
L 0 9 
" style="stroke: #262626; stroke-width: 1.875"/>
      </defs>
      <g>
       <use xlink:href="#mc5ce939642" x="111.900311" y="301.42" style="fill: #262626; stroke: #262626; stroke-width: 1.875"/>
      </g>
     </g>
     <g id="text_1">
      <!-- 100 -->
      <g style="fill: #262626" transform="translate(98.136991 325.730391) scale(0.165 -0.165)">
       <defs>
        <path id="ArialMT-31" d="M 2384 0 
L 1822 0 
L 1822 3584 
Q 1619 3391 1289 3197 
Q 959 3003 697 2906 
L 697 3450 
Q 1169 3672 1522 3987 
Q 1875 4303 2022 4600 
L 2384 4600 
L 2384 0 
z
" transform="scale(0.015625)"/>
        <path id="ArialMT-30" d="M 266 2259 
Q 266 3072 433 3567 
Q 600 4063 929 4331 
Q 1259 4600 1759 4600 
Q 2128 4600 2406 4451 
Q 2684 4303 2865 4023 
Q 3047 3744 3150 3342 
Q 3253 2941 3253 2259 
Q 3253 1453 3087 958 
Q 2922 463 2592 192 
Q 2263 -78 1759 -78 
Q 1097 -78 719 397 
Q 266 969 266 2259 
z
M 844 2259 
Q 844 1131 1108 757 
Q 1372 384 1759 384 
Q 2147 384 2411 759 
Q 2675 1134 2675 2259 
Q 2675 3391 2411 3762 
Q 2147 4134 1753 4134 
Q 1366 4134 1134 3806 
Q 844 3388 844 2259 
z
" transform="scale(0.015625)"/>
       </defs>
       <use xlink:href="#ArialMT-31"/>
       <use xlink:href="#ArialMT-30" x="55.615234"/>
       <use xlink:href="#ArialMT-30" x="111.230469"/>
      </g>
     </g>
    </g>
    <g id="xtick_2">
     <g id="line2d_2">
      <g>
       <use xlink:href="#mc5ce939642" x="165.68666" y="301.42" style="fill: #262626; stroke: #262626; stroke-width: 1.875"/>
      </g>
     </g>
     <g id="text_2">
      <!-- 120 -->
      <g style="fill: #262626" transform="translate(151.923339 325.730391) scale(0.165 -0.165)">
       <defs>
        <path id="ArialMT-32" d="M 3222 541 
L 3222 0 
L 194 0 
Q 188 203 259 391 
Q 375 700 629 1000 
Q 884 1300 1366 1694 
Q 2113 2306 2375 2664 
Q 2638 3022 2638 3341 
Q 2638 3675 2398 3904 
Q 2159 4134 1775 4134 
Q 1369 4134 1125 3890 
Q 881 3647 878 3216 
L 300 3275 
Q 359 3922 746 4261 
Q 1134 4600 1788 4600 
Q 2447 4600 2831 4234 
Q 3216 3869 3216 3328 
Q 3216 3053 3103 2787 
Q 2991 2522 2730 2228 
Q 2469 1934 1863 1422 
Q 1356 997 1212 845 
Q 1069 694 975 541 
L 3222 541 
z
" transform="scale(0.015625)"/>
       </defs>
       <use xlink:href="#ArialMT-31"/>
       <use xlink:href="#ArialMT-32" x="55.615234"/>
       <use xlink:href="#ArialMT-30" x="111.230469"/>
      </g>
     </g>
    </g>
    <g id="xtick_3">
     <g id="line2d_3">
      <g>
       <use xlink:href="#mc5ce939642" x="219.473008" y="301.42" style="fill: #262626; stroke: #262626; stroke-width: 1.875"/>
      </g>
     </g>
     <g id="text_3">
      <!-- 140 -->
      <g style="fill: #262626" transform="translate(205.709688 325.730391) scale(0.165 -0.165)">
       <defs>
        <path id="ArialMT-34" d="M 2069 0 
L 2069 1097 
L 81 1097 
L 81 1613 
L 2172 4581 
L 2631 4581 
L 2631 1613 
L 3250 1613 
L 3250 1097 
L 2631 1097 
L 2631 0 
L 2069 0 
z
M 2069 1613 
L 2069 3678 
L 634 1613 
L 2069 1613 
z
" transform="scale(0.015625)"/>
       </defs>
       <use xlink:href="#ArialMT-31"/>
       <use xlink:href="#ArialMT-34" x="55.615234"/>
       <use xlink:href="#ArialMT-30" x="111.230469"/>
      </g>
     </g>
    </g>
    <g id="xtick_4">
     <g id="line2d_4">
      <g>
       <use xlink:href="#mc5ce939642" x="273.259357" y="301.42" style="fill: #262626; stroke: #262626; stroke-width: 1.875"/>
      </g>
     </g>
     <g id="text_4">
      <!-- 160 -->
      <g style="fill: #262626" transform="translate(259.496037 325.730391) scale(0.165 -0.165)">
       <defs>
        <path id="ArialMT-36" d="M 3184 3459 
L 2625 3416 
Q 2550 3747 2413 3897 
Q 2184 4138 1850 4138 
Q 1581 4138 1378 3988 
Q 1113 3794 959 3422 
Q 806 3050 800 2363 
Q 1003 2672 1297 2822 
Q 1591 2972 1913 2972 
Q 2475 2972 2870 2558 
Q 3266 2144 3266 1488 
Q 3266 1056 3080 686 
Q 2894 316 2569 119 
Q 2244 -78 1831 -78 
Q 1128 -78 684 439 
Q 241 956 241 2144 
Q 241 3472 731 4075 
Q 1159 4600 1884 4600 
Q 2425 4600 2770 4297 
Q 3116 3994 3184 3459 
z
M 888 1484 
Q 888 1194 1011 928 
Q 1134 663 1356 523 
Q 1578 384 1822 384 
Q 2178 384 2434 671 
Q 2691 959 2691 1453 
Q 2691 1928 2437 2201 
Q 2184 2475 1800 2475 
Q 1419 2475 1153 2201 
Q 888 1928 888 1484 
z
" transform="scale(0.015625)"/>
       </defs>
       <use xlink:href="#ArialMT-31"/>
       <use xlink:href="#ArialMT-36" x="55.615234"/>
       <use xlink:href="#ArialMT-30" x="111.230469"/>
      </g>
     </g>
    </g>
   </g>
   <g id="matplotlib.axis_2">
    <g id="ytick_1">
     <g id="line2d_5">
      <defs>
       <path id="m726b96d684" d="M 0 0 
L -9 0 
" style="stroke: #262626; stroke-width: 1.875"/>
      </defs>
      <g>
       <use xlink:href="#m726b96d684" x="72.483047" y="301.42" style="fill: #262626; stroke: #262626; stroke-width: 1.875"/>
      </g>
     </g>
     <g id="text_5">
      <!-- 0.00 -->
      <g style="fill: #262626" transform="translate(27.8725 307.325195) scale(0.165 -0.165)">
       <defs>
        <path id="ArialMT-2e" d="M 581 0 
L 581 641 
L 1222 641 
L 1222 0 
L 581 0 
z
" transform="scale(0.015625)"/>
       </defs>
       <use xlink:href="#ArialMT-30"/>
       <use xlink:href="#ArialMT-2e" x="55.615234"/>
       <use xlink:href="#ArialMT-30" x="83.398438"/>
       <use xlink:href="#ArialMT-30" x="139.013672"/>
      </g>
     </g>
    </g>
    <g id="ytick_2">
     <g id="line2d_6">
      <g>
       <use xlink:href="#m726b96d684" x="72.483047" y="235.854155" style="fill: #262626; stroke: #262626; stroke-width: 1.875"/>
      </g>
     </g>
     <g id="text_6">
      <!-- 0.01 -->
      <g style="fill: #262626" transform="translate(27.8725 241.75935) scale(0.165 -0.165)">
       <use xlink:href="#ArialMT-30"/>
       <use xlink:href="#ArialMT-2e" x="55.615234"/>
       <use xlink:href="#ArialMT-30" x="83.398438"/>
       <use xlink:href="#ArialMT-31" x="139.013672"/>
      </g>
     </g>
    </g>
    <g id="ytick_3">
     <g id="line2d_7">
      <g>
       <use xlink:href="#m726b96d684" x="72.483047" y="170.28831" style="fill: #262626; stroke: #262626; stroke-width: 1.875"/>
      </g>
     </g>
     <g id="text_7">
      <!-- 0.02 -->
      <g style="fill: #262626" transform="translate(27.8725 176.193505) scale(0.165 -0.165)">
       <use xlink:href="#ArialMT-30"/>
       <use xlink:href="#ArialMT-2e" x="55.615234"/>
       <use xlink:href="#ArialMT-30" x="83.398438"/>
       <use xlink:href="#ArialMT-32" x="139.013672"/>
      </g>
     </g>
    </g>
    <g id="ytick_4">
     <g id="line2d_8">
      <g>
       <use xlink:href="#m726b96d684" x="72.483047" y="104.722465" style="fill: #262626; stroke: #262626; stroke-width: 1.875"/>
      </g>
     </g>
     <g id="text_8">
      <!-- 0.03 -->
      <g style="fill: #262626" transform="translate(27.8725 110.62766) scale(0.165 -0.165)">
       <defs>
        <path id="ArialMT-33" d="M 269 1209 
L 831 1284 
Q 928 806 1161 595 
Q 1394 384 1728 384 
Q 2125 384 2398 659 
Q 2672 934 2672 1341 
Q 2672 1728 2419 1979 
Q 2166 2231 1775 2231 
Q 1616 2231 1378 2169 
L 1441 2663 
Q 1497 2656 1531 2656 
Q 1891 2656 2178 2843 
Q 2466 3031 2466 3422 
Q 2466 3731 2256 3934 
Q 2047 4138 1716 4138 
Q 1388 4138 1169 3931 
Q 950 3725 888 3313 
L 325 3413 
Q 428 3978 793 4289 
Q 1159 4600 1703 4600 
Q 2078 4600 2393 4439 
Q 2709 4278 2876 4000 
Q 3044 3722 3044 3409 
Q 3044 3113 2884 2869 
Q 2725 2625 2413 2481 
Q 2819 2388 3044 2092 
Q 3269 1797 3269 1353 
Q 3269 753 2831 336 
Q 2394 -81 1725 -81 
Q 1122 -81 723 278 
Q 325 638 269 1209 
z
" transform="scale(0.015625)"/>
       </defs>
       <use xlink:href="#ArialMT-30"/>
       <use xlink:href="#ArialMT-2e" x="55.615234"/>
       <use xlink:href="#ArialMT-30" x="83.398438"/>
       <use xlink:href="#ArialMT-33" x="139.013672"/>
      </g>
     </g>
    </g>
    <g id="ytick_5">
     <g id="line2d_9">
      <g>
       <use xlink:href="#m726b96d684" x="72.483047" y="39.15662" style="fill: #262626; stroke: #262626; stroke-width: 1.875"/>
      </g>
     </g>
     <g id="text_9">
      <!-- 0.04 -->
      <g style="fill: #262626" transform="translate(27.8725 45.061815) scale(0.165 -0.165)">
       <use xlink:href="#ArialMT-30"/>
       <use xlink:href="#ArialMT-2e" x="55.615234"/>
       <use xlink:href="#ArialMT-30" x="83.398438"/>
       <use xlink:href="#ArialMT-34" x="139.013672"/>
      </g>
     </g>
    </g>
    <g id="text_10">
     <!-- Density -->
     <g style="fill: #262626" transform="translate(20.084063 184.319375) rotate(-90) scale(0.18 -0.18)">
      <defs>
       <path id="ArialMT-44" d="M 494 0 
L 494 4581 
L 2072 4581 
Q 2606 4581 2888 4516 
Q 3281 4425 3559 4188 
Q 3922 3881 4101 3404 
Q 4281 2928 4281 2316 
Q 4281 1794 4159 1391 
Q 4038 988 3847 723 
Q 3656 459 3429 307 
Q 3203 156 2883 78 
Q 2563 0 2147 0 
L 494 0 
z
M 1100 541 
L 2078 541 
Q 2531 541 2789 625 
Q 3047 709 3200 863 
Q 3416 1078 3536 1442 
Q 3656 1806 3656 2325 
Q 3656 3044 3420 3430 
Q 3184 3816 2847 3947 
Q 2603 4041 2063 4041 
L 1100 4041 
L 1100 541 
z
" transform="scale(0.015625)"/>
       <path id="ArialMT-65" d="M 2694 1069 
L 3275 997 
Q 3138 488 2766 206 
Q 2394 -75 1816 -75 
Q 1088 -75 661 373 
Q 234 822 234 1631 
Q 234 2469 665 2931 
Q 1097 3394 1784 3394 
Q 2450 3394 2872 2941 
Q 3294 2488 3294 1666 
Q 3294 1616 3291 1516 
L 816 1516 
Q 847 969 1125 678 
Q 1403 388 1819 388 
Q 2128 388 2347 550 
Q 2566 713 2694 1069 
z
M 847 1978 
L 2700 1978 
Q 2663 2397 2488 2606 
Q 2219 2931 1791 2931 
Q 1403 2931 1139 2672 
Q 875 2413 847 1978 
z
" transform="scale(0.015625)"/>
       <path id="ArialMT-6e" d="M 422 0 
L 422 3319 
L 928 3319 
L 928 2847 
Q 1294 3394 1984 3394 
Q 2284 3394 2536 3286 
Q 2788 3178 2913 3003 
Q 3038 2828 3088 2588 
Q 3119 2431 3119 2041 
L 3119 0 
L 2556 0 
L 2556 2019 
Q 2556 2363 2490 2533 
Q 2425 2703 2258 2804 
Q 2091 2906 1866 2906 
Q 1506 2906 1245 2678 
Q 984 2450 984 1813 
L 984 0 
L 422 0 
z
" transform="scale(0.015625)"/>
       <path id="ArialMT-73" d="M 197 991 
L 753 1078 
Q 800 744 1014 566 
Q 1228 388 1613 388 
Q 2000 388 2187 545 
Q 2375 703 2375 916 
Q 2375 1106 2209 1216 
Q 2094 1291 1634 1406 
Q 1016 1563 777 1677 
Q 538 1791 414 1992 
Q 291 2194 291 2438 
Q 291 2659 392 2848 
Q 494 3038 669 3163 
Q 800 3259 1026 3326 
Q 1253 3394 1513 3394 
Q 1903 3394 2198 3281 
Q 2494 3169 2634 2976 
Q 2775 2784 2828 2463 
L 2278 2388 
Q 2241 2644 2061 2787 
Q 1881 2931 1553 2931 
Q 1166 2931 1000 2803 
Q 834 2675 834 2503 
Q 834 2394 903 2306 
Q 972 2216 1119 2156 
Q 1203 2125 1616 2013 
Q 2213 1853 2448 1751 
Q 2684 1650 2818 1456 
Q 2953 1263 2953 975 
Q 2953 694 2789 445 
Q 2625 197 2315 61 
Q 2006 -75 1616 -75 
Q 969 -75 630 194 
Q 291 463 197 991 
z
" transform="scale(0.015625)"/>
       <path id="ArialMT-69" d="M 425 3934 
L 425 4581 
L 988 4581 
L 988 3934 
L 425 3934 
z
M 425 0 
L 425 3319 
L 988 3319 
L 988 0 
L 425 0 
z
" transform="scale(0.015625)"/>
       <path id="ArialMT-74" d="M 1650 503 
L 1731 6 
Q 1494 -44 1306 -44 
Q 1000 -44 831 53 
Q 663 150 594 308 
Q 525 466 525 972 
L 525 2881 
L 113 2881 
L 113 3319 
L 525 3319 
L 525 4141 
L 1084 4478 
L 1084 3319 
L 1650 3319 
L 1650 2881 
L 1084 2881 
L 1084 941 
Q 1084 700 1114 631 
Q 1144 563 1211 522 
Q 1278 481 1403 481 
Q 1497 481 1650 503 
z
" transform="scale(0.015625)"/>
       <path id="ArialMT-79" d="M 397 -1278 
L 334 -750 
Q 519 -800 656 -800 
Q 844 -800 956 -737 
Q 1069 -675 1141 -563 
Q 1194 -478 1313 -144 
Q 1328 -97 1363 -6 
L 103 3319 
L 709 3319 
L 1400 1397 
Q 1534 1031 1641 628 
Q 1738 1016 1872 1384 
L 2581 3319 
L 3144 3319 
L 1881 -56 
Q 1678 -603 1566 -809 
Q 1416 -1088 1222 -1217 
Q 1028 -1347 759 -1347 
Q 597 -1347 397 -1278 
z
" transform="scale(0.015625)"/>
      </defs>
      <use xlink:href="#ArialMT-44"/>
      <use xlink:href="#ArialMT-65" x="72.216797"/>
      <use xlink:href="#ArialMT-6e" x="127.832031"/>
      <use xlink:href="#ArialMT-73" x="183.447266"/>
      <use xlink:href="#ArialMT-69" x="233.447266"/>
      <use xlink:href="#ArialMT-74" x="255.664062"/>
      <use xlink:href="#ArialMT-79" x="283.447266"/>
     </g>
    </g>
   </g>
   <g id="PolyCollection_1">
    <defs>
     <path id="m77fa922255" d="M 140.079153 -35.093552 
L 140.079153 -34.789766 
L 140.944652 -34.789766 
L 141.810151 -34.789766 
L 142.67565 -34.789766 
L 143.541149 -34.789766 
L 144.406648 -34.789766 
L 145.272147 -34.789766 
L 146.137646 -34.789766 
L 147.003145 -34.789766 
L 147.868643 -34.789766 
L 148.734142 -34.789766 
L 149.599641 -34.789766 
L 150.46514 -34.789766 
L 151.330639 -34.789766 
L 152.196138 -34.789766 
L 153.061637 -34.789766 
L 153.927136 -34.789766 
L 154.792635 -34.789766 
L 155.658134 -34.789766 
L 156.523633 -34.789766 
L 157.389132 -34.789766 
L 158.254631 -34.789766 
L 159.12013 -34.789766 
L 159.985629 -34.789766 
L 160.851128 -34.789766 
L 161.716627 -34.789766 
L 162.582126 -34.789766 
L 163.447625 -34.789766 
L 164.313124 -34.789766 
L 165.178623 -34.789766 
L 166.044122 -34.789766 
L 166.909621 -34.789766 
L 167.77512 -34.789766 
L 168.640619 -34.789766 
L 169.506118 -34.789766 
L 170.371617 -34.789766 
L 171.237116 -34.789766 
L 172.102615 -34.789766 
L 172.968114 -34.789766 
L 173.833613 -34.789766 
L 174.699112 -34.789766 
L 175.564611 -34.789766 
L 176.43011 -34.789766 
L 177.295609 -34.789766 
L 178.161108 -34.789766 
L 179.026607 -34.789766 
L 179.892106 -34.789766 
L 180.757605 -34.789766 
L 181.623104 -34.789766 
L 182.488603 -34.789766 
L 183.354102 -34.789766 
L 184.219601 -34.789766 
L 185.0851 -34.789766 
L 185.950599 -34.789766 
L 186.816098 -34.789766 
L 187.681597 -34.789766 
L 188.547096 -34.789766 
L 189.412595 -34.789766 
L 190.278094 -34.789766 
L 191.143593 -34.789766 
L 192.009092 -34.789766 
L 192.874591 -34.789766 
L 193.74009 -34.789766 
L 194.605589 -34.789766 
L 195.471088 -34.789766 
L 196.336587 -34.789766 
L 197.202086 -34.789766 
L 198.067585 -34.789766 
L 198.933084 -34.789766 
L 199.798583 -34.789766 
L 200.664082 -34.789766 
L 201.529581 -34.789766 
L 202.39508 -34.789766 
L 203.260579 -34.789766 
L 204.126078 -34.789766 
L 204.991577 -34.789766 
L 205.857076 -34.789766 
L 206.722575 -34.789766 
L 207.588074 -34.789766 
L 208.453573 -34.789766 
L 209.319072 -34.789766 
L 210.184571 -34.789766 
L 211.05007 -34.789766 
L 211.915569 -34.789766 
L 212.781068 -34.789766 
L 213.646567 -34.789766 
L 214.512066 -34.789766 
L 215.377565 -34.789766 
L 216.243064 -34.789766 
L 217.108563 -34.789766 
L 217.974062 -34.789766 
L 218.839561 -34.789766 
L 219.70506 -34.789766 
L 220.570559 -34.789766 
L 221.436058 -34.789766 
L 222.301557 -34.789766 
L 223.167056 -34.789766 
L 224.032555 -34.789766 
L 224.898054 -34.789766 
L 225.763553 -34.789766 
L 226.629052 -34.789766 
L 227.49455 -34.789766 
L 228.360049 -34.789766 
L 229.225548 -34.789766 
L 230.091047 -34.789766 
L 230.956546 -34.789766 
L 231.822045 -34.789766 
L 232.687544 -34.789766 
L 233.553043 -34.789766 
L 234.418542 -34.789766 
L 235.284041 -34.789766 
L 236.14954 -34.789766 
L 237.015039 -34.789766 
L 237.880538 -34.789766 
L 238.746037 -34.789766 
L 239.611536 -34.789766 
L 240.477035 -34.789766 
L 241.342534 -34.789766 
L 242.208033 -34.789766 
L 243.073532 -34.789766 
L 243.939031 -34.789766 
L 244.80453 -34.789766 
L 245.670029 -34.789766 
L 246.535528 -34.789766 
L 247.401027 -34.789766 
L 248.266526 -34.789766 
L 249.132025 -34.789766 
L 249.997524 -34.789766 
L 250.863023 -34.789766 
L 251.728522 -34.789766 
L 252.594021 -34.789766 
L 253.45952 -34.789766 
L 254.325019 -34.789766 
L 255.190518 -34.789766 
L 256.056017 -34.789766 
L 256.921516 -34.789766 
L 257.787015 -34.789766 
L 258.652514 -34.789766 
L 259.518013 -34.789766 
L 260.383512 -34.789766 
L 261.249011 -34.789766 
L 262.11451 -34.789766 
L 262.980009 -34.789766 
L 263.845508 -34.789766 
L 264.711007 -34.789766 
L 265.576506 -34.789766 
L 266.442005 -34.789766 
L 267.307504 -34.789766 
L 268.173003 -34.789766 
L 269.038502 -34.789766 
L 269.904001 -34.789766 
L 270.7695 -34.789766 
L 271.634999 -34.789766 
L 272.500498 -34.789766 
L 273.365997 -34.789766 
L 274.231496 -34.789766 
L 275.096995 -34.789766 
L 275.962494 -34.789766 
L 276.827993 -34.789766 
L 277.693492 -34.789766 
L 278.558991 -34.789766 
L 279.42449 -34.789766 
L 280.289989 -34.789766 
L 281.155488 -34.789766 
L 282.020987 -34.789766 
L 282.886486 -34.789766 
L 283.751985 -34.789766 
L 284.617484 -34.789766 
L 285.482983 -34.789766 
L 286.348482 -34.789766 
L 287.213981 -34.789766 
L 288.07948 -34.789766 
L 288.944979 -34.789766 
L 289.810478 -34.789766 
L 290.675977 -34.789766 
L 291.541476 -34.789766 
L 292.406975 -34.789766 
L 293.272474 -34.789766 
L 294.137973 -34.789766 
L 295.003472 -34.789766 
L 295.868971 -34.789766 
L 296.73447 -34.789766 
L 297.599969 -34.789766 
L 298.465468 -34.789766 
L 299.330967 -34.789766 
L 300.196466 -34.789766 
L 301.061965 -34.789766 
L 301.927464 -34.789766 
L 302.792963 -34.789766 
L 303.658462 -34.789766 
L 304.523961 -34.789766 
L 305.38946 -34.789766 
L 306.254958 -34.789766 
L 307.120457 -34.789766 
L 307.985956 -34.789766 
L 308.851455 -34.789766 
L 309.716954 -34.789766 
L 310.582453 -34.789766 
L 311.447952 -34.789766 
L 312.313451 -34.789766 
L 312.313451 -35.123586 
L 312.313451 -35.123586 
L 311.447952 -35.185006 
L 310.582453 -35.256355 
L 309.716954 -35.338968 
L 308.851455 -35.434316 
L 307.985956 -35.544005 
L 307.120457 -35.669785 
L 306.254958 -35.813547 
L 305.38946 -35.977328 
L 304.523961 -36.163308 
L 303.658462 -36.373807 
L 302.792963 -36.611281 
L 301.927464 -36.87831 
L 301.061965 -37.177588 
L 300.196466 -37.511912 
L 299.330967 -37.884159 
L 298.465468 -38.29727 
L 297.599969 -38.754223 
L 296.73447 -39.258009 
L 295.868971 -39.8116 
L 295.003472 -40.417919 
L 294.137973 -41.079804 
L 293.272474 -41.799974 
L 292.406975 -42.580988 
L 291.541476 -43.425212 
L 290.675977 -44.33478 
L 289.810478 -45.311557 
L 288.944979 -46.357104 
L 288.07948 -47.47265 
L 287.213981 -48.659058 
L 286.348482 -49.91681 
L 285.482983 -51.245981 
L 284.617484 -52.646233 
L 283.751985 -54.116807 
L 282.886486 -55.656528 
L 282.020987 -57.263813 
L 281.155488 -58.936692 
L 280.289989 -60.67283 
L 279.42449 -62.469566 
L 278.558991 -64.323949 
L 277.693492 -66.232789 
L 276.827993 -68.192707 
L 275.962494 -70.200194 
L 275.096995 -72.251669 
L 274.231496 -74.343543 
L 273.365997 -76.472273 
L 272.500498 -78.634427 
L 271.634999 -80.826732 
L 270.7695 -83.046125 
L 269.904001 -85.289789 
L 269.038502 -87.555185 
L 268.173003 -89.840069 
L 267.307504 -92.142496 
L 266.442005 -94.460818 
L 265.576506 -96.793656 
L 264.711007 -99.139867 
L 263.845508 -101.498497 
L 262.980009 -103.868717 
L 262.11451 -106.249748 
L 261.249011 -108.640781 
L 260.383512 -111.040883 
L 259.518013 -113.4489 
L 258.652514 -115.863362 
L 257.787015 -118.282378 
L 256.921516 -120.703549 
L 256.056017 -123.123874 
L 255.190518 -125.539681 
L 254.325019 -127.946554 
L 253.45952 -130.339297 
L 252.594021 -132.711902 
L 251.728522 -135.057544 
L 250.863023 -137.368598 
L 249.997524 -139.636683 
L 249.132025 -141.852727 
L 248.266526 -144.007058 
L 247.401027 -146.089516 
L 246.535528 -148.089591 
L 245.670029 -149.996576 
L 244.80453 -151.799735 
L 243.939031 -153.48849 
L 243.073532 -155.052609 
L 242.208033 -156.482405 
L 241.342534 -157.768925 
L 240.477035 -158.904143 
L 239.611536 -159.881138 
L 238.746037 -160.694256 
L 237.880538 -161.339258 
L 237.015039 -161.813436 
L 236.14954 -162.115711 
L 235.284041 -162.246695 
L 234.418542 -162.208727 
L 233.553043 -162.005866 
L 232.687544 -161.643863 
L 231.822045 -161.130089 
L 230.956546 -160.473439 
L 230.091047 -159.684193 
L 229.225548 -158.773865 
L 228.360049 -157.755015 
L 227.49455 -156.641045 
L 226.629052 -155.445977 
L 225.763553 -154.184224 
L 224.898054 -152.870344 
L 224.032555 -151.518805 
L 223.167056 -150.143741 
L 222.301557 -148.758727 
L 221.436058 -147.376559 
L 220.570559 -146.009055 
L 219.70506 -144.666878 
L 218.839561 -143.359377 
L 217.974062 -142.094464 
L 217.108563 -140.878513 
L 216.243064 -139.716292 
L 215.377565 -138.610925 
L 214.512066 -137.563888 
L 213.646567 -136.57503 
L 212.781068 -135.642624 
L 211.915569 -134.763451 
L 211.05007 -133.9329 
L 210.184571 -133.145098 
L 209.319072 -132.393049 
L 208.453573 -131.6688 
L 207.588074 -130.963609 
L 206.722575 -130.268127 
L 205.857076 -129.572582 
L 204.991577 -128.866965 
L 204.126078 -128.141215 
L 203.260579 -127.385397 
L 202.39508 -126.589874 
L 201.529581 -125.745461 
L 200.664082 -124.84358 
L 199.798583 -123.876383 
L 198.933084 -122.836875 
L 198.067585 -121.719006 
L 197.202086 -120.517753 
L 196.336587 -119.229178 
L 195.471088 -117.850474 
L 194.605589 -116.379984 
L 193.74009 -114.817208 
L 192.874591 -113.162791 
L 192.009092 -111.418493 
L 191.143593 -109.587146 
L 190.278094 -107.672597 
L 189.412595 -105.679642 
L 188.547096 -103.613939 
L 187.681597 -101.481925 
L 186.816098 -99.290717 
L 185.950599 -97.048015 
L 185.0851 -94.761989 
L 184.219601 -92.441181 
L 183.354102 -90.09439 
L 182.488603 -87.730568 
L 181.623104 -85.358715 
L 180.757605 -82.987782 
L 179.892106 -80.626569 
L 179.026607 -78.283642 
L 178.161108 -75.967245 
L 177.295609 -73.685229 
L 176.43011 -71.444986 
L 175.564611 -69.253389 
L 174.699112 -67.116745 
L 173.833613 -65.040756 
L 172.968114 -63.030493 
L 172.102615 -61.090369 
L 171.237116 -59.224135 
L 170.371617 -57.434874 
L 169.506118 -55.725009 
L 168.640619 -54.096314 
L 167.77512 -52.549938 
L 166.909621 -51.086429 
L 166.044122 -49.705768 
L 165.178623 -48.407406 
L 164.313124 -47.190304 
L 163.447625 -46.052976 
L 162.582126 -44.993539 
L 161.716627 -44.009755 
L 160.851128 -43.099081 
L 159.985629 -42.258717 
L 159.12013 -41.485653 
L 158.254631 -40.776712 
L 157.389132 -40.128597 
L 156.523633 -39.537928 
L 155.658134 -39.001282 
L 154.792635 -38.515228 
L 153.927136 -38.076359 
L 153.061637 -37.68132 
L 152.196138 -37.326834 
L 151.330639 -37.009718 
L 150.46514 -36.726911 
L 149.599641 -36.475478 
L 148.734142 -36.252628 
L 147.868643 -36.055722 
L 147.003145 -35.882276 
L 146.137646 -35.729965 
L 145.272147 -35.596628 
L 144.406648 -35.480259 
L 143.541149 -35.379013 
L 142.67565 -35.291196 
L 141.810151 -35.215261 
L 140.944652 -35.149804 
L 140.079153 -35.093552 
z
" style="stroke: #55a868; stroke-width: 1.5"/>
    </defs>
    <g clip-path="url(#p5aeeb4556e)">
     <use xlink:href="#m77fa922255" x="0" y="336.209766" style="fill: #55a868; fill-opacity: 0.25; stroke: #55a868; stroke-width: 1.5"/>
    </g>
   </g>
   <g id="PolyCollection_2">
    <defs>
     <path id="m063489276c" d="M 83.903542 -36.129863 
L 83.903542 -34.789766 
L 84.036261 -34.789766 
L 84.16898 -34.789766 
L 84.301699 -34.789766 
L 84.434418 -34.789766 
L 84.567136 -34.789766 
L 84.699855 -34.789766 
L 84.832574 -34.789766 
L 84.965293 -34.789766 
L 85.098012 -34.789766 
L 85.230731 -34.789766 
L 85.363449 -34.789766 
L 85.496168 -34.789766 
L 85.628887 -34.789766 
L 85.761606 -34.789766 
L 85.894325 -34.789766 
L 86.027043 -34.789766 
L 86.159762 -34.789766 
L 86.292481 -34.789766 
L 86.4252 -34.789766 
L 86.557919 -34.789766 
L 86.690638 -34.789766 
L 86.823356 -34.789766 
L 86.956075 -34.789766 
L 87.088794 -34.789766 
L 87.221513 -34.789766 
L 87.354232 -34.789766 
L 87.486951 -34.789766 
L 87.619669 -34.789766 
L 87.752388 -34.789766 
L 87.885107 -34.789766 
L 88.017826 -34.789766 
L 88.150545 -34.789766 
L 88.283263 -34.789766 
L 88.415982 -34.789766 
L 88.548701 -34.789766 
L 88.68142 -34.789766 
L 88.814139 -34.789766 
L 88.946858 -34.789766 
L 89.079576 -34.789766 
L 89.212295 -34.789766 
L 89.345014 -34.789766 
L 89.477733 -34.789766 
L 89.610452 -34.789766 
L 89.743171 -34.789766 
L 89.875889 -34.789766 
L 90.008608 -34.789766 
L 90.141327 -34.789766 
L 90.274046 -34.789766 
L 90.406765 -34.789766 
L 90.539483 -34.789766 
L 90.672202 -34.789766 
L 90.804921 -34.789766 
L 90.93764 -34.789766 
L 91.070359 -34.789766 
L 91.203078 -34.789766 
L 91.335796 -34.789766 
L 91.468515 -34.789766 
L 91.601234 -34.789766 
L 91.733953 -34.789766 
L 91.866672 -34.789766 
L 91.999391 -34.789766 
L 92.132109 -34.789766 
L 92.264828 -34.789766 
L 92.397547 -34.789766 
L 92.530266 -34.789766 
L 92.662985 -34.789766 
L 92.795703 -34.789766 
L 92.928422 -34.789766 
L 93.061141 -34.789766 
L 93.19386 -34.789766 
L 93.326579 -34.789766 
L 93.459298 -34.789766 
L 93.592016 -34.789766 
L 93.724735 -34.789766 
L 93.857454 -34.789766 
L 93.990173 -34.789766 
L 94.122892 -34.789766 
L 94.255611 -34.789766 
L 94.388329 -34.789766 
L 94.521048 -34.789766 
L 94.653767 -34.789766 
L 94.786486 -34.789766 
L 94.919205 -34.789766 
L 95.051923 -34.789766 
L 95.184642 -34.789766 
L 95.317361 -34.789766 
L 95.45008 -34.789766 
L 95.582799 -34.789766 
L 95.715518 -34.789766 
L 95.848236 -34.789766 
L 95.980955 -34.789766 
L 96.113674 -34.789766 
L 96.246393 -34.789766 
L 96.379112 -34.789766 
L 96.51183 -34.789766 
L 96.644549 -34.789766 
L 96.777268 -34.789766 
L 96.909987 -34.789766 
L 97.042706 -34.789766 
L 97.175425 -34.789766 
L 97.308143 -34.789766 
L 97.440862 -34.789766 
L 97.573581 -34.789766 
L 97.7063 -34.789766 
L 97.839019 -34.789766 
L 97.971738 -34.789766 
L 98.104456 -34.789766 
L 98.237175 -34.789766 
L 98.369894 -34.789766 
L 98.502613 -34.789766 
L 98.635332 -34.789766 
L 98.76805 -34.789766 
L 98.900769 -34.789766 
L 99.033488 -34.789766 
L 99.166207 -34.789766 
L 99.298926 -34.789766 
L 99.431645 -34.789766 
L 99.564363 -34.789766 
L 99.697082 -34.789766 
L 99.829801 -34.789766 
L 99.96252 -34.789766 
L 100.095239 -34.789766 
L 100.227958 -34.789766 
L 100.360676 -34.789766 
L 100.493395 -34.789766 
L 100.626114 -34.789766 
L 100.758833 -34.789766 
L 100.891552 -34.789766 
L 101.02427 -34.789766 
L 101.156989 -34.789766 
L 101.289708 -34.789766 
L 101.422427 -34.789766 
L 101.555146 -34.789766 
L 101.687865 -34.789766 
L 101.820583 -34.789766 
L 101.953302 -34.789766 
L 102.086021 -34.789766 
L 102.21874 -34.789766 
L 102.351459 -34.789766 
L 102.484178 -34.789766 
L 102.616896 -34.789766 
L 102.749615 -34.789766 
L 102.882334 -34.789766 
L 103.015053 -34.789766 
L 103.147772 -34.789766 
L 103.28049 -34.789766 
L 103.413209 -34.789766 
L 103.545928 -34.789766 
L 103.678647 -34.789766 
L 103.811366 -34.789766 
L 103.944085 -34.789766 
L 104.076803 -34.789766 
L 104.209522 -34.789766 
L 104.342241 -34.789766 
L 104.47496 -34.789766 
L 104.607679 -34.789766 
L 104.740398 -34.789766 
L 104.873116 -34.789766 
L 105.005835 -34.789766 
L 105.138554 -34.789766 
L 105.271273 -34.789766 
L 105.403992 -34.789766 
L 105.53671 -34.789766 
L 105.669429 -34.789766 
L 105.802148 -34.789766 
L 105.934867 -34.789766 
L 106.067586 -34.789766 
L 106.200305 -34.789766 
L 106.333023 -34.789766 
L 106.465742 -34.789766 
L 106.598461 -34.789766 
L 106.73118 -34.789766 
L 106.863899 -34.789766 
L 106.996617 -34.789766 
L 107.129336 -34.789766 
L 107.262055 -34.789766 
L 107.394774 -34.789766 
L 107.527493 -34.789766 
L 107.660212 -34.789766 
L 107.79293 -34.789766 
L 107.925649 -34.789766 
L 108.058368 -34.789766 
L 108.191087 -34.789766 
L 108.323806 -34.789766 
L 108.456525 -34.789766 
L 108.589243 -34.789766 
L 108.721962 -34.789766 
L 108.854681 -34.789766 
L 108.9874 -34.789766 
L 109.120119 -34.789766 
L 109.252837 -34.789766 
L 109.385556 -34.789766 
L 109.518275 -34.789766 
L 109.650994 -34.789766 
L 109.783713 -34.789766 
L 109.916432 -34.789766 
L 110.04915 -34.789766 
L 110.181869 -34.789766 
L 110.314588 -34.789766 
L 110.314588 -37.347299 
L 110.314588 -37.347299 
L 110.181869 -37.70043 
L 110.04915 -38.096093 
L 109.916432 -38.538484 
L 109.783713 -39.032081 
L 109.650994 -39.581653 
L 109.518275 -40.192255 
L 109.385556 -40.869224 
L 109.252837 -41.618179 
L 109.120119 -42.445007 
L 108.9874 -43.355849 
L 108.854681 -44.357085 
L 108.721962 -45.455311 
L 108.589243 -46.657312 
L 108.456525 -47.970032 
L 108.323806 -49.400536 
L 108.191087 -50.955969 
L 108.058368 -52.643511 
L 107.925649 -54.470323 
L 107.79293 -56.443492 
L 107.660212 -58.569968 
L 107.527493 -60.856498 
L 107.394774 -63.309555 
L 107.262055 -65.935265 
L 107.129336 -68.739327 
L 106.996617 -71.726933 
L 106.863899 -74.902689 
L 106.73118 -78.270525 
L 106.598461 -81.833618 
L 106.465742 -85.594303 
L 106.333023 -89.553997 
L 106.200305 -93.71312 
L 106.067586 -98.071016 
L 105.934867 -102.625893 
L 105.802148 -107.374754 
L 105.669429 -112.31335 
L 105.53671 -117.436126 
L 105.403992 -122.736199 
L 105.271273 -128.205322 
L 105.138554 -133.833883 
L 105.005835 -139.610906 
L 104.873116 -145.524063 
L 104.740398 -151.559711 
L 104.607679 -157.702936 
L 104.47496 -163.937619 
L 104.342241 -170.246508 
L 104.209522 -176.611316 
L 104.076803 -183.012829 
L 103.944085 -189.431024 
L 103.811366 -195.845212 
L 103.678647 -202.234181 
L 103.545928 -208.576358 
L 103.413209 -214.84998 
L 103.28049 -221.033266 
L 103.147772 -227.104605 
L 103.015053 -233.04274 
L 102.882334 -238.826959 
L 102.749615 -244.437279 
L 102.616896 -249.854634 
L 102.484178 -255.061052 
L 102.351459 -260.03983 
L 102.21874 -264.775688 
L 102.086021 -269.254925 
L 101.953302 -273.465548 
L 101.820583 -277.39739 
L 101.687865 -281.042209 
L 101.555146 -284.393765 
L 101.422427 -287.447877 
L 101.289708 -290.202457 
L 101.156989 -292.657523 
L 101.02427 -294.815182 
L 100.891552 -296.679595 
L 100.758833 -298.256918 
L 100.626114 -299.555218 
L 100.493395 -300.584366 
L 100.360676 -301.355915 
L 100.227958 -301.882949 
L 100.095239 -302.179925 
L 99.96252 -302.262493 
L 99.829801 -302.147304 
L 99.697082 -301.851812 
L 99.564363 -301.394059 
L 99.431645 -300.792465 
L 99.298926 -300.065609 
L 99.166207 -299.232011 
L 99.033488 -298.309924 
L 98.900769 -297.317119 
L 98.76805 -296.270692 
L 98.635332 -295.186873 
L 98.502613 -294.080856 
L 98.369894 -292.966633 
L 98.237175 -291.856861 
L 98.104456 -290.762733 
L 97.971738 -289.693875 
L 97.839019 -288.65827 
L 97.7063 -287.662193 
L 97.573581 -286.710175 
L 97.440862 -285.804989 
L 97.308143 -284.947655 
L 97.175425 -284.137465 
L 97.042706 -283.37204 
L 96.909987 -282.647388 
L 96.777268 -281.957997 
L 96.644549 -281.296937 
L 96.51183 -280.655978 
L 96.379112 -280.025719 
L 96.246393 -279.395737 
L 96.113674 -278.754732 
L 95.980955 -278.090693 
L 95.848236 -277.391058 
L 95.715518 -276.642888 
L 95.582799 -275.833027 
L 95.45008 -274.948278 
L 95.317361 -273.975563 
L 95.184642 -272.902084 
L 95.051923 -271.71548 
L 94.919205 -270.403966 
L 94.786486 -268.956474 
L 94.653767 -267.362778 
L 94.521048 -265.613603 
L 94.388329 -263.700731 
L 94.255611 -261.617085 
L 94.122892 -259.356802 
L 93.990173 -256.915292 
L 93.857454 -254.289283 
L 93.724735 -251.47685 
L 93.592016 -248.477428 
L 93.459298 -245.291815 
L 93.326579 -241.922157 
L 93.19386 -238.371924 
L 93.061141 -234.645868 
L 92.928422 -230.749975 
L 92.795703 -226.691402 
L 92.662985 -222.478406 
L 92.530266 -218.120266 
L 92.397547 -213.627192 
L 92.264828 -209.010233 
L 92.132109 -204.281176 
L 91.999391 -199.452443 
L 91.866672 -194.536985 
L 91.733953 -189.548171 
L 91.601234 -184.49968 
L 91.468515 -179.405391 
L 91.335796 -174.27928 
L 91.203078 -169.135307 
L 91.070359 -163.987322 
L 90.93764 -158.848964 
L 90.804921 -153.73357 
L 90.672202 -148.654089 
L 90.539483 -143.623001 
L 90.406765 -138.652247 
L 90.274046 -133.75316 
L 90.141327 -128.936412 
L 90.008608 -124.21196 
L 89.875889 -119.589007 
L 89.743171 -115.075967 
L 89.610452 -110.680442 
L 89.477733 -106.409204 
L 89.345014 -102.268184 
L 89.212295 -98.262472 
L 89.079576 -94.396322 
L 88.946858 -90.673162 
L 88.814139 -87.095615 
L 88.68142 -83.665519 
L 88.548701 -80.383962 
L 88.415982 -77.251308 
L 88.283263 -74.267241 
L 88.150545 -71.430803 
L 88.017826 -68.74044 
L 87.885107 -66.194043 
L 87.752388 -63.789003 
L 87.619669 -61.522253 
L 87.486951 -59.390321 
L 87.354232 -57.389378 
L 87.221513 -55.515287 
L 87.088794 -53.76365 
L 86.956075 -52.129854 
L 86.823356 -50.609116 
L 86.690638 -49.196527 
L 86.557919 -47.88709 
L 86.4252 -46.675759 
L 86.292481 -45.557474 
L 86.159762 -44.527195 
L 86.027043 -43.579927 
L 85.894325 -42.710753 
L 85.761606 -41.914852 
L 85.628887 -41.187523 
L 85.496168 -40.524201 
L 85.363449 -39.920476 
L 85.230731 -39.3721 
L 85.098012 -38.875002 
L 84.965293 -38.425293 
L 84.832574 -38.019272 
L 84.699855 -37.653431 
L 84.567136 -37.324452 
L 84.434418 -37.029215 
L 84.301699 -36.764788 
L 84.16898 -36.528429 
L 84.036261 -36.31758 
L 83.903542 -36.129863 
z
" style="stroke: #dd8452; stroke-width: 1.5"/>
    </defs>
    <g clip-path="url(#p5aeeb4556e)">
     <use xlink:href="#m063489276c" x="0" y="336.209766" style="fill: #dd8452; fill-opacity: 0.25; stroke: #dd8452; stroke-width: 1.5"/>
    </g>
   </g>
   <g id="PolyCollection_3">
    <defs>
     <path id="m3bc9f15c43" d="M 214.911029 -35.389077 
L 214.911029 -34.789766 
L 215.348789 -34.789766 
L 215.786548 -34.789766 
L 216.224308 -34.789766 
L 216.662068 -34.789766 
L 217.099827 -34.789766 
L 217.537587 -34.789766 
L 217.975346 -34.789766 
L 218.413106 -34.789766 
L 218.850866 -34.789766 
L 219.288625 -34.789766 
L 219.726385 -34.789766 
L 220.164144 -34.789766 
L 220.601904 -34.789766 
L 221.039664 -34.789766 
L 221.477423 -34.789766 
L 221.915183 -34.789766 
L 222.352943 -34.789766 
L 222.790702 -34.789766 
L 223.228462 -34.789766 
L 223.666221 -34.789766 
L 224.103981 -34.789766 
L 224.541741 -34.789766 
L 224.9795 -34.789766 
L 225.41726 -34.789766 
L 225.85502 -34.789766 
L 226.292779 -34.789766 
L 226.730539 -34.789766 
L 227.168298 -34.789766 
L 227.606058 -34.789766 
L 228.043818 -34.789766 
L 228.481577 -34.789766 
L 228.919337 -34.789766 
L 229.357097 -34.789766 
L 229.794856 -34.789766 
L 230.232616 -34.789766 
L 230.670375 -34.789766 
L 231.108135 -34.789766 
L 231.545895 -34.789766 
L 231.983654 -34.789766 
L 232.421414 -34.789766 
L 232.859173 -34.789766 
L 233.296933 -34.789766 
L 233.734693 -34.789766 
L 234.172452 -34.789766 
L 234.610212 -34.789766 
L 235.047972 -34.789766 
L 235.485731 -34.789766 
L 235.923491 -34.789766 
L 236.36125 -34.789766 
L 236.79901 -34.789766 
L 237.23677 -34.789766 
L 237.674529 -34.789766 
L 238.112289 -34.789766 
L 238.550049 -34.789766 
L 238.987808 -34.789766 
L 239.425568 -34.789766 
L 239.863327 -34.789766 
L 240.301087 -34.789766 
L 240.738847 -34.789766 
L 241.176606 -34.789766 
L 241.614366 -34.789766 
L 242.052125 -34.789766 
L 242.489885 -34.789766 
L 242.927645 -34.789766 
L 243.365404 -34.789766 
L 243.803164 -34.789766 
L 244.240924 -34.789766 
L 244.678683 -34.789766 
L 245.116443 -34.789766 
L 245.554202 -34.789766 
L 245.991962 -34.789766 
L 246.429722 -34.789766 
L 246.867481 -34.789766 
L 247.305241 -34.789766 
L 247.743001 -34.789766 
L 248.18076 -34.789766 
L 248.61852 -34.789766 
L 249.056279 -34.789766 
L 249.494039 -34.789766 
L 249.931799 -34.789766 
L 250.369558 -34.789766 
L 250.807318 -34.789766 
L 251.245077 -34.789766 
L 251.682837 -34.789766 
L 252.120597 -34.789766 
L 252.558356 -34.789766 
L 252.996116 -34.789766 
L 253.433876 -34.789766 
L 253.871635 -34.789766 
L 254.309395 -34.789766 
L 254.747154 -34.789766 
L 255.184914 -34.789766 
L 255.622674 -34.789766 
L 256.060433 -34.789766 
L 256.498193 -34.789766 
L 256.935953 -34.789766 
L 257.373712 -34.789766 
L 257.811472 -34.789766 
L 258.249231 -34.789766 
L 258.686991 -34.789766 
L 259.124751 -34.789766 
L 259.56251 -34.789766 
L 260.00027 -34.789766 
L 260.438029 -34.789766 
L 260.875789 -34.789766 
L 261.313549 -34.789766 
L 261.751308 -34.789766 
L 262.189068 -34.789766 
L 262.626828 -34.789766 
L 263.064587 -34.789766 
L 263.502347 -34.789766 
L 263.940106 -34.789766 
L 264.377866 -34.789766 
L 264.815626 -34.789766 
L 265.253385 -34.789766 
L 265.691145 -34.789766 
L 266.128905 -34.789766 
L 266.566664 -34.789766 
L 267.004424 -34.789766 
L 267.442183 -34.789766 
L 267.879943 -34.789766 
L 268.317703 -34.789766 
L 268.755462 -34.789766 
L 269.193222 -34.789766 
L 269.630982 -34.789766 
L 270.068741 -34.789766 
L 270.506501 -34.789766 
L 270.94426 -34.789766 
L 271.38202 -34.789766 
L 271.81978 -34.789766 
L 272.257539 -34.789766 
L 272.695299 -34.789766 
L 273.133058 -34.789766 
L 273.570818 -34.789766 
L 274.008578 -34.789766 
L 274.446337 -34.789766 
L 274.884097 -34.789766 
L 275.321857 -34.789766 
L 275.759616 -34.789766 
L 276.197376 -34.789766 
L 276.635135 -34.789766 
L 277.072895 -34.789766 
L 277.510655 -34.789766 
L 277.948414 -34.789766 
L 278.386174 -34.789766 
L 278.823934 -34.789766 
L 279.261693 -34.789766 
L 279.699453 -34.789766 
L 280.137212 -34.789766 
L 280.574972 -34.789766 
L 281.012732 -34.789766 
L 281.450491 -34.789766 
L 281.888251 -34.789766 
L 282.32601 -34.789766 
L 282.76377 -34.789766 
L 283.20153 -34.789766 
L 283.639289 -34.789766 
L 284.077049 -34.789766 
L 284.514809 -34.789766 
L 284.952568 -34.789766 
L 285.390328 -34.789766 
L 285.828087 -34.789766 
L 286.265847 -34.789766 
L 286.703607 -34.789766 
L 287.141366 -34.789766 
L 287.579126 -34.789766 
L 288.016886 -34.789766 
L 288.454645 -34.789766 
L 288.892405 -34.789766 
L 289.330164 -34.789766 
L 289.767924 -34.789766 
L 290.205684 -34.789766 
L 290.643443 -34.789766 
L 291.081203 -34.789766 
L 291.518962 -34.789766 
L 291.956722 -34.789766 
L 292.394482 -34.789766 
L 292.832241 -34.789766 
L 293.270001 -34.789766 
L 293.707761 -34.789766 
L 294.14552 -34.789766 
L 294.58328 -34.789766 
L 295.021039 -34.789766 
L 295.458799 -34.789766 
L 295.896559 -34.789766 
L 296.334318 -34.789766 
L 296.772078 -34.789766 
L 297.209838 -34.789766 
L 297.647597 -34.789766 
L 298.085357 -34.789766 
L 298.523116 -34.789766 
L 298.960876 -34.789766 
L 299.398636 -34.789766 
L 299.836395 -34.789766 
L 300.274155 -34.789766 
L 300.711914 -34.789766 
L 301.149674 -34.789766 
L 301.587434 -34.789766 
L 302.025193 -34.789766 
L 302.025193 -35.262006 
L 302.025193 -35.262006 
L 301.587434 -35.332688 
L 301.149674 -35.412699 
L 300.711914 -35.503071 
L 300.274155 -35.604922 
L 299.836395 -35.719454 
L 299.398636 -35.847963 
L 298.960876 -35.991832 
L 298.523116 -36.152541 
L 298.085357 -36.331661 
L 297.647597 -36.530852 
L 297.209838 -36.75187 
L 296.772078 -36.996554 
L 296.334318 -37.266827 
L 295.896559 -37.564692 
L 295.458799 -37.892221 
L 295.021039 -38.251547 
L 294.58328 -38.644858 
L 294.14552 -39.074381 
L 293.707761 -39.542371 
L 293.270001 -40.051095 
L 292.832241 -40.602813 
L 292.394482 -41.199765 
L 291.956722 -41.844146 
L 291.518962 -42.538086 
L 291.081203 -43.283625 
L 290.643443 -44.082693 
L 290.205684 -44.937082 
L 289.767924 -45.848418 
L 289.330164 -46.818137 
L 288.892405 -47.847455 
L 288.454645 -48.937346 
L 288.016886 -50.088506 
L 287.579126 -51.301338 
L 287.141366 -52.575918 
L 286.703607 -53.911974 
L 286.265847 -55.308867 
L 285.828087 -56.765569 
L 285.390328 -58.280645 
L 284.952568 -59.852245 
L 284.514809 -61.478087 
L 284.077049 -63.155459 
L 283.639289 -64.88121 
L 283.20153 -66.651757 
L 282.76377 -68.463094 
L 282.32601 -70.310802 
L 281.888251 -72.19007 
L 281.450491 -74.095717 
L 281.012732 -76.022221 
L 280.574972 -77.963754 
L 280.137212 -79.914221 
L 279.699453 -81.867308 
L 279.261693 -83.816522 
L 278.823934 -85.755256 
L 278.386174 -87.676837 
L 277.948414 -89.574591 
L 277.510655 -91.441903 
L 277.072895 -93.272285 
L 276.635135 -95.05944 
L 276.197376 -96.797331 
L 275.759616 -98.480241 
L 275.321857 -100.102846 
L 274.884097 -101.66027 
L 274.446337 -103.148148 
L 274.008578 -104.562684 
L 273.570818 -105.900695 
L 273.133058 -107.15966 
L 272.695299 -108.337759 
L 272.257539 -109.433902 
L 271.81978 -110.447754 
L 271.38202 -111.37975 
L 270.94426 -112.231099 
L 270.506501 -113.003786 
L 270.068741 -113.700556 
L 269.630982 -114.324892 
L 269.193222 -114.880989 
L 268.755462 -115.373706 
L 268.317703 -115.808525 
L 267.879943 -116.191486 
L 267.442183 -116.529127 
L 267.004424 -116.828407 
L 266.566664 -117.096627 
L 266.128905 -117.341346 
L 265.691145 -117.570289 
L 265.253385 -117.791254 
L 264.815626 -118.012015 
L 264.377866 -118.240226 
L 263.940106 -118.483319 
L 263.502347 -118.748411 
L 263.064587 -119.042208 
L 262.626828 -119.370913 
L 262.189068 -119.740141 
L 261.751308 -120.154837 
L 261.313549 -120.619202 
L 260.875789 -121.136631 
L 260.438029 -121.70965 
L 260.00027 -122.339874 
L 259.56251 -123.027967 
L 259.124751 -123.773616 
L 258.686991 -124.575517 
L 258.249231 -125.431375 
L 257.811472 -126.337903 
L 257.373712 -127.290852 
L 256.935953 -128.285038 
L 256.498193 -129.314385 
L 256.060433 -130.371978 
L 255.622674 -131.450128 
L 255.184914 -132.540445 
L 254.747154 -133.633919 
L 254.309395 -134.721009 
L 253.871635 -135.791739 
L 253.433876 -136.835801 
L 252.996116 -137.842658 
L 252.558356 -138.801654 
L 252.120597 -139.702123 
L 251.682837 -140.533504 
L 251.245077 -141.285443 
L 250.807318 -141.947909 
L 250.369558 -142.511291 
L 249.931799 -142.966504 
L 249.494039 -143.305076 
L 249.056279 -143.519241 
L 248.61852 -143.602016 
L 248.18076 -143.547267 
L 247.743001 -143.349778 
L 247.305241 -143.005296 
L 246.867481 -142.510574 
L 246.429722 -141.863397 
L 245.991962 -141.062608 
L 245.554202 -140.108106 
L 245.116443 -139.000849 
L 244.678683 -137.742837 
L 244.240924 -136.337086 
L 243.803164 -134.787594 
L 243.365404 -133.099297 
L 242.927645 -131.278013 
L 242.489885 -129.330385 
L 242.052125 -127.263806 
L 241.614366 -125.086351 
L 241.176606 -122.806695 
L 240.738847 -120.434028 
L 240.301087 -117.97797 
L 239.863327 -115.448479 
L 239.425568 -112.855766 
L 238.987808 -110.210206 
L 238.550049 -107.522242 
L 238.112289 -104.802309 
L 237.674529 -102.060745 
L 237.23677 -99.307714 
L 236.79901 -96.553131 
L 236.36125 -93.806592 
L 235.923491 -91.077314 
L 235.485731 -88.374075 
L 235.047972 -85.705166 
L 234.610212 -83.078345 
L 234.172452 -80.500806 
L 233.734693 -77.979143 
L 233.296933 -75.519336 
L 232.859173 -73.126731 
L 232.421414 -70.806033 
L 231.983654 -68.561306 
L 231.545895 -66.395978 
L 231.108135 -64.312851 
L 230.670375 -62.314115 
L 230.232616 -60.401372 
L 229.794856 -58.57566 
L 229.357097 -56.837479 
L 228.919337 -55.186826 
L 228.481577 -53.623229 
L 228.043818 -52.145779 
L 227.606058 -50.753175 
L 227.168298 -49.443757 
L 226.730539 -48.215547 
L 226.292779 -47.066288 
L 225.85502 -45.993482 
L 225.41726 -44.994428 
L 224.9795 -44.066259 
L 224.541741 -43.205978 
L 224.103981 -42.410486 
L 223.666221 -41.676618 
L 223.228462 -41.001174 
L 222.790702 -40.380937 
L 222.352943 -39.812705 
L 221.915183 -39.293313 
L 221.477423 -38.819645 
L 221.039664 -38.38866 
L 220.601904 -37.997401 
L 220.164144 -37.643008 
L 219.726385 -37.322733 
L 219.288625 -37.033941 
L 218.850866 -36.77412 
L 218.413106 -36.540888 
L 217.975346 -36.331991 
L 217.537587 -36.145304 
L 217.099827 -35.978839 
L 216.662068 -35.830732 
L 216.224308 -35.699252 
L 215.786548 -35.582788 
L 215.348789 -35.479854 
L 214.911029 -35.389077 
z
" style="stroke: #4c72b0; stroke-width: 1.5"/>
    </defs>
    <g clip-path="url(#p5aeeb4556e)">
     <use xlink:href="#m3bc9f15c43" x="0" y="336.209766" style="fill: #4c72b0; fill-opacity: 0.25; stroke: #4c72b0; stroke-width: 1.5"/>
    </g>
   </g>
   <g id="LineCollection_1">
    <path d="M 251.744818 301.42 
L 251.744818 294.0645 
" clip-path="url(#p5aeeb4556e)" style="fill: none; stroke: #4c72b0"/>
    <path d="M 246.366183 301.42 
L 246.366183 294.0645 
" clip-path="url(#p5aeeb4556e)" style="fill: none; stroke: #4c72b0"/>
    <path d="M 243.676865 301.42 
L 243.676865 294.0645 
" clip-path="url(#p5aeeb4556e)" style="fill: none; stroke: #4c72b0"/>
    <path d="M 273.259357 301.42 
L 273.259357 294.0645 
" clip-path="url(#p5aeeb4556e)" style="fill: none; stroke: #4c72b0"/>
    <path d="M 267.880722 301.42 
L 267.880722 294.0645 
" clip-path="url(#p5aeeb4556e)" style="fill: none; stroke: #4c72b0"/>
    <path d="M 101.143041 301.42 
L 101.143041 294.0645 
" clip-path="url(#p5aeeb4556e)" style="fill: none; stroke: #dd8452"/>
    <path d="M 101.143041 301.42 
L 101.143041 294.0645 
" clip-path="url(#p5aeeb4556e)" style="fill: none; stroke: #dd8452"/>
    <path d="M 93.075089 301.42 
L 93.075089 294.0645 
" clip-path="url(#p5aeeb4556e)" style="fill: none; stroke: #dd8452"/>
    <path d="M 95.764406 301.42 
L 95.764406 294.0645 
" clip-path="url(#p5aeeb4556e)" style="fill: none; stroke: #dd8452"/>
    <path d="M 187.201199 301.42 
L 187.201199 294.0645 
" clip-path="url(#p5aeeb4556e)" style="fill: none; stroke: #55a868"/>
    <path d="M 265.191405 301.42 
L 265.191405 294.0645 
" clip-path="url(#p5aeeb4556e)" style="fill: none; stroke: #55a868"/>
    <path d="M 232.919596 301.42 
L 232.919596 294.0645 
" clip-path="url(#p5aeeb4556e)" style="fill: none; stroke: #55a868"/>
    <path d="M 227.540961 301.42 
L 227.540961 294.0645 
" clip-path="url(#p5aeeb4556e)" style="fill: none; stroke: #55a868"/>
    <path d="M 238.29823 301.42 
L 238.29823 294.0645 
" clip-path="url(#p5aeeb4556e)" style="fill: none; stroke: #55a868"/>
    <path d="M 203.337104 301.42 
L 203.337104 294.0645 
" clip-path="url(#p5aeeb4556e)" style="fill: none; stroke: #55a868"/>
    <path d="M 238.29823 301.42 
L 238.29823 294.0645 
" clip-path="url(#p5aeeb4556e)" style="fill: none; stroke: #55a868"/>
    <path d="M 195.269152 301.42 
L 195.269152 294.0645 
" clip-path="url(#p5aeeb4556e)" style="fill: none; stroke: #55a868"/>
    <path d="M 238.29823 301.42 
L 238.29823 294.0645 
" clip-path="url(#p5aeeb4556e)" style="fill: none; stroke: #55a868"/>
    <path d="M 259.81277 301.42 
L 259.81277 294.0645 
" clip-path="url(#p5aeeb4556e)" style="fill: none; stroke: #55a868"/>
    <path d="M 208.715739 301.42 
L 208.715739 294.0645 
" clip-path="url(#p5aeeb4556e)" style="fill: none; stroke: #55a868"/>
   </g>
   <g id="patch_3">
    <path d="M 72.483047 301.42 
L 72.483047 7.2 
" style="fill: none; stroke: #262626; stroke-width: 1.875; stroke-linejoin: miter; stroke-linecap: square"/>
   </g>
   <g id="patch_4">
    <path d="M 72.483047 301.42 
L 323.733947 301.42 
" style="fill: none; stroke: #262626; stroke-width: 1.875; stroke-linejoin: miter; stroke-linecap: square"/>
   </g>
  </g>
  <g id="legend_1">
   <g id="patch_5">
    <path d="M 345.073125 149.030625 
L 378.073125 149.030625 
L 378.073125 137.480625 
L 345.073125 137.480625 
z
" style="fill: #4c72b0; fill-opacity: 0.25; stroke: #4c72b0; stroke-width: 1.5; stroke-linejoin: miter"/>
   </g>
   <g id="text_11">
    <!-- GIGA -->
    <g style="fill: #262626" transform="translate(391.273125 149.030625) scale(0.165 -0.165)">
     <defs>
      <path id="ArialMT-47" d="M 2638 1797 
L 2638 2334 
L 4578 2338 
L 4578 638 
Q 4131 281 3656 101 
Q 3181 -78 2681 -78 
Q 2006 -78 1454 211 
Q 903 500 622 1047 
Q 341 1594 341 2269 
Q 341 2938 620 3517 
Q 900 4097 1425 4378 
Q 1950 4659 2634 4659 
Q 3131 4659 3532 4498 
Q 3934 4338 4162 4050 
Q 4391 3763 4509 3300 
L 3963 3150 
Q 3859 3500 3706 3700 
Q 3553 3900 3268 4020 
Q 2984 4141 2638 4141 
Q 2222 4141 1919 4014 
Q 1616 3888 1430 3681 
Q 1244 3475 1141 3228 
Q 966 2803 966 2306 
Q 966 1694 1177 1281 
Q 1388 869 1791 669 
Q 2194 469 2647 469 
Q 3041 469 3416 620 
Q 3791 772 3984 944 
L 3984 1797 
L 2638 1797 
z
" transform="scale(0.015625)"/>
      <path id="ArialMT-49" d="M 597 0 
L 597 4581 
L 1203 4581 
L 1203 0 
L 597 0 
z
" transform="scale(0.015625)"/>
      <path id="ArialMT-41" d="M -9 0 
L 1750 4581 
L 2403 4581 
L 4278 0 
L 3588 0 
L 3053 1388 
L 1138 1388 
L 634 0 
L -9 0 
z
M 1313 1881 
L 2866 1881 
L 2388 3150 
Q 2169 3728 2063 4100 
Q 1975 3659 1816 3225 
L 1313 1881 
z
" transform="scale(0.015625)"/>
     </defs>
     <use xlink:href="#ArialMT-47"/>
     <use xlink:href="#ArialMT-49" x="77.783203"/>
     <use xlink:href="#ArialMT-47" x="105.566406"/>
     <use xlink:href="#ArialMT-41" x="183.349609"/>
    </g>
   </g>
   <g id="patch_6">
    <path d="M 345.073125 172.370391 
L 378.073125 172.370391 
L 378.073125 160.820391 
L 345.073125 160.820391 
z
" style="fill: #dd8452; fill-opacity: 0.25; stroke: #dd8452; stroke-width: 1.5; stroke-linejoin: miter"/>
   </g>
   <g id="text_12">
    <!-- KILO -->
    <g style="fill: #262626" transform="translate(391.273125 172.370391) scale(0.165 -0.165)">
     <defs>
      <path id="ArialMT-4b" d="M 469 0 
L 469 4581 
L 1075 4581 
L 1075 2309 
L 3350 4581 
L 4172 4581 
L 2250 2725 
L 4256 0 
L 3456 0 
L 1825 2319 
L 1075 1588 
L 1075 0 
L 469 0 
z
" transform="scale(0.015625)"/>
      <path id="ArialMT-4c" d="M 469 0 
L 469 4581 
L 1075 4581 
L 1075 541 
L 3331 541 
L 3331 0 
L 469 0 
z
" transform="scale(0.015625)"/>
      <path id="ArialMT-4f" d="M 309 2231 
Q 309 3372 921 4017 
Q 1534 4663 2503 4663 
Q 3138 4663 3647 4359 
Q 4156 4056 4423 3514 
Q 4691 2972 4691 2284 
Q 4691 1588 4409 1038 
Q 4128 488 3612 205 
Q 3097 -78 2500 -78 
Q 1853 -78 1343 234 
Q 834 547 571 1087 
Q 309 1628 309 2231 
z
M 934 2222 
Q 934 1394 1379 917 
Q 1825 441 2497 441 
Q 3181 441 3623 922 
Q 4066 1403 4066 2288 
Q 4066 2847 3877 3264 
Q 3688 3681 3323 3911 
Q 2959 4141 2506 4141 
Q 1863 4141 1398 3698 
Q 934 3256 934 2222 
z
" transform="scale(0.015625)"/>
     </defs>
     <use xlink:href="#ArialMT-4b"/>
     <use xlink:href="#ArialMT-49" x="66.699219"/>
     <use xlink:href="#ArialMT-4c" x="94.482422"/>
     <use xlink:href="#ArialMT-4f" x="150.097656"/>
    </g>
   </g>
   <g id="patch_7">
    <path d="M 345.073125 195.710156 
L 378.073125 195.710156 
L 378.073125 184.160156 
L 345.073125 184.160156 
z
" style="fill: #55a868; fill-opacity: 0.25; stroke: #55a868; stroke-width: 1.5; stroke-linejoin: miter"/>
   </g>
   <g id="text_13">
    <!-- MEGA -->
    <g style="fill: #262626" transform="translate(391.273125 195.710156) scale(0.165 -0.165)">
     <defs>
      <path id="ArialMT-4d" d="M 475 0 
L 475 4581 
L 1388 4581 
L 2472 1338 
Q 2622 884 2691 659 
Q 2769 909 2934 1394 
L 4031 4581 
L 4847 4581 
L 4847 0 
L 4263 0 
L 4263 3834 
L 2931 0 
L 2384 0 
L 1059 3900 
L 1059 0 
L 475 0 
z
" transform="scale(0.015625)"/>
      <path id="ArialMT-45" d="M 506 0 
L 506 4581 
L 3819 4581 
L 3819 4041 
L 1113 4041 
L 1113 2638 
L 3647 2638 
L 3647 2100 
L 1113 2100 
L 1113 541 
L 3925 541 
L 3925 0 
L 506 0 
z
" transform="scale(0.015625)"/>
     </defs>
     <use xlink:href="#ArialMT-4d"/>
     <use xlink:href="#ArialMT-45" x="83.300781"/>
     <use xlink:href="#ArialMT-47" x="150"/>
     <use xlink:href="#ArialMT-41" x="227.783203"/>
    </g>
   </g>
  </g>
 </g>
 <defs>
  <clipPath id="p5aeeb4556e">
   <rect x="72.483047" y="7.2" width="251.2509" height="294.22"/>
  </clipPath>
 </defs>
</svg>
