<?xml version="1.0" encoding="utf-8" standalone="no"?>
<!DOCTYPE svg PUBLIC "-//W3C//DTD SVG 1.1//EN"
  "http://www.w3.org/Graphics/SVG/1.1/DTD/svg11.dtd">
<svg xmlns:xlink="http://www.w3.org/1999/xlink" width="511.593047pt" height="336.209766pt" viewBox="0 0 511.593047 336.209766" xmlns="http://www.w3.org/2000/svg" version="1.1">
 <metadata>
  <rdf:RDF xmlns:dc="http://purl.org/dc/elements/1.1/" xmlns:cc="http://creativecommons.org/ns#" xmlns:rdf="http://www.w3.org/1999/02/22-rdf-syntax-ns#">
   <cc:Work>
    <dc:type rdf:resource="http://purl.org/dc/dcmitype/StillImage"/>
    <dc:date>2023-11-16T23:06:48.905489</dc:date>
    <dc:format>image/svg+xml</dc:format>
    <dc:creator>
     <cc:Agent>
      <dc:title>Matplotlib v3.8.0, https://matplotlib.org/</dc:title>
     </cc:Agent>
    </dc:creator>
   </cc:Work>
  </rdf:RDF>
 </metadata>
 <defs>
  <style type="text/css">*{stroke-linejoin: round; stroke-linecap: butt}</style>
 </defs>
 <g id="figure_1">
  <g id="patch_1">
   <path d="M 0 336.209766 
L 511.593047 336.209766 
L 511.593047 0 
L 0 0 
z
" style="fill: #ffffff"/>
  </g>
  <g id="axes_1">
   <g id="patch_2">
    <path d="M 72.483047 301.42 
L 323.165147 301.42 
L 323.165147 7.2 
L 72.483047 7.2 
z
" style="fill: #ffffff"/>
   </g>
   <g id="matplotlib.axis_1">
    <g id="xtick_1">
     <g id="line2d_1">
      <defs>
       <path id="m132e650868" d="M 0 0 
L 0 9 
" style="stroke: #262626; stroke-width: 1.875"/>
      </defs>
      <g>
       <use xlink:href="#m132e650868" x="103.975152" y="301.42" style="fill: #262626; stroke: #262626; stroke-width: 1.875"/>
      </g>
     </g>
     <g id="text_1">
      <!-- 100 -->
      <g style="fill: #262626" transform="translate(90.211832 325.730391) scale(0.165 -0.165)">
       <defs>
        <path id="ArialMT-31" d="M 2384 0 
L 1822 0 
L 1822 3584 
Q 1619 3391 1289 3197 
Q 959 3003 697 2906 
L 697 3450 
Q 1169 3672 1522 3987 
Q 1875 4303 2022 4600 
L 2384 4600 
L 2384 0 
z
" transform="scale(0.015625)"/>
        <path id="ArialMT-30" d="M 266 2259 
Q 266 3072 433 3567 
Q 600 4063 929 4331 
Q 1259 4600 1759 4600 
Q 2128 4600 2406 4451 
Q 2684 4303 2865 4023 
Q 3047 3744 3150 3342 
Q 3253 2941 3253 2259 
Q 3253 1453 3087 958 
Q 2922 463 2592 192 
Q 2263 -78 1759 -78 
Q 1097 -78 719 397 
Q 266 969 266 2259 
z
M 844 2259 
Q 844 1131 1108 757 
Q 1372 384 1759 384 
Q 2147 384 2411 759 
Q 2675 1134 2675 2259 
Q 2675 3391 2411 3762 
Q 2147 4134 1753 4134 
Q 1366 4134 1134 3806 
Q 844 3388 844 2259 
z
" transform="scale(0.015625)"/>
       </defs>
       <use xlink:href="#ArialMT-31"/>
       <use xlink:href="#ArialMT-30" x="55.615234"/>
       <use xlink:href="#ArialMT-30" x="111.230469"/>
      </g>
     </g>
    </g>
    <g id="xtick_2">
     <g id="line2d_2">
      <g>
       <use xlink:href="#m132e650868" x="200.501402" y="301.42" style="fill: #262626; stroke: #262626; stroke-width: 1.875"/>
      </g>
     </g>
     <g id="text_2">
      <!-- 150 -->
      <g style="fill: #262626" transform="translate(186.738082 325.730391) scale(0.165 -0.165)">
       <defs>
        <path id="ArialMT-35" d="M 266 1200 
L 856 1250 
Q 922 819 1161 601 
Q 1400 384 1738 384 
Q 2144 384 2425 690 
Q 2706 997 2706 1503 
Q 2706 1984 2436 2262 
Q 2166 2541 1728 2541 
Q 1456 2541 1237 2417 
Q 1019 2294 894 2097 
L 366 2166 
L 809 4519 
L 3088 4519 
L 3088 3981 
L 1259 3981 
L 1013 2750 
Q 1425 3038 1878 3038 
Q 2478 3038 2890 2622 
Q 3303 2206 3303 1553 
Q 3303 931 2941 478 
Q 2500 -78 1738 -78 
Q 1113 -78 717 272 
Q 322 622 266 1200 
z
" transform="scale(0.015625)"/>
       </defs>
       <use xlink:href="#ArialMT-31"/>
       <use xlink:href="#ArialMT-35" x="55.615234"/>
       <use xlink:href="#ArialMT-30" x="111.230469"/>
      </g>
     </g>
    </g>
    <g id="xtick_3">
     <g id="line2d_3">
      <g>
       <use xlink:href="#m132e650868" x="297.027652" y="301.42" style="fill: #262626; stroke: #262626; stroke-width: 1.875"/>
      </g>
     </g>
     <g id="text_3">
      <!-- 200 -->
      <g style="fill: #262626" transform="translate(283.264332 325.730391) scale(0.165 -0.165)">
       <defs>
        <path id="ArialMT-32" d="M 3222 541 
L 3222 0 
L 194 0 
Q 188 203 259 391 
Q 375 700 629 1000 
Q 884 1300 1366 1694 
Q 2113 2306 2375 2664 
Q 2638 3022 2638 3341 
Q 2638 3675 2398 3904 
Q 2159 4134 1775 4134 
Q 1369 4134 1125 3890 
Q 881 3647 878 3216 
L 300 3275 
Q 359 3922 746 4261 
Q 1134 4600 1788 4600 
Q 2447 4600 2831 4234 
Q 3216 3869 3216 3328 
Q 3216 3053 3103 2787 
Q 2991 2522 2730 2228 
Q 2469 1934 1863 1422 
Q 1356 997 1212 845 
Q 1069 694 975 541 
L 3222 541 
z
" transform="scale(0.015625)"/>
       </defs>
       <use xlink:href="#ArialMT-32"/>
       <use xlink:href="#ArialMT-30" x="55.615234"/>
       <use xlink:href="#ArialMT-30" x="111.230469"/>
      </g>
     </g>
    </g>
   </g>
   <g id="matplotlib.axis_2">
    <g id="ytick_1">
     <g id="line2d_4">
      <defs>
       <path id="mb480b7feed" d="M 0 0 
L -9 0 
" style="stroke: #262626; stroke-width: 1.875"/>
      </defs>
      <g>
       <use xlink:href="#mb480b7feed" x="72.483047" y="301.42" style="fill: #262626; stroke: #262626; stroke-width: 1.875"/>
      </g>
     </g>
     <g id="text_4">
      <!-- 0.00 -->
      <g style="fill: #262626" transform="translate(27.8725 307.325195) scale(0.165 -0.165)">
       <defs>
        <path id="ArialMT-2e" d="M 581 0 
L 581 641 
L 1222 641 
L 1222 0 
L 581 0 
z
" transform="scale(0.015625)"/>
       </defs>
       <use xlink:href="#ArialMT-30"/>
       <use xlink:href="#ArialMT-2e" x="55.615234"/>
       <use xlink:href="#ArialMT-30" x="83.398438"/>
       <use xlink:href="#ArialMT-30" x="139.013672"/>
      </g>
     </g>
    </g>
    <g id="ytick_2">
     <g id="line2d_5">
      <g>
       <use xlink:href="#mb480b7feed" x="72.483047" y="255.523909" style="fill: #262626; stroke: #262626; stroke-width: 1.875"/>
      </g>
     </g>
     <g id="text_5">
      <!-- 0.01 -->
      <g style="fill: #262626" transform="translate(27.8725 261.429104) scale(0.165 -0.165)">
       <use xlink:href="#ArialMT-30"/>
       <use xlink:href="#ArialMT-2e" x="55.615234"/>
       <use xlink:href="#ArialMT-30" x="83.398438"/>
       <use xlink:href="#ArialMT-31" x="139.013672"/>
      </g>
     </g>
    </g>
    <g id="ytick_3">
     <g id="line2d_6">
      <g>
       <use xlink:href="#mb480b7feed" x="72.483047" y="209.627817" style="fill: #262626; stroke: #262626; stroke-width: 1.875"/>
      </g>
     </g>
     <g id="text_6">
      <!-- 0.02 -->
      <g style="fill: #262626" transform="translate(27.8725 215.533012) scale(0.165 -0.165)">
       <use xlink:href="#ArialMT-30"/>
       <use xlink:href="#ArialMT-2e" x="55.615234"/>
       <use xlink:href="#ArialMT-30" x="83.398438"/>
       <use xlink:href="#ArialMT-32" x="139.013672"/>
      </g>
     </g>
    </g>
    <g id="ytick_4">
     <g id="line2d_7">
      <g>
       <use xlink:href="#mb480b7feed" x="72.483047" y="163.731726" style="fill: #262626; stroke: #262626; stroke-width: 1.875"/>
      </g>
     </g>
     <g id="text_7">
      <!-- 0.03 -->
      <g style="fill: #262626" transform="translate(27.8725 169.636921) scale(0.165 -0.165)">
       <defs>
        <path id="ArialMT-33" d="M 269 1209 
L 831 1284 
Q 928 806 1161 595 
Q 1394 384 1728 384 
Q 2125 384 2398 659 
Q 2672 934 2672 1341 
Q 2672 1728 2419 1979 
Q 2166 2231 1775 2231 
Q 1616 2231 1378 2169 
L 1441 2663 
Q 1497 2656 1531 2656 
Q 1891 2656 2178 2843 
Q 2466 3031 2466 3422 
Q 2466 3731 2256 3934 
Q 2047 4138 1716 4138 
Q 1388 4138 1169 3931 
Q 950 3725 888 3313 
L 325 3413 
Q 428 3978 793 4289 
Q 1159 4600 1703 4600 
Q 2078 4600 2393 4439 
Q 2709 4278 2876 4000 
Q 3044 3722 3044 3409 
Q 3044 3113 2884 2869 
Q 2725 2625 2413 2481 
Q 2819 2388 3044 2092 
Q 3269 1797 3269 1353 
Q 3269 753 2831 336 
Q 2394 -81 1725 -81 
Q 1122 -81 723 278 
Q 325 638 269 1209 
z
" transform="scale(0.015625)"/>
       </defs>
       <use xlink:href="#ArialMT-30"/>
       <use xlink:href="#ArialMT-2e" x="55.615234"/>
       <use xlink:href="#ArialMT-30" x="83.398438"/>
       <use xlink:href="#ArialMT-33" x="139.013672"/>
      </g>
     </g>
    </g>
    <g id="ytick_5">
     <g id="line2d_8">
      <g>
       <use xlink:href="#mb480b7feed" x="72.483047" y="117.835634" style="fill: #262626; stroke: #262626; stroke-width: 1.875"/>
      </g>
     </g>
     <g id="text_8">
      <!-- 0.04 -->
      <g style="fill: #262626" transform="translate(27.8725 123.740829) scale(0.165 -0.165)">
       <defs>
        <path id="ArialMT-34" d="M 2069 0 
L 2069 1097 
L 81 1097 
L 81 1613 
L 2172 4581 
L 2631 4581 
L 2631 1613 
L 3250 1613 
L 3250 1097 
L 2631 1097 
L 2631 0 
L 2069 0 
z
M 2069 1613 
L 2069 3678 
L 634 1613 
L 2069 1613 
z
" transform="scale(0.015625)"/>
       </defs>
       <use xlink:href="#ArialMT-30"/>
       <use xlink:href="#ArialMT-2e" x="55.615234"/>
       <use xlink:href="#ArialMT-30" x="83.398438"/>
       <use xlink:href="#ArialMT-34" x="139.013672"/>
      </g>
     </g>
    </g>
    <g id="ytick_6">
     <g id="line2d_9">
      <g>
       <use xlink:href="#mb480b7feed" x="72.483047" y="71.939543" style="fill: #262626; stroke: #262626; stroke-width: 1.875"/>
      </g>
     </g>
     <g id="text_9">
      <!-- 0.05 -->
      <g style="fill: #262626" transform="translate(27.8725 77.844738) scale(0.165 -0.165)">
       <use xlink:href="#ArialMT-30"/>
       <use xlink:href="#ArialMT-2e" x="55.615234"/>
       <use xlink:href="#ArialMT-30" x="83.398438"/>
       <use xlink:href="#ArialMT-35" x="139.013672"/>
      </g>
     </g>
    </g>
    <g id="ytick_7">
     <g id="line2d_10">
      <g>
       <use xlink:href="#mb480b7feed" x="72.483047" y="26.043451" style="fill: #262626; stroke: #262626; stroke-width: 1.875"/>
      </g>
     </g>
     <g id="text_10">
      <!-- 0.06 -->
      <g style="fill: #262626" transform="translate(27.8725 31.948646) scale(0.165 -0.165)">
       <defs>
        <path id="ArialMT-36" d="M 3184 3459 
L 2625 3416 
Q 2550 3747 2413 3897 
Q 2184 4138 1850 4138 
Q 1581 4138 1378 3988 
Q 1113 3794 959 3422 
Q 806 3050 800 2363 
Q 1003 2672 1297 2822 
Q 1591 2972 1913 2972 
Q 2475 2972 2870 2558 
Q 3266 2144 3266 1488 
Q 3266 1056 3080 686 
Q 2894 316 2569 119 
Q 2244 -78 1831 -78 
Q 1128 -78 684 439 
Q 241 956 241 2144 
Q 241 3472 731 4075 
Q 1159 4600 1884 4600 
Q 2425 4600 2770 4297 
Q 3116 3994 3184 3459 
z
M 888 1484 
Q 888 1194 1011 928 
Q 1134 663 1356 523 
Q 1578 384 1822 384 
Q 2178 384 2434 671 
Q 2691 959 2691 1453 
Q 2691 1928 2437 2201 
Q 2184 2475 1800 2475 
Q 1419 2475 1153 2201 
Q 888 1928 888 1484 
z
" transform="scale(0.015625)"/>
       </defs>
       <use xlink:href="#ArialMT-30"/>
       <use xlink:href="#ArialMT-2e" x="55.615234"/>
       <use xlink:href="#ArialMT-30" x="83.398438"/>
       <use xlink:href="#ArialMT-36" x="139.013672"/>
      </g>
     </g>
    </g>
    <g id="text_11">
     <!-- Density -->
     <g style="fill: #262626" transform="translate(20.084063 184.319375) rotate(-90) scale(0.18 -0.18)">
      <defs>
       <path id="ArialMT-44" d="M 494 0 
L 494 4581 
L 2072 4581 
Q 2606 4581 2888 4516 
Q 3281 4425 3559 4188 
Q 3922 3881 4101 3404 
Q 4281 2928 4281 2316 
Q 4281 1794 4159 1391 
Q 4038 988 3847 723 
Q 3656 459 3429 307 
Q 3203 156 2883 78 
Q 2563 0 2147 0 
L 494 0 
z
M 1100 541 
L 2078 541 
Q 2531 541 2789 625 
Q 3047 709 3200 863 
Q 3416 1078 3536 1442 
Q 3656 1806 3656 2325 
Q 3656 3044 3420 3430 
Q 3184 3816 2847 3947 
Q 2603 4041 2063 4041 
L 1100 4041 
L 1100 541 
z
" transform="scale(0.015625)"/>
       <path id="ArialMT-65" d="M 2694 1069 
L 3275 997 
Q 3138 488 2766 206 
Q 2394 -75 1816 -75 
Q 1088 -75 661 373 
Q 234 822 234 1631 
Q 234 2469 665 2931 
Q 1097 3394 1784 3394 
Q 2450 3394 2872 2941 
Q 3294 2488 3294 1666 
Q 3294 1616 3291 1516 
L 816 1516 
Q 847 969 1125 678 
Q 1403 388 1819 388 
Q 2128 388 2347 550 
Q 2566 713 2694 1069 
z
M 847 1978 
L 2700 1978 
Q 2663 2397 2488 2606 
Q 2219 2931 1791 2931 
Q 1403 2931 1139 2672 
Q 875 2413 847 1978 
z
" transform="scale(0.015625)"/>
       <path id="ArialMT-6e" d="M 422 0 
L 422 3319 
L 928 3319 
L 928 2847 
Q 1294 3394 1984 3394 
Q 2284 3394 2536 3286 
Q 2788 3178 2913 3003 
Q 3038 2828 3088 2588 
Q 3119 2431 3119 2041 
L 3119 0 
L 2556 0 
L 2556 2019 
Q 2556 2363 2490 2533 
Q 2425 2703 2258 2804 
Q 2091 2906 1866 2906 
Q 1506 2906 1245 2678 
Q 984 2450 984 1813 
L 984 0 
L 422 0 
z
" transform="scale(0.015625)"/>
       <path id="ArialMT-73" d="M 197 991 
L 753 1078 
Q 800 744 1014 566 
Q 1228 388 1613 388 
Q 2000 388 2187 545 
Q 2375 703 2375 916 
Q 2375 1106 2209 1216 
Q 2094 1291 1634 1406 
Q 1016 1563 777 1677 
Q 538 1791 414 1992 
Q 291 2194 291 2438 
Q 291 2659 392 2848 
Q 494 3038 669 3163 
Q 800 3259 1026 3326 
Q 1253 3394 1513 3394 
Q 1903 3394 2198 3281 
Q 2494 3169 2634 2976 
Q 2775 2784 2828 2463 
L 2278 2388 
Q 2241 2644 2061 2787 
Q 1881 2931 1553 2931 
Q 1166 2931 1000 2803 
Q 834 2675 834 2503 
Q 834 2394 903 2306 
Q 972 2216 1119 2156 
Q 1203 2125 1616 2013 
Q 2213 1853 2448 1751 
Q 2684 1650 2818 1456 
Q 2953 1263 2953 975 
Q 2953 694 2789 445 
Q 2625 197 2315 61 
Q 2006 -75 1616 -75 
Q 969 -75 630 194 
Q 291 463 197 991 
z
" transform="scale(0.015625)"/>
       <path id="ArialMT-69" d="M 425 3934 
L 425 4581 
L 988 4581 
L 988 3934 
L 425 3934 
z
M 425 0 
L 425 3319 
L 988 3319 
L 988 0 
L 425 0 
z
" transform="scale(0.015625)"/>
       <path id="ArialMT-74" d="M 1650 503 
L 1731 6 
Q 1494 -44 1306 -44 
Q 1000 -44 831 53 
Q 663 150 594 308 
Q 525 466 525 972 
L 525 2881 
L 113 2881 
L 113 3319 
L 525 3319 
L 525 4141 
L 1084 4478 
L 1084 3319 
L 1650 3319 
L 1650 2881 
L 1084 2881 
L 1084 941 
Q 1084 700 1114 631 
Q 1144 563 1211 522 
Q 1278 481 1403 481 
Q 1497 481 1650 503 
z
" transform="scale(0.015625)"/>
       <path id="ArialMT-79" d="M 397 -1278 
L 334 -750 
Q 519 -800 656 -800 
Q 844 -800 956 -737 
Q 1069 -675 1141 -563 
Q 1194 -478 1313 -144 
Q 1328 -97 1363 -6 
L 103 3319 
L 709 3319 
L 1400 1397 
Q 1534 1031 1641 628 
Q 1738 1016 1872 1384 
L 2581 3319 
L 3144 3319 
L 1881 -56 
Q 1678 -603 1566 -809 
Q 1416 -1088 1222 -1217 
Q 1028 -1347 759 -1347 
Q 597 -1347 397 -1278 
z
" transform="scale(0.015625)"/>
      </defs>
      <use xlink:href="#ArialMT-44"/>
      <use xlink:href="#ArialMT-65" x="72.216797"/>
      <use xlink:href="#ArialMT-6e" x="127.832031"/>
      <use xlink:href="#ArialMT-73" x="183.447266"/>
      <use xlink:href="#ArialMT-69" x="233.447266"/>
      <use xlink:href="#ArialMT-74" x="255.664062"/>
      <use xlink:href="#ArialMT-79" x="283.447266"/>
     </g>
    </g>
   </g>
   <g id="PolyCollection_1">
    <defs>
     <path id="m2ad1a628e7" d="M 96.954398 -35.006401 
L 96.954398 -34.789766 
L 98.033876 -34.789766 
L 99.113354 -34.789766 
L 100.192832 -34.789766 
L 101.27231 -34.789766 
L 102.351788 -34.789766 
L 103.431266 -34.789766 
L 104.510744 -34.789766 
L 105.590222 -34.789766 
L 106.6697 -34.789766 
L 107.749178 -34.789766 
L 108.828656 -34.789766 
L 109.908134 -34.789766 
L 110.987611 -34.789766 
L 112.067089 -34.789766 
L 113.146567 -34.789766 
L 114.226045 -34.789766 
L 115.305523 -34.789766 
L 116.385001 -34.789766 
L 117.464479 -34.789766 
L 118.543957 -34.789766 
L 119.623435 -34.789766 
L 120.702913 -34.789766 
L 121.782391 -34.789766 
L 122.861869 -34.789766 
L 123.941347 -34.789766 
L 125.020824 -34.789766 
L 126.100302 -34.789766 
L 127.17978 -34.789766 
L 128.259258 -34.789766 
L 129.338736 -34.789766 
L 130.418214 -34.789766 
L 131.497692 -34.789766 
L 132.57717 -34.789766 
L 133.656648 -34.789766 
L 134.736126 -34.789766 
L 135.815604 -34.789766 
L 136.895082 -34.789766 
L 137.97456 -34.789766 
L 139.054038 -34.789766 
L 140.133515 -34.789766 
L 141.212993 -34.789766 
L 142.292471 -34.789766 
L 143.371949 -34.789766 
L 144.451427 -34.789766 
L 145.530905 -34.789766 
L 146.610383 -34.789766 
L 147.689861 -34.789766 
L 148.769339 -34.789766 
L 149.848817 -34.789766 
L 150.928295 -34.789766 
L 152.007773 -34.789766 
L 153.087251 -34.789766 
L 154.166729 -34.789766 
L 155.246206 -34.789766 
L 156.325684 -34.789766 
L 157.405162 -34.789766 
L 158.48464 -34.789766 
L 159.564118 -34.789766 
L 160.643596 -34.789766 
L 161.723074 -34.789766 
L 162.802552 -34.789766 
L 163.88203 -34.789766 
L 164.961508 -34.789766 
L 166.040986 -34.789766 
L 167.120464 -34.789766 
L 168.199942 -34.789766 
L 169.27942 -34.789766 
L 170.358897 -34.789766 
L 171.438375 -34.789766 
L 172.517853 -34.789766 
L 173.597331 -34.789766 
L 174.676809 -34.789766 
L 175.756287 -34.789766 
L 176.835765 -34.789766 
L 177.915243 -34.789766 
L 178.994721 -34.789766 
L 180.074199 -34.789766 
L 181.153677 -34.789766 
L 182.233155 -34.789766 
L 183.312633 -34.789766 
L 184.392111 -34.789766 
L 185.471588 -34.789766 
L 186.551066 -34.789766 
L 187.630544 -34.789766 
L 188.710022 -34.789766 
L 189.7895 -34.789766 
L 190.868978 -34.789766 
L 191.948456 -34.789766 
L 193.027934 -34.789766 
L 194.107412 -34.789766 
L 195.18689 -34.789766 
L 196.266368 -34.789766 
L 197.345846 -34.789766 
L 198.425324 -34.789766 
L 199.504801 -34.789766 
L 200.584279 -34.789766 
L 201.663757 -34.789766 
L 202.743235 -34.789766 
L 203.822713 -34.789766 
L 204.902191 -34.789766 
L 205.981669 -34.789766 
L 207.061147 -34.789766 
L 208.140625 -34.789766 
L 209.220103 -34.789766 
L 210.299581 -34.789766 
L 211.379059 -34.789766 
L 212.458537 -34.789766 
L 213.538015 -34.789766 
L 214.617492 -34.789766 
L 215.69697 -34.789766 
L 216.776448 -34.789766 
L 217.855926 -34.789766 
L 218.935404 -34.789766 
L 220.014882 -34.789766 
L 221.09436 -34.789766 
L 222.173838 -34.789766 
L 223.253316 -34.789766 
L 224.332794 -34.789766 
L 225.412272 -34.789766 
L 226.49175 -34.789766 
L 227.571228 -34.789766 
L 228.650706 -34.789766 
L 229.730183 -34.789766 
L 230.809661 -34.789766 
L 231.889139 -34.789766 
L 232.968617 -34.789766 
L 234.048095 -34.789766 
L 235.127573 -34.789766 
L 236.207051 -34.789766 
L 237.286529 -34.789766 
L 238.366007 -34.789766 
L 239.445485 -34.789766 
L 240.524963 -34.789766 
L 241.604441 -34.789766 
L 242.683919 -34.789766 
L 243.763397 -34.789766 
L 244.842874 -34.789766 
L 245.922352 -34.789766 
L 247.00183 -34.789766 
L 248.081308 -34.789766 
L 249.160786 -34.789766 
L 250.240264 -34.789766 
L 251.319742 -34.789766 
L 252.39922 -34.789766 
L 253.478698 -34.789766 
L 254.558176 -34.789766 
L 255.637654 -34.789766 
L 256.717132 -34.789766 
L 257.79661 -34.789766 
L 258.876088 -34.789766 
L 259.955565 -34.789766 
L 261.035043 -34.789766 
L 262.114521 -34.789766 
L 263.193999 -34.789766 
L 264.273477 -34.789766 
L 265.352955 -34.789766 
L 266.432433 -34.789766 
L 267.511911 -34.789766 
L 268.591389 -34.789766 
L 269.670867 -34.789766 
L 270.750345 -34.789766 
L 271.829823 -34.789766 
L 272.909301 -34.789766 
L 273.988778 -34.789766 
L 275.068256 -34.789766 
L 276.147734 -34.789766 
L 277.227212 -34.789766 
L 278.30669 -34.789766 
L 279.386168 -34.789766 
L 280.465646 -34.789766 
L 281.545124 -34.789766 
L 282.624602 -34.789766 
L 283.70408 -34.789766 
L 284.783558 -34.789766 
L 285.863036 -34.789766 
L 286.942514 -34.789766 
L 288.021992 -34.789766 
L 289.101469 -34.789766 
L 290.180947 -34.789766 
L 291.260425 -34.789766 
L 292.339903 -34.789766 
L 293.419381 -34.789766 
L 294.498859 -34.789766 
L 295.578337 -34.789766 
L 296.657815 -34.789766 
L 297.737293 -34.789766 
L 298.816771 -34.789766 
L 299.896249 -34.789766 
L 300.975727 -34.789766 
L 302.055205 -34.789766 
L 303.134683 -34.789766 
L 304.21416 -34.789766 
L 305.293638 -34.789766 
L 306.373116 -34.789766 
L 307.452594 -34.789766 
L 308.532072 -34.789766 
L 309.61155 -34.789766 
L 310.691028 -34.789766 
L 311.770506 -34.789766 
L 311.770506 -35.030858 
L 311.770506 -35.030858 
L 310.691028 -35.072654 
L 309.61155 -35.120768 
L 308.532072 -35.175981 
L 307.452594 -35.239146 
L 306.373116 -35.311179 
L 305.293638 -35.393069 
L 304.21416 -35.48587 
L 303.134683 -35.590702 
L 302.055205 -35.70875 
L 300.975727 -35.841255 
L 299.896249 -35.989508 
L 298.816771 -36.154848 
L 297.737293 -36.338645 
L 296.657815 -36.542294 
L 295.578337 -36.767199 
L 294.498859 -37.014759 
L 293.419381 -37.286352 
L 292.339903 -37.583316 
L 291.260425 -37.906927 
L 290.180947 -38.258381 
L 289.101469 -38.638771 
L 288.021992 -39.049061 
L 286.942514 -39.490064 
L 285.863036 -39.962416 
L 284.783558 -40.466557 
L 283.70408 -41.002703 
L 282.624602 -41.570824 
L 281.545124 -42.170628 
L 280.465646 -42.801541 
L 279.386168 -43.462691 
L 278.30669 -44.152897 
L 277.227212 -44.870665 
L 276.147734 -45.61418 
L 275.068256 -46.38131 
L 273.988778 -47.169613 
L 272.909301 -47.976349 
L 271.829823 -48.798498 
L 270.750345 -49.632784 
L 269.670867 -50.475705 
L 268.591389 -51.323567 
L 267.511911 -52.172524 
L 266.432433 -53.018625 
L 265.352955 -53.857861 
L 264.273477 -54.686221 
L 263.193999 -55.499747 
L 262.114521 -56.294591 
L 261.035043 -57.067076 
L 259.955565 -57.813755 
L 258.876088 -58.53147 
L 257.79661 -59.217408 
L 256.717132 -59.869155 
L 255.637654 -60.484743 
L 254.558176 -61.062698 
L 253.478698 -61.602077 
L 252.39922 -62.102493 
L 251.319742 -62.564148 
L 250.240264 -62.987839 
L 249.160786 -63.37497 
L 248.081308 -63.727543 
L 247.00183 -64.04815 
L 245.922352 -64.33995 
L 244.842874 -64.606634 
L 243.763397 -64.85239 
L 242.683919 -65.081854 
L 241.604441 -65.300048 
L 240.524963 -65.512328 
L 239.445485 -65.724306 
L 238.366007 -65.941779 
L 237.286529 -66.170658 
L 236.207051 -66.416878 
L 235.127573 -66.686324 
L 234.048095 -66.984749 
L 232.968617 -67.317691 
L 231.889139 -67.690396 
L 230.809661 -68.107744 
L 229.730183 -68.574176 
L 228.650706 -69.093633 
L 227.571228 -69.669492 
L 226.49175 -70.304518 
L 225.412272 -71.000817 
L 224.332794 -71.759802 
L 223.253316 -72.582166 
L 222.173838 -73.46786 
L 221.09436 -74.416088 
L 220.014882 -75.425306 
L 218.935404 -76.493231 
L 217.855926 -77.616858 
L 216.776448 -78.79249 
L 215.69697 -80.015772 
L 214.617492 -81.281736 
L 213.538015 -82.584847 
L 212.458537 -83.919065 
L 211.379059 -85.277907 
L 210.299581 -86.654512 
L 209.220103 -88.041715 
L 208.140625 -89.432119 
L 207.061147 -90.818175 
L 205.981669 -92.192254 
L 204.902191 -93.546728 
L 203.822713 -94.874043 
L 202.743235 -96.166794 
L 201.663757 -97.41779 
L 200.584279 -98.620123 
L 199.504801 -99.767227 
L 198.425324 -100.852928 
L 197.345846 -101.871497 
L 196.266368 -102.817681 
L 195.18689 -103.686742 
L 194.107412 -104.474478 
L 193.027934 -105.177235 
L 191.948456 -105.791921 
L 190.868978 -106.316 
L 189.7895 -106.747488 
L 188.710022 -107.084936 
L 187.630544 -107.32741 
L 186.551066 -107.474469 
L 185.471588 -107.526128 
L 184.392111 -107.482828 
L 183.312633 -107.345401 
L 182.233155 -107.11503 
L 181.153677 -106.79321 
L 180.074199 -106.381714 
L 178.994721 -105.882555 
L 177.915243 -105.297951 
L 176.835765 -104.630297 
L 175.756287 -103.882134 
L 174.676809 -103.056131 
L 173.597331 -102.155062 
L 172.517853 -101.181793 
L 171.438375 -100.139271 
L 170.358897 -99.030517 
L 169.27942 -97.858627 
L 168.199942 -96.626768 
L 167.120464 -95.338185 
L 166.040986 -93.996202 
L 164.961508 -92.604236 
L 163.88203 -91.165794 
L 162.802552 -89.684491 
L 161.723074 -88.164046 
L 160.643596 -86.608292 
L 159.564118 -85.021176 
L 158.48464 -83.406759 
L 157.405162 -81.76921 
L 156.325684 -80.112802 
L 155.246206 -78.441896 
L 154.166729 -76.76093 
L 153.087251 -75.074398 
L 152.007773 -73.386829 
L 150.928295 -71.702762 
L 149.848817 -70.026717 
L 148.769339 -68.363169 
L 147.689861 -66.71651 
L 146.610383 -65.091025 
L 145.530905 -63.490853 
L 144.451427 -61.919958 
L 143.371949 -60.382098 
L 142.292471 -58.880798 
L 141.212993 -57.41932 
L 140.133515 -56.000642 
L 139.054038 -54.627437 
L 137.97456 -53.302057 
L 136.895082 -52.026519 
L 135.815604 -50.8025 
L 134.736126 -49.631327 
L 133.656648 -48.513986 
L 132.57717 -47.451116 
L 131.497692 -46.443026 
L 130.418214 -45.489701 
L 129.338736 -44.590821 
L 128.259258 -43.745776 
L 127.17978 -42.953687 
L 126.100302 -42.213433 
L 125.020824 -41.523668 
L 123.941347 -40.882853 
L 122.861869 -40.289278 
L 121.782391 -39.741091 
L 120.702913 -39.236323 
L 119.623435 -38.772912 
L 118.543957 -38.34873 
L 117.464479 -37.961609 
L 116.385001 -37.609356 
L 115.305523 -37.289779 
L 114.226045 -37.000706 
L 113.146567 -36.739999 
L 112.067089 -36.505567 
L 110.987611 -36.295387 
L 109.908134 -36.107504 
L 108.828656 -35.940048 
L 107.749178 -35.791238 
L 106.6697 -35.659387 
L 105.590222 -35.542905 
L 104.510744 -35.440304 
L 103.431266 -35.350193 
L 102.351788 -35.271285 
L 101.27231 -35.202389 
L 100.192832 -35.14241 
L 99.113354 -35.090347 
L 98.033876 -35.045287 
L 96.954398 -35.006401 
z
" style="stroke: #dd8452; stroke-width: 1.5"/>
    </defs>
    <g clip-path="url(#p3ebaca9c6d)">
     <use xlink:href="#m2ad1a628e7" x="0" y="336.209766" style="fill: #dd8452; fill-opacity: 0.25; stroke: #dd8452; stroke-width: 1.5"/>
    </g>
   </g>
   <g id="PolyCollection_2">
    <defs>
     <path id="m837e66c010" d="M 83.877688 -36.129863 
L 83.877688 -34.789766 
L 83.97296 -34.789766 
L 84.068232 -34.789766 
L 84.163504 -34.789766 
L 84.258776 -34.789766 
L 84.354048 -34.789766 
L 84.449321 -34.789766 
L 84.544593 -34.789766 
L 84.639865 -34.789766 
L 84.735137 -34.789766 
L 84.830409 -34.789766 
L 84.925681 -34.789766 
L 85.020953 -34.789766 
L 85.116225 -34.789766 
L 85.211498 -34.789766 
L 85.30677 -34.789766 
L 85.402042 -34.789766 
L 85.497314 -34.789766 
L 85.592586 -34.789766 
L 85.687858 -34.789766 
L 85.78313 -34.789766 
L 85.878403 -34.789766 
L 85.973675 -34.789766 
L 86.068947 -34.789766 
L 86.164219 -34.789766 
L 86.259491 -34.789766 
L 86.354763 -34.789766 
L 86.450035 -34.789766 
L 86.545307 -34.789766 
L 86.64058 -34.789766 
L 86.735852 -34.789766 
L 86.831124 -34.789766 
L 86.926396 -34.789766 
L 87.021668 -34.789766 
L 87.11694 -34.789766 
L 87.212212 -34.789766 
L 87.307485 -34.789766 
L 87.402757 -34.789766 
L 87.498029 -34.789766 
L 87.593301 -34.789766 
L 87.688573 -34.789766 
L 87.783845 -34.789766 
L 87.879117 -34.789766 
L 87.974389 -34.789766 
L 88.069662 -34.789766 
L 88.164934 -34.789766 
L 88.260206 -34.789766 
L 88.355478 -34.789766 
L 88.45075 -34.789766 
L 88.546022 -34.789766 
L 88.641294 -34.789766 
L 88.736567 -34.789766 
L 88.831839 -34.789766 
L 88.927111 -34.789766 
L 89.022383 -34.789766 
L 89.117655 -34.789766 
L 89.212927 -34.789766 
L 89.308199 -34.789766 
L 89.403471 -34.789766 
L 89.498744 -34.789766 
L 89.594016 -34.789766 
L 89.689288 -34.789766 
L 89.78456 -34.789766 
L 89.879832 -34.789766 
L 89.975104 -34.789766 
L 90.070376 -34.789766 
L 90.165648 -34.789766 
L 90.260921 -34.789766 
L 90.356193 -34.789766 
L 90.451465 -34.789766 
L 90.546737 -34.789766 
L 90.642009 -34.789766 
L 90.737281 -34.789766 
L 90.832553 -34.789766 
L 90.927826 -34.789766 
L 91.023098 -34.789766 
L 91.11837 -34.789766 
L 91.213642 -34.789766 
L 91.308914 -34.789766 
L 91.404186 -34.789766 
L 91.499458 -34.789766 
L 91.59473 -34.789766 
L 91.690003 -34.789766 
L 91.785275 -34.789766 
L 91.880547 -34.789766 
L 91.975819 -34.789766 
L 92.071091 -34.789766 
L 92.166363 -34.789766 
L 92.261635 -34.789766 
L 92.356908 -34.789766 
L 92.45218 -34.789766 
L 92.547452 -34.789766 
L 92.642724 -34.789766 
L 92.737996 -34.789766 
L 92.833268 -34.789766 
L 92.92854 -34.789766 
L 93.023812 -34.789766 
L 93.119085 -34.789766 
L 93.214357 -34.789766 
L 93.309629 -34.789766 
L 93.404901 -34.789766 
L 93.500173 -34.789766 
L 93.595445 -34.789766 
L 93.690717 -34.789766 
L 93.785989 -34.789766 
L 93.881262 -34.789766 
L 93.976534 -34.789766 
L 94.071806 -34.789766 
L 94.167078 -34.789766 
L 94.26235 -34.789766 
L 94.357622 -34.789766 
L 94.452894 -34.789766 
L 94.548167 -34.789766 
L 94.643439 -34.789766 
L 94.738711 -34.789766 
L 94.833983 -34.789766 
L 94.929255 -34.789766 
L 95.024527 -34.789766 
L 95.119799 -34.789766 
L 95.215071 -34.789766 
L 95.310344 -34.789766 
L 95.405616 -34.789766 
L 95.500888 -34.789766 
L 95.59616 -34.789766 
L 95.691432 -34.789766 
L 95.786704 -34.789766 
L 95.881976 -34.789766 
L 95.977249 -34.789766 
L 96.072521 -34.789766 
L 96.167793 -34.789766 
L 96.263065 -34.789766 
L 96.358337 -34.789766 
L 96.453609 -34.789766 
L 96.548881 -34.789766 
L 96.644153 -34.789766 
L 96.739426 -34.789766 
L 96.834698 -34.789766 
L 96.92997 -34.789766 
L 97.025242 -34.789766 
L 97.120514 -34.789766 
L 97.215786 -34.789766 
L 97.311058 -34.789766 
L 97.40633 -34.789766 
L 97.501603 -34.789766 
L 97.596875 -34.789766 
L 97.692147 -34.789766 
L 97.787419 -34.789766 
L 97.882691 -34.789766 
L 97.977963 -34.789766 
L 98.073235 -34.789766 
L 98.168508 -34.789766 
L 98.26378 -34.789766 
L 98.359052 -34.789766 
L 98.454324 -34.789766 
L 98.549596 -34.789766 
L 98.644868 -34.789766 
L 98.74014 -34.789766 
L 98.835412 -34.789766 
L 98.930685 -34.789766 
L 99.025957 -34.789766 
L 99.121229 -34.789766 
L 99.216501 -34.789766 
L 99.311773 -34.789766 
L 99.407045 -34.789766 
L 99.502317 -34.789766 
L 99.59759 -34.789766 
L 99.692862 -34.789766 
L 99.788134 -34.789766 
L 99.883406 -34.789766 
L 99.978678 -34.789766 
L 100.07395 -34.789766 
L 100.169222 -34.789766 
L 100.264494 -34.789766 
L 100.359767 -34.789766 
L 100.455039 -34.789766 
L 100.550311 -34.789766 
L 100.645583 -34.789766 
L 100.740855 -34.789766 
L 100.836127 -34.789766 
L 100.931399 -34.789766 
L 101.026672 -34.789766 
L 101.121944 -34.789766 
L 101.217216 -34.789766 
L 101.312488 -34.789766 
L 101.40776 -34.789766 
L 101.503032 -34.789766 
L 101.598304 -34.789766 
L 101.693576 -34.789766 
L 101.788849 -34.789766 
L 101.884121 -34.789766 
L 101.979393 -34.789766 
L 102.074665 -34.789766 
L 102.169937 -34.789766 
L 102.265209 -34.789766 
L 102.360481 -34.789766 
L 102.455753 -34.789766 
L 102.551026 -34.789766 
L 102.646298 -34.789766 
L 102.74157 -34.789766 
L 102.836842 -34.789766 
L 102.836842 -37.347299 
L 102.836842 -37.347299 
L 102.74157 -37.70043 
L 102.646298 -38.096093 
L 102.551026 -38.538484 
L 102.455753 -39.032081 
L 102.360481 -39.581653 
L 102.265209 -40.192255 
L 102.169937 -40.869224 
L 102.074665 -41.618179 
L 101.979393 -42.445007 
L 101.884121 -43.355849 
L 101.788849 -44.357085 
L 101.693576 -45.455311 
L 101.598304 -46.657312 
L 101.503032 -47.970032 
L 101.40776 -49.400536 
L 101.312488 -50.955969 
L 101.217216 -52.643511 
L 101.121944 -54.470323 
L 101.026672 -56.443492 
L 100.931399 -58.569968 
L 100.836127 -60.856498 
L 100.740855 -63.309555 
L 100.645583 -65.935265 
L 100.550311 -68.739327 
L 100.455039 -71.726933 
L 100.359767 -74.902689 
L 100.264494 -78.270525 
L 100.169222 -81.833618 
L 100.07395 -85.594303 
L 99.978678 -89.553997 
L 99.883406 -93.71312 
L 99.788134 -98.071016 
L 99.692862 -102.625893 
L 99.59759 -107.374754 
L 99.502317 -112.31335 
L 99.407045 -117.436126 
L 99.311773 -122.736199 
L 99.216501 -128.205322 
L 99.121229 -133.833883 
L 99.025957 -139.610906 
L 98.930685 -145.524063 
L 98.835412 -151.559711 
L 98.74014 -157.702936 
L 98.644868 -163.937619 
L 98.549596 -170.246508 
L 98.454324 -176.611316 
L 98.359052 -183.012829 
L 98.26378 -189.431024 
L 98.168508 -195.845212 
L 98.073235 -202.234181 
L 97.977963 -208.576358 
L 97.882691 -214.84998 
L 97.787419 -221.033266 
L 97.692147 -227.104605 
L 97.596875 -233.04274 
L 97.501603 -238.826959 
L 97.40633 -244.437279 
L 97.311058 -249.854634 
L 97.215786 -255.061052 
L 97.120514 -260.03983 
L 97.025242 -264.775688 
L 96.92997 -269.254925 
L 96.834698 -273.465548 
L 96.739426 -277.39739 
L 96.644153 -281.042209 
L 96.548881 -284.393765 
L 96.453609 -287.447877 
L 96.358337 -290.202457 
L 96.263065 -292.657523 
L 96.167793 -294.815182 
L 96.072521 -296.679595 
L 95.977249 -298.256918 
L 95.881976 -299.555218 
L 95.786704 -300.584366 
L 95.691432 -301.355915 
L 95.59616 -301.882949 
L 95.500888 -302.179925 
L 95.405616 -302.262493 
L 95.310344 -302.147304 
L 95.215071 -301.851812 
L 95.119799 -301.394059 
L 95.024527 -300.792465 
L 94.929255 -300.065609 
L 94.833983 -299.232011 
L 94.738711 -298.309924 
L 94.643439 -297.317119 
L 94.548167 -296.270692 
L 94.452894 -295.186873 
L 94.357622 -294.080856 
L 94.26235 -292.966633 
L 94.167078 -291.856861 
L 94.071806 -290.762733 
L 93.976534 -289.693875 
L 93.881262 -288.65827 
L 93.785989 -287.662193 
L 93.690717 -286.710175 
L 93.595445 -285.804989 
L 93.500173 -284.947655 
L 93.404901 -284.137465 
L 93.309629 -283.37204 
L 93.214357 -282.647388 
L 93.119085 -281.957997 
L 93.023812 -281.296937 
L 92.92854 -280.655978 
L 92.833268 -280.025719 
L 92.737996 -279.395737 
L 92.642724 -278.754732 
L 92.547452 -278.090693 
L 92.45218 -277.391058 
L 92.356908 -276.642888 
L 92.261635 -275.833027 
L 92.166363 -274.948278 
L 92.071091 -273.975563 
L 91.975819 -272.902084 
L 91.880547 -271.71548 
L 91.785275 -270.403966 
L 91.690003 -268.956474 
L 91.59473 -267.362778 
L 91.499458 -265.613603 
L 91.404186 -263.700731 
L 91.308914 -261.617085 
L 91.213642 -259.356802 
L 91.11837 -256.915292 
L 91.023098 -254.289283 
L 90.927826 -251.47685 
L 90.832553 -248.477428 
L 90.737281 -245.291815 
L 90.642009 -241.922157 
L 90.546737 -238.371924 
L 90.451465 -234.645868 
L 90.356193 -230.749975 
L 90.260921 -226.691402 
L 90.165648 -222.478406 
L 90.070376 -218.120266 
L 89.975104 -213.627192 
L 89.879832 -209.010233 
L 89.78456 -204.281176 
L 89.689288 -199.452443 
L 89.594016 -194.536985 
L 89.498744 -189.548171 
L 89.403471 -184.49968 
L 89.308199 -179.405391 
L 89.212927 -174.27928 
L 89.117655 -169.135307 
L 89.022383 -163.987322 
L 88.927111 -158.848964 
L 88.831839 -153.73357 
L 88.736567 -148.654089 
L 88.641294 -143.623001 
L 88.546022 -138.652247 
L 88.45075 -133.75316 
L 88.355478 -128.936412 
L 88.260206 -124.21196 
L 88.164934 -119.589007 
L 88.069662 -115.075967 
L 87.974389 -110.680442 
L 87.879117 -106.409204 
L 87.783845 -102.268184 
L 87.688573 -98.262472 
L 87.593301 -94.396322 
L 87.498029 -90.673162 
L 87.402757 -87.095615 
L 87.307485 -83.665519 
L 87.212212 -80.383962 
L 87.11694 -77.251308 
L 87.021668 -74.267241 
L 86.926396 -71.430803 
L 86.831124 -68.74044 
L 86.735852 -66.194043 
L 86.64058 -63.789003 
L 86.545307 -61.522253 
L 86.450035 -59.390321 
L 86.354763 -57.389378 
L 86.259491 -55.515287 
L 86.164219 -53.76365 
L 86.068947 -52.129854 
L 85.973675 -50.609116 
L 85.878403 -49.196527 
L 85.78313 -47.88709 
L 85.687858 -46.675759 
L 85.592586 -45.557474 
L 85.497314 -44.527195 
L 85.402042 -43.579927 
L 85.30677 -42.710753 
L 85.211498 -41.914852 
L 85.116225 -41.187523 
L 85.020953 -40.524201 
L 84.925681 -39.920476 
L 84.830409 -39.3721 
L 84.735137 -38.875002 
L 84.639865 -38.425293 
L 84.544593 -38.019272 
L 84.449321 -37.653431 
L 84.354048 -37.324452 
L 84.258776 -37.029215 
L 84.163504 -36.764788 
L 84.068232 -36.528429 
L 83.97296 -36.31758 
L 83.877688 -36.129863 
z
" style="stroke: #4c72b0; stroke-width: 1.5"/>
    </defs>
    <g clip-path="url(#p3ebaca9c6d)">
     <use xlink:href="#m837e66c010" x="0" y="336.209766" style="fill: #4c72b0; fill-opacity: 0.25; stroke: #4c72b0; stroke-width: 1.5"/>
    </g>
   </g>
   <g id="LineCollection_1">
    <path d="M 96.253052 301.42 
L 96.253052 294.0645 
" clip-path="url(#p3ebaca9c6d)" style="fill: none; stroke: #4c72b0"/>
    <path d="M 96.253052 301.42 
L 96.253052 294.0645 
" clip-path="url(#p3ebaca9c6d)" style="fill: none; stroke: #4c72b0"/>
    <path d="M 90.461477 301.42 
L 90.461477 294.0645 
" clip-path="url(#p3ebaca9c6d)" style="fill: none; stroke: #4c72b0"/>
    <path d="M 92.392002 301.42 
L 92.392002 294.0645 
" clip-path="url(#p3ebaca9c6d)" style="fill: none; stroke: #4c72b0"/>
    <path d="M 158.029852 301.42 
L 158.029852 294.0645 
" clip-path="url(#p3ebaca9c6d)" style="fill: none; stroke: #dd8452"/>
    <path d="M 214.015077 301.42 
L 214.015077 294.0645 
" clip-path="url(#p3ebaca9c6d)" style="fill: none; stroke: #dd8452"/>
    <path d="M 190.848777 301.42 
L 190.848777 294.0645 
" clip-path="url(#p3ebaca9c6d)" style="fill: none; stroke: #dd8452"/>
    <path d="M 186.987727 301.42 
L 186.987727 294.0645 
" clip-path="url(#p3ebaca9c6d)" style="fill: none; stroke: #dd8452"/>
    <path d="M 194.709827 301.42 
L 194.709827 294.0645 
" clip-path="url(#p3ebaca9c6d)" style="fill: none; stroke: #dd8452"/>
    <path d="M 169.613002 301.42 
L 169.613002 294.0645 
" clip-path="url(#p3ebaca9c6d)" style="fill: none; stroke: #dd8452"/>
    <path d="M 250.695052 301.42 
L 250.695052 294.0645 
" clip-path="url(#p3ebaca9c6d)" style="fill: none; stroke: #dd8452"/>
    <path d="M 248.764527 301.42 
L 248.764527 294.0645 
" clip-path="url(#p3ebaca9c6d)" style="fill: none; stroke: #dd8452"/>
    <path d="M 194.709827 301.42 
L 194.709827 294.0645 
" clip-path="url(#p3ebaca9c6d)" style="fill: none; stroke: #dd8452"/>
    <path d="M 163.821427 301.42 
L 163.821427 294.0645 
" clip-path="url(#p3ebaca9c6d)" style="fill: none; stroke: #dd8452"/>
   </g>
   <g id="patch_3">
    <path d="M 72.483047 301.42 
L 72.483047 7.2 
" style="fill: none; stroke: #262626; stroke-width: 1.875; stroke-linejoin: miter; stroke-linecap: square"/>
   </g>
   <g id="patch_4">
    <path d="M 72.483047 301.42 
L 323.165147 301.42 
" style="fill: none; stroke: #262626; stroke-width: 1.875; stroke-linejoin: miter; stroke-linecap: square"/>
   </g>
  </g>
  <g id="legend_1">
   <g id="patch_5">
    <path d="M 345.092578 160.512305 
L 378.092578 160.512305 
L 378.092578 148.962305 
L 345.092578 148.962305 
z
" style="fill: #4c72b0; fill-opacity: 0.25; stroke: #4c72b0; stroke-width: 1.5; stroke-linejoin: miter"/>
   </g>
   <g id="text_12">
    <!-- KILO-edByte -->
    <g style="fill: #262626" transform="translate(391.292578 160.512305) scale(0.165 -0.165)">
     <defs>
      <path id="ArialMT-4b" d="M 469 0 
L 469 4581 
L 1075 4581 
L 1075 2309 
L 3350 4581 
L 4172 4581 
L 2250 2725 
L 4256 0 
L 3456 0 
L 1825 2319 
L 1075 1588 
L 1075 0 
L 469 0 
z
" transform="scale(0.015625)"/>
      <path id="ArialMT-49" d="M 597 0 
L 597 4581 
L 1203 4581 
L 1203 0 
L 597 0 
z
" transform="scale(0.015625)"/>
      <path id="ArialMT-4c" d="M 469 0 
L 469 4581 
L 1075 4581 
L 1075 541 
L 3331 541 
L 3331 0 
L 469 0 
z
" transform="scale(0.015625)"/>
      <path id="ArialMT-4f" d="M 309 2231 
Q 309 3372 921 4017 
Q 1534 4663 2503 4663 
Q 3138 4663 3647 4359 
Q 4156 4056 4423 3514 
Q 4691 2972 4691 2284 
Q 4691 1588 4409 1038 
Q 4128 488 3612 205 
Q 3097 -78 2500 -78 
Q 1853 -78 1343 234 
Q 834 547 571 1087 
Q 309 1628 309 2231 
z
M 934 2222 
Q 934 1394 1379 917 
Q 1825 441 2497 441 
Q 3181 441 3623 922 
Q 4066 1403 4066 2288 
Q 4066 2847 3877 3264 
Q 3688 3681 3323 3911 
Q 2959 4141 2506 4141 
Q 1863 4141 1398 3698 
Q 934 3256 934 2222 
z
" transform="scale(0.015625)"/>
      <path id="ArialMT-2d" d="M 203 1375 
L 203 1941 
L 1931 1941 
L 1931 1375 
L 203 1375 
z
" transform="scale(0.015625)"/>
      <path id="ArialMT-64" d="M 2575 0 
L 2575 419 
Q 2259 -75 1647 -75 
Q 1250 -75 917 144 
Q 584 363 401 755 
Q 219 1147 219 1656 
Q 219 2153 384 2558 
Q 550 2963 881 3178 
Q 1213 3394 1622 3394 
Q 1922 3394 2156 3267 
Q 2391 3141 2538 2938 
L 2538 4581 
L 3097 4581 
L 3097 0 
L 2575 0 
z
M 797 1656 
Q 797 1019 1065 703 
Q 1334 388 1700 388 
Q 2069 388 2326 689 
Q 2584 991 2584 1609 
Q 2584 2291 2321 2609 
Q 2059 2928 1675 2928 
Q 1300 2928 1048 2622 
Q 797 2316 797 1656 
z
" transform="scale(0.015625)"/>
      <path id="ArialMT-42" d="M 469 0 
L 469 4581 
L 2188 4581 
Q 2713 4581 3030 4442 
Q 3347 4303 3526 4014 
Q 3706 3725 3706 3409 
Q 3706 3116 3547 2856 
Q 3388 2597 3066 2438 
Q 3481 2316 3704 2022 
Q 3928 1728 3928 1328 
Q 3928 1006 3792 729 
Q 3656 453 3456 303 
Q 3256 153 2954 76 
Q 2653 0 2216 0 
L 469 0 
z
M 1075 2656 
L 2066 2656 
Q 2469 2656 2644 2709 
Q 2875 2778 2992 2937 
Q 3109 3097 3109 3338 
Q 3109 3566 3000 3739 
Q 2891 3913 2687 3977 
Q 2484 4041 1991 4041 
L 1075 4041 
L 1075 2656 
z
M 1075 541 
L 2216 541 
Q 2509 541 2628 563 
Q 2838 600 2978 687 
Q 3119 775 3209 942 
Q 3300 1109 3300 1328 
Q 3300 1584 3169 1773 
Q 3038 1963 2805 2039 
Q 2572 2116 2134 2116 
L 1075 2116 
L 1075 541 
z
" transform="scale(0.015625)"/>
     </defs>
     <use xlink:href="#ArialMT-4b"/>
     <use xlink:href="#ArialMT-49" x="66.699219"/>
     <use xlink:href="#ArialMT-4c" x="94.482422"/>
     <use xlink:href="#ArialMT-4f" x="150.097656"/>
     <use xlink:href="#ArialMT-2d" x="227.880859"/>
     <use xlink:href="#ArialMT-65" x="261.181641"/>
     <use xlink:href="#ArialMT-64" x="316.796875"/>
     <use xlink:href="#ArialMT-42" x="372.412109"/>
     <use xlink:href="#ArialMT-79" x="439.111328"/>
     <use xlink:href="#ArialMT-74" x="489.111328"/>
     <use xlink:href="#ArialMT-65" x="516.894531"/>
    </g>
   </g>
   <g id="patch_6">
    <path d="M 345.092578 184.246523 
L 378.092578 184.246523 
L 378.092578 172.696523 
L 345.092578 172.696523 
z
" style="fill: #dd8452; fill-opacity: 0.25; stroke: #dd8452; stroke-width: 1.5; stroke-linejoin: miter"/>
   </g>
   <g id="text_13">
    <!-- MEGA-edByte -->
    <g style="fill: #262626" transform="translate(391.292578 184.246523) scale(0.165 -0.165)">
     <defs>
      <path id="ArialMT-4d" d="M 475 0 
L 475 4581 
L 1388 4581 
L 2472 1338 
Q 2622 884 2691 659 
Q 2769 909 2934 1394 
L 4031 4581 
L 4847 4581 
L 4847 0 
L 4263 0 
L 4263 3834 
L 2931 0 
L 2384 0 
L 1059 3900 
L 1059 0 
L 475 0 
z
" transform="scale(0.015625)"/>
      <path id="ArialMT-45" d="M 506 0 
L 506 4581 
L 3819 4581 
L 3819 4041 
L 1113 4041 
L 1113 2638 
L 3647 2638 
L 3647 2100 
L 1113 2100 
L 1113 541 
L 3925 541 
L 3925 0 
L 506 0 
z
" transform="scale(0.015625)"/>
      <path id="ArialMT-47" d="M 2638 1797 
L 2638 2334 
L 4578 2338 
L 4578 638 
Q 4131 281 3656 101 
Q 3181 -78 2681 -78 
Q 2006 -78 1454 211 
Q 903 500 622 1047 
Q 341 1594 341 2269 
Q 341 2938 620 3517 
Q 900 4097 1425 4378 
Q 1950 4659 2634 4659 
Q 3131 4659 3532 4498 
Q 3934 4338 4162 4050 
Q 4391 3763 4509 3300 
L 3963 3150 
Q 3859 3500 3706 3700 
Q 3553 3900 3268 4020 
Q 2984 4141 2638 4141 
Q 2222 4141 1919 4014 
Q 1616 3888 1430 3681 
Q 1244 3475 1141 3228 
Q 966 2803 966 2306 
Q 966 1694 1177 1281 
Q 1388 869 1791 669 
Q 2194 469 2647 469 
Q 3041 469 3416 620 
Q 3791 772 3984 944 
L 3984 1797 
L 2638 1797 
z
" transform="scale(0.015625)"/>
      <path id="ArialMT-41" d="M -9 0 
L 1750 4581 
L 2403 4581 
L 4278 0 
L 3588 0 
L 3053 1388 
L 1138 1388 
L 634 0 
L -9 0 
z
M 1313 1881 
L 2866 1881 
L 2388 3150 
Q 2169 3728 2063 4100 
Q 1975 3659 1816 3225 
L 1313 1881 
z
" transform="scale(0.015625)"/>
     </defs>
     <use xlink:href="#ArialMT-4d"/>
     <use xlink:href="#ArialMT-45" x="83.300781"/>
     <use xlink:href="#ArialMT-47" x="150"/>
     <use xlink:href="#ArialMT-41" x="227.783203"/>
     <use xlink:href="#ArialMT-2d" x="294.482422"/>
     <use xlink:href="#ArialMT-65" x="327.783203"/>
     <use xlink:href="#ArialMT-64" x="383.398438"/>
     <use xlink:href="#ArialMT-42" x="439.013672"/>
     <use xlink:href="#ArialMT-79" x="505.712891"/>
     <use xlink:href="#ArialMT-74" x="555.712891"/>
     <use xlink:href="#ArialMT-65" x="583.496094"/>
    </g>
   </g>
  </g>
 </g>
 <defs>
  <clipPath id="p3ebaca9c6d">
   <rect x="72.483047" y="7.2" width="250.6821" height="294.22"/>
  </clipPath>
 </defs>
</svg>
