<?xml version="1.0" encoding="utf-8" standalone="no"?>
<!DOCTYPE svg PUBLIC "-//W3C//DTD SVG 1.1//EN"
  "http://www.w3.org/Graphics/SVG/1.1/DTD/svg11.dtd">
<svg xmlns:xlink="http://www.w3.org/1999/xlink" width="511.593047pt" height="336.209766pt" viewBox="0 0 511.593047 336.209766" xmlns="http://www.w3.org/2000/svg" version="1.1">
 <metadata>
  <rdf:RDF xmlns:dc="http://purl.org/dc/elements/1.1/" xmlns:cc="http://creativecommons.org/ns#" xmlns:rdf="http://www.w3.org/1999/02/22-rdf-syntax-ns#">
   <cc:Work>
    <dc:type rdf:resource="http://purl.org/dc/dcmitype/StillImage"/>
    <dc:date>2023-10-30T02:05:35.364781</dc:date>
    <dc:format>image/svg+xml</dc:format>
    <dc:creator>
     <cc:Agent>
      <dc:title>Matplotlib v3.8.0, https://matplotlib.org/</dc:title>
     </cc:Agent>
    </dc:creator>
   </cc:Work>
  </rdf:RDF>
 </metadata>
 <defs>
  <style type="text/css">*{stroke-linejoin: round; stroke-linecap: butt}</style>
 </defs>
 <g id="figure_1">
  <g id="patch_1">
   <path d="M 0 336.209766 
L 511.593047 336.209766 
L 511.593047 0 
L 0 0 
z
" style="fill: #ffffff"/>
  </g>
  <g id="axes_1">
   <g id="patch_2">
    <path d="M 72.483047 301.42 
L 323.165147 301.42 
L 323.165147 7.2 
L 72.483047 7.2 
z
" style="fill: #ffffff"/>
   </g>
   <g id="matplotlib.axis_1">
    <g id="xtick_1">
     <g id="line2d_1">
      <defs>
       <path id="macb865c52c" d="M 0 0 
L 0 9 
" style="stroke: #262626; stroke-width: 1.875"/>
      </defs>
      <g>
       <use xlink:href="#macb865c52c" x="105.254197" y="301.42" style="fill: #262626; stroke: #262626; stroke-width: 1.875"/>
      </g>
     </g>
     <g id="text_1">
      <!-- 100 -->
      <g style="fill: #262626" transform="translate(91.490876 325.730391) scale(0.165 -0.165)">
       <defs>
        <path id="ArialMT-31" d="M 2384 0 
L 1822 0 
L 1822 3584 
Q 1619 3391 1289 3197 
Q 959 3003 697 2906 
L 697 3450 
Q 1169 3672 1522 3987 
Q 1875 4303 2022 4600 
L 2384 4600 
L 2384 0 
z
" transform="scale(0.015625)"/>
        <path id="ArialMT-30" d="M 266 2259 
Q 266 3072 433 3567 
Q 600 4063 929 4331 
Q 1259 4600 1759 4600 
Q 2128 4600 2406 4451 
Q 2684 4303 2865 4023 
Q 3047 3744 3150 3342 
Q 3253 2941 3253 2259 
Q 3253 1453 3087 958 
Q 2922 463 2592 192 
Q 2263 -78 1759 -78 
Q 1097 -78 719 397 
Q 266 969 266 2259 
z
M 844 2259 
Q 844 1131 1108 757 
Q 1372 384 1759 384 
Q 2147 384 2411 759 
Q 2675 1134 2675 2259 
Q 2675 3391 2411 3762 
Q 2147 4134 1753 4134 
Q 1366 4134 1134 3806 
Q 844 3388 844 2259 
z
" transform="scale(0.015625)"/>
       </defs>
       <use xlink:href="#ArialMT-31"/>
       <use xlink:href="#ArialMT-30" x="55.615234"/>
       <use xlink:href="#ArialMT-30" x="111.230469"/>
      </g>
     </g>
    </g>
    <g id="xtick_2">
     <g id="line2d_2">
      <g>
       <use xlink:href="#macb865c52c" x="200.931345" y="301.42" style="fill: #262626; stroke: #262626; stroke-width: 1.875"/>
      </g>
     </g>
     <g id="text_2">
      <!-- 150 -->
      <g style="fill: #262626" transform="translate(187.168024 325.730391) scale(0.165 -0.165)">
       <defs>
        <path id="ArialMT-35" d="M 266 1200 
L 856 1250 
Q 922 819 1161 601 
Q 1400 384 1738 384 
Q 2144 384 2425 690 
Q 2706 997 2706 1503 
Q 2706 1984 2436 2262 
Q 2166 2541 1728 2541 
Q 1456 2541 1237 2417 
Q 1019 2294 894 2097 
L 366 2166 
L 809 4519 
L 3088 4519 
L 3088 3981 
L 1259 3981 
L 1013 2750 
Q 1425 3038 1878 3038 
Q 2478 3038 2890 2622 
Q 3303 2206 3303 1553 
Q 3303 931 2941 478 
Q 2500 -78 1738 -78 
Q 1113 -78 717 272 
Q 322 622 266 1200 
z
" transform="scale(0.015625)"/>
       </defs>
       <use xlink:href="#ArialMT-31"/>
       <use xlink:href="#ArialMT-35" x="55.615234"/>
       <use xlink:href="#ArialMT-30" x="111.230469"/>
      </g>
     </g>
    </g>
    <g id="xtick_3">
     <g id="line2d_3">
      <g>
       <use xlink:href="#macb865c52c" x="296.608492" y="301.42" style="fill: #262626; stroke: #262626; stroke-width: 1.875"/>
      </g>
     </g>
     <g id="text_3">
      <!-- 200 -->
      <g style="fill: #262626" transform="translate(282.845172 325.730391) scale(0.165 -0.165)">
       <defs>
        <path id="ArialMT-32" d="M 3222 541 
L 3222 0 
L 194 0 
Q 188 203 259 391 
Q 375 700 629 1000 
Q 884 1300 1366 1694 
Q 2113 2306 2375 2664 
Q 2638 3022 2638 3341 
Q 2638 3675 2398 3904 
Q 2159 4134 1775 4134 
Q 1369 4134 1125 3890 
Q 881 3647 878 3216 
L 300 3275 
Q 359 3922 746 4261 
Q 1134 4600 1788 4600 
Q 2447 4600 2831 4234 
Q 3216 3869 3216 3328 
Q 3216 3053 3103 2787 
Q 2991 2522 2730 2228 
Q 2469 1934 1863 1422 
Q 1356 997 1212 845 
Q 1069 694 975 541 
L 3222 541 
z
" transform="scale(0.015625)"/>
       </defs>
       <use xlink:href="#ArialMT-32"/>
       <use xlink:href="#ArialMT-30" x="55.615234"/>
       <use xlink:href="#ArialMT-30" x="111.230469"/>
      </g>
     </g>
    </g>
   </g>
   <g id="matplotlib.axis_2">
    <g id="ytick_1">
     <g id="line2d_4">
      <defs>
       <path id="md9e367c6a9" d="M 0 0 
L -9 0 
" style="stroke: #262626; stroke-width: 1.875"/>
      </defs>
      <g>
       <use xlink:href="#md9e367c6a9" x="72.483047" y="301.42" style="fill: #262626; stroke: #262626; stroke-width: 1.875"/>
      </g>
     </g>
     <g id="text_4">
      <!-- 0.00 -->
      <g style="fill: #262626" transform="translate(27.8725 307.325195) scale(0.165 -0.165)">
       <defs>
        <path id="ArialMT-2e" d="M 581 0 
L 581 641 
L 1222 641 
L 1222 0 
L 581 0 
z
" transform="scale(0.015625)"/>
       </defs>
       <use xlink:href="#ArialMT-30"/>
       <use xlink:href="#ArialMT-2e" x="55.615234"/>
       <use xlink:href="#ArialMT-30" x="83.398438"/>
       <use xlink:href="#ArialMT-30" x="139.013672"/>
      </g>
     </g>
    </g>
    <g id="ytick_2">
     <g id="line2d_5">
      <g>
       <use xlink:href="#md9e367c6a9" x="72.483047" y="248.428968" style="fill: #262626; stroke: #262626; stroke-width: 1.875"/>
      </g>
     </g>
     <g id="text_5">
      <!-- 0.01 -->
      <g style="fill: #262626" transform="translate(27.8725 254.334164) scale(0.165 -0.165)">
       <use xlink:href="#ArialMT-30"/>
       <use xlink:href="#ArialMT-2e" x="55.615234"/>
       <use xlink:href="#ArialMT-30" x="83.398438"/>
       <use xlink:href="#ArialMT-31" x="139.013672"/>
      </g>
     </g>
    </g>
    <g id="ytick_3">
     <g id="line2d_6">
      <g>
       <use xlink:href="#md9e367c6a9" x="72.483047" y="195.437936" style="fill: #262626; stroke: #262626; stroke-width: 1.875"/>
      </g>
     </g>
     <g id="text_6">
      <!-- 0.02 -->
      <g style="fill: #262626" transform="translate(27.8725 201.343132) scale(0.165 -0.165)">
       <use xlink:href="#ArialMT-30"/>
       <use xlink:href="#ArialMT-2e" x="55.615234"/>
       <use xlink:href="#ArialMT-30" x="83.398438"/>
       <use xlink:href="#ArialMT-32" x="139.013672"/>
      </g>
     </g>
    </g>
    <g id="ytick_4">
     <g id="line2d_7">
      <g>
       <use xlink:href="#md9e367c6a9" x="72.483047" y="142.446905" style="fill: #262626; stroke: #262626; stroke-width: 1.875"/>
      </g>
     </g>
     <g id="text_7">
      <!-- 0.03 -->
      <g style="fill: #262626" transform="translate(27.8725 148.3521) scale(0.165 -0.165)">
       <defs>
        <path id="ArialMT-33" d="M 269 1209 
L 831 1284 
Q 928 806 1161 595 
Q 1394 384 1728 384 
Q 2125 384 2398 659 
Q 2672 934 2672 1341 
Q 2672 1728 2419 1979 
Q 2166 2231 1775 2231 
Q 1616 2231 1378 2169 
L 1441 2663 
Q 1497 2656 1531 2656 
Q 1891 2656 2178 2843 
Q 2466 3031 2466 3422 
Q 2466 3731 2256 3934 
Q 2047 4138 1716 4138 
Q 1388 4138 1169 3931 
Q 950 3725 888 3313 
L 325 3413 
Q 428 3978 793 4289 
Q 1159 4600 1703 4600 
Q 2078 4600 2393 4439 
Q 2709 4278 2876 4000 
Q 3044 3722 3044 3409 
Q 3044 3113 2884 2869 
Q 2725 2625 2413 2481 
Q 2819 2388 3044 2092 
Q 3269 1797 3269 1353 
Q 3269 753 2831 336 
Q 2394 -81 1725 -81 
Q 1122 -81 723 278 
Q 325 638 269 1209 
z
" transform="scale(0.015625)"/>
       </defs>
       <use xlink:href="#ArialMT-30"/>
       <use xlink:href="#ArialMT-2e" x="55.615234"/>
       <use xlink:href="#ArialMT-30" x="83.398438"/>
       <use xlink:href="#ArialMT-33" x="139.013672"/>
      </g>
     </g>
    </g>
    <g id="ytick_5">
     <g id="line2d_8">
      <g>
       <use xlink:href="#md9e367c6a9" x="72.483047" y="89.455873" style="fill: #262626; stroke: #262626; stroke-width: 1.875"/>
      </g>
     </g>
     <g id="text_8">
      <!-- 0.04 -->
      <g style="fill: #262626" transform="translate(27.8725 95.361068) scale(0.165 -0.165)">
       <defs>
        <path id="ArialMT-34" d="M 2069 0 
L 2069 1097 
L 81 1097 
L 81 1613 
L 2172 4581 
L 2631 4581 
L 2631 1613 
L 3250 1613 
L 3250 1097 
L 2631 1097 
L 2631 0 
L 2069 0 
z
M 2069 1613 
L 2069 3678 
L 634 1613 
L 2069 1613 
z
" transform="scale(0.015625)"/>
       </defs>
       <use xlink:href="#ArialMT-30"/>
       <use xlink:href="#ArialMT-2e" x="55.615234"/>
       <use xlink:href="#ArialMT-30" x="83.398438"/>
       <use xlink:href="#ArialMT-34" x="139.013672"/>
      </g>
     </g>
    </g>
    <g id="ytick_6">
     <g id="line2d_9">
      <g>
       <use xlink:href="#md9e367c6a9" x="72.483047" y="36.464841" style="fill: #262626; stroke: #262626; stroke-width: 1.875"/>
      </g>
     </g>
     <g id="text_9">
      <!-- 0.05 -->
      <g style="fill: #262626" transform="translate(27.8725 42.370036) scale(0.165 -0.165)">
       <use xlink:href="#ArialMT-30"/>
       <use xlink:href="#ArialMT-2e" x="55.615234"/>
       <use xlink:href="#ArialMT-30" x="83.398438"/>
       <use xlink:href="#ArialMT-35" x="139.013672"/>
      </g>
     </g>
    </g>
    <g id="text_10">
     <!-- Density -->
     <g style="fill: #262626" transform="translate(20.084063 184.319375) rotate(-90) scale(0.18 -0.18)">
      <defs>
       <path id="ArialMT-44" d="M 494 0 
L 494 4581 
L 2072 4581 
Q 2606 4581 2888 4516 
Q 3281 4425 3559 4188 
Q 3922 3881 4101 3404 
Q 4281 2928 4281 2316 
Q 4281 1794 4159 1391 
Q 4038 988 3847 723 
Q 3656 459 3429 307 
Q 3203 156 2883 78 
Q 2563 0 2147 0 
L 494 0 
z
M 1100 541 
L 2078 541 
Q 2531 541 2789 625 
Q 3047 709 3200 863 
Q 3416 1078 3536 1442 
Q 3656 1806 3656 2325 
Q 3656 3044 3420 3430 
Q 3184 3816 2847 3947 
Q 2603 4041 2063 4041 
L 1100 4041 
L 1100 541 
z
" transform="scale(0.015625)"/>
       <path id="ArialMT-65" d="M 2694 1069 
L 3275 997 
Q 3138 488 2766 206 
Q 2394 -75 1816 -75 
Q 1088 -75 661 373 
Q 234 822 234 1631 
Q 234 2469 665 2931 
Q 1097 3394 1784 3394 
Q 2450 3394 2872 2941 
Q 3294 2488 3294 1666 
Q 3294 1616 3291 1516 
L 816 1516 
Q 847 969 1125 678 
Q 1403 388 1819 388 
Q 2128 388 2347 550 
Q 2566 713 2694 1069 
z
M 847 1978 
L 2700 1978 
Q 2663 2397 2488 2606 
Q 2219 2931 1791 2931 
Q 1403 2931 1139 2672 
Q 875 2413 847 1978 
z
" transform="scale(0.015625)"/>
       <path id="ArialMT-6e" d="M 422 0 
L 422 3319 
L 928 3319 
L 928 2847 
Q 1294 3394 1984 3394 
Q 2284 3394 2536 3286 
Q 2788 3178 2913 3003 
Q 3038 2828 3088 2588 
Q 3119 2431 3119 2041 
L 3119 0 
L 2556 0 
L 2556 2019 
Q 2556 2363 2490 2533 
Q 2425 2703 2258 2804 
Q 2091 2906 1866 2906 
Q 1506 2906 1245 2678 
Q 984 2450 984 1813 
L 984 0 
L 422 0 
z
" transform="scale(0.015625)"/>
       <path id="ArialMT-73" d="M 197 991 
L 753 1078 
Q 800 744 1014 566 
Q 1228 388 1613 388 
Q 2000 388 2187 545 
Q 2375 703 2375 916 
Q 2375 1106 2209 1216 
Q 2094 1291 1634 1406 
Q 1016 1563 777 1677 
Q 538 1791 414 1992 
Q 291 2194 291 2438 
Q 291 2659 392 2848 
Q 494 3038 669 3163 
Q 800 3259 1026 3326 
Q 1253 3394 1513 3394 
Q 1903 3394 2198 3281 
Q 2494 3169 2634 2976 
Q 2775 2784 2828 2463 
L 2278 2388 
Q 2241 2644 2061 2787 
Q 1881 2931 1553 2931 
Q 1166 2931 1000 2803 
Q 834 2675 834 2503 
Q 834 2394 903 2306 
Q 972 2216 1119 2156 
Q 1203 2125 1616 2013 
Q 2213 1853 2448 1751 
Q 2684 1650 2818 1456 
Q 2953 1263 2953 975 
Q 2953 694 2789 445 
Q 2625 197 2315 61 
Q 2006 -75 1616 -75 
Q 969 -75 630 194 
Q 291 463 197 991 
z
" transform="scale(0.015625)"/>
       <path id="ArialMT-69" d="M 425 3934 
L 425 4581 
L 988 4581 
L 988 3934 
L 425 3934 
z
M 425 0 
L 425 3319 
L 988 3319 
L 988 0 
L 425 0 
z
" transform="scale(0.015625)"/>
       <path id="ArialMT-74" d="M 1650 503 
L 1731 6 
Q 1494 -44 1306 -44 
Q 1000 -44 831 53 
Q 663 150 594 308 
Q 525 466 525 972 
L 525 2881 
L 113 2881 
L 113 3319 
L 525 3319 
L 525 4141 
L 1084 4478 
L 1084 3319 
L 1650 3319 
L 1650 2881 
L 1084 2881 
L 1084 941 
Q 1084 700 1114 631 
Q 1144 563 1211 522 
Q 1278 481 1403 481 
Q 1497 481 1650 503 
z
" transform="scale(0.015625)"/>
       <path id="ArialMT-79" d="M 397 -1278 
L 334 -750 
Q 519 -800 656 -800 
Q 844 -800 956 -737 
Q 1069 -675 1141 -563 
Q 1194 -478 1313 -144 
Q 1328 -97 1363 -6 
L 103 3319 
L 709 3319 
L 1400 1397 
Q 1534 1031 1641 628 
Q 1738 1016 1872 1384 
L 2581 3319 
L 3144 3319 
L 1881 -56 
Q 1678 -603 1566 -809 
Q 1416 -1088 1222 -1217 
Q 1028 -1347 759 -1347 
Q 597 -1347 397 -1278 
z
" transform="scale(0.015625)"/>
      </defs>
      <use xlink:href="#ArialMT-44"/>
      <use xlink:href="#ArialMT-65" x="72.216797"/>
      <use xlink:href="#ArialMT-6e" x="127.832031"/>
      <use xlink:href="#ArialMT-73" x="183.447266"/>
      <use xlink:href="#ArialMT-69" x="233.447266"/>
      <use xlink:href="#ArialMT-74" x="255.664062"/>
      <use xlink:href="#ArialMT-79" x="283.447266"/>
     </g>
    </g>
   </g>
   <g id="PolyCollection_1">
    <defs>
     <path id="m4b14cea876" d="M 97.746355 -35.004355 
L 97.746355 -34.789766 
L 98.821853 -34.789766 
L 99.897351 -34.789766 
L 100.97285 -34.789766 
L 102.048348 -34.789766 
L 103.123846 -34.789766 
L 104.199344 -34.789766 
L 105.274843 -34.789766 
L 106.350341 -34.789766 
L 107.425839 -34.789766 
L 108.501337 -34.789766 
L 109.576836 -34.789766 
L 110.652334 -34.789766 
L 111.727832 -34.789766 
L 112.80333 -34.789766 
L 113.878829 -34.789766 
L 114.954327 -34.789766 
L 116.029825 -34.789766 
L 117.105323 -34.789766 
L 118.180822 -34.789766 
L 119.25632 -34.789766 
L 120.331818 -34.789766 
L 121.407316 -34.789766 
L 122.482815 -34.789766 
L 123.558313 -34.789766 
L 124.633811 -34.789766 
L 125.709309 -34.789766 
L 126.784808 -34.789766 
L 127.860306 -34.789766 
L 128.935804 -34.789766 
L 130.011302 -34.789766 
L 131.086801 -34.789766 
L 132.162299 -34.789766 
L 133.237797 -34.789766 
L 134.313295 -34.789766 
L 135.388794 -34.789766 
L 136.464292 -34.789766 
L 137.53979 -34.789766 
L 138.615288 -34.789766 
L 139.690787 -34.789766 
L 140.766285 -34.789766 
L 141.841783 -34.789766 
L 142.917281 -34.789766 
L 143.99278 -34.789766 
L 145.068278 -34.789766 
L 146.143776 -34.789766 
L 147.219274 -34.789766 
L 148.294773 -34.789766 
L 149.370271 -34.789766 
L 150.445769 -34.789766 
L 151.521267 -34.789766 
L 152.596766 -34.789766 
L 153.672264 -34.789766 
L 154.747762 -34.789766 
L 155.82326 -34.789766 
L 156.898758 -34.789766 
L 157.974257 -34.789766 
L 159.049755 -34.789766 
L 160.125253 -34.789766 
L 161.200751 -34.789766 
L 162.27625 -34.789766 
L 163.351748 -34.789766 
L 164.427246 -34.789766 
L 165.502744 -34.789766 
L 166.578243 -34.789766 
L 167.653741 -34.789766 
L 168.729239 -34.789766 
L 169.804737 -34.789766 
L 170.880236 -34.789766 
L 171.955734 -34.789766 
L 173.031232 -34.789766 
L 174.10673 -34.789766 
L 175.182229 -34.789766 
L 176.257727 -34.789766 
L 177.333225 -34.789766 
L 178.408723 -34.789766 
L 179.484222 -34.789766 
L 180.55972 -34.789766 
L 181.635218 -34.789766 
L 182.710716 -34.789766 
L 183.786215 -34.789766 
L 184.861713 -34.789766 
L 185.937211 -34.789766 
L 187.012709 -34.789766 
L 188.088208 -34.789766 
L 189.163706 -34.789766 
L 190.239204 -34.789766 
L 191.314702 -34.789766 
L 192.390201 -34.789766 
L 193.465699 -34.789766 
L 194.541197 -34.789766 
L 195.616695 -34.789766 
L 196.692194 -34.789766 
L 197.767692 -34.789766 
L 198.84319 -34.789766 
L 199.918688 -34.789766 
L 200.994187 -34.789766 
L 202.069685 -34.789766 
L 203.145183 -34.789766 
L 204.220681 -34.789766 
L 205.29618 -34.789766 
L 206.371678 -34.789766 
L 207.447176 -34.789766 
L 208.522674 -34.789766 
L 209.598173 -34.789766 
L 210.673671 -34.789766 
L 211.749169 -34.789766 
L 212.824667 -34.789766 
L 213.900166 -34.789766 
L 214.975664 -34.789766 
L 216.051162 -34.789766 
L 217.12666 -34.789766 
L 218.202159 -34.789766 
L 219.277657 -34.789766 
L 220.353155 -34.789766 
L 221.428653 -34.789766 
L 222.504152 -34.789766 
L 223.57965 -34.789766 
L 224.655148 -34.789766 
L 225.730646 -34.789766 
L 226.806145 -34.789766 
L 227.881643 -34.789766 
L 228.957141 -34.789766 
L 230.032639 -34.789766 
L 231.108137 -34.789766 
L 232.183636 -34.789766 
L 233.259134 -34.789766 
L 234.334632 -34.789766 
L 235.41013 -34.789766 
L 236.485629 -34.789766 
L 237.561127 -34.789766 
L 238.636625 -34.789766 
L 239.712123 -34.789766 
L 240.787622 -34.789766 
L 241.86312 -34.789766 
L 242.938618 -34.789766 
L 244.014116 -34.789766 
L 245.089615 -34.789766 
L 246.165113 -34.789766 
L 247.240611 -34.789766 
L 248.316109 -34.789766 
L 249.391608 -34.789766 
L 250.467106 -34.789766 
L 251.542604 -34.789766 
L 252.618102 -34.789766 
L 253.693601 -34.789766 
L 254.769099 -34.789766 
L 255.844597 -34.789766 
L 256.920095 -34.789766 
L 257.995594 -34.789766 
L 259.071092 -34.789766 
L 260.14659 -34.789766 
L 261.222088 -34.789766 
L 262.297587 -34.789766 
L 263.373085 -34.789766 
L 264.448583 -34.789766 
L 265.524081 -34.789766 
L 266.59958 -34.789766 
L 267.675078 -34.789766 
L 268.750576 -34.789766 
L 269.826074 -34.789766 
L 270.901573 -34.789766 
L 271.977071 -34.789766 
L 273.052569 -34.789766 
L 274.128067 -34.789766 
L 275.203566 -34.789766 
L 276.279064 -34.789766 
L 277.354562 -34.789766 
L 278.43006 -34.789766 
L 279.505559 -34.789766 
L 280.581057 -34.789766 
L 281.656555 -34.789766 
L 282.732053 -34.789766 
L 283.807552 -34.789766 
L 284.88305 -34.789766 
L 285.958548 -34.789766 
L 287.034046 -34.789766 
L 288.109545 -34.789766 
L 289.185043 -34.789766 
L 290.260541 -34.789766 
L 291.336039 -34.789766 
L 292.411538 -34.789766 
L 293.487036 -34.789766 
L 294.562534 -34.789766 
L 295.638032 -34.789766 
L 296.713531 -34.789766 
L 297.789029 -34.789766 
L 298.864527 -34.789766 
L 299.940025 -34.789766 
L 301.015524 -34.789766 
L 302.091022 -34.789766 
L 303.16652 -34.789766 
L 304.242018 -34.789766 
L 305.317516 -34.789766 
L 306.393015 -34.789766 
L 307.468513 -34.789766 
L 308.544011 -34.789766 
L 309.619509 -34.789766 
L 310.695008 -34.789766 
L 311.770506 -34.789766 
L 311.770506 -35.111981 
L 311.770506 -35.111981 
L 310.695008 -35.167604 
L 309.619509 -35.231599 
L 308.544011 -35.305 
L 307.468513 -35.388928 
L 306.393015 -35.484596 
L 305.317516 -35.593306 
L 304.242018 -35.716448 
L 303.16652 -35.855502 
L 302.091022 -36.012026 
L 301.015524 -36.187659 
L 299.940025 -36.384105 
L 298.864527 -36.603127 
L 297.789029 -36.846535 
L 296.713531 -37.11617 
L 295.638032 -37.413887 
L 294.562534 -37.741534 
L 293.487036 -38.100935 
L 292.411538 -38.493862 
L 291.336039 -38.922008 
L 290.260541 -39.386965 
L 289.185043 -39.890188 
L 288.109545 -40.432967 
L 287.034046 -41.0164 
L 285.958548 -41.641353 
L 284.88305 -42.308436 
L 283.807552 -43.017969 
L 282.732053 -43.769957 
L 281.656555 -44.564059 
L 280.581057 -45.399567 
L 279.505559 -46.275387 
L 278.43006 -47.190021 
L 277.354562 -48.14156 
L 276.279064 -49.127677 
L 275.203566 -50.14563 
L 274.128067 -51.192269 
L 273.052569 -52.264052 
L 271.977071 -53.357067 
L 270.901573 -54.467065 
L 269.826074 -55.589495 
L 268.750576 -56.719547 
L 267.675078 -57.85221 
L 266.59958 -58.982324 
L 265.524081 -60.104647 
L 264.448583 -61.213926 
L 263.373085 -62.304963 
L 262.297587 -63.3727 
L 261.222088 -64.412287 
L 260.14659 -65.419166 
L 259.071092 -66.389148 
L 257.995594 -67.318483 
L 256.920095 -68.203931 
L 255.844597 -69.042831 
L 254.769099 -69.833156 
L 253.693601 -70.573564 
L 252.618102 -71.263441 
L 251.542604 -71.902928 
L 250.467106 -72.492949 
L 249.391608 -73.035213 
L 248.316109 -73.532211 
L 247.240611 -73.987208 
L 246.165113 -74.404204 
L 245.089615 -74.787904 
L 244.014116 -75.143661 
L 242.938618 -75.477413 
L 241.86312 -75.795613 
L 240.787622 -76.105142 
L 239.712123 -76.413226 
L 238.636625 -76.727329 
L 237.561127 -77.055059 
L 236.485629 -77.404056 
L 235.41013 -77.781888 
L 234.334632 -78.195937 
L 233.259134 -78.653291 
L 232.183636 -79.160644 
L 231.108137 -79.724186 
L 230.032639 -80.349512 
L 228.957141 -81.041529 
L 227.881643 -81.804379 
L 226.806145 -82.641362 
L 225.730646 -83.554876 
L 224.655148 -84.546366 
L 223.57965 -85.616287 
L 222.504152 -86.764074 
L 221.428653 -87.98813 
L 220.353155 -89.285821 
L 219.277657 -90.653496 
L 218.202159 -92.086501 
L 217.12666 -93.579225 
L 216.051162 -95.125143 
L 214.975664 -96.716882 
L 213.900166 -98.346286 
L 212.824667 -100.004503 
L 211.749169 -101.682071 
L 210.673671 -103.36902 
L 209.598173 -105.054972 
L 208.522674 -106.729252 
L 207.447176 -108.381002 
L 206.371678 -109.999294 
L 205.29618 -111.573249 
L 204.220681 -113.092149 
L 203.145183 -114.545551 
L 202.069685 -115.923395 
L 200.994187 -117.216107 
L 199.918688 -118.414694 
L 198.84319 -119.510833 
L 197.767692 -120.49695 
L 196.692194 -121.366282 
L 195.616695 -122.11294 
L 194.541197 -122.731951 
L 193.465699 -123.219287 
L 192.390201 -123.571886 
L 191.314702 -123.787658 
L 190.239204 -123.86548 
L 189.163706 -123.805173 
L 188.088208 -123.607476 
L 187.012709 -123.274004 
L 185.937211 -122.807197 
L 184.861713 -122.210263 
L 183.786215 -121.487112 
L 182.710716 -120.642285 
L 181.635218 -119.680877 
L 180.55972 -118.608464 
L 179.484222 -117.431019 
L 178.408723 -116.154837 
L 177.333225 -114.786458 
L 176.257727 -113.332593 
L 175.182229 -111.800053 
L 174.10673 -110.19569 
L 173.031232 -108.526332 
L 171.955734 -106.798735 
L 170.880236 -105.01954 
L 169.804737 -103.195229 
L 168.729239 -101.3321 
L 167.653741 -99.436239 
L 166.578243 -97.513507 
L 165.502744 -95.569523 
L 164.427246 -93.609662 
L 163.351748 -91.639056 
L 162.27625 -89.662589 
L 161.200751 -87.684913 
L 160.125253 -85.710447 
L 159.049755 -83.743397 
L 157.974257 -81.787757 
L 156.898758 -79.847326 
L 155.82326 -77.925719 
L 154.747762 -76.026371 
L 153.672264 -74.152551 
L 152.596766 -72.307366 
L 151.521267 -70.493763 
L 150.445769 -68.714533 
L 149.370271 -66.972314 
L 148.294773 -65.269584 
L 147.219274 -63.608658 
L 146.143776 -61.991687 
L 145.068278 -60.420648 
L 143.99278 -58.897338 
L 142.917281 -57.423366 
L 141.841783 -56.000147 
L 140.766285 -54.628891 
L 139.690787 -53.310601 
L 138.615288 -52.046066 
L 137.53979 -50.835856 
L 136.464292 -49.680322 
L 135.388794 -48.579593 
L 134.313295 -47.533581 
L 133.237797 -46.541979 
L 132.162299 -45.604274 
L 131.086801 -44.719751 
L 130.011302 -43.887502 
L 128.935804 -43.106439 
L 127.860306 -42.375308 
L 126.784808 -41.692703 
L 125.709309 -41.05708 
L 124.633811 -40.466777 
L 123.558313 -39.920029 
L 122.482815 -39.414986 
L 121.407316 -38.949732 
L 120.331818 -38.5223 
L 119.25632 -38.130693 
L 118.180822 -37.772895 
L 117.105323 -37.446893 
L 116.029825 -37.150686 
L 114.954327 -36.882301 
L 113.878829 -36.639805 
L 112.80333 -36.421315 
L 111.727832 -36.225008 
L 110.652334 -36.049129 
L 109.576836 -35.891998 
L 108.501337 -35.752012 
L 107.425839 -35.627656 
L 106.350341 -35.517497 
L 105.274843 -35.420191 
L 104.199344 -35.334485 
L 103.123846 -35.259209 
L 102.048348 -35.193284 
L 100.97285 -35.135712 
L 99.897351 -35.085578 
L 98.821853 -35.042046 
L 97.746355 -35.004355 
z
" style="stroke: #dd8452; stroke-width: 1.5"/>
    </defs>
    <g clip-path="url(#pec8f0c8202)">
     <use xlink:href="#m4b14cea876" x="0" y="336.209766" style="fill: #dd8452; fill-opacity: 0.25; stroke: #dd8452; stroke-width: 1.5"/>
    </g>
   </g>
   <g id="PolyCollection_2">
    <defs>
     <path id="m2fe6210603" d="M 83.877688 -36.197758 
L 83.877688 -34.789766 
L 83.986753 -34.789766 
L 84.095819 -34.789766 
L 84.204884 -34.789766 
L 84.31395 -34.789766 
L 84.423016 -34.789766 
L 84.532081 -34.789766 
L 84.641147 -34.789766 
L 84.750212 -34.789766 
L 84.859278 -34.789766 
L 84.968343 -34.789766 
L 85.077409 -34.789766 
L 85.186474 -34.789766 
L 85.29554 -34.789766 
L 85.404606 -34.789766 
L 85.513671 -34.789766 
L 85.622737 -34.789766 
L 85.731802 -34.789766 
L 85.840868 -34.789766 
L 85.949933 -34.789766 
L 86.058999 -34.789766 
L 86.168064 -34.789766 
L 86.27713 -34.789766 
L 86.386196 -34.789766 
L 86.495261 -34.789766 
L 86.604327 -34.789766 
L 86.713392 -34.789766 
L 86.822458 -34.789766 
L 86.931523 -34.789766 
L 87.040589 -34.789766 
L 87.149654 -34.789766 
L 87.25872 -34.789766 
L 87.367786 -34.789766 
L 87.476851 -34.789766 
L 87.585917 -34.789766 
L 87.694982 -34.789766 
L 87.804048 -34.789766 
L 87.913113 -34.789766 
L 88.022179 -34.789766 
L 88.131244 -34.789766 
L 88.24031 -34.789766 
L 88.349376 -34.789766 
L 88.458441 -34.789766 
L 88.567507 -34.789766 
L 88.676572 -34.789766 
L 88.785638 -34.789766 
L 88.894703 -34.789766 
L 89.003769 -34.789766 
L 89.112834 -34.789766 
L 89.2219 -34.789766 
L 89.330965 -34.789766 
L 89.440031 -34.789766 
L 89.549097 -34.789766 
L 89.658162 -34.789766 
L 89.767228 -34.789766 
L 89.876293 -34.789766 
L 89.985359 -34.789766 
L 90.094424 -34.789766 
L 90.20349 -34.789766 
L 90.312555 -34.789766 
L 90.421621 -34.789766 
L 90.530687 -34.789766 
L 90.639752 -34.789766 
L 90.748818 -34.789766 
L 90.857883 -34.789766 
L 90.966949 -34.789766 
L 91.076014 -34.789766 
L 91.18508 -34.789766 
L 91.294145 -34.789766 
L 91.403211 -34.789766 
L 91.512277 -34.789766 
L 91.621342 -34.789766 
L 91.730408 -34.789766 
L 91.839473 -34.789766 
L 91.948539 -34.789766 
L 92.057604 -34.789766 
L 92.16667 -34.789766 
L 92.275735 -34.789766 
L 92.384801 -34.789766 
L 92.493867 -34.789766 
L 92.602932 -34.789766 
L 92.711998 -34.789766 
L 92.821063 -34.789766 
L 92.930129 -34.789766 
L 93.039194 -34.789766 
L 93.14826 -34.789766 
L 93.257325 -34.789766 
L 93.366391 -34.789766 
L 93.475457 -34.789766 
L 93.584522 -34.789766 
L 93.693588 -34.789766 
L 93.802653 -34.789766 
L 93.911719 -34.789766 
L 94.020784 -34.789766 
L 94.12985 -34.789766 
L 94.238915 -34.789766 
L 94.347981 -34.789766 
L 94.457047 -34.789766 
L 94.566112 -34.789766 
L 94.675178 -34.789766 
L 94.784243 -34.789766 
L 94.893309 -34.789766 
L 95.002374 -34.789766 
L 95.11144 -34.789766 
L 95.220505 -34.789766 
L 95.329571 -34.789766 
L 95.438637 -34.789766 
L 95.547702 -34.789766 
L 95.656768 -34.789766 
L 95.765833 -34.789766 
L 95.874899 -34.789766 
L 95.983964 -34.789766 
L 96.09303 -34.789766 
L 96.202095 -34.789766 
L 96.311161 -34.789766 
L 96.420227 -34.789766 
L 96.529292 -34.789766 
L 96.638358 -34.789766 
L 96.747423 -34.789766 
L 96.856489 -34.789766 
L 96.965554 -34.789766 
L 97.07462 -34.789766 
L 97.183685 -34.789766 
L 97.292751 -34.789766 
L 97.401817 -34.789766 
L 97.510882 -34.789766 
L 97.619948 -34.789766 
L 97.729013 -34.789766 
L 97.838079 -34.789766 
L 97.947144 -34.789766 
L 98.05621 -34.789766 
L 98.165275 -34.789766 
L 98.274341 -34.789766 
L 98.383406 -34.789766 
L 98.492472 -34.789766 
L 98.601538 -34.789766 
L 98.710603 -34.789766 
L 98.819669 -34.789766 
L 98.928734 -34.789766 
L 99.0378 -34.789766 
L 99.146865 -34.789766 
L 99.255931 -34.789766 
L 99.364996 -34.789766 
L 99.474062 -34.789766 
L 99.583128 -34.789766 
L 99.692193 -34.789766 
L 99.801259 -34.789766 
L 99.910324 -34.789766 
L 100.01939 -34.789766 
L 100.128455 -34.789766 
L 100.237521 -34.789766 
L 100.346586 -34.789766 
L 100.455652 -34.789766 
L 100.564718 -34.789766 
L 100.673783 -34.789766 
L 100.782849 -34.789766 
L 100.891914 -34.789766 
L 101.00098 -34.789766 
L 101.110045 -34.789766 
L 101.219111 -34.789766 
L 101.328176 -34.789766 
L 101.437242 -34.789766 
L 101.546308 -34.789766 
L 101.655373 -34.789766 
L 101.764439 -34.789766 
L 101.873504 -34.789766 
L 101.98257 -34.789766 
L 102.091635 -34.789766 
L 102.200701 -34.789766 
L 102.309766 -34.789766 
L 102.418832 -34.789766 
L 102.527898 -34.789766 
L 102.636963 -34.789766 
L 102.746029 -34.789766 
L 102.855094 -34.789766 
L 102.96416 -34.789766 
L 103.073225 -34.789766 
L 103.182291 -34.789766 
L 103.291356 -34.789766 
L 103.400422 -34.789766 
L 103.509488 -34.789766 
L 103.618553 -34.789766 
L 103.727619 -34.789766 
L 103.836684 -34.789766 
L 103.94575 -34.789766 
L 104.054815 -34.789766 
L 104.163881 -34.789766 
L 104.272946 -34.789766 
L 104.382012 -34.789766 
L 104.491078 -34.789766 
L 104.600143 -34.789766 
L 104.709209 -34.789766 
L 104.818274 -34.789766 
L 104.92734 -34.789766 
L 105.036405 -34.789766 
L 105.145471 -34.789766 
L 105.254536 -34.789766 
L 105.363602 -34.789766 
L 105.472668 -34.789766 
L 105.581733 -34.789766 
L 105.581733 -37.605115 
L 105.581733 -37.605115 
L 105.472668 -37.970885 
L 105.363602 -38.378143 
L 105.254536 -38.830745 
L 105.145471 -39.332797 
L 105.036405 -39.888653 
L 104.92734 -40.502917 
L 104.818274 -41.180438 
L 104.709209 -41.926313 
L 104.600143 -42.745868 
L 104.491078 -43.64466 
L 104.382012 -44.628454 
L 104.272946 -45.703211 
L 104.163881 -46.875068 
L 104.054815 -48.150309 
L 103.94575 -49.535343 
L 103.836684 -51.03667 
L 103.727619 -52.660842 
L 103.618553 -54.414425 
L 103.509488 -56.303955 
L 103.400422 -58.335889 
L 103.291356 -60.516552 
L 103.182291 -62.85208 
L 103.073225 -65.348362 
L 102.96416 -68.010978 
L 102.855094 -70.845128 
L 102.746029 -73.855571 
L 102.636963 -77.046549 
L 102.527898 -80.42172 
L 102.418832 -83.984082 
L 102.309766 -87.735905 
L 102.200701 -91.678659 
L 102.091635 -95.812945 
L 101.98257 -100.138426 
L 101.873504 -104.653769 
L 101.764439 -109.356582 
L 101.655373 -114.243362 
L 101.546308 -119.309451 
L 101.437242 -124.548992 
L 101.328176 -129.9549 
L 101.219111 -135.51884 
L 101.110045 -141.231212 
L 101.00098 -147.081154 
L 100.891914 -153.056545 
L 100.782849 -159.144031 
L 100.673783 -165.329055 
L 100.564718 -171.595905 
L 100.455652 -177.927771 
L 100.346586 -184.306817 
L 100.237521 -190.714266 
L 100.128455 -197.130494 
L 100.01939 -203.535137 
L 99.910324 -209.907215 
L 99.801259 -216.225257 
L 99.692193 -222.467441 
L 99.583128 -228.611744 
L 99.474062 -234.636092 
L 99.364996 -240.518524 
L 99.255931 -246.237354 
L 99.146865 -251.771339 
L 99.0378 -257.099843 
L 98.928734 -262.20301 
L 98.819669 -267.061918 
L 98.710603 -271.658749 
L 98.601538 -275.976929 
L 98.492472 -280.001283 
L 98.383406 -283.718158 
L 98.274341 -287.115553 
L 98.165275 -290.183222 
L 98.05621 -292.912769 
L 97.947144 -295.297724 
L 97.838079 -297.333602 
L 97.729013 -299.017947 
L 97.619948 -300.35035 
L 97.510882 -301.332456 
L 97.401817 -301.967945 
L 97.292751 -302.262493 
L 97.183685 -302.223721 
L 97.07462 -301.861115 
L 96.965554 -301.185934 
L 96.856489 -300.211102 
L 96.747423 -298.951076 
L 96.638358 -297.421706 
L 96.529292 -295.640081 
L 96.420227 -293.62436 
L 96.311161 -291.3936 
L 96.202095 -288.967566 
L 96.09303 -286.366545 
L 95.983964 -283.611155 
L 95.874899 -280.722146 
L 95.765833 -277.720214 
L 95.656768 -274.625803 
L 95.547702 -271.45893 
L 95.438637 -268.239002 
L 95.329571 -264.984651 
L 95.220505 -261.713577 
L 95.11144 -258.442408 
L 95.002374 -255.186568 
L 94.893309 -251.960166 
L 94.784243 -248.775899 
L 94.675178 -245.644975 
L 94.566112 -242.577048 
L 94.457047 -239.580185 
L 94.347981 -236.660834 
L 94.238915 -233.823825 
L 94.12985 -231.072383 
L 94.020784 -228.40816 
L 93.911719 -225.831283 
L 93.802653 -223.34042 
L 93.693588 -220.932858 
L 93.584522 -218.604601 
L 93.475457 -216.350471 
L 93.366391 -214.164226 
L 93.257325 -212.038685 
L 93.14826 -209.965861 
L 93.039194 -207.937098 
L 92.930129 -205.943213 
L 92.821063 -203.974638 
L 92.711998 -202.021563 
L 92.602932 -200.074079 
L 92.493867 -198.122313 
L 92.384801 -196.156565 
L 92.275735 -194.167428 
L 92.16667 -192.145913 
L 92.057604 -190.083555 
L 91.948539 -187.972512 
L 91.839473 -185.805658 
L 91.730408 -183.576654 
L 91.621342 -181.280018 
L 91.512277 -178.911173 
L 91.403211 -176.46649 
L 91.294145 -173.943314 
L 91.18508 -171.339979 
L 91.076014 -168.655806 
L 90.966949 -165.8911 
L 90.857883 -163.047122 
L 90.748818 -160.126065 
L 90.639752 -157.131005 
L 90.530687 -154.065855 
L 90.421621 -150.935308 
L 90.312555 -147.744769 
L 90.20349 -144.500286 
L 90.094424 -141.208474 
L 89.985359 -137.876438 
L 89.876293 -134.511689 
L 89.767228 -131.122064 
L 89.658162 -127.715641 
L 89.549097 -124.300657 
L 89.440031 -120.885427 
L 89.330965 -117.47827 
L 89.2219 -114.087426 
L 89.112834 -110.720993 
L 89.003769 -107.386857 
L 88.894703 -104.092631 
L 88.785638 -100.8456 
L 88.676572 -97.652673 
L 88.567507 -94.520335 
L 88.458441 -91.454618 
L 88.349376 -88.46106 
L 88.24031 -85.544692 
L 88.131244 -82.710011 
L 88.022179 -79.960972 
L 87.913113 -77.300984 
L 87.804048 -74.732905 
L 87.694982 -72.25905 
L 87.585917 -69.881201 
L 87.476851 -67.600619 
L 87.367786 -65.418063 
L 87.25872 -63.333814 
L 87.149654 -61.347695 
L 87.040589 -59.459103 
L 86.931523 -57.667032 
L 86.822458 -55.970113 
L 86.713392 -54.366638 
L 86.604327 -52.854595 
L 86.495261 -51.431704 
L 86.386196 -50.095447 
L 86.27713 -48.843101 
L 86.168064 -47.671771 
L 86.058999 -46.57842 
L 85.949933 -45.559902 
L 85.840868 -44.612985 
L 85.731802 -43.734381 
L 85.622737 -42.920772 
L 85.513671 -42.16883 
L 85.404606 -41.475242 
L 85.29554 -40.836726 
L 85.186474 -40.250051 
L 85.077409 -39.71205 
L 84.968343 -39.219635 
L 84.859278 -38.769809 
L 84.750212 -38.359675 
L 84.641147 -37.986443 
L 84.532081 -37.647438 
L 84.423016 -37.340106 
L 84.31395 -37.062012 
L 84.204884 -36.810851 
L 84.095819 -36.584438 
L 83.986753 -36.380718 
L 83.877688 -36.197758 
z
" style="stroke: #4c72b0; stroke-width: 1.5"/>
    </defs>
    <g clip-path="url(#pec8f0c8202)">
     <use xlink:href="#m2fe6210603" x="0" y="336.209766" style="fill: #4c72b0; fill-opacity: 0.25; stroke: #4c72b0; stroke-width: 1.5"/>
    </g>
   </g>
   <g id="LineCollection_1">
    <path d="M 97.600025 301.42 
L 97.600025 294.0645 
" clip-path="url(#pec8f0c8202)" style="fill: none; stroke: #4c72b0"/>
    <path d="M 97.600025 301.42 
L 97.600025 294.0645 
" clip-path="url(#pec8f0c8202)" style="fill: none; stroke: #4c72b0"/>
    <path d="M 91.859396 301.42 
L 91.859396 294.0645 
" clip-path="url(#pec8f0c8202)" style="fill: none; stroke: #4c72b0"/>
    <path d="M 158.833399 301.42 
L 158.833399 294.0645 
" clip-path="url(#pec8f0c8202)" style="fill: none; stroke: #dd8452"/>
    <path d="M 214.326145 301.42 
L 214.326145 294.0645 
" clip-path="url(#pec8f0c8202)" style="fill: none; stroke: #dd8452"/>
    <path d="M 191.36363 301.42 
L 191.36363 294.0645 
" clip-path="url(#pec8f0c8202)" style="fill: none; stroke: #dd8452"/>
    <path d="M 187.536544 301.42 
L 187.536544 294.0645 
" clip-path="url(#pec8f0c8202)" style="fill: none; stroke: #dd8452"/>
    <path d="M 195.190716 301.42 
L 195.190716 294.0645 
" clip-path="url(#pec8f0c8202)" style="fill: none; stroke: #dd8452"/>
    <path d="M 170.314657 301.42 
L 170.314657 294.0645 
" clip-path="url(#pec8f0c8202)" style="fill: none; stroke: #dd8452"/>
    <path d="M 250.683461 301.42 
L 250.683461 294.0645 
" clip-path="url(#pec8f0c8202)" style="fill: none; stroke: #dd8452"/>
    <path d="M 248.769918 301.42 
L 248.769918 294.0645 
" clip-path="url(#pec8f0c8202)" style="fill: none; stroke: #dd8452"/>
    <path d="M 195.190716 301.42 
L 195.190716 294.0645 
" clip-path="url(#pec8f0c8202)" style="fill: none; stroke: #dd8452"/>
   </g>
   <g id="patch_3">
    <path d="M 72.483047 301.42 
L 72.483047 7.2 
" style="fill: none; stroke: #262626; stroke-width: 1.875; stroke-linejoin: miter; stroke-linecap: square"/>
   </g>
   <g id="patch_4">
    <path d="M 72.483047 301.42 
L 323.165147 301.42 
" style="fill: none; stroke: #262626; stroke-width: 1.875; stroke-linejoin: miter; stroke-linecap: square"/>
   </g>
  </g>
  <g id="legend_1">
   <g id="patch_5">
    <path d="M 345.092578 160.512305 
L 378.092578 160.512305 
L 378.092578 148.962305 
L 345.092578 148.962305 
z
" style="fill: #4c72b0; fill-opacity: 0.25; stroke: #4c72b0; stroke-width: 1.5; stroke-linejoin: miter"/>
   </g>
   <g id="text_11">
    <!-- KILO-edByte -->
    <g style="fill: #262626" transform="translate(391.292578 160.512305) scale(0.165 -0.165)">
     <defs>
      <path id="ArialMT-4b" d="M 469 0 
L 469 4581 
L 1075 4581 
L 1075 2309 
L 3350 4581 
L 4172 4581 
L 2250 2725 
L 4256 0 
L 3456 0 
L 1825 2319 
L 1075 1588 
L 1075 0 
L 469 0 
z
" transform="scale(0.015625)"/>
      <path id="ArialMT-49" d="M 597 0 
L 597 4581 
L 1203 4581 
L 1203 0 
L 597 0 
z
" transform="scale(0.015625)"/>
      <path id="ArialMT-4c" d="M 469 0 
L 469 4581 
L 1075 4581 
L 1075 541 
L 3331 541 
L 3331 0 
L 469 0 
z
" transform="scale(0.015625)"/>
      <path id="ArialMT-4f" d="M 309 2231 
Q 309 3372 921 4017 
Q 1534 4663 2503 4663 
Q 3138 4663 3647 4359 
Q 4156 4056 4423 3514 
Q 4691 2972 4691 2284 
Q 4691 1588 4409 1038 
Q 4128 488 3612 205 
Q 3097 -78 2500 -78 
Q 1853 -78 1343 234 
Q 834 547 571 1087 
Q 309 1628 309 2231 
z
M 934 2222 
Q 934 1394 1379 917 
Q 1825 441 2497 441 
Q 3181 441 3623 922 
Q 4066 1403 4066 2288 
Q 4066 2847 3877 3264 
Q 3688 3681 3323 3911 
Q 2959 4141 2506 4141 
Q 1863 4141 1398 3698 
Q 934 3256 934 2222 
z
" transform="scale(0.015625)"/>
      <path id="ArialMT-2d" d="M 203 1375 
L 203 1941 
L 1931 1941 
L 1931 1375 
L 203 1375 
z
" transform="scale(0.015625)"/>
      <path id="ArialMT-64" d="M 2575 0 
L 2575 419 
Q 2259 -75 1647 -75 
Q 1250 -75 917 144 
Q 584 363 401 755 
Q 219 1147 219 1656 
Q 219 2153 384 2558 
Q 550 2963 881 3178 
Q 1213 3394 1622 3394 
Q 1922 3394 2156 3267 
Q 2391 3141 2538 2938 
L 2538 4581 
L 3097 4581 
L 3097 0 
L 2575 0 
z
M 797 1656 
Q 797 1019 1065 703 
Q 1334 388 1700 388 
Q 2069 388 2326 689 
Q 2584 991 2584 1609 
Q 2584 2291 2321 2609 
Q 2059 2928 1675 2928 
Q 1300 2928 1048 2622 
Q 797 2316 797 1656 
z
" transform="scale(0.015625)"/>
      <path id="ArialMT-42" d="M 469 0 
L 469 4581 
L 2188 4581 
Q 2713 4581 3030 4442 
Q 3347 4303 3526 4014 
Q 3706 3725 3706 3409 
Q 3706 3116 3547 2856 
Q 3388 2597 3066 2438 
Q 3481 2316 3704 2022 
Q 3928 1728 3928 1328 
Q 3928 1006 3792 729 
Q 3656 453 3456 303 
Q 3256 153 2954 76 
Q 2653 0 2216 0 
L 469 0 
z
M 1075 2656 
L 2066 2656 
Q 2469 2656 2644 2709 
Q 2875 2778 2992 2937 
Q 3109 3097 3109 3338 
Q 3109 3566 3000 3739 
Q 2891 3913 2687 3977 
Q 2484 4041 1991 4041 
L 1075 4041 
L 1075 2656 
z
M 1075 541 
L 2216 541 
Q 2509 541 2628 563 
Q 2838 600 2978 687 
Q 3119 775 3209 942 
Q 3300 1109 3300 1328 
Q 3300 1584 3169 1773 
Q 3038 1963 2805 2039 
Q 2572 2116 2134 2116 
L 1075 2116 
L 1075 541 
z
" transform="scale(0.015625)"/>
     </defs>
     <use xlink:href="#ArialMT-4b"/>
     <use xlink:href="#ArialMT-49" x="66.699219"/>
     <use xlink:href="#ArialMT-4c" x="94.482422"/>
     <use xlink:href="#ArialMT-4f" x="150.097656"/>
     <use xlink:href="#ArialMT-2d" x="227.880859"/>
     <use xlink:href="#ArialMT-65" x="261.181641"/>
     <use xlink:href="#ArialMT-64" x="316.796875"/>
     <use xlink:href="#ArialMT-42" x="372.412109"/>
     <use xlink:href="#ArialMT-79" x="439.111328"/>
     <use xlink:href="#ArialMT-74" x="489.111328"/>
     <use xlink:href="#ArialMT-65" x="516.894531"/>
    </g>
   </g>
   <g id="patch_6">
    <path d="M 345.092578 184.246523 
L 378.092578 184.246523 
L 378.092578 172.696523 
L 345.092578 172.696523 
z
" style="fill: #dd8452; fill-opacity: 0.25; stroke: #dd8452; stroke-width: 1.5; stroke-linejoin: miter"/>
   </g>
   <g id="text_12">
    <!-- MEGA-edByte -->
    <g style="fill: #262626" transform="translate(391.292578 184.246523) scale(0.165 -0.165)">
     <defs>
      <path id="ArialMT-4d" d="M 475 0 
L 475 4581 
L 1388 4581 
L 2472 1338 
Q 2622 884 2691 659 
Q 2769 909 2934 1394 
L 4031 4581 
L 4847 4581 
L 4847 0 
L 4263 0 
L 4263 3834 
L 2931 0 
L 2384 0 
L 1059 3900 
L 1059 0 
L 475 0 
z
" transform="scale(0.015625)"/>
      <path id="ArialMT-45" d="M 506 0 
L 506 4581 
L 3819 4581 
L 3819 4041 
L 1113 4041 
L 1113 2638 
L 3647 2638 
L 3647 2100 
L 1113 2100 
L 1113 541 
L 3925 541 
L 3925 0 
L 506 0 
z
" transform="scale(0.015625)"/>
      <path id="ArialMT-47" d="M 2638 1797 
L 2638 2334 
L 4578 2338 
L 4578 638 
Q 4131 281 3656 101 
Q 3181 -78 2681 -78 
Q 2006 -78 1454 211 
Q 903 500 622 1047 
Q 341 1594 341 2269 
Q 341 2938 620 3517 
Q 900 4097 1425 4378 
Q 1950 4659 2634 4659 
Q 3131 4659 3532 4498 
Q 3934 4338 4162 4050 
Q 4391 3763 4509 3300 
L 3963 3150 
Q 3859 3500 3706 3700 
Q 3553 3900 3268 4020 
Q 2984 4141 2638 4141 
Q 2222 4141 1919 4014 
Q 1616 3888 1430 3681 
Q 1244 3475 1141 3228 
Q 966 2803 966 2306 
Q 966 1694 1177 1281 
Q 1388 869 1791 669 
Q 2194 469 2647 469 
Q 3041 469 3416 620 
Q 3791 772 3984 944 
L 3984 1797 
L 2638 1797 
z
" transform="scale(0.015625)"/>
      <path id="ArialMT-41" d="M -9 0 
L 1750 4581 
L 2403 4581 
L 4278 0 
L 3588 0 
L 3053 1388 
L 1138 1388 
L 634 0 
L -9 0 
z
M 1313 1881 
L 2866 1881 
L 2388 3150 
Q 2169 3728 2063 4100 
Q 1975 3659 1816 3225 
L 1313 1881 
z
" transform="scale(0.015625)"/>
     </defs>
     <use xlink:href="#ArialMT-4d"/>
     <use xlink:href="#ArialMT-45" x="83.300781"/>
     <use xlink:href="#ArialMT-47" x="150"/>
     <use xlink:href="#ArialMT-41" x="227.783203"/>
     <use xlink:href="#ArialMT-2d" x="294.482422"/>
     <use xlink:href="#ArialMT-65" x="327.783203"/>
     <use xlink:href="#ArialMT-64" x="383.398438"/>
     <use xlink:href="#ArialMT-42" x="439.013672"/>
     <use xlink:href="#ArialMT-79" x="505.712891"/>
     <use xlink:href="#ArialMT-74" x="555.712891"/>
     <use xlink:href="#ArialMT-65" x="583.496094"/>
    </g>
   </g>
  </g>
 </g>
 <defs>
  <clipPath id="pec8f0c8202">
   <rect x="72.483047" y="7.2" width="250.6821" height="294.22"/>
  </clipPath>
 </defs>
</svg>
