<?xml version="1.0" encoding="utf-8" standalone="no"?>
<!DOCTYPE svg PUBLIC "-//W3C//DTD SVG 1.1//EN"
  "http://www.w3.org/Graphics/SVG/1.1/DTD/svg11.dtd">
<svg xmlns:xlink="http://www.w3.org/1999/xlink" width="488.658047pt" height="336.209766pt" viewBox="0 0 488.658047 336.209766" xmlns="http://www.w3.org/2000/svg" version="1.1">
 <metadata>
  <rdf:RDF xmlns:dc="http://purl.org/dc/elements/1.1/" xmlns:cc="http://creativecommons.org/ns#" xmlns:rdf="http://www.w3.org/1999/02/22-rdf-syntax-ns#">
   <cc:Work>
    <dc:type rdf:resource="http://purl.org/dc/dcmitype/StillImage"/>
    <dc:date>2023-10-30T01:44:33.125087</dc:date>
    <dc:format>image/svg+xml</dc:format>
    <dc:creator>
     <cc:Agent>
      <dc:title>Matplotlib v3.8.0, https://matplotlib.org/</dc:title>
     </cc:Agent>
    </dc:creator>
   </cc:Work>
  </rdf:RDF>
 </metadata>
 <defs>
  <style type="text/css">*{stroke-linejoin: round; stroke-linecap: butt}</style>
 </defs>
 <g id="figure_1">
  <g id="patch_1">
   <path d="M 0 336.209766 
L 488.658047 336.209766 
L 488.658047 0 
L 0 0 
z
" style="fill: #ffffff"/>
  </g>
  <g id="axes_1">
   <g id="patch_2">
    <path d="M 49.548047 301.42 
L 300.230147 301.42 
L 300.230147 7.2 
L 49.548047 7.2 
z
" style="fill: #ffffff"/>
   </g>
   <g id="matplotlib.axis_1">
    <g id="xtick_1">
     <g id="line2d_1">
      <defs>
       <path id="m7b6ee9c9d1" d="M 0 0 
L 0 9 
" style="stroke: #262626; stroke-width: 1.875"/>
      </defs>
      <g>
       <use xlink:href="#m7b6ee9c9d1" x="107.397762" y="301.42" style="fill: #262626; stroke: #262626; stroke-width: 1.875"/>
      </g>
     </g>
     <g id="text_1">
      <!-- 100 -->
      <g style="fill: #262626" transform="translate(93.634442 325.730391) scale(0.165 -0.165)">
       <defs>
        <path id="ArialMT-31" d="M 2384 0 
L 1822 0 
L 1822 3584 
Q 1619 3391 1289 3197 
Q 959 3003 697 2906 
L 697 3450 
Q 1169 3672 1522 3987 
Q 1875 4303 2022 4600 
L 2384 4600 
L 2384 0 
z
" transform="scale(0.015625)"/>
        <path id="ArialMT-30" d="M 266 2259 
Q 266 3072 433 3567 
Q 600 4063 929 4331 
Q 1259 4600 1759 4600 
Q 2128 4600 2406 4451 
Q 2684 4303 2865 4023 
Q 3047 3744 3150 3342 
Q 3253 2941 3253 2259 
Q 3253 1453 3087 958 
Q 2922 463 2592 192 
Q 2263 -78 1759 -78 
Q 1097 -78 719 397 
Q 266 969 266 2259 
z
M 844 2259 
Q 844 1131 1108 757 
Q 1372 384 1759 384 
Q 2147 384 2411 759 
Q 2675 1134 2675 2259 
Q 2675 3391 2411 3762 
Q 2147 4134 1753 4134 
Q 1366 4134 1134 3806 
Q 844 3388 844 2259 
z
" transform="scale(0.015625)"/>
       </defs>
       <use xlink:href="#ArialMT-31"/>
       <use xlink:href="#ArialMT-30" x="55.615234"/>
       <use xlink:href="#ArialMT-30" x="111.230469"/>
      </g>
     </g>
    </g>
    <g id="xtick_2">
     <g id="line2d_2">
      <g>
       <use xlink:href="#m7b6ee9c9d1" x="203.813955" y="301.42" style="fill: #262626; stroke: #262626; stroke-width: 1.875"/>
      </g>
     </g>
     <g id="text_2">
      <!-- 150 -->
      <g style="fill: #262626" transform="translate(190.050634 325.730391) scale(0.165 -0.165)">
       <defs>
        <path id="ArialMT-35" d="M 266 1200 
L 856 1250 
Q 922 819 1161 601 
Q 1400 384 1738 384 
Q 2144 384 2425 690 
Q 2706 997 2706 1503 
Q 2706 1984 2436 2262 
Q 2166 2541 1728 2541 
Q 1456 2541 1237 2417 
Q 1019 2294 894 2097 
L 366 2166 
L 809 4519 
L 3088 4519 
L 3088 3981 
L 1259 3981 
L 1013 2750 
Q 1425 3038 1878 3038 
Q 2478 3038 2890 2622 
Q 3303 2206 3303 1553 
Q 3303 931 2941 478 
Q 2500 -78 1738 -78 
Q 1113 -78 717 272 
Q 322 622 266 1200 
z
" transform="scale(0.015625)"/>
       </defs>
       <use xlink:href="#ArialMT-31"/>
       <use xlink:href="#ArialMT-35" x="55.615234"/>
       <use xlink:href="#ArialMT-30" x="111.230469"/>
      </g>
     </g>
    </g>
    <g id="xtick_3">
     <g id="line2d_3">
      <g>
       <use xlink:href="#m7b6ee9c9d1" x="300.230147" y="301.42" style="fill: #262626; stroke: #262626; stroke-width: 1.875"/>
      </g>
     </g>
     <g id="text_3">
      <!-- 200 -->
      <g style="fill: #262626" transform="translate(286.466827 325.730391) scale(0.165 -0.165)">
       <defs>
        <path id="ArialMT-32" d="M 3222 541 
L 3222 0 
L 194 0 
Q 188 203 259 391 
Q 375 700 629 1000 
Q 884 1300 1366 1694 
Q 2113 2306 2375 2664 
Q 2638 3022 2638 3341 
Q 2638 3675 2398 3904 
Q 2159 4134 1775 4134 
Q 1369 4134 1125 3890 
Q 881 3647 878 3216 
L 300 3275 
Q 359 3922 746 4261 
Q 1134 4600 1788 4600 
Q 2447 4600 2831 4234 
Q 3216 3869 3216 3328 
Q 3216 3053 3103 2787 
Q 2991 2522 2730 2228 
Q 2469 1934 1863 1422 
Q 1356 997 1212 845 
Q 1069 694 975 541 
L 3222 541 
z
" transform="scale(0.015625)"/>
       </defs>
       <use xlink:href="#ArialMT-32"/>
       <use xlink:href="#ArialMT-30" x="55.615234"/>
       <use xlink:href="#ArialMT-30" x="111.230469"/>
      </g>
     </g>
    </g>
   </g>
   <g id="matplotlib.axis_2">
    <g id="ytick_1">
     <g id="line2d_4">
      <defs>
       <path id="md0659d580f" d="M 0 0 
L -9 0 
" style="stroke: #262626; stroke-width: 1.875"/>
      </defs>
      <g>
       <use xlink:href="#md0659d580f" x="49.548047" y="301.42" style="fill: #262626; stroke: #262626; stroke-width: 1.875"/>
      </g>
     </g>
     <g id="text_4">
      <!-- 0 -->
      <g style="fill: #262626" transform="translate(27.8725 307.325195) scale(0.165 -0.165)">
       <use xlink:href="#ArialMT-30"/>
      </g>
     </g>
    </g>
    <g id="ytick_2">
     <g id="line2d_5">
      <g>
       <use xlink:href="#md0659d580f" x="49.548047" y="247.925455" style="fill: #262626; stroke: #262626; stroke-width: 1.875"/>
      </g>
     </g>
     <g id="text_5">
      <!-- 1 -->
      <g style="fill: #262626" transform="translate(27.8725 253.83065) scale(0.165 -0.165)">
       <use xlink:href="#ArialMT-31"/>
      </g>
     </g>
    </g>
    <g id="ytick_3">
     <g id="line2d_6">
      <g>
       <use xlink:href="#md0659d580f" x="49.548047" y="194.430909" style="fill: #262626; stroke: #262626; stroke-width: 1.875"/>
      </g>
     </g>
     <g id="text_6">
      <!-- 2 -->
      <g style="fill: #262626" transform="translate(27.8725 200.336104) scale(0.165 -0.165)">
       <use xlink:href="#ArialMT-32"/>
      </g>
     </g>
    </g>
    <g id="ytick_4">
     <g id="line2d_7">
      <g>
       <use xlink:href="#md0659d580f" x="49.548047" y="140.936364" style="fill: #262626; stroke: #262626; stroke-width: 1.875"/>
      </g>
     </g>
     <g id="text_7">
      <!-- 3 -->
      <g style="fill: #262626" transform="translate(27.8725 146.841559) scale(0.165 -0.165)">
       <defs>
        <path id="ArialMT-33" d="M 269 1209 
L 831 1284 
Q 928 806 1161 595 
Q 1394 384 1728 384 
Q 2125 384 2398 659 
Q 2672 934 2672 1341 
Q 2672 1728 2419 1979 
Q 2166 2231 1775 2231 
Q 1616 2231 1378 2169 
L 1441 2663 
Q 1497 2656 1531 2656 
Q 1891 2656 2178 2843 
Q 2466 3031 2466 3422 
Q 2466 3731 2256 3934 
Q 2047 4138 1716 4138 
Q 1388 4138 1169 3931 
Q 950 3725 888 3313 
L 325 3413 
Q 428 3978 793 4289 
Q 1159 4600 1703 4600 
Q 2078 4600 2393 4439 
Q 2709 4278 2876 4000 
Q 3044 3722 3044 3409 
Q 3044 3113 2884 2869 
Q 2725 2625 2413 2481 
Q 2819 2388 3044 2092 
Q 3269 1797 3269 1353 
Q 3269 753 2831 336 
Q 2394 -81 1725 -81 
Q 1122 -81 723 278 
Q 325 638 269 1209 
z
" transform="scale(0.015625)"/>
       </defs>
       <use xlink:href="#ArialMT-33"/>
      </g>
     </g>
    </g>
    <g id="ytick_5">
     <g id="line2d_8">
      <g>
       <use xlink:href="#md0659d580f" x="49.548047" y="87.441818" style="fill: #262626; stroke: #262626; stroke-width: 1.875"/>
      </g>
     </g>
     <g id="text_8">
      <!-- 4 -->
      <g style="fill: #262626" transform="translate(27.8725 93.347013) scale(0.165 -0.165)">
       <defs>
        <path id="ArialMT-34" d="M 2069 0 
L 2069 1097 
L 81 1097 
L 81 1613 
L 2172 4581 
L 2631 4581 
L 2631 1613 
L 3250 1613 
L 3250 1097 
L 2631 1097 
L 2631 0 
L 2069 0 
z
M 2069 1613 
L 2069 3678 
L 634 1613 
L 2069 1613 
z
" transform="scale(0.015625)"/>
       </defs>
       <use xlink:href="#ArialMT-34"/>
      </g>
     </g>
    </g>
    <g id="ytick_6">
     <g id="line2d_9">
      <g>
       <use xlink:href="#md0659d580f" x="49.548047" y="33.947273" style="fill: #262626; stroke: #262626; stroke-width: 1.875"/>
      </g>
     </g>
     <g id="text_9">
      <!-- 5 -->
      <g style="fill: #262626" transform="translate(27.8725 39.852468) scale(0.165 -0.165)">
       <use xlink:href="#ArialMT-35"/>
      </g>
     </g>
    </g>
    <g id="text_10">
     <!-- Density -->
     <g style="fill: #262626" transform="translate(20.084063 184.319375) rotate(-90) scale(0.18 -0.18)">
      <defs>
       <path id="ArialMT-44" d="M 494 0 
L 494 4581 
L 2072 4581 
Q 2606 4581 2888 4516 
Q 3281 4425 3559 4188 
Q 3922 3881 4101 3404 
Q 4281 2928 4281 2316 
Q 4281 1794 4159 1391 
Q 4038 988 3847 723 
Q 3656 459 3429 307 
Q 3203 156 2883 78 
Q 2563 0 2147 0 
L 494 0 
z
M 1100 541 
L 2078 541 
Q 2531 541 2789 625 
Q 3047 709 3200 863 
Q 3416 1078 3536 1442 
Q 3656 1806 3656 2325 
Q 3656 3044 3420 3430 
Q 3184 3816 2847 3947 
Q 2603 4041 2063 4041 
L 1100 4041 
L 1100 541 
z
" transform="scale(0.015625)"/>
       <path id="ArialMT-65" d="M 2694 1069 
L 3275 997 
Q 3138 488 2766 206 
Q 2394 -75 1816 -75 
Q 1088 -75 661 373 
Q 234 822 234 1631 
Q 234 2469 665 2931 
Q 1097 3394 1784 3394 
Q 2450 3394 2872 2941 
Q 3294 2488 3294 1666 
Q 3294 1616 3291 1516 
L 816 1516 
Q 847 969 1125 678 
Q 1403 388 1819 388 
Q 2128 388 2347 550 
Q 2566 713 2694 1069 
z
M 847 1978 
L 2700 1978 
Q 2663 2397 2488 2606 
Q 2219 2931 1791 2931 
Q 1403 2931 1139 2672 
Q 875 2413 847 1978 
z
" transform="scale(0.015625)"/>
       <path id="ArialMT-6e" d="M 422 0 
L 422 3319 
L 928 3319 
L 928 2847 
Q 1294 3394 1984 3394 
Q 2284 3394 2536 3286 
Q 2788 3178 2913 3003 
Q 3038 2828 3088 2588 
Q 3119 2431 3119 2041 
L 3119 0 
L 2556 0 
L 2556 2019 
Q 2556 2363 2490 2533 
Q 2425 2703 2258 2804 
Q 2091 2906 1866 2906 
Q 1506 2906 1245 2678 
Q 984 2450 984 1813 
L 984 0 
L 422 0 
z
" transform="scale(0.015625)"/>
       <path id="ArialMT-73" d="M 197 991 
L 753 1078 
Q 800 744 1014 566 
Q 1228 388 1613 388 
Q 2000 388 2187 545 
Q 2375 703 2375 916 
Q 2375 1106 2209 1216 
Q 2094 1291 1634 1406 
Q 1016 1563 777 1677 
Q 538 1791 414 1992 
Q 291 2194 291 2438 
Q 291 2659 392 2848 
Q 494 3038 669 3163 
Q 800 3259 1026 3326 
Q 1253 3394 1513 3394 
Q 1903 3394 2198 3281 
Q 2494 3169 2634 2976 
Q 2775 2784 2828 2463 
L 2278 2388 
Q 2241 2644 2061 2787 
Q 1881 2931 1553 2931 
Q 1166 2931 1000 2803 
Q 834 2675 834 2503 
Q 834 2394 903 2306 
Q 972 2216 1119 2156 
Q 1203 2125 1616 2013 
Q 2213 1853 2448 1751 
Q 2684 1650 2818 1456 
Q 2953 1263 2953 975 
Q 2953 694 2789 445 
Q 2625 197 2315 61 
Q 2006 -75 1616 -75 
Q 969 -75 630 194 
Q 291 463 197 991 
z
" transform="scale(0.015625)"/>
       <path id="ArialMT-69" d="M 425 3934 
L 425 4581 
L 988 4581 
L 988 3934 
L 425 3934 
z
M 425 0 
L 425 3319 
L 988 3319 
L 988 0 
L 425 0 
z
" transform="scale(0.015625)"/>
       <path id="ArialMT-74" d="M 1650 503 
L 1731 6 
Q 1494 -44 1306 -44 
Q 1000 -44 831 53 
Q 663 150 594 308 
Q 525 466 525 972 
L 525 2881 
L 113 2881 
L 113 3319 
L 525 3319 
L 525 4141 
L 1084 4478 
L 1084 3319 
L 1650 3319 
L 1650 2881 
L 1084 2881 
L 1084 941 
Q 1084 700 1114 631 
Q 1144 563 1211 522 
Q 1278 481 1403 481 
Q 1497 481 1650 503 
z
" transform="scale(0.015625)"/>
       <path id="ArialMT-79" d="M 397 -1278 
L 334 -750 
Q 519 -800 656 -800 
Q 844 -800 956 -737 
Q 1069 -675 1141 -563 
Q 1194 -478 1313 -144 
Q 1328 -97 1363 -6 
L 103 3319 
L 709 3319 
L 1400 1397 
Q 1534 1031 1641 628 
Q 1738 1016 1872 1384 
L 2581 3319 
L 3144 3319 
L 1881 -56 
Q 1678 -603 1566 -809 
Q 1416 -1088 1222 -1217 
Q 1028 -1347 759 -1347 
Q 597 -1347 397 -1278 
z
" transform="scale(0.015625)"/>
      </defs>
      <use xlink:href="#ArialMT-44"/>
      <use xlink:href="#ArialMT-65" x="72.216797"/>
      <use xlink:href="#ArialMT-6e" x="127.832031"/>
      <use xlink:href="#ArialMT-73" x="183.447266"/>
      <use xlink:href="#ArialMT-69" x="233.447266"/>
      <use xlink:href="#ArialMT-74" x="255.664062"/>
      <use xlink:href="#ArialMT-79" x="283.447266"/>
     </g>
    </g>
   </g>
   <g id="PolyCollection_1">
    <defs>
     <path id="mf8db570cd3" d="M 99.831927 -34.791932 
L 99.831927 -34.789766 
L 100.915733 -34.789766 
L 101.999539 -34.789766 
L 103.083345 -34.789766 
L 104.16715 -34.789766 
L 105.250956 -34.789766 
L 106.334762 -34.789766 
L 107.418568 -34.789766 
L 108.502373 -34.789766 
L 109.586179 -34.789766 
L 110.669985 -34.789766 
L 111.753791 -34.789766 
L 112.837597 -34.789766 
L 113.921402 -34.789766 
L 115.005208 -34.789766 
L 116.089014 -34.789766 
L 117.17282 -34.789766 
L 118.256625 -34.789766 
L 119.340431 -34.789766 
L 120.424237 -34.789766 
L 121.508043 -34.789766 
L 122.591849 -34.789766 
L 123.675654 -34.789766 
L 124.75946 -34.789766 
L 125.843266 -34.789766 
L 126.927072 -34.789766 
L 128.010878 -34.789766 
L 129.094683 -34.789766 
L 130.178489 -34.789766 
L 131.262295 -34.789766 
L 132.346101 -34.789766 
L 133.429906 -34.789766 
L 134.513712 -34.789766 
L 135.597518 -34.789766 
L 136.681324 -34.789766 
L 137.76513 -34.789766 
L 138.848935 -34.789766 
L 139.932741 -34.789766 
L 141.016547 -34.789766 
L 142.100353 -34.789766 
L 143.184158 -34.789766 
L 144.267964 -34.789766 
L 145.35177 -34.789766 
L 146.435576 -34.789766 
L 147.519382 -34.789766 
L 148.603187 -34.789766 
L 149.686993 -34.789766 
L 150.770799 -34.789766 
L 151.854605 -34.789766 
L 152.93841 -34.789766 
L 154.022216 -34.789766 
L 155.106022 -34.789766 
L 156.189828 -34.789766 
L 157.273634 -34.789766 
L 158.357439 -34.789766 
L 159.441245 -34.789766 
L 160.525051 -34.789766 
L 161.608857 -34.789766 
L 162.692662 -34.789766 
L 163.776468 -34.789766 
L 164.860274 -34.789766 
L 165.94408 -34.789766 
L 167.027886 -34.789766 
L 168.111691 -34.789766 
L 169.195497 -34.789766 
L 170.279303 -34.789766 
L 171.363109 -34.789766 
L 172.446914 -34.789766 
L 173.53072 -34.789766 
L 174.614526 -34.789766 
L 175.698332 -34.789766 
L 176.782138 -34.789766 
L 177.865943 -34.789766 
L 178.949749 -34.789766 
L 180.033555 -34.789766 
L 181.117361 -34.789766 
L 182.201166 -34.789766 
L 183.284972 -34.789766 
L 184.368778 -34.789766 
L 185.452584 -34.789766 
L 186.53639 -34.789766 
L 187.620195 -34.789766 
L 188.704001 -34.789766 
L 189.787807 -34.789766 
L 190.871613 -34.789766 
L 191.955418 -34.789766 
L 193.039224 -34.789766 
L 194.12303 -34.789766 
L 195.206836 -34.789766 
L 196.290642 -34.789766 
L 197.374447 -34.789766 
L 198.458253 -34.789766 
L 199.542059 -34.789766 
L 200.625865 -34.789766 
L 201.70967 -34.789766 
L 202.793476 -34.789766 
L 203.877282 -34.789766 
L 204.961088 -34.789766 
L 206.044894 -34.789766 
L 207.128699 -34.789766 
L 208.212505 -34.789766 
L 209.296311 -34.789766 
L 210.380117 -34.789766 
L 211.463922 -34.789766 
L 212.547728 -34.789766 
L 213.631534 -34.789766 
L 214.71534 -34.789766 
L 215.799146 -34.789766 
L 216.882951 -34.789766 
L 217.966757 -34.789766 
L 219.050563 -34.789766 
L 220.134369 -34.789766 
L 221.218174 -34.789766 
L 222.30198 -34.789766 
L 223.385786 -34.789766 
L 224.469592 -34.789766 
L 225.553398 -34.789766 
L 226.637203 -34.789766 
L 227.721009 -34.789766 
L 228.804815 -34.789766 
L 229.888621 -34.789766 
L 230.972427 -34.789766 
L 232.056232 -34.789766 
L 233.140038 -34.789766 
L 234.223844 -34.789766 
L 235.30765 -34.789766 
L 236.391455 -34.789766 
L 237.475261 -34.789766 
L 238.559067 -34.789766 
L 239.642873 -34.789766 
L 240.726679 -34.789766 
L 241.810484 -34.789766 
L 242.89429 -34.789766 
L 243.978096 -34.789766 
L 245.061902 -34.789766 
L 246.145707 -34.789766 
L 247.229513 -34.789766 
L 248.313319 -34.789766 
L 249.397125 -34.789766 
L 250.480931 -34.789766 
L 251.564736 -34.789766 
L 252.648542 -34.789766 
L 253.732348 -34.789766 
L 254.816154 -34.789766 
L 255.899959 -34.789766 
L 256.983765 -34.789766 
L 258.067571 -34.789766 
L 259.151377 -34.789766 
L 260.235183 -34.789766 
L 261.318988 -34.789766 
L 262.402794 -34.789766 
L 263.4866 -34.789766 
L 264.570406 -34.789766 
L 265.654211 -34.789766 
L 266.738017 -34.789766 
L 267.821823 -34.789766 
L 268.905629 -34.789766 
L 269.989435 -34.789766 
L 271.07324 -34.789766 
L 272.157046 -34.789766 
L 273.240852 -34.789766 
L 274.324658 -34.789766 
L 275.408463 -34.789766 
L 276.492269 -34.789766 
L 277.576075 -34.789766 
L 278.659881 -34.789766 
L 279.743687 -34.789766 
L 280.827492 -34.789766 
L 281.911298 -34.789766 
L 282.995104 -34.789766 
L 284.07891 -34.789766 
L 285.162715 -34.789766 
L 286.246521 -34.789766 
L 287.330327 -34.789766 
L 288.414133 -34.789766 
L 289.497939 -34.789766 
L 290.581744 -34.789766 
L 291.66555 -34.789766 
L 292.749356 -34.789766 
L 293.833162 -34.789766 
L 294.916967 -34.789766 
L 296.000773 -34.789766 
L 297.084579 -34.789766 
L 298.168385 -34.789766 
L 299.252191 -34.789766 
L 300.335996 -34.789766 
L 301.419802 -34.789766 
L 302.503608 -34.789766 
L 303.587414 -34.789766 
L 304.671219 -34.789766 
L 305.755025 -34.789766 
L 306.838831 -34.789766 
L 307.922637 -34.789766 
L 309.006443 -34.789766 
L 310.090248 -34.789766 
L 311.174054 -34.789766 
L 312.25786 -34.789766 
L 313.341666 -34.789766 
L 314.425471 -34.789766 
L 315.509277 -34.789766 
L 315.509277 -34.793018 
L 315.509277 -34.793018 
L 314.425471 -34.79358 
L 313.341666 -34.794226 
L 312.25786 -34.794967 
L 311.174054 -34.795814 
L 310.090248 -34.79678 
L 309.006443 -34.797877 
L 307.922637 -34.799121 
L 306.838831 -34.800524 
L 305.755025 -34.802104 
L 304.671219 -34.803877 
L 303.587414 -34.805861 
L 302.503608 -34.808072 
L 301.419802 -34.810529 
L 300.335996 -34.813251 
L 299.252191 -34.816256 
L 298.168385 -34.819564 
L 297.084579 -34.823192 
L 296.000773 -34.827159 
L 294.916967 -34.831481 
L 293.833162 -34.836174 
L 292.749356 -34.841254 
L 291.66555 -34.846734 
L 290.581744 -34.852624 
L 289.497939 -34.858933 
L 288.414133 -34.865667 
L 287.330327 -34.872829 
L 286.246521 -34.880421 
L 285.162715 -34.888437 
L 284.07891 -34.896872 
L 282.995104 -34.905713 
L 281.911298 -34.914946 
L 280.827492 -34.924552 
L 279.743687 -34.934507 
L 278.659881 -34.944783 
L 277.576075 -34.955349 
L 276.492269 -34.966169 
L 275.408463 -34.977203 
L 274.324658 -34.988408 
L 273.240852 -34.999739 
L 272.157046 -35.011147 
L 271.07324 -35.022581 
L 269.989435 -35.03399 
L 268.905629 -35.04532 
L 267.821823 -35.056518 
L 266.738017 -35.067532 
L 265.654211 -35.078311 
L 264.570406 -35.088806 
L 263.4866 -35.09897 
L 262.402794 -35.108762 
L 261.318988 -35.118144 
L 260.235183 -35.127082 
L 259.151377 -35.135551 
L 258.067571 -35.143529 
L 256.983765 -35.151004 
L 255.899959 -35.157968 
L 254.816154 -35.164424 
L 253.732348 -35.17038 
L 252.648542 -35.175854 
L 251.564736 -35.180871 
L 250.480931 -35.185465 
L 249.397125 -35.189674 
L 248.313319 -35.193548 
L 247.229513 -35.197139 
L 246.145707 -35.200508 
L 245.061902 -35.20372 
L 243.978096 -35.206845 
L 242.89429 -35.209955 
L 241.810484 -35.213126 
L 240.726679 -35.216435 
L 239.642873 -35.219958 
L 238.559067 -35.223772 
L 237.475261 -35.227952 
L 236.391455 -35.232569 
L 235.30765 -35.23769 
L 234.223844 -35.243379 
L 233.140038 -35.249692 
L 232.056232 -35.256678 
L 230.972427 -35.264379 
L 229.888621 -35.272828 
L 228.804815 -35.28205 
L 227.721009 -35.292059 
L 226.637203 -35.30286 
L 225.553398 -35.314447 
L 224.469592 -35.326804 
L 223.385786 -35.339904 
L 222.30198 -35.353711 
L 221.218174 -35.368177 
L 220.134369 -35.383246 
L 219.050563 -35.398852 
L 217.966757 -35.414921 
L 216.882951 -35.43137 
L 215.799146 -35.44811 
L 214.71534 -35.465045 
L 213.631534 -35.482074 
L 212.547728 -35.499094 
L 211.463922 -35.515996 
L 210.380117 -35.532671 
L 209.296311 -35.549007 
L 208.212505 -35.564896 
L 207.128699 -35.58023 
L 206.044894 -35.594902 
L 204.961088 -35.608811 
L 203.877282 -35.621861 
L 202.793476 -35.633961 
L 201.70967 -35.645026 
L 200.625865 -35.654981 
L 199.542059 -35.663757 
L 198.458253 -35.671295 
L 197.374447 -35.677544 
L 196.290642 -35.682463 
L 195.206836 -35.686023 
L 194.12303 -35.688201 
L 193.039224 -35.688987 
L 191.955418 -35.688378 
L 190.871613 -35.686382 
L 189.787807 -35.683016 
L 188.704001 -35.678303 
L 187.620195 -35.672277 
L 186.53639 -35.664977 
L 185.452584 -35.656448 
L 184.368778 -35.646743 
L 183.284972 -35.635917 
L 182.201166 -35.624031 
L 181.117361 -35.611148 
L 180.033555 -35.597334 
L 178.949749 -35.582657 
L 177.865943 -35.567186 
L 176.782138 -35.55099 
L 175.698332 -35.534138 
L 174.614526 -35.516698 
L 173.53072 -35.498737 
L 172.446914 -35.48032 
L 171.363109 -35.461512 
L 170.279303 -35.442373 
L 169.195497 -35.422963 
L 168.111691 -35.403338 
L 167.027886 -35.383554 
L 165.94408 -35.36366 
L 164.860274 -35.343708 
L 163.776468 -35.323743 
L 162.692662 -35.303811 
L 161.608857 -35.283953 
L 160.525051 -35.264211 
L 159.441245 -35.244623 
L 158.357439 -35.225224 
L 157.273634 -35.20605 
L 156.189828 -35.187134 
L 155.106022 -35.168506 
L 154.022216 -35.150198 
L 152.93841 -35.132237 
L 151.854605 -35.114649 
L 150.770799 -35.09746 
L 149.686993 -35.080693 
L 148.603187 -35.06437 
L 147.519382 -35.04851 
L 146.435576 -35.033132 
L 145.35177 -35.018252 
L 144.267964 -35.003885 
L 143.184158 -34.990042 
L 142.100353 -34.976734 
L 141.016547 -34.963968 
L 139.932741 -34.951751 
L 138.848935 -34.940086 
L 137.76513 -34.928974 
L 136.681324 -34.918415 
L 135.597518 -34.908404 
L 134.513712 -34.898938 
L 133.429906 -34.890009 
L 132.346101 -34.881607 
L 131.262295 -34.873723 
L 130.178489 -34.866342 
L 129.094683 -34.859451 
L 128.010878 -34.853034 
L 126.927072 -34.847075 
L 125.843266 -34.841556 
L 124.75946 -34.836457 
L 123.675654 -34.831761 
L 122.591849 -34.827446 
L 121.508043 -34.823492 
L 120.424237 -34.81988 
L 119.340431 -34.816589 
L 118.256625 -34.813599 
L 117.17282 -34.81089 
L 116.089014 -34.808442 
L 115.005208 -34.806236 
L 113.921402 -34.804254 
L 112.837597 -34.802479 
L 111.753791 -34.800893 
L 110.669985 -34.79948 
L 109.586179 -34.798224 
L 108.502373 -34.797112 
L 107.418568 -34.79613 
L 106.334762 -34.795265 
L 105.250956 -34.794505 
L 104.16715 -34.793839 
L 103.083345 -34.793258 
L 101.999539 -34.792752 
L 100.915733 -34.792312 
L 99.831927 -34.791932 
z
" style="stroke: #dd8452; stroke-width: 1.5"/>
    </defs>
    <g clip-path="url(#p4706514b63)">
     <use xlink:href="#mf8db570cd3" x="0" y="336.209766" style="fill: #dd8452; fill-opacity: 0.25; stroke: #dd8452; stroke-width: 1.5"/>
    </g>
   </g>
   <g id="PolyCollection_2">
    <defs>
     <path id="mf4ddb3912c" d="M 85.856134 -34.803979 
L 85.856134 -34.789766 
L 85.966042 -34.789766 
L 86.07595 -34.789766 
L 86.185858 -34.789766 
L 86.295766 -34.789766 
L 86.405674 -34.789766 
L 86.515582 -34.789766 
L 86.62549 -34.789766 
L 86.735398 -34.789766 
L 86.845306 -34.789766 
L 86.955214 -34.789766 
L 87.065122 -34.789766 
L 87.17503 -34.789766 
L 87.284938 -34.789766 
L 87.394846 -34.789766 
L 87.504754 -34.789766 
L 87.614662 -34.789766 
L 87.72457 -34.789766 
L 87.834478 -34.789766 
L 87.944386 -34.789766 
L 88.054294 -34.789766 
L 88.164202 -34.789766 
L 88.27411 -34.789766 
L 88.384018 -34.789766 
L 88.493926 -34.789766 
L 88.603834 -34.789766 
L 88.713742 -34.789766 
L 88.82365 -34.789766 
L 88.933558 -34.789766 
L 89.043466 -34.789766 
L 89.153374 -34.789766 
L 89.263282 -34.789766 
L 89.37319 -34.789766 
L 89.483098 -34.789766 
L 89.593006 -34.789766 
L 89.702914 -34.789766 
L 89.812822 -34.789766 
L 89.92273 -34.789766 
L 90.032638 -34.789766 
L 90.142546 -34.789766 
L 90.252454 -34.789766 
L 90.362362 -34.789766 
L 90.47227 -34.789766 
L 90.582178 -34.789766 
L 90.692086 -34.789766 
L 90.801994 -34.789766 
L 90.911902 -34.789766 
L 91.02181 -34.789766 
L 91.131718 -34.789766 
L 91.241626 -34.789766 
L 91.351534 -34.789766 
L 91.461442 -34.789766 
L 91.57135 -34.789766 
L 91.681258 -34.789766 
L 91.791166 -34.789766 
L 91.901074 -34.789766 
L 92.010982 -34.789766 
L 92.12089 -34.789766 
L 92.230798 -34.789766 
L 92.340706 -34.789766 
L 92.450614 -34.789766 
L 92.560523 -34.789766 
L 92.670431 -34.789766 
L 92.780339 -34.789766 
L 92.890247 -34.789766 
L 93.000155 -34.789766 
L 93.110063 -34.789766 
L 93.219971 -34.789766 
L 93.329879 -34.789766 
L 93.439787 -34.789766 
L 93.549695 -34.789766 
L 93.659603 -34.789766 
L 93.769511 -34.789766 
L 93.879419 -34.789766 
L 93.989327 -34.789766 
L 94.099235 -34.789766 
L 94.209143 -34.789766 
L 94.319051 -34.789766 
L 94.428959 -34.789766 
L 94.538867 -34.789766 
L 94.648775 -34.789766 
L 94.758683 -34.789766 
L 94.868591 -34.789766 
L 94.978499 -34.789766 
L 95.088407 -34.789766 
L 95.198315 -34.789766 
L 95.308223 -34.789766 
L 95.418131 -34.789766 
L 95.528039 -34.789766 
L 95.637947 -34.789766 
L 95.747855 -34.789766 
L 95.857763 -34.789766 
L 95.967671 -34.789766 
L 96.077579 -34.789766 
L 96.187487 -34.789766 
L 96.297395 -34.789766 
L 96.407303 -34.789766 
L 96.517211 -34.789766 
L 96.627119 -34.789766 
L 96.737027 -34.789766 
L 96.846935 -34.789766 
L 96.956843 -34.789766 
L 97.066751 -34.789766 
L 97.176659 -34.789766 
L 97.286567 -34.789766 
L 97.396475 -34.789766 
L 97.506383 -34.789766 
L 97.616291 -34.789766 
L 97.726199 -34.789766 
L 97.836107 -34.789766 
L 97.946015 -34.789766 
L 98.055923 -34.789766 
L 98.165831 -34.789766 
L 98.275739 -34.789766 
L 98.385647 -34.789766 
L 98.495555 -34.789766 
L 98.605463 -34.789766 
L 98.715371 -34.789766 
L 98.825279 -34.789766 
L 98.935187 -34.789766 
L 99.045095 -34.789766 
L 99.155003 -34.789766 
L 99.264911 -34.789766 
L 99.374819 -34.789766 
L 99.484727 -34.789766 
L 99.594636 -34.789766 
L 99.704544 -34.789766 
L 99.814452 -34.789766 
L 99.92436 -34.789766 
L 100.034268 -34.789766 
L 100.144176 -34.789766 
L 100.254084 -34.789766 
L 100.363992 -34.789766 
L 100.4739 -34.789766 
L 100.583808 -34.789766 
L 100.693716 -34.789766 
L 100.803624 -34.789766 
L 100.913532 -34.789766 
L 101.02344 -34.789766 
L 101.133348 -34.789766 
L 101.243256 -34.789766 
L 101.353164 -34.789766 
L 101.463072 -34.789766 
L 101.57298 -34.789766 
L 101.682888 -34.789766 
L 101.792796 -34.789766 
L 101.902704 -34.789766 
L 102.012612 -34.789766 
L 102.12252 -34.789766 
L 102.232428 -34.789766 
L 102.342336 -34.789766 
L 102.452244 -34.789766 
L 102.562152 -34.789766 
L 102.67206 -34.789766 
L 102.781968 -34.789766 
L 102.891876 -34.789766 
L 103.001784 -34.789766 
L 103.111692 -34.789766 
L 103.2216 -34.789766 
L 103.331508 -34.789766 
L 103.441416 -34.789766 
L 103.551324 -34.789766 
L 103.661232 -34.789766 
L 103.77114 -34.789766 
L 103.881048 -34.789766 
L 103.990956 -34.789766 
L 104.100864 -34.789766 
L 104.210772 -34.789766 
L 104.32068 -34.789766 
L 104.430588 -34.789766 
L 104.540496 -34.789766 
L 104.650404 -34.789766 
L 104.760312 -34.789766 
L 104.87022 -34.789766 
L 104.980128 -34.789766 
L 105.090036 -34.789766 
L 105.199944 -34.789766 
L 105.309852 -34.789766 
L 105.41976 -34.789766 
L 105.529668 -34.789766 
L 105.639576 -34.789766 
L 105.749484 -34.789766 
L 105.859392 -34.789766 
L 105.9693 -34.789766 
L 106.079208 -34.789766 
L 106.189116 -34.789766 
L 106.299024 -34.789766 
L 106.408932 -34.789766 
L 106.51884 -34.789766 
L 106.628748 -34.789766 
L 106.738657 -34.789766 
L 106.848565 -34.789766 
L 106.958473 -34.789766 
L 107.068381 -34.789766 
L 107.178289 -34.789766 
L 107.288197 -34.789766 
L 107.398105 -34.789766 
L 107.508013 -34.789766 
L 107.617921 -34.789766 
L 107.727829 -34.789766 
L 107.727829 -34.818187 
L 107.727829 -34.818187 
L 107.617921 -34.821879 
L 107.508013 -34.82599 
L 107.398105 -34.830559 
L 107.288197 -34.835628 
L 107.178289 -34.841239 
L 107.068381 -34.84744 
L 106.958473 -34.85428 
L 106.848565 -34.861809 
L 106.738657 -34.870083 
L 106.628748 -34.879156 
L 106.51884 -34.889087 
L 106.408932 -34.899937 
L 106.299024 -34.911767 
L 106.189116 -34.924641 
L 106.079208 -34.938623 
L 105.9693 -34.953778 
L 105.859392 -34.970174 
L 105.749484 -34.987877 
L 105.639576 -35.006952 
L 105.529668 -35.027464 
L 105.41976 -35.049478 
L 105.309852 -35.073055 
L 105.199944 -35.098255 
L 105.090036 -35.125134 
L 104.980128 -35.153745 
L 104.87022 -35.184136 
L 104.760312 -35.216349 
L 104.650404 -35.250421 
L 104.540496 -35.286383 
L 104.430588 -35.324258 
L 104.32068 -35.36406 
L 104.210772 -35.405796 
L 104.100864 -35.449462 
L 103.990956 -35.495044 
L 103.881048 -35.542519 
L 103.77114 -35.591851 
L 103.661232 -35.642993 
L 103.551324 -35.695887 
L 103.441416 -35.750459 
L 103.331508 -35.806628 
L 103.2216 -35.864294 
L 103.111692 -35.923349 
L 103.001784 -35.983671 
L 102.891876 -36.045124 
L 102.781968 -36.107562 
L 102.67206 -36.170826 
L 102.562152 -36.234746 
L 102.452244 -36.299143 
L 102.342336 -36.363826 
L 102.232428 -36.428598 
L 102.12252 -36.493253 
L 102.012612 -36.55758 
L 101.902704 -36.62136 
L 101.792796 -36.684375 
L 101.682888 -36.746402 
L 101.57298 -36.807218 
L 101.463072 -36.866601 
L 101.353164 -36.924333 
L 101.243256 -36.980199 
L 101.133348 -37.03399 
L 101.02344 -37.085507 
L 100.913532 -37.134557 
L 100.803624 -37.180962 
L 100.693716 -37.224555 
L 100.583808 -37.26518 
L 100.4739 -37.302702 
L 100.363992 -37.336999 
L 100.254084 -37.367967 
L 100.144176 -37.395522 
L 100.034268 -37.419598 
L 99.92436 -37.440151 
L 99.814452 -37.457154 
L 99.704544 -37.470605 
L 99.594636 -37.480519 
L 99.484727 -37.486934 
L 99.374819 -37.489908 
L 99.264911 -37.489516 
L 99.155003 -37.485856 
L 99.045095 -37.47904 
L 98.935187 -37.469199 
L 98.825279 -37.456479 
L 98.715371 -37.44104 
L 98.605463 -37.423054 
L 98.495555 -37.402706 
L 98.385647 -37.380186 
L 98.275739 -37.355695 
L 98.165831 -37.329438 
L 98.055923 -37.301622 
L 97.946015 -37.272458 
L 97.836107 -37.242153 
L 97.726199 -37.210915 
L 97.616291 -37.178945 
L 97.506383 -37.14644 
L 97.396475 -37.113587 
L 97.286567 -37.080566 
L 97.176659 -37.047543 
L 97.066751 -37.014675 
L 96.956843 -36.982105 
L 96.846935 -36.94996 
L 96.737027 -36.918353 
L 96.627119 -36.887382 
L 96.517211 -36.857129 
L 96.407303 -36.827658 
L 96.297395 -36.799018 
L 96.187487 -36.771242 
L 96.077579 -36.744347 
L 95.967671 -36.718333 
L 95.857763 -36.693188 
L 95.747855 -36.668884 
L 95.637947 -36.64538 
L 95.528039 -36.622624 
L 95.418131 -36.600554 
L 95.308223 -36.579097 
L 95.198315 -36.558172 
L 95.088407 -36.537691 
L 94.978499 -36.517563 
L 94.868591 -36.49769 
L 94.758683 -36.477974 
L 94.648775 -36.458314 
L 94.538867 -36.438611 
L 94.428959 -36.418766 
L 94.319051 -36.398686 
L 94.209143 -36.378279 
L 94.099235 -36.357459 
L 93.989327 -36.336148 
L 93.879419 -36.314274 
L 93.769511 -36.291772 
L 93.659603 -36.268587 
L 93.549695 -36.244674 
L 93.439787 -36.219995 
L 93.329879 -36.194523 
L 93.219971 -36.168243 
L 93.110063 -36.141146 
L 93.000155 -36.113236 
L 92.890247 -36.084526 
L 92.780339 -36.055038 
L 92.670431 -36.024803 
L 92.560523 -35.99386 
L 92.450614 -35.962257 
L 92.340706 -35.930048 
L 92.230798 -35.897295 
L 92.12089 -35.864064 
L 92.010982 -35.830428 
L 91.901074 -35.79646 
L 91.791166 -35.762242 
L 91.681258 -35.727854 
L 91.57135 -35.69338 
L 91.461442 -35.658903 
L 91.351534 -35.624508 
L 91.241626 -35.590277 
L 91.131718 -35.556293 
L 91.02181 -35.522635 
L 90.911902 -35.489379 
L 90.801994 -35.456601 
L 90.692086 -35.424368 
L 90.582178 -35.392747 
L 90.47227 -35.361798 
L 90.362362 -35.331578 
L 90.252454 -35.302138 
L 90.142546 -35.273521 
L 90.032638 -35.24577 
L 89.92273 -35.218917 
L 89.812822 -35.192992 
L 89.702914 -35.168019 
L 89.593006 -35.144014 
L 89.483098 -35.120992 
L 89.37319 -35.098959 
L 89.263282 -35.077918 
L 89.153374 -35.057868 
L 89.043466 -35.038803 
L 88.933558 -35.020712 
L 88.82365 -35.003582 
L 88.713742 -34.987395 
L 88.603834 -34.97213 
L 88.493926 -34.957766 
L 88.384018 -34.944277 
L 88.27411 -34.931634 
L 88.164202 -34.91981 
L 88.054294 -34.908772 
L 87.944386 -34.89849 
L 87.834478 -34.888931 
L 87.72457 -34.880062 
L 87.614662 -34.871848 
L 87.504754 -34.864257 
L 87.394846 -34.857256 
L 87.284938 -34.85081 
L 87.17503 -34.844887 
L 87.065122 -34.839456 
L 86.955214 -34.834485 
L 86.845306 -34.829944 
L 86.735398 -34.825804 
L 86.62549 -34.822036 
L 86.515582 -34.818614 
L 86.405674 -34.815511 
L 86.295766 -34.812704 
L 86.185858 -34.810169 
L 86.07595 -34.807883 
L 85.966042 -34.805826 
L 85.856134 -34.803979 
z
" style="stroke: #4c72b0; stroke-width: 1.5"/>
    </defs>
    <g clip-path="url(#p4706514b63)">
     <use xlink:href="#mf4ddb3912c" x="0" y="336.209766" style="fill: #4c72b0; fill-opacity: 0.25; stroke: #4c72b0; stroke-width: 1.5"/>
    </g>
   </g>
   <g id="patch_3">
    <path d="M 93.899495 301.42 
L 125.909671 301.42 
L 125.909671 301.42 
L 93.899495 301.42 
z
" clip-path="url(#p4706514b63)" style="fill: #dd8452; fill-opacity: 0.5; stroke: #ffffff; stroke-width: 1.5; stroke-linejoin: miter"/>
   </g>
   <g id="patch_4">
    <path d="M 125.909671 301.42 
L 157.919847 301.42 
L 157.919847 301.42 
L 125.909671 301.42 
z
" clip-path="url(#p4706514b63)" style="fill: #dd8452; fill-opacity: 0.5; stroke: #ffffff; stroke-width: 1.5; stroke-linejoin: miter"/>
   </g>
   <g id="patch_5">
    <path d="M 157.919847 301.42 
L 189.930023 301.42 
L 189.930023 194.430909 
L 157.919847 194.430909 
z
" clip-path="url(#p4706514b63)" style="fill: #dd8452; fill-opacity: 0.5; stroke: #ffffff; stroke-width: 1.5; stroke-linejoin: miter"/>
   </g>
   <g id="patch_6">
    <path d="M 189.930023 301.42 
L 221.940199 301.42 
L 221.940199 33.947273 
L 189.930023 33.947273 
z
" clip-path="url(#p4706514b63)" style="fill: #dd8452; fill-opacity: 0.5; stroke: #ffffff; stroke-width: 1.5; stroke-linejoin: miter"/>
   </g>
   <g id="patch_7">
    <path d="M 221.940199 301.42 
L 253.950375 301.42 
L 253.950375 194.430909 
L 221.940199 194.430909 
z
" clip-path="url(#p4706514b63)" style="fill: #dd8452; fill-opacity: 0.5; stroke: #ffffff; stroke-width: 1.5; stroke-linejoin: miter"/>
   </g>
   <g id="patch_8">
    <path d="M 93.899495 301.42 
L 125.909671 301.42 
L 125.909671 140.936364 
L 93.899495 140.936364 
z
" clip-path="url(#p4706514b63)" style="fill: #4c72b0; fill-opacity: 0.5; stroke: #ffffff; stroke-width: 1.5; stroke-linejoin: miter"/>
   </g>
   <g id="patch_9">
    <path d="M 125.909671 301.42 
L 157.919847 301.42 
L 157.919847 301.42 
L 125.909671 301.42 
z
" clip-path="url(#p4706514b63)" style="fill: #4c72b0; fill-opacity: 0.5; stroke: #ffffff; stroke-width: 1.5; stroke-linejoin: miter"/>
   </g>
   <g id="patch_10">
    <path d="M 157.919847 301.42 
L 189.930023 301.42 
L 189.930023 301.42 
L 157.919847 301.42 
z
" clip-path="url(#p4706514b63)" style="fill: #4c72b0; fill-opacity: 0.5; stroke: #ffffff; stroke-width: 1.5; stroke-linejoin: miter"/>
   </g>
   <g id="patch_11">
    <path d="M 189.930023 301.42 
L 221.940199 301.42 
L 221.940199 301.42 
L 189.930023 301.42 
z
" clip-path="url(#p4706514b63)" style="fill: #4c72b0; fill-opacity: 0.5; stroke: #ffffff; stroke-width: 1.5; stroke-linejoin: miter"/>
   </g>
   <g id="patch_12">
    <path d="M 221.940199 301.42 
L 253.950375 301.42 
L 253.950375 301.42 
L 221.940199 301.42 
z
" clip-path="url(#p4706514b63)" style="fill: #4c72b0; fill-opacity: 0.5; stroke: #ffffff; stroke-width: 1.5; stroke-linejoin: miter"/>
   </g>
   <g id="LineCollection_1">
    <path d="M 99.684467 301.42 
L 99.684467 294.0645 
" clip-path="url(#p4706514b63)" style="fill: none; stroke: #4c72b0"/>
    <path d="M 99.684467 301.42 
L 99.684467 294.0645 
" clip-path="url(#p4706514b63)" style="fill: none; stroke: #4c72b0"/>
    <path d="M 93.899495 301.42 
L 93.899495 294.0645 
" clip-path="url(#p4706514b63)" style="fill: none; stroke: #4c72b0"/>
    <path d="M 161.39083 301.42 
L 161.39083 294.0645 
" clip-path="url(#p4706514b63)" style="fill: none; stroke: #dd8452"/>
    <path d="M 217.312221 301.42 
L 217.312221 294.0645 
" clip-path="url(#p4706514b63)" style="fill: none; stroke: #dd8452"/>
    <path d="M 194.172335 301.42 
L 194.172335 294.0645 
" clip-path="url(#p4706514b63)" style="fill: none; stroke: #dd8452"/>
    <path d="M 190.315688 301.42 
L 190.315688 294.0645 
" clip-path="url(#p4706514b63)" style="fill: none; stroke: #dd8452"/>
    <path d="M 198.028983 301.42 
L 198.028983 294.0645 
" clip-path="url(#p4706514b63)" style="fill: none; stroke: #dd8452"/>
    <path d="M 172.960773 301.42 
L 172.960773 294.0645 
" clip-path="url(#p4706514b63)" style="fill: none; stroke: #dd8452"/>
    <path d="M 253.950375 301.42 
L 253.950375 294.0645 
" clip-path="url(#p4706514b63)" style="fill: none; stroke: #dd8452"/>
    <path d="M 252.022051 301.42 
L 252.022051 294.0645 
" clip-path="url(#p4706514b63)" style="fill: none; stroke: #dd8452"/>
    <path d="M 198.028983 301.42 
L 198.028983 294.0645 
" clip-path="url(#p4706514b63)" style="fill: none; stroke: #dd8452"/>
   </g>
   <g id="patch_13">
    <path d="M 49.548047 301.42 
L 49.548047 7.2 
" style="fill: none; stroke: #262626; stroke-width: 1.875; stroke-linejoin: miter; stroke-linecap: square"/>
   </g>
   <g id="patch_14">
    <path d="M 49.548047 301.42 
L 300.230147 301.42 
" style="fill: none; stroke: #262626; stroke-width: 1.875; stroke-linejoin: miter; stroke-linecap: square"/>
   </g>
   <g id="legend_1">
    <g id="patch_15">
     <path d="M 130.429678 67.87875 
L 288.680147 67.87875 
Q 291.980147 67.87875 291.980147 64.57875 
L 291.980147 18.75 
Q 291.980147 15.45 288.680147 15.45 
L 130.429678 15.45 
Q 127.129678 15.45 127.129678 18.75 
L 127.129678 64.57875 
Q 127.129678 67.87875 130.429678 67.87875 
z
" style="fill: #ffffff; opacity: 0.8; stroke: #cccccc; stroke-width: 1.5; stroke-linejoin: miter"/>
    </g>
    <g id="patch_16">
     <path d="M 133.729678 34.071797 
L 166.729678 34.071797 
L 166.729678 22.521797 
L 133.729678 22.521797 
z
" style="fill: #4c72b0; fill-opacity: 0.5; stroke: #ffffff; stroke-width: 1.5; stroke-linejoin: miter"/>
    </g>
    <g id="text_11">
     <!-- KILO-edByte -->
     <g style="fill: #262626" transform="translate(179.929678 34.071797) scale(0.165 -0.165)">
      <defs>
       <path id="ArialMT-4b" d="M 469 0 
L 469 4581 
L 1075 4581 
L 1075 2309 
L 3350 4581 
L 4172 4581 
L 2250 2725 
L 4256 0 
L 3456 0 
L 1825 2319 
L 1075 1588 
L 1075 0 
L 469 0 
z
" transform="scale(0.015625)"/>
       <path id="ArialMT-49" d="M 597 0 
L 597 4581 
L 1203 4581 
L 1203 0 
L 597 0 
z
" transform="scale(0.015625)"/>
       <path id="ArialMT-4c" d="M 469 0 
L 469 4581 
L 1075 4581 
L 1075 541 
L 3331 541 
L 3331 0 
L 469 0 
z
" transform="scale(0.015625)"/>
       <path id="ArialMT-4f" d="M 309 2231 
Q 309 3372 921 4017 
Q 1534 4663 2503 4663 
Q 3138 4663 3647 4359 
Q 4156 4056 4423 3514 
Q 4691 2972 4691 2284 
Q 4691 1588 4409 1038 
Q 4128 488 3612 205 
Q 3097 -78 2500 -78 
Q 1853 -78 1343 234 
Q 834 547 571 1087 
Q 309 1628 309 2231 
z
M 934 2222 
Q 934 1394 1379 917 
Q 1825 441 2497 441 
Q 3181 441 3623 922 
Q 4066 1403 4066 2288 
Q 4066 2847 3877 3264 
Q 3688 3681 3323 3911 
Q 2959 4141 2506 4141 
Q 1863 4141 1398 3698 
Q 934 3256 934 2222 
z
" transform="scale(0.015625)"/>
       <path id="ArialMT-2d" d="M 203 1375 
L 203 1941 
L 1931 1941 
L 1931 1375 
L 203 1375 
z
" transform="scale(0.015625)"/>
       <path id="ArialMT-64" d="M 2575 0 
L 2575 419 
Q 2259 -75 1647 -75 
Q 1250 -75 917 144 
Q 584 363 401 755 
Q 219 1147 219 1656 
Q 219 2153 384 2558 
Q 550 2963 881 3178 
Q 1213 3394 1622 3394 
Q 1922 3394 2156 3267 
Q 2391 3141 2538 2938 
L 2538 4581 
L 3097 4581 
L 3097 0 
L 2575 0 
z
M 797 1656 
Q 797 1019 1065 703 
Q 1334 388 1700 388 
Q 2069 388 2326 689 
Q 2584 991 2584 1609 
Q 2584 2291 2321 2609 
Q 2059 2928 1675 2928 
Q 1300 2928 1048 2622 
Q 797 2316 797 1656 
z
" transform="scale(0.015625)"/>
       <path id="ArialMT-42" d="M 469 0 
L 469 4581 
L 2188 4581 
Q 2713 4581 3030 4442 
Q 3347 4303 3526 4014 
Q 3706 3725 3706 3409 
Q 3706 3116 3547 2856 
Q 3388 2597 3066 2438 
Q 3481 2316 3704 2022 
Q 3928 1728 3928 1328 
Q 3928 1006 3792 729 
Q 3656 453 3456 303 
Q 3256 153 2954 76 
Q 2653 0 2216 0 
L 469 0 
z
M 1075 2656 
L 2066 2656 
Q 2469 2656 2644 2709 
Q 2875 2778 2992 2937 
Q 3109 3097 3109 3338 
Q 3109 3566 3000 3739 
Q 2891 3913 2687 3977 
Q 2484 4041 1991 4041 
L 1075 4041 
L 1075 2656 
z
M 1075 541 
L 2216 541 
Q 2509 541 2628 563 
Q 2838 600 2978 687 
Q 3119 775 3209 942 
Q 3300 1109 3300 1328 
Q 3300 1584 3169 1773 
Q 3038 1963 2805 2039 
Q 2572 2116 2134 2116 
L 1075 2116 
L 1075 541 
z
" transform="scale(0.015625)"/>
      </defs>
      <use xlink:href="#ArialMT-4b"/>
      <use xlink:href="#ArialMT-49" x="66.699219"/>
      <use xlink:href="#ArialMT-4c" x="94.482422"/>
      <use xlink:href="#ArialMT-4f" x="150.097656"/>
      <use xlink:href="#ArialMT-2d" x="227.880859"/>
      <use xlink:href="#ArialMT-65" x="261.181641"/>
      <use xlink:href="#ArialMT-64" x="316.796875"/>
      <use xlink:href="#ArialMT-42" x="372.412109"/>
      <use xlink:href="#ArialMT-79" x="439.111328"/>
      <use xlink:href="#ArialMT-74" x="489.111328"/>
      <use xlink:href="#ArialMT-65" x="516.894531"/>
     </g>
    </g>
    <g id="patch_17">
     <path d="M 133.729678 57.806016 
L 166.729678 57.806016 
L 166.729678 46.256016 
L 133.729678 46.256016 
z
" style="fill: #dd8452; fill-opacity: 0.5; stroke: #ffffff; stroke-width: 1.5; stroke-linejoin: miter"/>
    </g>
    <g id="text_12">
     <!-- MEGA-edByte -->
     <g style="fill: #262626" transform="translate(179.929678 57.806016) scale(0.165 -0.165)">
      <defs>
       <path id="ArialMT-4d" d="M 475 0 
L 475 4581 
L 1388 4581 
L 2472 1338 
Q 2622 884 2691 659 
Q 2769 909 2934 1394 
L 4031 4581 
L 4847 4581 
L 4847 0 
L 4263 0 
L 4263 3834 
L 2931 0 
L 2384 0 
L 1059 3900 
L 1059 0 
L 475 0 
z
" transform="scale(0.015625)"/>
       <path id="ArialMT-45" d="M 506 0 
L 506 4581 
L 3819 4581 
L 3819 4041 
L 1113 4041 
L 1113 2638 
L 3647 2638 
L 3647 2100 
L 1113 2100 
L 1113 541 
L 3925 541 
L 3925 0 
L 506 0 
z
" transform="scale(0.015625)"/>
       <path id="ArialMT-47" d="M 2638 1797 
L 2638 2334 
L 4578 2338 
L 4578 638 
Q 4131 281 3656 101 
Q 3181 -78 2681 -78 
Q 2006 -78 1454 211 
Q 903 500 622 1047 
Q 341 1594 341 2269 
Q 341 2938 620 3517 
Q 900 4097 1425 4378 
Q 1950 4659 2634 4659 
Q 3131 4659 3532 4498 
Q 3934 4338 4162 4050 
Q 4391 3763 4509 3300 
L 3963 3150 
Q 3859 3500 3706 3700 
Q 3553 3900 3268 4020 
Q 2984 4141 2638 4141 
Q 2222 4141 1919 4014 
Q 1616 3888 1430 3681 
Q 1244 3475 1141 3228 
Q 966 2803 966 2306 
Q 966 1694 1177 1281 
Q 1388 869 1791 669 
Q 2194 469 2647 469 
Q 3041 469 3416 620 
Q 3791 772 3984 944 
L 3984 1797 
L 2638 1797 
z
" transform="scale(0.015625)"/>
       <path id="ArialMT-41" d="M -9 0 
L 1750 4581 
L 2403 4581 
L 4278 0 
L 3588 0 
L 3053 1388 
L 1138 1388 
L 634 0 
L -9 0 
z
M 1313 1881 
L 2866 1881 
L 2388 3150 
Q 2169 3728 2063 4100 
Q 1975 3659 1816 3225 
L 1313 1881 
z
" transform="scale(0.015625)"/>
      </defs>
      <use xlink:href="#ArialMT-4d"/>
      <use xlink:href="#ArialMT-45" x="83.300781"/>
      <use xlink:href="#ArialMT-47" x="150"/>
      <use xlink:href="#ArialMT-41" x="227.783203"/>
      <use xlink:href="#ArialMT-2d" x="294.482422"/>
      <use xlink:href="#ArialMT-65" x="327.783203"/>
      <use xlink:href="#ArialMT-64" x="383.398438"/>
      <use xlink:href="#ArialMT-42" x="439.013672"/>
      <use xlink:href="#ArialMT-79" x="505.712891"/>
      <use xlink:href="#ArialMT-74" x="555.712891"/>
      <use xlink:href="#ArialMT-65" x="583.496094"/>
     </g>
    </g>
   </g>
  </g>
  <g id="legend_2">
   <g id="patch_18">
    <path d="M 322.157578 160.512305 
L 355.157578 160.512305 
L 355.157578 148.962305 
L 322.157578 148.962305 
z
" style="fill: #4c72b0; fill-opacity: 0.25; stroke: #4c72b0; stroke-width: 1.5; stroke-linejoin: miter"/>
   </g>
   <g id="text_13">
    <!-- KILO-edByte -->
    <g style="fill: #262626" transform="translate(368.357578 160.512305) scale(0.165 -0.165)">
     <use xlink:href="#ArialMT-4b"/>
     <use xlink:href="#ArialMT-49" x="66.699219"/>
     <use xlink:href="#ArialMT-4c" x="94.482422"/>
     <use xlink:href="#ArialMT-4f" x="150.097656"/>
     <use xlink:href="#ArialMT-2d" x="227.880859"/>
     <use xlink:href="#ArialMT-65" x="261.181641"/>
     <use xlink:href="#ArialMT-64" x="316.796875"/>
     <use xlink:href="#ArialMT-42" x="372.412109"/>
     <use xlink:href="#ArialMT-79" x="439.111328"/>
     <use xlink:href="#ArialMT-74" x="489.111328"/>
     <use xlink:href="#ArialMT-65" x="516.894531"/>
    </g>
   </g>
   <g id="patch_19">
    <path d="M 322.157578 184.246523 
L 355.157578 184.246523 
L 355.157578 172.696523 
L 322.157578 172.696523 
z
" style="fill: #dd8452; fill-opacity: 0.25; stroke: #dd8452; stroke-width: 1.5; stroke-linejoin: miter"/>
   </g>
   <g id="text_14">
    <!-- MEGA-edByte -->
    <g style="fill: #262626" transform="translate(368.357578 184.246523) scale(0.165 -0.165)">
     <use xlink:href="#ArialMT-4d"/>
     <use xlink:href="#ArialMT-45" x="83.300781"/>
     <use xlink:href="#ArialMT-47" x="150"/>
     <use xlink:href="#ArialMT-41" x="227.783203"/>
     <use xlink:href="#ArialMT-2d" x="294.482422"/>
     <use xlink:href="#ArialMT-65" x="327.783203"/>
     <use xlink:href="#ArialMT-64" x="383.398438"/>
     <use xlink:href="#ArialMT-42" x="439.013672"/>
     <use xlink:href="#ArialMT-79" x="505.712891"/>
     <use xlink:href="#ArialMT-74" x="555.712891"/>
     <use xlink:href="#ArialMT-65" x="583.496094"/>
    </g>
   </g>
  </g>
 </g>
 <defs>
  <clipPath id="p4706514b63">
   <rect x="49.548047" y="7.2" width="250.6821" height="294.22"/>
  </clipPath>
 </defs>
</svg>
