<?xml version="1.0" encoding="utf-8" standalone="no"?>
<!DOCTYPE svg PUBLIC "-//W3C//DTD SVG 1.1//EN"
  "http://www.w3.org/Graphics/SVG/1.1/DTD/svg11.dtd">
<svg xmlns:xlink="http://www.w3.org/1999/xlink" width="431.778047pt" height="336.209766pt" viewBox="0 0 431.778047 336.209766" xmlns="http://www.w3.org/2000/svg" version="1.1">
 <metadata>
  <rdf:RDF xmlns:dc="http://purl.org/dc/elements/1.1/" xmlns:cc="http://creativecommons.org/ns#" xmlns:rdf="http://www.w3.org/1999/02/22-rdf-syntax-ns#">
   <cc:Work>
    <dc:type rdf:resource="http://purl.org/dc/dcmitype/StillImage"/>
    <dc:date>2023-11-21T00:58:31.855406</dc:date>
    <dc:format>image/svg+xml</dc:format>
    <dc:creator>
     <cc:Agent>
      <dc:title>Matplotlib v3.8.0, https://matplotlib.org/</dc:title>
     </cc:Agent>
    </dc:creator>
   </cc:Work>
  </rdf:RDF>
 </metadata>
 <defs>
  <style type="text/css">*{stroke-linejoin: round; stroke-linecap: butt}</style>
 </defs>
 <g id="figure_1">
  <g id="patch_1">
   <path d="M 0 336.209766 
L 431.778047 336.209766 
L 431.778047 0 
L 0 0 
z
" style="fill: #ffffff"/>
  </g>
  <g id="axes_1">
   <g id="patch_2">
    <path d="M 49.548047 301.42 
L 300.798947 301.42 
L 300.798947 7.2 
L 49.548047 7.2 
z
" style="fill: #ffffff"/>
   </g>
   <g id="matplotlib.axis_1">
    <g id="xtick_1">
     <g id="line2d_1">
      <defs>
       <path id="m9a22347e36" d="M 0 0 
L 0 9 
" style="stroke: #262626; stroke-width: 1.875"/>
      </defs>
      <g>
       <use xlink:href="#m9a22347e36" x="98.64305" y="301.42" style="fill: #262626; stroke: #262626; stroke-width: 1.875"/>
      </g>
     </g>
     <g id="text_1">
      <!-- 100 -->
      <g style="fill: #262626" transform="translate(84.87973 325.730391) scale(0.165 -0.165)">
       <defs>
        <path id="ArialMT-31" d="M 2384 0 
L 1822 0 
L 1822 3584 
Q 1619 3391 1289 3197 
Q 959 3003 697 2906 
L 697 3450 
Q 1169 3672 1522 3987 
Q 1875 4303 2022 4600 
L 2384 4600 
L 2384 0 
z
" transform="scale(0.015625)"/>
        <path id="ArialMT-30" d="M 266 2259 
Q 266 3072 433 3567 
Q 600 4063 929 4331 
Q 1259 4600 1759 4600 
Q 2128 4600 2406 4451 
Q 2684 4303 2865 4023 
Q 3047 3744 3150 3342 
Q 3253 2941 3253 2259 
Q 3253 1453 3087 958 
Q 2922 463 2592 192 
Q 2263 -78 1759 -78 
Q 1097 -78 719 397 
Q 266 969 266 2259 
z
M 844 2259 
Q 844 1131 1108 757 
Q 1372 384 1759 384 
Q 2147 384 2411 759 
Q 2675 1134 2675 2259 
Q 2675 3391 2411 3762 
Q 2147 4134 1753 4134 
Q 1366 4134 1134 3806 
Q 844 3388 844 2259 
z
" transform="scale(0.015625)"/>
       </defs>
       <use xlink:href="#ArialMT-31"/>
       <use xlink:href="#ArialMT-30" x="55.615234"/>
       <use xlink:href="#ArialMT-30" x="111.230469"/>
      </g>
     </g>
    </g>
    <g id="xtick_2">
     <g id="line2d_2">
      <g>
       <use xlink:href="#m9a22347e36" x="156.401878" y="301.42" style="fill: #262626; stroke: #262626; stroke-width: 1.875"/>
      </g>
     </g>
     <g id="text_2">
      <!-- 120 -->
      <g style="fill: #262626" transform="translate(142.638558 325.730391) scale(0.165 -0.165)">
       <defs>
        <path id="ArialMT-32" d="M 3222 541 
L 3222 0 
L 194 0 
Q 188 203 259 391 
Q 375 700 629 1000 
Q 884 1300 1366 1694 
Q 2113 2306 2375 2664 
Q 2638 3022 2638 3341 
Q 2638 3675 2398 3904 
Q 2159 4134 1775 4134 
Q 1369 4134 1125 3890 
Q 881 3647 878 3216 
L 300 3275 
Q 359 3922 746 4261 
Q 1134 4600 1788 4600 
Q 2447 4600 2831 4234 
Q 3216 3869 3216 3328 
Q 3216 3053 3103 2787 
Q 2991 2522 2730 2228 
Q 2469 1934 1863 1422 
Q 1356 997 1212 845 
Q 1069 694 975 541 
L 3222 541 
z
" transform="scale(0.015625)"/>
       </defs>
       <use xlink:href="#ArialMT-31"/>
       <use xlink:href="#ArialMT-32" x="55.615234"/>
       <use xlink:href="#ArialMT-30" x="111.230469"/>
      </g>
     </g>
    </g>
    <g id="xtick_3">
     <g id="line2d_3">
      <g>
       <use xlink:href="#m9a22347e36" x="214.160705" y="301.42" style="fill: #262626; stroke: #262626; stroke-width: 1.875"/>
      </g>
     </g>
     <g id="text_3">
      <!-- 140 -->
      <g style="fill: #262626" transform="translate(200.397385 325.730391) scale(0.165 -0.165)">
       <defs>
        <path id="ArialMT-34" d="M 2069 0 
L 2069 1097 
L 81 1097 
L 81 1613 
L 2172 4581 
L 2631 4581 
L 2631 1613 
L 3250 1613 
L 3250 1097 
L 2631 1097 
L 2631 0 
L 2069 0 
z
M 2069 1613 
L 2069 3678 
L 634 1613 
L 2069 1613 
z
" transform="scale(0.015625)"/>
       </defs>
       <use xlink:href="#ArialMT-31"/>
       <use xlink:href="#ArialMT-34" x="55.615234"/>
       <use xlink:href="#ArialMT-30" x="111.230469"/>
      </g>
     </g>
    </g>
    <g id="xtick_4">
     <g id="line2d_4">
      <g>
       <use xlink:href="#m9a22347e36" x="271.919533" y="301.42" style="fill: #262626; stroke: #262626; stroke-width: 1.875"/>
      </g>
     </g>
     <g id="text_4">
      <!-- 160 -->
      <g style="fill: #262626" transform="translate(258.156213 325.730391) scale(0.165 -0.165)">
       <defs>
        <path id="ArialMT-36" d="M 3184 3459 
L 2625 3416 
Q 2550 3747 2413 3897 
Q 2184 4138 1850 4138 
Q 1581 4138 1378 3988 
Q 1113 3794 959 3422 
Q 806 3050 800 2363 
Q 1003 2672 1297 2822 
Q 1591 2972 1913 2972 
Q 2475 2972 2870 2558 
Q 3266 2144 3266 1488 
Q 3266 1056 3080 686 
Q 2894 316 2569 119 
Q 2244 -78 1831 -78 
Q 1128 -78 684 439 
Q 241 956 241 2144 
Q 241 3472 731 4075 
Q 1159 4600 1884 4600 
Q 2425 4600 2770 4297 
Q 3116 3994 3184 3459 
z
M 888 1484 
Q 888 1194 1011 928 
Q 1134 663 1356 523 
Q 1578 384 1822 384 
Q 2178 384 2434 671 
Q 2691 959 2691 1453 
Q 2691 1928 2437 2201 
Q 2184 2475 1800 2475 
Q 1419 2475 1153 2201 
Q 888 1928 888 1484 
z
" transform="scale(0.015625)"/>
       </defs>
       <use xlink:href="#ArialMT-31"/>
       <use xlink:href="#ArialMT-36" x="55.615234"/>
       <use xlink:href="#ArialMT-30" x="111.230469"/>
      </g>
     </g>
    </g>
   </g>
   <g id="matplotlib.axis_2">
    <g id="ytick_1">
     <g id="line2d_5">
      <defs>
       <path id="mee701bacd1" d="M 0 0 
L -9 0 
" style="stroke: #262626; stroke-width: 1.875"/>
      </defs>
      <g>
       <use xlink:href="#mee701bacd1" x="49.548047" y="301.42" style="fill: #262626; stroke: #262626; stroke-width: 1.875"/>
      </g>
     </g>
     <g id="text_5">
      <!-- 0 -->
      <g style="fill: #262626" transform="translate(27.8725 307.325195) scale(0.165 -0.165)">
       <use xlink:href="#ArialMT-30"/>
      </g>
     </g>
    </g>
    <g id="ytick_2">
     <g id="line2d_6">
      <g>
       <use xlink:href="#mee701bacd1" x="49.548047" y="247.925455" style="fill: #262626; stroke: #262626; stroke-width: 1.875"/>
      </g>
     </g>
     <g id="text_6">
      <!-- 1 -->
      <g style="fill: #262626" transform="translate(27.8725 253.83065) scale(0.165 -0.165)">
       <use xlink:href="#ArialMT-31"/>
      </g>
     </g>
    </g>
    <g id="ytick_3">
     <g id="line2d_7">
      <g>
       <use xlink:href="#mee701bacd1" x="49.548047" y="194.430909" style="fill: #262626; stroke: #262626; stroke-width: 1.875"/>
      </g>
     </g>
     <g id="text_7">
      <!-- 2 -->
      <g style="fill: #262626" transform="translate(27.8725 200.336104) scale(0.165 -0.165)">
       <use xlink:href="#ArialMT-32"/>
      </g>
     </g>
    </g>
    <g id="ytick_4">
     <g id="line2d_8">
      <g>
       <use xlink:href="#mee701bacd1" x="49.548047" y="140.936364" style="fill: #262626; stroke: #262626; stroke-width: 1.875"/>
      </g>
     </g>
     <g id="text_8">
      <!-- 3 -->
      <g style="fill: #262626" transform="translate(27.8725 146.841559) scale(0.165 -0.165)">
       <defs>
        <path id="ArialMT-33" d="M 269 1209 
L 831 1284 
Q 928 806 1161 595 
Q 1394 384 1728 384 
Q 2125 384 2398 659 
Q 2672 934 2672 1341 
Q 2672 1728 2419 1979 
Q 2166 2231 1775 2231 
Q 1616 2231 1378 2169 
L 1441 2663 
Q 1497 2656 1531 2656 
Q 1891 2656 2178 2843 
Q 2466 3031 2466 3422 
Q 2466 3731 2256 3934 
Q 2047 4138 1716 4138 
Q 1388 4138 1169 3931 
Q 950 3725 888 3313 
L 325 3413 
Q 428 3978 793 4289 
Q 1159 4600 1703 4600 
Q 2078 4600 2393 4439 
Q 2709 4278 2876 4000 
Q 3044 3722 3044 3409 
Q 3044 3113 2884 2869 
Q 2725 2625 2413 2481 
Q 2819 2388 3044 2092 
Q 3269 1797 3269 1353 
Q 3269 753 2831 336 
Q 2394 -81 1725 -81 
Q 1122 -81 723 278 
Q 325 638 269 1209 
z
" transform="scale(0.015625)"/>
       </defs>
       <use xlink:href="#ArialMT-33"/>
      </g>
     </g>
    </g>
    <g id="ytick_5">
     <g id="line2d_9">
      <g>
       <use xlink:href="#mee701bacd1" x="49.548047" y="87.441818" style="fill: #262626; stroke: #262626; stroke-width: 1.875"/>
      </g>
     </g>
     <g id="text_9">
      <!-- 4 -->
      <g style="fill: #262626" transform="translate(27.8725 93.347013) scale(0.165 -0.165)">
       <use xlink:href="#ArialMT-34"/>
      </g>
     </g>
    </g>
    <g id="ytick_6">
     <g id="line2d_10">
      <g>
       <use xlink:href="#mee701bacd1" x="49.548047" y="33.947273" style="fill: #262626; stroke: #262626; stroke-width: 1.875"/>
      </g>
     </g>
     <g id="text_10">
      <!-- 5 -->
      <g style="fill: #262626" transform="translate(27.8725 39.852468) scale(0.165 -0.165)">
       <defs>
        <path id="ArialMT-35" d="M 266 1200 
L 856 1250 
Q 922 819 1161 601 
Q 1400 384 1738 384 
Q 2144 384 2425 690 
Q 2706 997 2706 1503 
Q 2706 1984 2436 2262 
Q 2166 2541 1728 2541 
Q 1456 2541 1237 2417 
Q 1019 2294 894 2097 
L 366 2166 
L 809 4519 
L 3088 4519 
L 3088 3981 
L 1259 3981 
L 1013 2750 
Q 1425 3038 1878 3038 
Q 2478 3038 2890 2622 
Q 3303 2206 3303 1553 
Q 3303 931 2941 478 
Q 2500 -78 1738 -78 
Q 1113 -78 717 272 
Q 322 622 266 1200 
z
" transform="scale(0.015625)"/>
       </defs>
       <use xlink:href="#ArialMT-35"/>
      </g>
     </g>
    </g>
    <g id="text_11">
     <!-- Density -->
     <g style="fill: #262626" transform="translate(20.084062 184.319375) rotate(-90) scale(0.18 -0.18)">
      <defs>
       <path id="ArialMT-44" d="M 494 0 
L 494 4581 
L 2072 4581 
Q 2606 4581 2888 4516 
Q 3281 4425 3559 4188 
Q 3922 3881 4101 3404 
Q 4281 2928 4281 2316 
Q 4281 1794 4159 1391 
Q 4038 988 3847 723 
Q 3656 459 3429 307 
Q 3203 156 2883 78 
Q 2563 0 2147 0 
L 494 0 
z
M 1100 541 
L 2078 541 
Q 2531 541 2789 625 
Q 3047 709 3200 863 
Q 3416 1078 3536 1442 
Q 3656 1806 3656 2325 
Q 3656 3044 3420 3430 
Q 3184 3816 2847 3947 
Q 2603 4041 2063 4041 
L 1100 4041 
L 1100 541 
z
" transform="scale(0.015625)"/>
       <path id="ArialMT-65" d="M 2694 1069 
L 3275 997 
Q 3138 488 2766 206 
Q 2394 -75 1816 -75 
Q 1088 -75 661 373 
Q 234 822 234 1631 
Q 234 2469 665 2931 
Q 1097 3394 1784 3394 
Q 2450 3394 2872 2941 
Q 3294 2488 3294 1666 
Q 3294 1616 3291 1516 
L 816 1516 
Q 847 969 1125 678 
Q 1403 388 1819 388 
Q 2128 388 2347 550 
Q 2566 713 2694 1069 
z
M 847 1978 
L 2700 1978 
Q 2663 2397 2488 2606 
Q 2219 2931 1791 2931 
Q 1403 2931 1139 2672 
Q 875 2413 847 1978 
z
" transform="scale(0.015625)"/>
       <path id="ArialMT-6e" d="M 422 0 
L 422 3319 
L 928 3319 
L 928 2847 
Q 1294 3394 1984 3394 
Q 2284 3394 2536 3286 
Q 2788 3178 2913 3003 
Q 3038 2828 3088 2588 
Q 3119 2431 3119 2041 
L 3119 0 
L 2556 0 
L 2556 2019 
Q 2556 2363 2490 2533 
Q 2425 2703 2258 2804 
Q 2091 2906 1866 2906 
Q 1506 2906 1245 2678 
Q 984 2450 984 1813 
L 984 0 
L 422 0 
z
" transform="scale(0.015625)"/>
       <path id="ArialMT-73" d="M 197 991 
L 753 1078 
Q 800 744 1014 566 
Q 1228 388 1613 388 
Q 2000 388 2187 545 
Q 2375 703 2375 916 
Q 2375 1106 2209 1216 
Q 2094 1291 1634 1406 
Q 1016 1563 777 1677 
Q 538 1791 414 1992 
Q 291 2194 291 2438 
Q 291 2659 392 2848 
Q 494 3038 669 3163 
Q 800 3259 1026 3326 
Q 1253 3394 1513 3394 
Q 1903 3394 2198 3281 
Q 2494 3169 2634 2976 
Q 2775 2784 2828 2463 
L 2278 2388 
Q 2241 2644 2061 2787 
Q 1881 2931 1553 2931 
Q 1166 2931 1000 2803 
Q 834 2675 834 2503 
Q 834 2394 903 2306 
Q 972 2216 1119 2156 
Q 1203 2125 1616 2013 
Q 2213 1853 2448 1751 
Q 2684 1650 2818 1456 
Q 2953 1263 2953 975 
Q 2953 694 2789 445 
Q 2625 197 2315 61 
Q 2006 -75 1616 -75 
Q 969 -75 630 194 
Q 291 463 197 991 
z
" transform="scale(0.015625)"/>
       <path id="ArialMT-69" d="M 425 3934 
L 425 4581 
L 988 4581 
L 988 3934 
L 425 3934 
z
M 425 0 
L 425 3319 
L 988 3319 
L 988 0 
L 425 0 
z
" transform="scale(0.015625)"/>
       <path id="ArialMT-74" d="M 1650 503 
L 1731 6 
Q 1494 -44 1306 -44 
Q 1000 -44 831 53 
Q 663 150 594 308 
Q 525 466 525 972 
L 525 2881 
L 113 2881 
L 113 3319 
L 525 3319 
L 525 4141 
L 1084 4478 
L 1084 3319 
L 1650 3319 
L 1650 2881 
L 1084 2881 
L 1084 941 
Q 1084 700 1114 631 
Q 1144 563 1211 522 
Q 1278 481 1403 481 
Q 1497 481 1650 503 
z
" transform="scale(0.015625)"/>
       <path id="ArialMT-79" d="M 397 -1278 
L 334 -750 
Q 519 -800 656 -800 
Q 844 -800 956 -737 
Q 1069 -675 1141 -563 
Q 1194 -478 1313 -144 
Q 1328 -97 1363 -6 
L 103 3319 
L 709 3319 
L 1400 1397 
Q 1534 1031 1641 628 
Q 1738 1016 1872 1384 
L 2581 3319 
L 3144 3319 
L 1881 -56 
Q 1678 -603 1566 -809 
Q 1416 -1088 1222 -1217 
Q 1028 -1347 759 -1347 
Q 597 -1347 397 -1278 
z
" transform="scale(0.015625)"/>
      </defs>
      <use xlink:href="#ArialMT-44"/>
      <use xlink:href="#ArialMT-65" x="72.216797"/>
      <use xlink:href="#ArialMT-6e" x="127.832031"/>
      <use xlink:href="#ArialMT-73" x="183.447266"/>
      <use xlink:href="#ArialMT-69" x="233.447266"/>
      <use xlink:href="#ArialMT-74" x="255.664062"/>
      <use xlink:href="#ArialMT-79" x="283.447266"/>
     </g>
    </g>
   </g>
   <g id="PolyCollection_1">
    <defs>
     <path id="m1ddfe5f3e9" d="M 128.903086 -34.792244 
L 128.903086 -34.789766 
L 129.832508 -34.789766 
L 130.76193 -34.789766 
L 131.691352 -34.789766 
L 132.620774 -34.789766 
L 133.550196 -34.789766 
L 134.479617 -34.789766 
L 135.409039 -34.789766 
L 136.338461 -34.789766 
L 137.267883 -34.789766 
L 138.197305 -34.789766 
L 139.126727 -34.789766 
L 140.056148 -34.789766 
L 140.98557 -34.789766 
L 141.914992 -34.789766 
L 142.844414 -34.789766 
L 143.773836 -34.789766 
L 144.703258 -34.789766 
L 145.632679 -34.789766 
L 146.562101 -34.789766 
L 147.491523 -34.789766 
L 148.420945 -34.789766 
L 149.350367 -34.789766 
L 150.279789 -34.789766 
L 151.20921 -34.789766 
L 152.138632 -34.789766 
L 153.068054 -34.789766 
L 153.997476 -34.789766 
L 154.926898 -34.789766 
L 155.85632 -34.789766 
L 156.785741 -34.789766 
L 157.715163 -34.789766 
L 158.644585 -34.789766 
L 159.574007 -34.789766 
L 160.503429 -34.789766 
L 161.432851 -34.789766 
L 162.362272 -34.789766 
L 163.291694 -34.789766 
L 164.221116 -34.789766 
L 165.150538 -34.789766 
L 166.07996 -34.789766 
L 167.009382 -34.789766 
L 167.938803 -34.789766 
L 168.868225 -34.789766 
L 169.797647 -34.789766 
L 170.727069 -34.789766 
L 171.656491 -34.789766 
L 172.585913 -34.789766 
L 173.515334 -34.789766 
L 174.444756 -34.789766 
L 175.374178 -34.789766 
L 176.3036 -34.789766 
L 177.233022 -34.789766 
L 178.162444 -34.789766 
L 179.091865 -34.789766 
L 180.021287 -34.789766 
L 180.950709 -34.789766 
L 181.880131 -34.789766 
L 182.809553 -34.789766 
L 183.738975 -34.789766 
L 184.668396 -34.789766 
L 185.597818 -34.789766 
L 186.52724 -34.789766 
L 187.456662 -34.789766 
L 188.386084 -34.789766 
L 189.315506 -34.789766 
L 190.244927 -34.789766 
L 191.174349 -34.789766 
L 192.103771 -34.789766 
L 193.033193 -34.789766 
L 193.962615 -34.789766 
L 194.892037 -34.789766 
L 195.821458 -34.789766 
L 196.75088 -34.789766 
L 197.680302 -34.789766 
L 198.609724 -34.789766 
L 199.539146 -34.789766 
L 200.468568 -34.789766 
L 201.397989 -34.789766 
L 202.327411 -34.789766 
L 203.256833 -34.789766 
L 204.186255 -34.789766 
L 205.115677 -34.789766 
L 206.045099 -34.789766 
L 206.97452 -34.789766 
L 207.903942 -34.789766 
L 208.833364 -34.789766 
L 209.762786 -34.789766 
L 210.692208 -34.789766 
L 211.62163 -34.789766 
L 212.551052 -34.789766 
L 213.480473 -34.789766 
L 214.409895 -34.789766 
L 215.339317 -34.789766 
L 216.268739 -34.789766 
L 217.198161 -34.789766 
L 218.127583 -34.789766 
L 219.057004 -34.789766 
L 219.986426 -34.789766 
L 220.915848 -34.789766 
L 221.84527 -34.789766 
L 222.774692 -34.789766 
L 223.704114 -34.789766 
L 224.633535 -34.789766 
L 225.562957 -34.789766 
L 226.492379 -34.789766 
L 227.421801 -34.789766 
L 228.351223 -34.789766 
L 229.280645 -34.789766 
L 230.210066 -34.789766 
L 231.139488 -34.789766 
L 232.06891 -34.789766 
L 232.998332 -34.789766 
L 233.927754 -34.789766 
L 234.857176 -34.789766 
L 235.786597 -34.789766 
L 236.716019 -34.789766 
L 237.645441 -34.789766 
L 238.574863 -34.789766 
L 239.504285 -34.789766 
L 240.433707 -34.789766 
L 241.363128 -34.789766 
L 242.29255 -34.789766 
L 243.221972 -34.789766 
L 244.151394 -34.789766 
L 245.080816 -34.789766 
L 246.010238 -34.789766 
L 246.939659 -34.789766 
L 247.869081 -34.789766 
L 248.798503 -34.789766 
L 249.727925 -34.789766 
L 250.657347 -34.789766 
L 251.586769 -34.789766 
L 252.51619 -34.789766 
L 253.445612 -34.789766 
L 254.375034 -34.789766 
L 255.304456 -34.789766 
L 256.233878 -34.789766 
L 257.1633 -34.789766 
L 258.092721 -34.789766 
L 259.022143 -34.789766 
L 259.951565 -34.789766 
L 260.880987 -34.789766 
L 261.810409 -34.789766 
L 262.739831 -34.789766 
L 263.669252 -34.789766 
L 264.598674 -34.789766 
L 265.528096 -34.789766 
L 266.457518 -34.789766 
L 267.38694 -34.789766 
L 268.316362 -34.789766 
L 269.245783 -34.789766 
L 270.175205 -34.789766 
L 271.104627 -34.789766 
L 272.034049 -34.789766 
L 272.963471 -34.789766 
L 273.892893 -34.789766 
L 274.822314 -34.789766 
L 275.751736 -34.789766 
L 276.681158 -34.789766 
L 277.61058 -34.789766 
L 278.540002 -34.789766 
L 279.469424 -34.789766 
L 280.398845 -34.789766 
L 281.328267 -34.789766 
L 282.257689 -34.789766 
L 283.187111 -34.789766 
L 284.116533 -34.789766 
L 285.045955 -34.789766 
L 285.975376 -34.789766 
L 286.904798 -34.789766 
L 287.83422 -34.789766 
L 288.763642 -34.789766 
L 289.693064 -34.789766 
L 290.622486 -34.789766 
L 291.551907 -34.789766 
L 292.481329 -34.789766 
L 293.410751 -34.789766 
L 294.340173 -34.789766 
L 295.269595 -34.789766 
L 296.199017 -34.789766 
L 297.128439 -34.789766 
L 298.05786 -34.789766 
L 298.987282 -34.789766 
L 299.916704 -34.789766 
L 300.846126 -34.789766 
L 301.775548 -34.789766 
L 302.70497 -34.789766 
L 303.634391 -34.789766 
L 304.563813 -34.789766 
L 305.493235 -34.789766 
L 306.422657 -34.789766 
L 307.352079 -34.789766 
L 308.281501 -34.789766 
L 309.210922 -34.789766 
L 310.140344 -34.789766 
L 311.069766 -34.789766 
L 311.999188 -34.789766 
L 312.92861 -34.789766 
L 313.858032 -34.789766 
L 313.858032 -34.792489 
L 313.858032 -34.792489 
L 312.92861 -34.79299 
L 311.999188 -34.793572 
L 311.069766 -34.794247 
L 310.140344 -34.795024 
L 309.210922 -34.795919 
L 308.281501 -34.796946 
L 307.352079 -34.798119 
L 306.422657 -34.799455 
L 305.493235 -34.800972 
L 304.563813 -34.80269 
L 303.634391 -34.804627 
L 302.70497 -34.806806 
L 301.775548 -34.809248 
L 300.846126 -34.811975 
L 299.916704 -34.815012 
L 298.987282 -34.818383 
L 298.05786 -34.822111 
L 297.128439 -34.826222 
L 296.199017 -34.830738 
L 295.269595 -34.835685 
L 294.340173 -34.841085 
L 293.410751 -34.846961 
L 292.481329 -34.853333 
L 291.551907 -34.860221 
L 290.622486 -34.867642 
L 289.693064 -34.875612 
L 288.763642 -34.884142 
L 287.83422 -34.893244 
L 286.904798 -34.902924 
L 285.975376 -34.913186 
L 285.045955 -34.92403 
L 284.116533 -34.935455 
L 283.187111 -34.947453 
L 282.257689 -34.960016 
L 281.328267 -34.973129 
L 280.398845 -34.986778 
L 279.469424 -35.000943 
L 278.540002 -35.015602 
L 277.61058 -35.030732 
L 276.681158 -35.046306 
L 275.751736 -35.062297 
L 274.822314 -35.078676 
L 273.892893 -35.095414 
L 272.963471 -35.112481 
L 272.034049 -35.129849 
L 271.104627 -35.14749 
L 270.175205 -35.165377 
L 269.245783 -35.183485 
L 268.316362 -35.20179 
L 267.38694 -35.220274 
L 266.457518 -35.238916 
L 265.528096 -35.257701 
L 264.598674 -35.276616 
L 263.669252 -35.295649 
L 262.739831 -35.314792 
L 261.810409 -35.334036 
L 260.880987 -35.353374 
L 259.951565 -35.372801 
L 259.022143 -35.392309 
L 258.092721 -35.411891 
L 257.1633 -35.431538 
L 256.233878 -35.451237 
L 255.304456 -35.470974 
L 254.375034 -35.490728 
L 253.445612 -35.510475 
L 252.51619 -35.530185 
L 251.586769 -35.549823 
L 250.657347 -35.569345 
L 249.727925 -35.588703 
L 248.798503 -35.607841 
L 247.869081 -35.626697 
L 246.939659 -35.645202 
L 246.010238 -35.663282 
L 245.080816 -35.680859 
L 244.151394 -35.69785 
L 243.221972 -35.714168 
L 242.29255 -35.729727 
L 241.363128 -35.744439 
L 240.433707 -35.758217 
L 239.504285 -35.770979 
L 238.574863 -35.782644 
L 237.645441 -35.793141 
L 236.716019 -35.802403 
L 235.786597 -35.810374 
L 234.857176 -35.817008 
L 233.927754 -35.822271 
L 232.998332 -35.82614 
L 232.06891 -35.828606 
L 231.139488 -35.829675 
L 230.210066 -35.829365 
L 229.280645 -35.82771 
L 228.351223 -35.824756 
L 227.421801 -35.820564 
L 226.492379 -35.815207 
L 225.562957 -35.808767 
L 224.633535 -35.80134 
L 223.704114 -35.793027 
L 222.774692 -35.783939 
L 221.84527 -35.774188 
L 220.915848 -35.763894 
L 219.986426 -35.753174 
L 219.057004 -35.742147 
L 218.127583 -35.730928 
L 217.198161 -35.719627 
L 216.268739 -35.70835 
L 215.339317 -35.697193 
L 214.409895 -35.686242 
L 213.480473 -35.675575 
L 212.551052 -35.665254 
L 211.62163 -35.655334 
L 210.692208 -35.645851 
L 209.762786 -35.636833 
L 208.833364 -35.62829 
L 207.903942 -35.620222 
L 206.97452 -35.612614 
L 206.045099 -35.605441 
L 205.115677 -35.598665 
L 204.186255 -35.592237 
L 203.256833 -35.586101 
L 202.327411 -35.580192 
L 201.397989 -35.574439 
L 200.468568 -35.568764 
L 199.539146 -35.56309 
L 198.609724 -35.557332 
L 197.680302 -35.551411 
L 196.75088 -35.545245 
L 195.821458 -35.538754 
L 194.892037 -35.531864 
L 193.962615 -35.524506 
L 193.033193 -35.516615 
L 192.103771 -35.508134 
L 191.174349 -35.499013 
L 190.244927 -35.489212 
L 189.315506 -35.478699 
L 188.386084 -35.46745 
L 187.456662 -35.455452 
L 186.52724 -35.442702 
L 185.597818 -35.429204 
L 184.668396 -35.414972 
L 183.738975 -35.40003 
L 182.809553 -35.38441 
L 181.880131 -35.368149 
L 180.950709 -35.351295 
L 180.021287 -35.333901 
L 179.091865 -35.316023 
L 178.162444 -35.297725 
L 177.233022 -35.279073 
L 176.3036 -35.260138 
L 175.374178 -35.240991 
L 174.444756 -35.221705 
L 173.515334 -35.202353 
L 172.585913 -35.183009 
L 171.656491 -35.163744 
L 170.727069 -35.144628 
L 169.797647 -35.125729 
L 168.868225 -35.10711 
L 167.938803 -35.088832 
L 167.009382 -35.070951 
L 166.07996 -35.053518 
L 165.150538 -35.036581 
L 164.221116 -35.020179 
L 163.291694 -35.00435 
L 162.362272 -34.989123 
L 161.432851 -34.974525 
L 160.503429 -34.960574 
L 159.574007 -34.947286 
L 158.644585 -34.934669 
L 157.715163 -34.922729 
L 156.785741 -34.911464 
L 155.85632 -34.900871 
L 154.926898 -34.89094 
L 153.997476 -34.881661 
L 153.068054 -34.873017 
L 152.138632 -34.864991 
L 151.20921 -34.857561 
L 150.279789 -34.850704 
L 149.350367 -34.844397 
L 148.420945 -34.838613 
L 147.491523 -34.833325 
L 146.562101 -34.828505 
L 145.632679 -34.824127 
L 144.703258 -34.820161 
L 143.773836 -34.816581 
L 142.844414 -34.813358 
L 141.914992 -34.810465 
L 140.98557 -34.807878 
L 140.056148 -34.805571 
L 139.126727 -34.803519 
L 138.197305 -34.801701 
L 137.267883 -34.800094 
L 136.338461 -34.798679 
L 135.409039 -34.797437 
L 134.479617 -34.796349 
L 133.550196 -34.795399 
L 132.620774 -34.794573 
L 131.691352 -34.793857 
L 130.76193 -34.793237 
L 129.832508 -34.792703 
L 128.903086 -34.792244 
z
" style="stroke: #55a868; stroke-width: 1.5"/>
    </defs>
    <g clip-path="url(#pb787b86dc8)">
     <use xlink:href="#m1ddfe5f3e9" x="0" y="336.209766" style="fill: #55a868; fill-opacity: 0.25; stroke: #55a868; stroke-width: 1.5"/>
    </g>
   </g>
   <g id="PolyCollection_2">
    <defs>
     <path id="m2974dc0c40" d="M 68.578534 -34.800699 
L 68.578534 -34.789766 
L 68.721055 -34.789766 
L 68.863576 -34.789766 
L 69.006097 -34.789766 
L 69.148618 -34.789766 
L 69.291139 -34.789766 
L 69.43366 -34.789766 
L 69.576181 -34.789766 
L 69.718702 -34.789766 
L 69.861223 -34.789766 
L 70.003744 -34.789766 
L 70.146265 -34.789766 
L 70.288786 -34.789766 
L 70.431307 -34.789766 
L 70.573828 -34.789766 
L 70.716349 -34.789766 
L 70.85887 -34.789766 
L 71.001391 -34.789766 
L 71.143912 -34.789766 
L 71.286433 -34.789766 
L 71.428954 -34.789766 
L 71.571475 -34.789766 
L 71.713996 -34.789766 
L 71.856517 -34.789766 
L 71.999038 -34.789766 
L 72.141559 -34.789766 
L 72.28408 -34.789766 
L 72.426601 -34.789766 
L 72.569122 -34.789766 
L 72.711643 -34.789766 
L 72.854164 -34.789766 
L 72.996685 -34.789766 
L 73.139206 -34.789766 
L 73.281727 -34.789766 
L 73.424248 -34.789766 
L 73.566769 -34.789766 
L 73.70929 -34.789766 
L 73.851811 -34.789766 
L 73.994332 -34.789766 
L 74.136853 -34.789766 
L 74.279374 -34.789766 
L 74.421895 -34.789766 
L 74.564416 -34.789766 
L 74.706937 -34.789766 
L 74.849458 -34.789766 
L 74.991979 -34.789766 
L 75.1345 -34.789766 
L 75.277021 -34.789766 
L 75.419542 -34.789766 
L 75.562063 -34.789766 
L 75.704584 -34.789766 
L 75.847105 -34.789766 
L 75.989626 -34.789766 
L 76.132147 -34.789766 
L 76.274668 -34.789766 
L 76.417189 -34.789766 
L 76.55971 -34.789766 
L 76.702231 -34.789766 
L 76.844752 -34.789766 
L 76.987273 -34.789766 
L 77.129794 -34.789766 
L 77.272315 -34.789766 
L 77.414836 -34.789766 
L 77.557357 -34.789766 
L 77.699878 -34.789766 
L 77.842399 -34.789766 
L 77.98492 -34.789766 
L 78.127441 -34.789766 
L 78.269962 -34.789766 
L 78.412483 -34.789766 
L 78.555004 -34.789766 
L 78.697525 -34.789766 
L 78.840046 -34.789766 
L 78.982567 -34.789766 
L 79.125088 -34.789766 
L 79.267609 -34.789766 
L 79.410129 -34.789766 
L 79.55265 -34.789766 
L 79.695171 -34.789766 
L 79.837692 -34.789766 
L 79.980213 -34.789766 
L 80.122734 -34.789766 
L 80.265255 -34.789766 
L 80.407776 -34.789766 
L 80.550297 -34.789766 
L 80.692818 -34.789766 
L 80.835339 -34.789766 
L 80.97786 -34.789766 
L 81.120381 -34.789766 
L 81.262902 -34.789766 
L 81.405423 -34.789766 
L 81.547944 -34.789766 
L 81.690465 -34.789766 
L 81.832986 -34.789766 
L 81.975507 -34.789766 
L 82.118028 -34.789766 
L 82.260549 -34.789766 
L 82.40307 -34.789766 
L 82.545591 -34.789766 
L 82.688112 -34.789766 
L 82.830633 -34.789766 
L 82.973154 -34.789766 
L 83.115675 -34.789766 
L 83.258196 -34.789766 
L 83.400717 -34.789766 
L 83.543238 -34.789766 
L 83.685759 -34.789766 
L 83.82828 -34.789766 
L 83.970801 -34.789766 
L 84.113322 -34.789766 
L 84.255843 -34.789766 
L 84.398364 -34.789766 
L 84.540885 -34.789766 
L 84.683406 -34.789766 
L 84.825927 -34.789766 
L 84.968448 -34.789766 
L 85.110969 -34.789766 
L 85.25349 -34.789766 
L 85.396011 -34.789766 
L 85.538532 -34.789766 
L 85.681053 -34.789766 
L 85.823574 -34.789766 
L 85.966095 -34.789766 
L 86.108616 -34.789766 
L 86.251137 -34.789766 
L 86.393658 -34.789766 
L 86.536179 -34.789766 
L 86.6787 -34.789766 
L 86.821221 -34.789766 
L 86.963742 -34.789766 
L 87.106263 -34.789766 
L 87.248784 -34.789766 
L 87.391305 -34.789766 
L 87.533826 -34.789766 
L 87.676347 -34.789766 
L 87.818868 -34.789766 
L 87.961389 -34.789766 
L 88.10391 -34.789766 
L 88.246431 -34.789766 
L 88.388952 -34.789766 
L 88.531473 -34.789766 
L 88.673994 -34.789766 
L 88.816515 -34.789766 
L 88.959036 -34.789766 
L 89.101557 -34.789766 
L 89.244078 -34.789766 
L 89.386599 -34.789766 
L 89.52912 -34.789766 
L 89.671641 -34.789766 
L 89.814162 -34.789766 
L 89.956683 -34.789766 
L 90.099204 -34.789766 
L 90.241725 -34.789766 
L 90.384246 -34.789766 
L 90.526767 -34.789766 
L 90.669288 -34.789766 
L 90.811809 -34.789766 
L 90.95433 -34.789766 
L 91.096851 -34.789766 
L 91.239372 -34.789766 
L 91.381893 -34.789766 
L 91.524414 -34.789766 
L 91.666935 -34.789766 
L 91.809456 -34.789766 
L 91.951977 -34.789766 
L 92.094498 -34.789766 
L 92.237019 -34.789766 
L 92.379539 -34.789766 
L 92.52206 -34.789766 
L 92.664581 -34.789766 
L 92.807102 -34.789766 
L 92.949623 -34.789766 
L 93.092144 -34.789766 
L 93.234665 -34.789766 
L 93.377186 -34.789766 
L 93.519707 -34.789766 
L 93.662228 -34.789766 
L 93.804749 -34.789766 
L 93.94727 -34.789766 
L 94.089791 -34.789766 
L 94.232312 -34.789766 
L 94.374833 -34.789766 
L 94.517354 -34.789766 
L 94.659875 -34.789766 
L 94.802396 -34.789766 
L 94.944917 -34.789766 
L 95.087438 -34.789766 
L 95.229959 -34.789766 
L 95.37248 -34.789766 
L 95.515001 -34.789766 
L 95.657522 -34.789766 
L 95.800043 -34.789766 
L 95.942564 -34.789766 
L 96.085085 -34.789766 
L 96.227606 -34.789766 
L 96.370127 -34.789766 
L 96.512648 -34.789766 
L 96.655169 -34.789766 
L 96.79769 -34.789766 
L 96.940211 -34.789766 
L 96.940211 -34.810632 
L 96.940211 -34.810632 
L 96.79769 -34.813513 
L 96.655169 -34.816742 
L 96.512648 -34.820351 
L 96.370127 -34.824378 
L 96.227606 -34.828862 
L 96.085085 -34.833844 
L 95.942564 -34.839367 
L 95.800043 -34.845478 
L 95.657522 -34.852224 
L 95.515001 -34.859655 
L 95.37248 -34.867824 
L 95.229959 -34.876785 
L 95.087438 -34.886592 
L 94.944917 -34.897302 
L 94.802396 -34.908973 
L 94.659875 -34.921664 
L 94.517354 -34.935433 
L 94.374833 -34.950337 
L 94.232312 -34.966436 
L 94.089791 -34.983786 
L 93.94727 -35.002442 
L 93.804749 -35.022456 
L 93.662228 -35.043879 
L 93.519707 -35.066757 
L 93.377186 -35.091132 
L 93.234665 -35.117043 
L 93.092144 -35.144521 
L 92.949623 -35.173592 
L 92.807102 -35.204275 
L 92.664581 -35.236582 
L 92.52206 -35.270516 
L 92.379539 -35.306071 
L 92.237019 -35.343234 
L 92.094498 -35.38198 
L 91.951977 -35.422273 
L 91.809456 -35.464069 
L 91.666935 -35.507312 
L 91.524414 -35.551934 
L 91.381893 -35.597857 
L 91.239372 -35.644991 
L 91.096851 -35.693236 
L 90.95433 -35.74248 
L 90.811809 -35.792602 
L 90.669288 -35.843471 
L 90.526767 -35.894944 
L 90.384246 -35.946874 
L 90.241725 -35.999103 
L 90.099204 -36.051469 
L 89.956683 -36.103802 
L 89.814162 -36.155929 
L 89.671641 -36.207674 
L 89.52912 -36.25886 
L 89.386599 -36.309309 
L 89.244078 -36.358844 
L 89.101557 -36.407293 
L 88.959036 -36.454486 
L 88.816515 -36.50026 
L 88.673994 -36.544459 
L 88.531473 -36.586938 
L 88.388952 -36.627559 
L 88.246431 -36.666199 
L 88.10391 -36.702744 
L 87.961389 -36.737098 
L 87.818868 -36.769178 
L 87.676347 -36.798916 
L 87.533826 -36.826261 
L 87.391305 -36.851179 
L 87.248784 -36.873653 
L 87.106263 -36.893684 
L 86.963742 -36.911288 
L 86.821221 -36.9265 
L 86.6787 -36.939369 
L 86.536179 -36.949962 
L 86.393658 -36.958358 
L 86.251137 -36.964653 
L 86.108616 -36.968953 
L 85.966095 -36.971376 
L 85.823574 -36.97205 
L 85.681053 -36.97111 
L 85.538532 -36.968699 
L 85.396011 -36.964965 
L 85.25349 -36.960056 
L 85.110969 -36.954126 
L 84.968448 -36.947325 
L 84.825927 -36.939801 
L 84.683406 -36.931701 
L 84.540885 -36.923163 
L 84.398364 -36.914321 
L 84.255843 -36.905297 
L 84.113322 -36.896206 
L 83.970801 -36.887151 
L 83.82828 -36.878225 
L 83.685759 -36.869504 
L 83.543238 -36.861054 
L 83.400717 -36.852928 
L 83.258196 -36.84516 
L 83.115675 -36.837775 
L 82.973154 -36.83078 
L 82.830633 -36.82417 
L 82.688112 -36.817925 
L 82.545591 -36.812012 
L 82.40307 -36.806388 
L 82.260549 -36.800994 
L 82.118028 -36.795765 
L 81.975507 -36.790622 
L 81.832986 -36.785482 
L 81.690465 -36.780252 
L 81.547944 -36.774835 
L 81.405423 -36.769126 
L 81.262902 -36.763022 
L 81.120381 -36.756415 
L 80.97786 -36.749196 
L 80.835339 -36.74126 
L 80.692818 -36.732501 
L 80.550297 -36.72282 
L 80.407776 -36.712119 
L 80.265255 -36.700309 
L 80.122734 -36.687307 
L 79.980213 -36.673035 
L 79.837692 -36.657428 
L 79.695171 -36.640428 
L 79.55265 -36.621987 
L 79.410129 -36.602067 
L 79.267609 -36.580641 
L 79.125088 -36.557695 
L 78.982567 -36.533223 
L 78.840046 -36.507232 
L 78.697525 -36.479739 
L 78.555004 -36.450773 
L 78.412483 -36.420372 
L 78.269962 -36.388586 
L 78.127441 -36.355473 
L 77.98492 -36.321099 
L 77.842399 -36.285542 
L 77.699878 -36.248883 
L 77.557357 -36.211214 
L 77.414836 -36.17263 
L 77.272315 -36.133233 
L 77.129794 -36.093128 
L 76.987273 -36.052425 
L 76.844752 -36.011234 
L 76.702231 -35.969671 
L 76.55971 -35.927847 
L 76.417189 -35.885878 
L 76.274668 -35.843876 
L 76.132147 -35.801953 
L 75.989626 -35.760217 
L 75.847105 -35.718774 
L 75.704584 -35.677726 
L 75.562063 -35.63717 
L 75.419542 -35.597198 
L 75.277021 -35.557899 
L 75.1345 -35.519353 
L 74.991979 -35.481635 
L 74.849458 -35.444813 
L 74.706937 -35.40895 
L 74.564416 -35.374102 
L 74.421895 -35.340316 
L 74.279374 -35.307633 
L 74.136853 -35.27609 
L 73.994332 -35.245713 
L 73.851811 -35.216524 
L 73.70929 -35.188538 
L 73.566769 -35.161764 
L 73.424248 -35.136205 
L 73.281727 -35.111859 
L 73.139206 -35.088716 
L 72.996685 -35.066766 
L 72.854164 -35.04599 
L 72.711643 -35.026368 
L 72.569122 -35.007873 
L 72.426601 -34.990479 
L 72.28408 -34.974154 
L 72.141559 -34.958863 
L 71.999038 -34.944572 
L 71.856517 -34.931242 
L 71.713996 -34.918834 
L 71.571475 -34.907309 
L 71.428954 -34.896625 
L 71.286433 -34.886742 
L 71.143912 -34.877618 
L 71.001391 -34.869212 
L 70.85887 -34.861484 
L 70.716349 -34.854392 
L 70.573828 -34.847899 
L 70.431307 -34.841964 
L 70.288786 -34.836552 
L 70.146265 -34.831627 
L 70.003744 -34.827152 
L 69.861223 -34.823097 
L 69.718702 -34.819428 
L 69.576181 -34.816115 
L 69.43366 -34.81313 
L 69.291139 -34.810446 
L 69.148618 -34.808037 
L 69.006097 -34.80588 
L 68.863576 -34.803951 
L 68.721055 -34.802231 
L 68.578534 -34.800699 
z
" style="stroke: #dd8452; stroke-width: 1.5"/>
    </defs>
    <g clip-path="url(#pb787b86dc8)">
     <use xlink:href="#m2974dc0c40" x="0" y="336.209766" style="fill: #dd8452; fill-opacity: 0.25; stroke: #dd8452; stroke-width: 1.5"/>
    </g>
   </g>
   <g id="PolyCollection_3">
    <defs>
     <path id="md690fc7a82" d="M 209.261794 -34.794655 
L 209.261794 -34.789766 
L 209.731885 -34.789766 
L 210.201976 -34.789766 
L 210.672067 -34.789766 
L 211.142158 -34.789766 
L 211.612249 -34.789766 
L 212.08234 -34.789766 
L 212.552431 -34.789766 
L 213.022522 -34.789766 
L 213.492613 -34.789766 
L 213.962704 -34.789766 
L 214.432795 -34.789766 
L 214.902887 -34.789766 
L 215.372978 -34.789766 
L 215.843069 -34.789766 
L 216.31316 -34.789766 
L 216.783251 -34.789766 
L 217.253342 -34.789766 
L 217.723433 -34.789766 
L 218.193524 -34.789766 
L 218.663615 -34.789766 
L 219.133706 -34.789766 
L 219.603797 -34.789766 
L 220.073888 -34.789766 
L 220.543979 -34.789766 
L 221.014071 -34.789766 
L 221.484162 -34.789766 
L 221.954253 -34.789766 
L 222.424344 -34.789766 
L 222.894435 -34.789766 
L 223.364526 -34.789766 
L 223.834617 -34.789766 
L 224.304708 -34.789766 
L 224.774799 -34.789766 
L 225.24489 -34.789766 
L 225.714981 -34.789766 
L 226.185072 -34.789766 
L 226.655163 -34.789766 
L 227.125254 -34.789766 
L 227.595346 -34.789766 
L 228.065437 -34.789766 
L 228.535528 -34.789766 
L 229.005619 -34.789766 
L 229.47571 -34.789766 
L 229.945801 -34.789766 
L 230.415892 -34.789766 
L 230.885983 -34.789766 
L 231.356074 -34.789766 
L 231.826165 -34.789766 
L 232.296256 -34.789766 
L 232.766347 -34.789766 
L 233.236438 -34.789766 
L 233.70653 -34.789766 
L 234.176621 -34.789766 
L 234.646712 -34.789766 
L 235.116803 -34.789766 
L 235.586894 -34.789766 
L 236.056985 -34.789766 
L 236.527076 -34.789766 
L 236.997167 -34.789766 
L 237.467258 -34.789766 
L 237.937349 -34.789766 
L 238.40744 -34.789766 
L 238.877531 -34.789766 
L 239.347622 -34.789766 
L 239.817713 -34.789766 
L 240.287805 -34.789766 
L 240.757896 -34.789766 
L 241.227987 -34.789766 
L 241.698078 -34.789766 
L 242.168169 -34.789766 
L 242.63826 -34.789766 
L 243.108351 -34.789766 
L 243.578442 -34.789766 
L 244.048533 -34.789766 
L 244.518624 -34.789766 
L 244.988715 -34.789766 
L 245.458806 -34.789766 
L 245.928897 -34.789766 
L 246.398988 -34.789766 
L 246.86908 -34.789766 
L 247.339171 -34.789766 
L 247.809262 -34.789766 
L 248.279353 -34.789766 
L 248.749444 -34.789766 
L 249.219535 -34.789766 
L 249.689626 -34.789766 
L 250.159717 -34.789766 
L 250.629808 -34.789766 
L 251.099899 -34.789766 
L 251.56999 -34.789766 
L 252.040081 -34.789766 
L 252.510172 -34.789766 
L 252.980264 -34.789766 
L 253.450355 -34.789766 
L 253.920446 -34.789766 
L 254.390537 -34.789766 
L 254.860628 -34.789766 
L 255.330719 -34.789766 
L 255.80081 -34.789766 
L 256.270901 -34.789766 
L 256.740992 -34.789766 
L 257.211083 -34.789766 
L 257.681174 -34.789766 
L 258.151265 -34.789766 
L 258.621356 -34.789766 
L 259.091447 -34.789766 
L 259.561539 -34.789766 
L 260.03163 -34.789766 
L 260.501721 -34.789766 
L 260.971812 -34.789766 
L 261.441903 -34.789766 
L 261.911994 -34.789766 
L 262.382085 -34.789766 
L 262.852176 -34.789766 
L 263.322267 -34.789766 
L 263.792358 -34.789766 
L 264.262449 -34.789766 
L 264.73254 -34.789766 
L 265.202631 -34.789766 
L 265.672723 -34.789766 
L 266.142814 -34.789766 
L 266.612905 -34.789766 
L 267.082996 -34.789766 
L 267.553087 -34.789766 
L 268.023178 -34.789766 
L 268.493269 -34.789766 
L 268.96336 -34.789766 
L 269.433451 -34.789766 
L 269.903542 -34.789766 
L 270.373633 -34.789766 
L 270.843724 -34.789766 
L 271.313815 -34.789766 
L 271.783906 -34.789766 
L 272.253998 -34.789766 
L 272.724089 -34.789766 
L 273.19418 -34.789766 
L 273.664271 -34.789766 
L 274.134362 -34.789766 
L 274.604453 -34.789766 
L 275.074544 -34.789766 
L 275.544635 -34.789766 
L 276.014726 -34.789766 
L 276.484817 -34.789766 
L 276.954908 -34.789766 
L 277.424999 -34.789766 
L 277.89509 -34.789766 
L 278.365181 -34.789766 
L 278.835273 -34.789766 
L 279.305364 -34.789766 
L 279.775455 -34.789766 
L 280.245546 -34.789766 
L 280.715637 -34.789766 
L 281.185728 -34.789766 
L 281.655819 -34.789766 
L 282.12591 -34.789766 
L 282.596001 -34.789766 
L 283.066092 -34.789766 
L 283.536183 -34.789766 
L 284.006274 -34.789766 
L 284.476365 -34.789766 
L 284.946457 -34.789766 
L 285.416548 -34.789766 
L 285.886639 -34.789766 
L 286.35673 -34.789766 
L 286.826821 -34.789766 
L 287.296912 -34.789766 
L 287.767003 -34.789766 
L 288.237094 -34.789766 
L 288.707185 -34.789766 
L 289.177276 -34.789766 
L 289.647367 -34.789766 
L 290.117458 -34.789766 
L 290.587549 -34.789766 
L 291.05764 -34.789766 
L 291.527732 -34.789766 
L 291.997823 -34.789766 
L 292.467914 -34.789766 
L 292.938005 -34.789766 
L 293.408096 -34.789766 
L 293.878187 -34.789766 
L 294.348278 -34.789766 
L 294.818369 -34.789766 
L 295.28846 -34.789766 
L 295.758551 -34.789766 
L 296.228642 -34.789766 
L 296.698733 -34.789766 
L 297.168824 -34.789766 
L 297.638916 -34.789766 
L 298.109007 -34.789766 
L 298.579098 -34.789766 
L 299.049189 -34.789766 
L 299.51928 -34.789766 
L 299.989371 -34.789766 
L 300.459462 -34.789766 
L 300.929553 -34.789766 
L 301.399644 -34.789766 
L 301.869735 -34.789766 
L 302.339826 -34.789766 
L 302.809917 -34.789766 
L 302.809917 -34.793619 
L 302.809917 -34.793619 
L 302.339826 -34.794195 
L 301.869735 -34.794848 
L 301.399644 -34.795585 
L 300.929553 -34.796416 
L 300.459462 -34.797351 
L 299.989371 -34.798399 
L 299.51928 -34.799573 
L 299.049189 -34.800884 
L 298.579098 -34.802346 
L 298.109007 -34.803971 
L 297.638916 -34.805774 
L 297.168824 -34.807771 
L 296.698733 -34.809976 
L 296.228642 -34.812406 
L 295.758551 -34.815078 
L 295.28846 -34.81801 
L 294.818369 -34.821219 
L 294.348278 -34.824723 
L 293.878187 -34.828542 
L 293.408096 -34.832692 
L 292.938005 -34.837194 
L 292.467914 -34.842064 
L 291.997823 -34.847322 
L 291.527732 -34.852983 
L 291.05764 -34.859066 
L 290.587549 -34.865586 
L 290.117458 -34.872557 
L 289.647367 -34.879992 
L 289.177276 -34.887904 
L 288.707185 -34.896302 
L 288.237094 -34.905194 
L 287.767003 -34.914587 
L 287.296912 -34.924482 
L 286.826821 -34.934881 
L 286.35673 -34.945782 
L 285.886639 -34.957179 
L 285.416548 -34.969064 
L 284.946457 -34.981425 
L 284.476365 -34.994248 
L 284.006274 -35.007513 
L 283.536183 -35.021199 
L 283.066092 -35.035279 
L 282.596001 -35.049725 
L 282.12591 -35.064503 
L 281.655819 -35.079578 
L 281.185728 -35.094911 
L 280.715637 -35.110459 
L 280.245546 -35.126177 
L 279.775455 -35.142018 
L 279.305364 -35.157932 
L 278.835273 -35.173867 
L 278.365181 -35.18977 
L 277.89509 -35.205588 
L 277.424999 -35.221266 
L 276.954908 -35.23675 
L 276.484817 -35.251985 
L 276.014726 -35.266919 
L 275.544635 -35.2815 
L 275.074544 -35.295679 
L 274.604453 -35.30941 
L 274.134362 -35.322649 
L 273.664271 -35.335356 
L 273.19418 -35.347495 
L 272.724089 -35.359036 
L 272.253998 -35.369953 
L 271.783906 -35.380225 
L 271.313815 -35.389837 
L 270.843724 -35.39878 
L 270.373633 -35.407052 
L 269.903542 -35.414656 
L 269.433451 -35.421602 
L 268.96336 -35.427906 
L 268.493269 -35.433591 
L 268.023178 -35.438685 
L 267.553087 -35.443222 
L 267.082996 -35.447242 
L 266.612905 -35.45079 
L 266.142814 -35.453914 
L 265.672723 -35.456669 
L 265.202631 -35.459111 
L 264.73254 -35.461299 
L 264.262449 -35.463296 
L 263.792358 -35.465164 
L 263.322267 -35.466967 
L 262.852176 -35.468768 
L 262.382085 -35.47063 
L 261.911994 -35.472613 
L 261.441903 -35.474776 
L 260.971812 -35.477173 
L 260.501721 -35.479855 
L 260.03163 -35.482868 
L 259.561539 -35.486251 
L 259.091447 -35.49004 
L 258.621356 -35.494261 
L 258.151265 -35.498937 
L 257.681174 -35.504079 
L 257.211083 -35.509693 
L 256.740992 -35.515776 
L 256.270901 -35.522319 
L 255.80081 -35.529302 
L 255.330719 -35.536698 
L 254.860628 -35.544473 
L 254.390537 -35.552585 
L 253.920446 -35.560983 
L 253.450355 -35.569612 
L 252.980264 -35.578408 
L 252.510172 -35.587304 
L 252.040081 -35.596226 
L 251.56999 -35.605095 
L 251.099899 -35.613831 
L 250.629808 -35.622349 
L 250.159717 -35.630564 
L 249.689626 -35.638389 
L 249.219535 -35.645736 
L 248.749444 -35.652519 
L 248.279353 -35.658654 
L 247.809262 -35.664059 
L 247.339171 -35.668655 
L 246.86908 -35.672369 
L 246.398988 -35.675132 
L 245.928897 -35.676879 
L 245.458806 -35.677554 
L 244.988715 -35.677108 
L 244.518624 -35.675496 
L 244.048533 -35.672686 
L 243.578442 -35.668649 
L 243.108351 -35.663369 
L 242.63826 -35.656836 
L 242.168169 -35.649048 
L 241.698078 -35.640014 
L 241.227987 -35.62975 
L 240.757896 -35.61828 
L 240.287805 -35.605638 
L 239.817713 -35.591864 
L 239.347622 -35.577004 
L 238.877531 -35.561113 
L 238.40744 -35.544252 
L 237.937349 -35.526487 
L 237.467258 -35.507887 
L 236.997167 -35.488529 
L 236.527076 -35.46849 
L 236.056985 -35.447852 
L 235.586894 -35.426699 
L 235.116803 -35.405114 
L 234.646712 -35.383183 
L 234.176621 -35.360991 
L 233.70653 -35.338623 
L 233.236438 -35.316161 
L 232.766347 -35.293687 
L 232.296256 -35.271278 
L 231.826165 -35.24901 
L 231.356074 -35.226955 
L 230.885983 -35.20518 
L 230.415892 -35.183748 
L 229.945801 -35.162718 
L 229.47571 -35.142144 
L 229.005619 -35.122074 
L 228.535528 -35.102553 
L 228.065437 -35.083619 
L 227.595346 -35.065304 
L 227.125254 -35.047638 
L 226.655163 -35.030642 
L 226.185072 -35.014334 
L 225.714981 -34.998728 
L 225.24489 -34.983832 
L 224.774799 -34.969651 
L 224.304708 -34.956183 
L 223.834617 -34.943426 
L 223.364526 -34.931372 
L 222.894435 -34.92001 
L 222.424344 -34.909326 
L 221.954253 -34.899305 
L 221.484162 -34.889929 
L 221.014071 -34.881176 
L 220.543979 -34.873024 
L 220.073888 -34.865452 
L 219.603797 -34.858433 
L 219.133706 -34.851942 
L 218.663615 -34.845955 
L 218.193524 -34.840444 
L 217.723433 -34.835383 
L 217.253342 -34.830747 
L 216.783251 -34.82651 
L 216.31316 -34.822645 
L 215.843069 -34.819129 
L 215.372978 -34.815936 
L 214.902887 -34.813045 
L 214.432795 -34.810432 
L 213.962704 -34.808076 
L 213.492613 -34.805956 
L 213.022522 -34.804053 
L 212.552431 -34.802348 
L 212.08234 -34.800825 
L 211.612249 -34.799467 
L 211.142158 -34.798259 
L 210.672067 -34.797186 
L 210.201976 -34.796236 
L 209.731885 -34.795396 
L 209.261794 -34.794655 
z
" style="stroke: #4c72b0; stroke-width: 1.5"/>
    </defs>
    <g clip-path="url(#pb787b86dc8)">
     <use xlink:href="#md690fc7a82" x="0" y="336.209766" style="fill: #4c72b0; fill-opacity: 0.25; stroke: #4c72b0; stroke-width: 1.5"/>
    </g>
   </g>
   <g id="patch_3">
    <path d="M 78.427461 301.42 
L 110.676139 301.42 
L 110.676139 301.42 
L 78.427461 301.42 
z
" clip-path="url(#pb787b86dc8)" style="fill: #55a868; fill-opacity: 0.5; stroke: #ffffff; stroke-width: 1.5; stroke-linejoin: miter"/>
   </g>
   <g id="patch_4">
    <path d="M 110.676139 301.42 
L 142.924818 301.42 
L 142.924818 301.42 
L 110.676139 301.42 
z
" clip-path="url(#pb787b86dc8)" style="fill: #55a868; fill-opacity: 0.5; stroke: #ffffff; stroke-width: 1.5; stroke-linejoin: miter"/>
   </g>
   <g id="patch_5">
    <path d="M 142.924818 301.42 
L 175.173497 301.42 
L 175.173497 301.42 
L 142.924818 301.42 
z
" clip-path="url(#pb787b86dc8)" style="fill: #55a868; fill-opacity: 0.5; stroke: #ffffff; stroke-width: 1.5; stroke-linejoin: miter"/>
   </g>
   <g id="patch_6">
    <path d="M 175.173497 301.42 
L 207.422176 301.42 
L 207.422176 87.441818 
L 175.173497 87.441818 
z
" clip-path="url(#pb787b86dc8)" style="fill: #55a868; fill-opacity: 0.5; stroke: #ffffff; stroke-width: 1.5; stroke-linejoin: miter"/>
   </g>
   <g id="patch_7">
    <path d="M 207.422176 301.42 
L 239.670854 301.42 
L 239.670854 33.947273 
L 207.422176 33.947273 
z
" clip-path="url(#pb787b86dc8)" style="fill: #55a868; fill-opacity: 0.5; stroke: #ffffff; stroke-width: 1.5; stroke-linejoin: miter"/>
   </g>
   <g id="patch_8">
    <path d="M 239.670854 301.42 
L 271.919533 301.42 
L 271.919533 194.430909 
L 239.670854 194.430909 
z
" clip-path="url(#pb787b86dc8)" style="fill: #55a868; fill-opacity: 0.5; stroke: #ffffff; stroke-width: 1.5; stroke-linejoin: miter"/>
   </g>
   <g id="patch_9">
    <path d="M 78.427461 301.42 
L 110.676139 301.42 
L 110.676139 87.441818 
L 78.427461 87.441818 
z
" clip-path="url(#pb787b86dc8)" style="fill: #dd8452; fill-opacity: 0.5; stroke: #ffffff; stroke-width: 1.5; stroke-linejoin: miter"/>
   </g>
   <g id="patch_10">
    <path d="M 110.676139 301.42 
L 142.924818 301.42 
L 142.924818 301.42 
L 110.676139 301.42 
z
" clip-path="url(#pb787b86dc8)" style="fill: #dd8452; fill-opacity: 0.5; stroke: #ffffff; stroke-width: 1.5; stroke-linejoin: miter"/>
   </g>
   <g id="patch_11">
    <path d="M 142.924818 301.42 
L 175.173497 301.42 
L 175.173497 301.42 
L 142.924818 301.42 
z
" clip-path="url(#pb787b86dc8)" style="fill: #dd8452; fill-opacity: 0.5; stroke: #ffffff; stroke-width: 1.5; stroke-linejoin: miter"/>
   </g>
   <g id="patch_12">
    <path d="M 175.173497 301.42 
L 207.422176 301.42 
L 207.422176 301.42 
L 175.173497 301.42 
z
" clip-path="url(#pb787b86dc8)" style="fill: #dd8452; fill-opacity: 0.5; stroke: #ffffff; stroke-width: 1.5; stroke-linejoin: miter"/>
   </g>
   <g id="patch_13">
    <path d="M 207.422176 301.42 
L 239.670854 301.42 
L 239.670854 301.42 
L 207.422176 301.42 
z
" clip-path="url(#pb787b86dc8)" style="fill: #dd8452; fill-opacity: 0.5; stroke: #ffffff; stroke-width: 1.5; stroke-linejoin: miter"/>
   </g>
   <g id="patch_14">
    <path d="M 239.670854 301.42 
L 271.919533 301.42 
L 271.919533 301.42 
L 239.670854 301.42 
z
" clip-path="url(#pb787b86dc8)" style="fill: #dd8452; fill-opacity: 0.5; stroke: #ffffff; stroke-width: 1.5; stroke-linejoin: miter"/>
   </g>
   <g id="patch_15">
    <path d="M 78.427461 301.42 
L 110.676139 301.42 
L 110.676139 301.42 
L 78.427461 301.42 
z
" clip-path="url(#pb787b86dc8)" style="fill: #4c72b0; fill-opacity: 0.5; stroke: #ffffff; stroke-width: 1.5; stroke-linejoin: miter"/>
   </g>
   <g id="patch_16">
    <path d="M 110.676139 301.42 
L 142.924818 301.42 
L 142.924818 301.42 
L 110.676139 301.42 
z
" clip-path="url(#pb787b86dc8)" style="fill: #4c72b0; fill-opacity: 0.5; stroke: #ffffff; stroke-width: 1.5; stroke-linejoin: miter"/>
   </g>
   <g id="patch_17">
    <path d="M 142.924818 301.42 
L 175.173497 301.42 
L 175.173497 301.42 
L 142.924818 301.42 
z
" clip-path="url(#pb787b86dc8)" style="fill: #4c72b0; fill-opacity: 0.5; stroke: #ffffff; stroke-width: 1.5; stroke-linejoin: miter"/>
   </g>
   <g id="patch_18">
    <path d="M 175.173497 301.42 
L 207.422176 301.42 
L 207.422176 301.42 
L 175.173497 301.42 
z
" clip-path="url(#pb787b86dc8)" style="fill: #4c72b0; fill-opacity: 0.5; stroke: #ffffff; stroke-width: 1.5; stroke-linejoin: miter"/>
   </g>
   <g id="patch_19">
    <path d="M 207.422176 301.42 
L 239.670854 301.42 
L 239.670854 301.42 
L 207.422176 301.42 
z
" clip-path="url(#pb787b86dc8)" style="fill: #4c72b0; fill-opacity: 0.5; stroke: #ffffff; stroke-width: 1.5; stroke-linejoin: miter"/>
   </g>
   <g id="patch_20">
    <path d="M 239.670854 301.42 
L 271.919533 301.42 
L 271.919533 33.947273 
L 239.670854 33.947273 
z
" clip-path="url(#pb787b86dc8)" style="fill: #4c72b0; fill-opacity: 0.5; stroke: #ffffff; stroke-width: 1.5; stroke-linejoin: miter"/>
   </g>
   <g id="LineCollection_1">
    <path d="M 248.816002 301.42 
L 248.816002 294.0645 
" clip-path="url(#pb787b86dc8)" style="fill: none; stroke: #4c72b0"/>
    <path d="M 243.040119 301.42 
L 243.040119 294.0645 
" clip-path="url(#pb787b86dc8)" style="fill: none; stroke: #4c72b0"/>
    <path d="M 240.152178 301.42 
L 240.152178 294.0645 
" clip-path="url(#pb787b86dc8)" style="fill: none; stroke: #4c72b0"/>
    <path d="M 271.919533 301.42 
L 271.919533 294.0645 
" clip-path="url(#pb787b86dc8)" style="fill: none; stroke: #4c72b0"/>
    <path d="M 266.14365 301.42 
L 266.14365 294.0645 
" clip-path="url(#pb787b86dc8)" style="fill: none; stroke: #4c72b0"/>
    <path d="M 87.091285 301.42 
L 87.091285 294.0645 
" clip-path="url(#pb787b86dc8)" style="fill: none; stroke: #dd8452"/>
    <path d="M 87.091285 301.42 
L 87.091285 294.0645 
" clip-path="url(#pb787b86dc8)" style="fill: none; stroke: #dd8452"/>
    <path d="M 78.427461 301.42 
L 78.427461 294.0645 
" clip-path="url(#pb787b86dc8)" style="fill: none; stroke: #dd8452"/>
    <path d="M 81.315402 301.42 
L 81.315402 294.0645 
" clip-path="url(#pb787b86dc8)" style="fill: none; stroke: #dd8452"/>
    <path d="M 179.505409 301.42 
L 179.505409 294.0645 
" clip-path="url(#pb787b86dc8)" style="fill: none; stroke: #55a868"/>
    <path d="M 263.255709 301.42 
L 263.255709 294.0645 
" clip-path="url(#pb787b86dc8)" style="fill: none; stroke: #55a868"/>
    <path d="M 228.600412 301.42 
L 228.600412 294.0645 
" clip-path="url(#pb787b86dc8)" style="fill: none; stroke: #55a868"/>
    <path d="M 222.82453 301.42 
L 222.82453 294.0645 
" clip-path="url(#pb787b86dc8)" style="fill: none; stroke: #55a868"/>
    <path d="M 234.376295 301.42 
L 234.376295 294.0645 
" clip-path="url(#pb787b86dc8)" style="fill: none; stroke: #55a868"/>
    <path d="M 196.833057 301.42 
L 196.833057 294.0645 
" clip-path="url(#pb787b86dc8)" style="fill: none; stroke: #55a868"/>
    <path d="M 234.376295 301.42 
L 234.376295 294.0645 
" clip-path="url(#pb787b86dc8)" style="fill: none; stroke: #55a868"/>
    <path d="M 188.169233 301.42 
L 188.169233 294.0645 
" clip-path="url(#pb787b86dc8)" style="fill: none; stroke: #55a868"/>
    <path d="M 234.376295 301.42 
L 234.376295 294.0645 
" clip-path="url(#pb787b86dc8)" style="fill: none; stroke: #55a868"/>
    <path d="M 257.479826 301.42 
L 257.479826 294.0645 
" clip-path="url(#pb787b86dc8)" style="fill: none; stroke: #55a868"/>
    <path d="M 202.60894 301.42 
L 202.60894 294.0645 
" clip-path="url(#pb787b86dc8)" style="fill: none; stroke: #55a868"/>
   </g>
   <g id="patch_21">
    <path d="M 49.548047 301.42 
L 49.548047 7.2 
" style="fill: none; stroke: #262626; stroke-width: 1.875; stroke-linejoin: miter; stroke-linecap: square"/>
   </g>
   <g id="patch_22">
    <path d="M 49.548047 301.42 
L 300.798947 301.42 
" style="fill: none; stroke: #262626; stroke-width: 1.875; stroke-linejoin: miter; stroke-linecap: square"/>
   </g>
  </g>
  <g id="legend_1">
   <g id="patch_23">
    <path d="M 322.138125 149.030625 
L 355.138125 149.030625 
L 355.138125 137.480625 
L 322.138125 137.480625 
z
" style="fill: #4c72b0; fill-opacity: 0.25; stroke: #4c72b0; stroke-width: 1.5; stroke-linejoin: miter"/>
   </g>
   <g id="text_12">
    <!-- GIGA -->
    <g style="fill: #262626" transform="translate(368.338125 149.030625) scale(0.165 -0.165)">
     <defs>
      <path id="ArialMT-47" d="M 2638 1797 
L 2638 2334 
L 4578 2338 
L 4578 638 
Q 4131 281 3656 101 
Q 3181 -78 2681 -78 
Q 2006 -78 1454 211 
Q 903 500 622 1047 
Q 341 1594 341 2269 
Q 341 2938 620 3517 
Q 900 4097 1425 4378 
Q 1950 4659 2634 4659 
Q 3131 4659 3532 4498 
Q 3934 4338 4162 4050 
Q 4391 3763 4509 3300 
L 3963 3150 
Q 3859 3500 3706 3700 
Q 3553 3900 3268 4020 
Q 2984 4141 2638 4141 
Q 2222 4141 1919 4014 
Q 1616 3888 1430 3681 
Q 1244 3475 1141 3228 
Q 966 2803 966 2306 
Q 966 1694 1177 1281 
Q 1388 869 1791 669 
Q 2194 469 2647 469 
Q 3041 469 3416 620 
Q 3791 772 3984 944 
L 3984 1797 
L 2638 1797 
z
" transform="scale(0.015625)"/>
      <path id="ArialMT-49" d="M 597 0 
L 597 4581 
L 1203 4581 
L 1203 0 
L 597 0 
z
" transform="scale(0.015625)"/>
      <path id="ArialMT-41" d="M -9 0 
L 1750 4581 
L 2403 4581 
L 4278 0 
L 3588 0 
L 3053 1388 
L 1138 1388 
L 634 0 
L -9 0 
z
M 1313 1881 
L 2866 1881 
L 2388 3150 
Q 2169 3728 2063 4100 
Q 1975 3659 1816 3225 
L 1313 1881 
z
" transform="scale(0.015625)"/>
     </defs>
     <use xlink:href="#ArialMT-47"/>
     <use xlink:href="#ArialMT-49" x="77.783203"/>
     <use xlink:href="#ArialMT-47" x="105.566406"/>
     <use xlink:href="#ArialMT-41" x="183.349609"/>
    </g>
   </g>
   <g id="patch_24">
    <path d="M 322.138125 172.370391 
L 355.138125 172.370391 
L 355.138125 160.820391 
L 322.138125 160.820391 
z
" style="fill: #dd8452; fill-opacity: 0.25; stroke: #dd8452; stroke-width: 1.5; stroke-linejoin: miter"/>
   </g>
   <g id="text_13">
    <!-- KILO -->
    <g style="fill: #262626" transform="translate(368.338125 172.370391) scale(0.165 -0.165)">
     <defs>
      <path id="ArialMT-4b" d="M 469 0 
L 469 4581 
L 1075 4581 
L 1075 2309 
L 3350 4581 
L 4172 4581 
L 2250 2725 
L 4256 0 
L 3456 0 
L 1825 2319 
L 1075 1588 
L 1075 0 
L 469 0 
z
" transform="scale(0.015625)"/>
      <path id="ArialMT-4c" d="M 469 0 
L 469 4581 
L 1075 4581 
L 1075 541 
L 3331 541 
L 3331 0 
L 469 0 
z
" transform="scale(0.015625)"/>
      <path id="ArialMT-4f" d="M 309 2231 
Q 309 3372 921 4017 
Q 1534 4663 2503 4663 
Q 3138 4663 3647 4359 
Q 4156 4056 4423 3514 
Q 4691 2972 4691 2284 
Q 4691 1588 4409 1038 
Q 4128 488 3612 205 
Q 3097 -78 2500 -78 
Q 1853 -78 1343 234 
Q 834 547 571 1087 
Q 309 1628 309 2231 
z
M 934 2222 
Q 934 1394 1379 917 
Q 1825 441 2497 441 
Q 3181 441 3623 922 
Q 4066 1403 4066 2288 
Q 4066 2847 3877 3264 
Q 3688 3681 3323 3911 
Q 2959 4141 2506 4141 
Q 1863 4141 1398 3698 
Q 934 3256 934 2222 
z
" transform="scale(0.015625)"/>
     </defs>
     <use xlink:href="#ArialMT-4b"/>
     <use xlink:href="#ArialMT-49" x="66.699219"/>
     <use xlink:href="#ArialMT-4c" x="94.482422"/>
     <use xlink:href="#ArialMT-4f" x="150.097656"/>
    </g>
   </g>
   <g id="patch_25">
    <path d="M 322.138125 195.710156 
L 355.138125 195.710156 
L 355.138125 184.160156 
L 322.138125 184.160156 
z
" style="fill: #55a868; fill-opacity: 0.25; stroke: #55a868; stroke-width: 1.5; stroke-linejoin: miter"/>
   </g>
   <g id="text_14">
    <!-- MEGA -->
    <g style="fill: #262626" transform="translate(368.338125 195.710156) scale(0.165 -0.165)">
     <defs>
      <path id="ArialMT-4d" d="M 475 0 
L 475 4581 
L 1388 4581 
L 2472 1338 
Q 2622 884 2691 659 
Q 2769 909 2934 1394 
L 4031 4581 
L 4847 4581 
L 4847 0 
L 4263 0 
L 4263 3834 
L 2931 0 
L 2384 0 
L 1059 3900 
L 1059 0 
L 475 0 
z
" transform="scale(0.015625)"/>
      <path id="ArialMT-45" d="M 506 0 
L 506 4581 
L 3819 4581 
L 3819 4041 
L 1113 4041 
L 1113 2638 
L 3647 2638 
L 3647 2100 
L 1113 2100 
L 1113 541 
L 3925 541 
L 3925 0 
L 506 0 
z
" transform="scale(0.015625)"/>
     </defs>
     <use xlink:href="#ArialMT-4d"/>
     <use xlink:href="#ArialMT-45" x="83.300781"/>
     <use xlink:href="#ArialMT-47" x="150"/>
     <use xlink:href="#ArialMT-41" x="227.783203"/>
    </g>
   </g>
  </g>
 </g>
 <defs>
  <clipPath id="pb787b86dc8">
   <rect x="49.548047" y="7.2" width="251.2509" height="294.22"/>
  </clipPath>
 </defs>
</svg>
