<?xml version="1.0" encoding="utf-8" standalone="no"?>
<!DOCTYPE svg PUBLIC "-//W3C//DTD SVG 1.1//EN"
  "http://www.w3.org/Graphics/SVG/1.1/DTD/svg11.dtd">
<svg xmlns:xlink="http://www.w3.org/1999/xlink" width="488.658047pt" height="336.209766pt" viewBox="0 0 488.658047 336.209766" xmlns="http://www.w3.org/2000/svg" version="1.1">
 <metadata>
  <rdf:RDF xmlns:dc="http://purl.org/dc/elements/1.1/" xmlns:cc="http://creativecommons.org/ns#" xmlns:rdf="http://www.w3.org/1999/02/22-rdf-syntax-ns#">
   <cc:Work>
    <dc:type rdf:resource="http://purl.org/dc/dcmitype/StillImage"/>
    <dc:date>2023-10-30T02:05:35.422807</dc:date>
    <dc:format>image/svg+xml</dc:format>
    <dc:creator>
     <cc:Agent>
      <dc:title>Matplotlib v3.8.0, https://matplotlib.org/</dc:title>
     </cc:Agent>
    </dc:creator>
   </cc:Work>
  </rdf:RDF>
 </metadata>
 <defs>
  <style type="text/css">*{stroke-linejoin: round; stroke-linecap: butt}</style>
 </defs>
 <g id="figure_1">
  <g id="patch_1">
   <path d="M 0 336.209766 
L 488.658047 336.209766 
L 488.658047 0 
L 0 0 
z
" style="fill: #ffffff"/>
  </g>
  <g id="axes_1">
   <g id="patch_2">
    <path d="M 49.548047 301.42 
L 300.230147 301.42 
L 300.230147 7.2 
L 49.548047 7.2 
z
" style="fill: #ffffff"/>
   </g>
   <g id="matplotlib.axis_1">
    <g id="xtick_1">
     <g id="line2d_1">
      <defs>
       <path id="m9b23e1bdf6" d="M 0 0 
L 0 9 
" style="stroke: #262626; stroke-width: 1.875"/>
      </defs>
      <g>
       <use xlink:href="#m9b23e1bdf6" x="70.689911" y="301.42" style="fill: #262626; stroke: #262626; stroke-width: 1.875"/>
      </g>
     </g>
     <g id="text_1">
      <!-- 100 -->
      <g style="fill: #262626" transform="translate(56.92659 325.730391) scale(0.165 -0.165)">
       <defs>
        <path id="ArialMT-31" d="M 2384 0 
L 1822 0 
L 1822 3584 
Q 1619 3391 1289 3197 
Q 959 3003 697 2906 
L 697 3450 
Q 1169 3672 1522 3987 
Q 1875 4303 2022 4600 
L 2384 4600 
L 2384 0 
z
" transform="scale(0.015625)"/>
        <path id="ArialMT-30" d="M 266 2259 
Q 266 3072 433 3567 
Q 600 4063 929 4331 
Q 1259 4600 1759 4600 
Q 2128 4600 2406 4451 
Q 2684 4303 2865 4023 
Q 3047 3744 3150 3342 
Q 3253 2941 3253 2259 
Q 3253 1453 3087 958 
Q 2922 463 2592 192 
Q 2263 -78 1759 -78 
Q 1097 -78 719 397 
Q 266 969 266 2259 
z
M 844 2259 
Q 844 1131 1108 757 
Q 1372 384 1759 384 
Q 2147 384 2411 759 
Q 2675 1134 2675 2259 
Q 2675 3391 2411 3762 
Q 2147 4134 1753 4134 
Q 1366 4134 1134 3806 
Q 844 3388 844 2259 
z
" transform="scale(0.015625)"/>
       </defs>
       <use xlink:href="#ArialMT-31"/>
       <use xlink:href="#ArialMT-30" x="55.615234"/>
       <use xlink:href="#ArialMT-30" x="111.230469"/>
      </g>
     </g>
    </g>
    <g id="xtick_2">
     <g id="line2d_2">
      <g>
       <use xlink:href="#m9b23e1bdf6" x="131.095236" y="301.42" style="fill: #262626; stroke: #262626; stroke-width: 1.875"/>
      </g>
     </g>
     <g id="text_2">
      <!-- 120 -->
      <g style="fill: #262626" transform="translate(117.331916 325.730391) scale(0.165 -0.165)">
       <defs>
        <path id="ArialMT-32" d="M 3222 541 
L 3222 0 
L 194 0 
Q 188 203 259 391 
Q 375 700 629 1000 
Q 884 1300 1366 1694 
Q 2113 2306 2375 2664 
Q 2638 3022 2638 3341 
Q 2638 3675 2398 3904 
Q 2159 4134 1775 4134 
Q 1369 4134 1125 3890 
Q 881 3647 878 3216 
L 300 3275 
Q 359 3922 746 4261 
Q 1134 4600 1788 4600 
Q 2447 4600 2831 4234 
Q 3216 3869 3216 3328 
Q 3216 3053 3103 2787 
Q 2991 2522 2730 2228 
Q 2469 1934 1863 1422 
Q 1356 997 1212 845 
Q 1069 694 975 541 
L 3222 541 
z
" transform="scale(0.015625)"/>
       </defs>
       <use xlink:href="#ArialMT-31"/>
       <use xlink:href="#ArialMT-32" x="55.615234"/>
       <use xlink:href="#ArialMT-30" x="111.230469"/>
      </g>
     </g>
    </g>
    <g id="xtick_3">
     <g id="line2d_3">
      <g>
       <use xlink:href="#m9b23e1bdf6" x="191.500561" y="301.42" style="fill: #262626; stroke: #262626; stroke-width: 1.875"/>
      </g>
     </g>
     <g id="text_3">
      <!-- 140 -->
      <g style="fill: #262626" transform="translate(177.737241 325.730391) scale(0.165 -0.165)">
       <defs>
        <path id="ArialMT-34" d="M 2069 0 
L 2069 1097 
L 81 1097 
L 81 1613 
L 2172 4581 
L 2631 4581 
L 2631 1613 
L 3250 1613 
L 3250 1097 
L 2631 1097 
L 2631 0 
L 2069 0 
z
M 2069 1613 
L 2069 3678 
L 634 1613 
L 2069 1613 
z
" transform="scale(0.015625)"/>
       </defs>
       <use xlink:href="#ArialMT-31"/>
       <use xlink:href="#ArialMT-34" x="55.615234"/>
       <use xlink:href="#ArialMT-30" x="111.230469"/>
      </g>
     </g>
    </g>
    <g id="xtick_4">
     <g id="line2d_4">
      <g>
       <use xlink:href="#m9b23e1bdf6" x="251.905887" y="301.42" style="fill: #262626; stroke: #262626; stroke-width: 1.875"/>
      </g>
     </g>
     <g id="text_4">
      <!-- 160 -->
      <g style="fill: #262626" transform="translate(238.142566 325.730391) scale(0.165 -0.165)">
       <defs>
        <path id="ArialMT-36" d="M 3184 3459 
L 2625 3416 
Q 2550 3747 2413 3897 
Q 2184 4138 1850 4138 
Q 1581 4138 1378 3988 
Q 1113 3794 959 3422 
Q 806 3050 800 2363 
Q 1003 2672 1297 2822 
Q 1591 2972 1913 2972 
Q 2475 2972 2870 2558 
Q 3266 2144 3266 1488 
Q 3266 1056 3080 686 
Q 2894 316 2569 119 
Q 2244 -78 1831 -78 
Q 1128 -78 684 439 
Q 241 956 241 2144 
Q 241 3472 731 4075 
Q 1159 4600 1884 4600 
Q 2425 4600 2770 4297 
Q 3116 3994 3184 3459 
z
M 888 1484 
Q 888 1194 1011 928 
Q 1134 663 1356 523 
Q 1578 384 1822 384 
Q 2178 384 2434 671 
Q 2691 959 2691 1453 
Q 2691 1928 2437 2201 
Q 2184 2475 1800 2475 
Q 1419 2475 1153 2201 
Q 888 1928 888 1484 
z
" transform="scale(0.015625)"/>
       </defs>
       <use xlink:href="#ArialMT-31"/>
       <use xlink:href="#ArialMT-36" x="55.615234"/>
       <use xlink:href="#ArialMT-30" x="111.230469"/>
      </g>
     </g>
    </g>
   </g>
   <g id="matplotlib.axis_2">
    <g id="ytick_1">
     <g id="line2d_5">
      <defs>
       <path id="mac6b7ae732" d="M 0 0 
L -9 0 
" style="stroke: #262626; stroke-width: 1.875"/>
      </defs>
      <g>
       <use xlink:href="#mac6b7ae732" x="49.548047" y="301.42" style="fill: #262626; stroke: #262626; stroke-width: 1.875"/>
      </g>
     </g>
     <g id="text_5">
      <!-- 0 -->
      <g style="fill: #262626" transform="translate(27.8725 307.325195) scale(0.165 -0.165)">
       <use xlink:href="#ArialMT-30"/>
      </g>
     </g>
    </g>
    <g id="ytick_2">
     <g id="line2d_6">
      <g>
       <use xlink:href="#mac6b7ae732" x="49.548047" y="247.925455" style="fill: #262626; stroke: #262626; stroke-width: 1.875"/>
      </g>
     </g>
     <g id="text_6">
      <!-- 1 -->
      <g style="fill: #262626" transform="translate(27.8725 253.83065) scale(0.165 -0.165)">
       <use xlink:href="#ArialMT-31"/>
      </g>
     </g>
    </g>
    <g id="ytick_3">
     <g id="line2d_7">
      <g>
       <use xlink:href="#mac6b7ae732" x="49.548047" y="194.430909" style="fill: #262626; stroke: #262626; stroke-width: 1.875"/>
      </g>
     </g>
     <g id="text_7">
      <!-- 2 -->
      <g style="fill: #262626" transform="translate(27.8725 200.336104) scale(0.165 -0.165)">
       <use xlink:href="#ArialMT-32"/>
      </g>
     </g>
    </g>
    <g id="ytick_4">
     <g id="line2d_8">
      <g>
       <use xlink:href="#mac6b7ae732" x="49.548047" y="140.936364" style="fill: #262626; stroke: #262626; stroke-width: 1.875"/>
      </g>
     </g>
     <g id="text_8">
      <!-- 3 -->
      <g style="fill: #262626" transform="translate(27.8725 146.841559) scale(0.165 -0.165)">
       <defs>
        <path id="ArialMT-33" d="M 269 1209 
L 831 1284 
Q 928 806 1161 595 
Q 1394 384 1728 384 
Q 2125 384 2398 659 
Q 2672 934 2672 1341 
Q 2672 1728 2419 1979 
Q 2166 2231 1775 2231 
Q 1616 2231 1378 2169 
L 1441 2663 
Q 1497 2656 1531 2656 
Q 1891 2656 2178 2843 
Q 2466 3031 2466 3422 
Q 2466 3731 2256 3934 
Q 2047 4138 1716 4138 
Q 1388 4138 1169 3931 
Q 950 3725 888 3313 
L 325 3413 
Q 428 3978 793 4289 
Q 1159 4600 1703 4600 
Q 2078 4600 2393 4439 
Q 2709 4278 2876 4000 
Q 3044 3722 3044 3409 
Q 3044 3113 2884 2869 
Q 2725 2625 2413 2481 
Q 2819 2388 3044 2092 
Q 3269 1797 3269 1353 
Q 3269 753 2831 336 
Q 2394 -81 1725 -81 
Q 1122 -81 723 278 
Q 325 638 269 1209 
z
" transform="scale(0.015625)"/>
       </defs>
       <use xlink:href="#ArialMT-33"/>
      </g>
     </g>
    </g>
    <g id="ytick_5">
     <g id="line2d_9">
      <g>
       <use xlink:href="#mac6b7ae732" x="49.548047" y="87.441818" style="fill: #262626; stroke: #262626; stroke-width: 1.875"/>
      </g>
     </g>
     <g id="text_9">
      <!-- 4 -->
      <g style="fill: #262626" transform="translate(27.8725 93.347013) scale(0.165 -0.165)">
       <use xlink:href="#ArialMT-34"/>
      </g>
     </g>
    </g>
    <g id="ytick_6">
     <g id="line2d_10">
      <g>
       <use xlink:href="#mac6b7ae732" x="49.548047" y="33.947273" style="fill: #262626; stroke: #262626; stroke-width: 1.875"/>
      </g>
     </g>
     <g id="text_10">
      <!-- 5 -->
      <g style="fill: #262626" transform="translate(27.8725 39.852468) scale(0.165 -0.165)">
       <defs>
        <path id="ArialMT-35" d="M 266 1200 
L 856 1250 
Q 922 819 1161 601 
Q 1400 384 1738 384 
Q 2144 384 2425 690 
Q 2706 997 2706 1503 
Q 2706 1984 2436 2262 
Q 2166 2541 1728 2541 
Q 1456 2541 1237 2417 
Q 1019 2294 894 2097 
L 366 2166 
L 809 4519 
L 3088 4519 
L 3088 3981 
L 1259 3981 
L 1013 2750 
Q 1425 3038 1878 3038 
Q 2478 3038 2890 2622 
Q 3303 2206 3303 1553 
Q 3303 931 2941 478 
Q 2500 -78 1738 -78 
Q 1113 -78 717 272 
Q 322 622 266 1200 
z
" transform="scale(0.015625)"/>
       </defs>
       <use xlink:href="#ArialMT-35"/>
      </g>
     </g>
    </g>
    <g id="text_11">
     <!-- Density -->
     <g style="fill: #262626" transform="translate(20.084063 184.319375) rotate(-90) scale(0.18 -0.18)">
      <defs>
       <path id="ArialMT-44" d="M 494 0 
L 494 4581 
L 2072 4581 
Q 2606 4581 2888 4516 
Q 3281 4425 3559 4188 
Q 3922 3881 4101 3404 
Q 4281 2928 4281 2316 
Q 4281 1794 4159 1391 
Q 4038 988 3847 723 
Q 3656 459 3429 307 
Q 3203 156 2883 78 
Q 2563 0 2147 0 
L 494 0 
z
M 1100 541 
L 2078 541 
Q 2531 541 2789 625 
Q 3047 709 3200 863 
Q 3416 1078 3536 1442 
Q 3656 1806 3656 2325 
Q 3656 3044 3420 3430 
Q 3184 3816 2847 3947 
Q 2603 4041 2063 4041 
L 1100 4041 
L 1100 541 
z
" transform="scale(0.015625)"/>
       <path id="ArialMT-65" d="M 2694 1069 
L 3275 997 
Q 3138 488 2766 206 
Q 2394 -75 1816 -75 
Q 1088 -75 661 373 
Q 234 822 234 1631 
Q 234 2469 665 2931 
Q 1097 3394 1784 3394 
Q 2450 3394 2872 2941 
Q 3294 2488 3294 1666 
Q 3294 1616 3291 1516 
L 816 1516 
Q 847 969 1125 678 
Q 1403 388 1819 388 
Q 2128 388 2347 550 
Q 2566 713 2694 1069 
z
M 847 1978 
L 2700 1978 
Q 2663 2397 2488 2606 
Q 2219 2931 1791 2931 
Q 1403 2931 1139 2672 
Q 875 2413 847 1978 
z
" transform="scale(0.015625)"/>
       <path id="ArialMT-6e" d="M 422 0 
L 422 3319 
L 928 3319 
L 928 2847 
Q 1294 3394 1984 3394 
Q 2284 3394 2536 3286 
Q 2788 3178 2913 3003 
Q 3038 2828 3088 2588 
Q 3119 2431 3119 2041 
L 3119 0 
L 2556 0 
L 2556 2019 
Q 2556 2363 2490 2533 
Q 2425 2703 2258 2804 
Q 2091 2906 1866 2906 
Q 1506 2906 1245 2678 
Q 984 2450 984 1813 
L 984 0 
L 422 0 
z
" transform="scale(0.015625)"/>
       <path id="ArialMT-73" d="M 197 991 
L 753 1078 
Q 800 744 1014 566 
Q 1228 388 1613 388 
Q 2000 388 2187 545 
Q 2375 703 2375 916 
Q 2375 1106 2209 1216 
Q 2094 1291 1634 1406 
Q 1016 1563 777 1677 
Q 538 1791 414 1992 
Q 291 2194 291 2438 
Q 291 2659 392 2848 
Q 494 3038 669 3163 
Q 800 3259 1026 3326 
Q 1253 3394 1513 3394 
Q 1903 3394 2198 3281 
Q 2494 3169 2634 2976 
Q 2775 2784 2828 2463 
L 2278 2388 
Q 2241 2644 2061 2787 
Q 1881 2931 1553 2931 
Q 1166 2931 1000 2803 
Q 834 2675 834 2503 
Q 834 2394 903 2306 
Q 972 2216 1119 2156 
Q 1203 2125 1616 2013 
Q 2213 1853 2448 1751 
Q 2684 1650 2818 1456 
Q 2953 1263 2953 975 
Q 2953 694 2789 445 
Q 2625 197 2315 61 
Q 2006 -75 1616 -75 
Q 969 -75 630 194 
Q 291 463 197 991 
z
" transform="scale(0.015625)"/>
       <path id="ArialMT-69" d="M 425 3934 
L 425 4581 
L 988 4581 
L 988 3934 
L 425 3934 
z
M 425 0 
L 425 3319 
L 988 3319 
L 988 0 
L 425 0 
z
" transform="scale(0.015625)"/>
       <path id="ArialMT-74" d="M 1650 503 
L 1731 6 
Q 1494 -44 1306 -44 
Q 1000 -44 831 53 
Q 663 150 594 308 
Q 525 466 525 972 
L 525 2881 
L 113 2881 
L 113 3319 
L 525 3319 
L 525 4141 
L 1084 4478 
L 1084 3319 
L 1650 3319 
L 1650 2881 
L 1084 2881 
L 1084 941 
Q 1084 700 1114 631 
Q 1144 563 1211 522 
Q 1278 481 1403 481 
Q 1497 481 1650 503 
z
" transform="scale(0.015625)"/>
       <path id="ArialMT-79" d="M 397 -1278 
L 334 -750 
Q 519 -800 656 -800 
Q 844 -800 956 -737 
Q 1069 -675 1141 -563 
Q 1194 -478 1313 -144 
Q 1328 -97 1363 -6 
L 103 3319 
L 709 3319 
L 1400 1397 
Q 1534 1031 1641 628 
Q 1738 1016 1872 1384 
L 2581 3319 
L 3144 3319 
L 1881 -56 
Q 1678 -603 1566 -809 
Q 1416 -1088 1222 -1217 
Q 1028 -1347 759 -1347 
Q 597 -1347 397 -1278 
z
" transform="scale(0.015625)"/>
      </defs>
      <use xlink:href="#ArialMT-44"/>
      <use xlink:href="#ArialMT-65" x="72.216797"/>
      <use xlink:href="#ArialMT-6e" x="127.832031"/>
      <use xlink:href="#ArialMT-73" x="183.447266"/>
      <use xlink:href="#ArialMT-69" x="233.447266"/>
      <use xlink:href="#ArialMT-74" x="255.664062"/>
      <use xlink:href="#ArialMT-79" x="283.447266"/>
     </g>
    </g>
   </g>
   <g id="PolyCollection_1">
    <defs>
     <path id="m9628a98c0a" d="M 58.839808 -34.791932 
L 58.839808 -34.789766 
L 60.537335 -34.789766 
L 62.234862 -34.789766 
L 63.932389 -34.789766 
L 65.629916 -34.789766 
L 67.327443 -34.789766 
L 69.02497 -34.789766 
L 70.722498 -34.789766 
L 72.420025 -34.789766 
L 74.117552 -34.789766 
L 75.815079 -34.789766 
L 77.512606 -34.789766 
L 79.210133 -34.789766 
L 80.90766 -34.789766 
L 82.605187 -34.789766 
L 84.302715 -34.789766 
L 86.000242 -34.789766 
L 87.697769 -34.789766 
L 89.395296 -34.789766 
L 91.092823 -34.789766 
L 92.79035 -34.789766 
L 94.487877 -34.789766 
L 96.185404 -34.789766 
L 97.882932 -34.789766 
L 99.580459 -34.789766 
L 101.277986 -34.789766 
L 102.975513 -34.789766 
L 104.67304 -34.789766 
L 106.370567 -34.789766 
L 108.068094 -34.789766 
L 109.765621 -34.789766 
L 111.463149 -34.789766 
L 113.160676 -34.789766 
L 114.858203 -34.789766 
L 116.55573 -34.789766 
L 118.253257 -34.789766 
L 119.950784 -34.789766 
L 121.648311 -34.789766 
L 123.345838 -34.789766 
L 125.043366 -34.789766 
L 126.740893 -34.789766 
L 128.43842 -34.789766 
L 130.135947 -34.789766 
L 131.833474 -34.789766 
L 133.531001 -34.789766 
L 135.228528 -34.789766 
L 136.926055 -34.789766 
L 138.623583 -34.789766 
L 140.32111 -34.789766 
L 142.018637 -34.789766 
L 143.716164 -34.789766 
L 145.413691 -34.789766 
L 147.111218 -34.789766 
L 148.808745 -34.789766 
L 150.506272 -34.789766 
L 152.2038 -34.789766 
L 153.901327 -34.789766 
L 155.598854 -34.789766 
L 157.296381 -34.789766 
L 158.993908 -34.789766 
L 160.691435 -34.789766 
L 162.388962 -34.789766 
L 164.086489 -34.789766 
L 165.784016 -34.789766 
L 167.481544 -34.789766 
L 169.179071 -34.789766 
L 170.876598 -34.789766 
L 172.574125 -34.789766 
L 174.271652 -34.789766 
L 175.969179 -34.789766 
L 177.666706 -34.789766 
L 179.364233 -34.789766 
L 181.061761 -34.789766 
L 182.759288 -34.789766 
L 184.456815 -34.789766 
L 186.154342 -34.789766 
L 187.851869 -34.789766 
L 189.549396 -34.789766 
L 191.246923 -34.789766 
L 192.94445 -34.789766 
L 194.641978 -34.789766 
L 196.339505 -34.789766 
L 198.037032 -34.789766 
L 199.734559 -34.789766 
L 201.432086 -34.789766 
L 203.129613 -34.789766 
L 204.82714 -34.789766 
L 206.524667 -34.789766 
L 208.222195 -34.789766 
L 209.919722 -34.789766 
L 211.617249 -34.789766 
L 213.314776 -34.789766 
L 215.012303 -34.789766 
L 216.70983 -34.789766 
L 218.407357 -34.789766 
L 220.104884 -34.789766 
L 221.802412 -34.789766 
L 223.499939 -34.789766 
L 225.197466 -34.789766 
L 226.894993 -34.789766 
L 228.59252 -34.789766 
L 230.290047 -34.789766 
L 231.987574 -34.789766 
L 233.685101 -34.789766 
L 235.382629 -34.789766 
L 237.080156 -34.789766 
L 238.777683 -34.789766 
L 240.47521 -34.789766 
L 242.172737 -34.789766 
L 243.870264 -34.789766 
L 245.567791 -34.789766 
L 247.265318 -34.789766 
L 248.962846 -34.789766 
L 250.660373 -34.789766 
L 252.3579 -34.789766 
L 254.055427 -34.789766 
L 255.752954 -34.789766 
L 257.450481 -34.789766 
L 259.148008 -34.789766 
L 260.845535 -34.789766 
L 262.543063 -34.789766 
L 264.24059 -34.789766 
L 265.938117 -34.789766 
L 267.635644 -34.789766 
L 269.333171 -34.789766 
L 271.030698 -34.789766 
L 272.728225 -34.789766 
L 274.425752 -34.789766 
L 276.12328 -34.789766 
L 277.820807 -34.789766 
L 279.518334 -34.789766 
L 281.215861 -34.789766 
L 282.913388 -34.789766 
L 284.610915 -34.789766 
L 286.308442 -34.789766 
L 288.005969 -34.789766 
L 289.703497 -34.789766 
L 291.401024 -34.789766 
L 293.098551 -34.789766 
L 294.796078 -34.789766 
L 296.493605 -34.789766 
L 298.191132 -34.789766 
L 299.888659 -34.789766 
L 301.586186 -34.789766 
L 303.283714 -34.789766 
L 304.981241 -34.789766 
L 306.678768 -34.789766 
L 308.376295 -34.789766 
L 310.073822 -34.789766 
L 311.771349 -34.789766 
L 313.468876 -34.789766 
L 315.166403 -34.789766 
L 316.863931 -34.789766 
L 318.561458 -34.789766 
L 320.258985 -34.789766 
L 321.956512 -34.789766 
L 323.654039 -34.789766 
L 325.351566 -34.789766 
L 327.049093 -34.789766 
L 328.74662 -34.789766 
L 330.444147 -34.789766 
L 332.141675 -34.789766 
L 333.839202 -34.789766 
L 335.536729 -34.789766 
L 337.234256 -34.789766 
L 338.931783 -34.789766 
L 340.62931 -34.789766 
L 342.326837 -34.789766 
L 344.024364 -34.789766 
L 345.721892 -34.789766 
L 347.419419 -34.789766 
L 349.116946 -34.789766 
L 350.814473 -34.789766 
L 352.512 -34.789766 
L 354.209527 -34.789766 
L 355.907054 -34.789766 
L 357.604581 -34.789766 
L 359.302109 -34.789766 
L 360.999636 -34.789766 
L 362.697163 -34.789766 
L 364.39469 -34.789766 
L 366.092217 -34.789766 
L 367.789744 -34.789766 
L 369.487271 -34.789766 
L 371.184798 -34.789766 
L 372.882326 -34.789766 
L 374.579853 -34.789766 
L 376.27738 -34.789766 
L 377.974907 -34.789766 
L 379.672434 -34.789766 
L 381.369961 -34.789766 
L 383.067488 -34.789766 
L 384.765015 -34.789766 
L 386.462543 -34.789766 
L 388.16007 -34.789766 
L 389.857597 -34.789766 
L 391.555124 -34.789766 
L 393.252651 -34.789766 
L 394.950178 -34.789766 
L 396.647705 -34.789766 
L 396.647705 -34.793018 
L 396.647705 -34.793018 
L 394.950178 -34.79358 
L 393.252651 -34.794226 
L 391.555124 -34.794967 
L 389.857597 -34.795814 
L 388.16007 -34.79678 
L 386.462543 -34.797877 
L 384.765015 -34.799121 
L 383.067488 -34.800524 
L 381.369961 -34.802104 
L 379.672434 -34.803877 
L 377.974907 -34.805861 
L 376.27738 -34.808072 
L 374.579853 -34.810529 
L 372.882326 -34.813251 
L 371.184798 -34.816256 
L 369.487271 -34.819564 
L 367.789744 -34.823192 
L 366.092217 -34.827159 
L 364.39469 -34.831481 
L 362.697163 -34.836174 
L 360.999636 -34.841254 
L 359.302109 -34.846734 
L 357.604581 -34.852624 
L 355.907054 -34.858933 
L 354.209527 -34.865667 
L 352.512 -34.872829 
L 350.814473 -34.880421 
L 349.116946 -34.888437 
L 347.419419 -34.896872 
L 345.721892 -34.905713 
L 344.024364 -34.914946 
L 342.326837 -34.924552 
L 340.62931 -34.934507 
L 338.931783 -34.944783 
L 337.234256 -34.955349 
L 335.536729 -34.966169 
L 333.839202 -34.977203 
L 332.141675 -34.988408 
L 330.444147 -34.999739 
L 328.74662 -35.011147 
L 327.049093 -35.022581 
L 325.351566 -35.03399 
L 323.654039 -35.04532 
L 321.956512 -35.056518 
L 320.258985 -35.067532 
L 318.561458 -35.078311 
L 316.863931 -35.088806 
L 315.166403 -35.09897 
L 313.468876 -35.108762 
L 311.771349 -35.118144 
L 310.073822 -35.127082 
L 308.376295 -35.135551 
L 306.678768 -35.143529 
L 304.981241 -35.151004 
L 303.283714 -35.157968 
L 301.586186 -35.164424 
L 299.888659 -35.17038 
L 298.191132 -35.175854 
L 296.493605 -35.180871 
L 294.796078 -35.185465 
L 293.098551 -35.189674 
L 291.401024 -35.193548 
L 289.703497 -35.197139 
L 288.005969 -35.200508 
L 286.308442 -35.20372 
L 284.610915 -35.206845 
L 282.913388 -35.209955 
L 281.215861 -35.213126 
L 279.518334 -35.216435 
L 277.820807 -35.219958 
L 276.12328 -35.223772 
L 274.425752 -35.227952 
L 272.728225 -35.232569 
L 271.030698 -35.23769 
L 269.333171 -35.243379 
L 267.635644 -35.249692 
L 265.938117 -35.256678 
L 264.24059 -35.264379 
L 262.543063 -35.272828 
L 260.845535 -35.28205 
L 259.148008 -35.292059 
L 257.450481 -35.30286 
L 255.752954 -35.314447 
L 254.055427 -35.326804 
L 252.3579 -35.339904 
L 250.660373 -35.353711 
L 248.962846 -35.368177 
L 247.265318 -35.383246 
L 245.567791 -35.398852 
L 243.870264 -35.414921 
L 242.172737 -35.43137 
L 240.47521 -35.44811 
L 238.777683 -35.465045 
L 237.080156 -35.482074 
L 235.382629 -35.499094 
L 233.685101 -35.515996 
L 231.987574 -35.532671 
L 230.290047 -35.549007 
L 228.59252 -35.564896 
L 226.894993 -35.58023 
L 225.197466 -35.594902 
L 223.499939 -35.608811 
L 221.802412 -35.621861 
L 220.104884 -35.633961 
L 218.407357 -35.645026 
L 216.70983 -35.654981 
L 215.012303 -35.663757 
L 213.314776 -35.671295 
L 211.617249 -35.677544 
L 209.919722 -35.682463 
L 208.222195 -35.686023 
L 206.524667 -35.688201 
L 204.82714 -35.688987 
L 203.129613 -35.688378 
L 201.432086 -35.686382 
L 199.734559 -35.683016 
L 198.037032 -35.678303 
L 196.339505 -35.672277 
L 194.641978 -35.664977 
L 192.94445 -35.656448 
L 191.246923 -35.646743 
L 189.549396 -35.635917 
L 187.851869 -35.624031 
L 186.154342 -35.611148 
L 184.456815 -35.597334 
L 182.759288 -35.582657 
L 181.061761 -35.567186 
L 179.364233 -35.55099 
L 177.666706 -35.534138 
L 175.969179 -35.516698 
L 174.271652 -35.498737 
L 172.574125 -35.48032 
L 170.876598 -35.461512 
L 169.179071 -35.442373 
L 167.481544 -35.422963 
L 165.784016 -35.403338 
L 164.086489 -35.383554 
L 162.388962 -35.36366 
L 160.691435 -35.343708 
L 158.993908 -35.323743 
L 157.296381 -35.303811 
L 155.598854 -35.283953 
L 153.901327 -35.264211 
L 152.2038 -35.244623 
L 150.506272 -35.225224 
L 148.808745 -35.20605 
L 147.111218 -35.187134 
L 145.413691 -35.168506 
L 143.716164 -35.150198 
L 142.018637 -35.132237 
L 140.32111 -35.114649 
L 138.623583 -35.09746 
L 136.926055 -35.080693 
L 135.228528 -35.06437 
L 133.531001 -35.04851 
L 131.833474 -35.033132 
L 130.135947 -35.018252 
L 128.43842 -35.003885 
L 126.740893 -34.990042 
L 125.043366 -34.976734 
L 123.345838 -34.963968 
L 121.648311 -34.951751 
L 119.950784 -34.940086 
L 118.253257 -34.928974 
L 116.55573 -34.918415 
L 114.858203 -34.908404 
L 113.160676 -34.898938 
L 111.463149 -34.890009 
L 109.765621 -34.881607 
L 108.068094 -34.873723 
L 106.370567 -34.866342 
L 104.67304 -34.859451 
L 102.975513 -34.853034 
L 101.277986 -34.847075 
L 99.580459 -34.841556 
L 97.882932 -34.836457 
L 96.185404 -34.831761 
L 94.487877 -34.827446 
L 92.79035 -34.823492 
L 91.092823 -34.81988 
L 89.395296 -34.816589 
L 87.697769 -34.813599 
L 86.000242 -34.81089 
L 84.302715 -34.808442 
L 82.605187 -34.806236 
L 80.90766 -34.804254 
L 79.210133 -34.802479 
L 77.512606 -34.800893 
L 75.815079 -34.79948 
L 74.117552 -34.798224 
L 72.420025 -34.797112 
L 70.722498 -34.79613 
L 69.02497 -34.795265 
L 67.327443 -34.794505 
L 65.629916 -34.793839 
L 63.932389 -34.793258 
L 62.234862 -34.792752 
L 60.537335 -34.792312 
L 58.839808 -34.791932 
z
" style="stroke: #dd8452; stroke-width: 1.5"/>
    </defs>
    <g clip-path="url(#p73ad3e8b56)">
     <use xlink:href="#m9628a98c0a" x="0" y="336.209766" style="fill: #dd8452; fill-opacity: 0.25; stroke: #dd8452; stroke-width: 1.5"/>
    </g>
   </g>
   <g id="PolyCollection_2">
    <defs>
     <path id="m14028d77fc" d="M 36.95001 -34.803979 
L 36.95001 -34.789766 
L 37.122155 -34.789766 
L 37.294301 -34.789766 
L 37.466446 -34.789766 
L 37.638591 -34.789766 
L 37.810736 -34.789766 
L 37.982881 -34.789766 
L 38.155026 -34.789766 
L 38.327171 -34.789766 
L 38.499316 -34.789766 
L 38.671461 -34.789766 
L 38.843606 -34.789766 
L 39.015751 -34.789766 
L 39.187896 -34.789766 
L 39.360042 -34.789766 
L 39.532187 -34.789766 
L 39.704332 -34.789766 
L 39.876477 -34.789766 
L 40.048622 -34.789766 
L 40.220767 -34.789766 
L 40.392912 -34.789766 
L 40.565057 -34.789766 
L 40.737202 -34.789766 
L 40.909347 -34.789766 
L 41.081492 -34.789766 
L 41.253637 -34.789766 
L 41.425783 -34.789766 
L 41.597928 -34.789766 
L 41.770073 -34.789766 
L 41.942218 -34.789766 
L 42.114363 -34.789766 
L 42.286508 -34.789766 
L 42.458653 -34.789766 
L 42.630798 -34.789766 
L 42.802943 -34.789766 
L 42.975088 -34.789766 
L 43.147233 -34.789766 
L 43.319378 -34.789766 
L 43.491524 -34.789766 
L 43.663669 -34.789766 
L 43.835814 -34.789766 
L 44.007959 -34.789766 
L 44.180104 -34.789766 
L 44.352249 -34.789766 
L 44.524394 -34.789766 
L 44.696539 -34.789766 
L 44.868684 -34.789766 
L 45.040829 -34.789766 
L 45.212974 -34.789766 
L 45.38512 -34.789766 
L 45.557265 -34.789766 
L 45.72941 -34.789766 
L 45.901555 -34.789766 
L 46.0737 -34.789766 
L 46.245845 -34.789766 
L 46.41799 -34.789766 
L 46.590135 -34.789766 
L 46.76228 -34.789766 
L 46.934425 -34.789766 
L 47.10657 -34.789766 
L 47.278715 -34.789766 
L 47.450861 -34.789766 
L 47.623006 -34.789766 
L 47.795151 -34.789766 
L 47.967296 -34.789766 
L 48.139441 -34.789766 
L 48.311586 -34.789766 
L 48.483731 -34.789766 
L 48.655876 -34.789766 
L 48.828021 -34.789766 
L 49.000166 -34.789766 
L 49.172311 -34.789766 
L 49.344456 -34.789766 
L 49.516602 -34.789766 
L 49.688747 -34.789766 
L 49.860892 -34.789766 
L 50.033037 -34.789766 
L 50.205182 -34.789766 
L 50.377327 -34.789766 
L 50.549472 -34.789766 
L 50.721617 -34.789766 
L 50.893762 -34.789766 
L 51.065907 -34.789766 
L 51.238052 -34.789766 
L 51.410197 -34.789766 
L 51.582343 -34.789766 
L 51.754488 -34.789766 
L 51.926633 -34.789766 
L 52.098778 -34.789766 
L 52.270923 -34.789766 
L 52.443068 -34.789766 
L 52.615213 -34.789766 
L 52.787358 -34.789766 
L 52.959503 -34.789766 
L 53.131648 -34.789766 
L 53.303793 -34.789766 
L 53.475938 -34.789766 
L 53.648084 -34.789766 
L 53.820229 -34.789766 
L 53.992374 -34.789766 
L 54.164519 -34.789766 
L 54.336664 -34.789766 
L 54.508809 -34.789766 
L 54.680954 -34.789766 
L 54.853099 -34.789766 
L 55.025244 -34.789766 
L 55.197389 -34.789766 
L 55.369534 -34.789766 
L 55.541679 -34.789766 
L 55.713825 -34.789766 
L 55.88597 -34.789766 
L 56.058115 -34.789766 
L 56.23026 -34.789766 
L 56.402405 -34.789766 
L 56.57455 -34.789766 
L 56.746695 -34.789766 
L 56.91884 -34.789766 
L 57.090985 -34.789766 
L 57.26313 -34.789766 
L 57.435275 -34.789766 
L 57.607421 -34.789766 
L 57.779566 -34.789766 
L 57.951711 -34.789766 
L 58.123856 -34.789766 
L 58.296001 -34.789766 
L 58.468146 -34.789766 
L 58.640291 -34.789766 
L 58.812436 -34.789766 
L 58.984581 -34.789766 
L 59.156726 -34.789766 
L 59.328871 -34.789766 
L 59.501016 -34.789766 
L 59.673162 -34.789766 
L 59.845307 -34.789766 
L 60.017452 -34.789766 
L 60.189597 -34.789766 
L 60.361742 -34.789766 
L 60.533887 -34.789766 
L 60.706032 -34.789766 
L 60.878177 -34.789766 
L 61.050322 -34.789766 
L 61.222467 -34.789766 
L 61.394612 -34.789766 
L 61.566757 -34.789766 
L 61.738903 -34.789766 
L 61.911048 -34.789766 
L 62.083193 -34.789766 
L 62.255338 -34.789766 
L 62.427483 -34.789766 
L 62.599628 -34.789766 
L 62.771773 -34.789766 
L 62.943918 -34.789766 
L 63.116063 -34.789766 
L 63.288208 -34.789766 
L 63.460353 -34.789766 
L 63.632498 -34.789766 
L 63.804644 -34.789766 
L 63.976789 -34.789766 
L 64.148934 -34.789766 
L 64.321079 -34.789766 
L 64.493224 -34.789766 
L 64.665369 -34.789766 
L 64.837514 -34.789766 
L 65.009659 -34.789766 
L 65.181804 -34.789766 
L 65.353949 -34.789766 
L 65.526094 -34.789766 
L 65.698239 -34.789766 
L 65.870385 -34.789766 
L 66.04253 -34.789766 
L 66.214675 -34.789766 
L 66.38682 -34.789766 
L 66.558965 -34.789766 
L 66.73111 -34.789766 
L 66.903255 -34.789766 
L 67.0754 -34.789766 
L 67.247545 -34.789766 
L 67.41969 -34.789766 
L 67.591835 -34.789766 
L 67.76398 -34.789766 
L 67.936126 -34.789766 
L 68.108271 -34.789766 
L 68.280416 -34.789766 
L 68.452561 -34.789766 
L 68.624706 -34.789766 
L 68.796851 -34.789766 
L 68.968996 -34.789766 
L 69.141141 -34.789766 
L 69.313286 -34.789766 
L 69.485431 -34.789766 
L 69.657576 -34.789766 
L 69.829722 -34.789766 
L 70.001867 -34.789766 
L 70.174012 -34.789766 
L 70.346157 -34.789766 
L 70.518302 -34.789766 
L 70.690447 -34.789766 
L 70.862592 -34.789766 
L 71.034737 -34.789766 
L 71.206882 -34.789766 
L 71.206882 -34.818187 
L 71.206882 -34.818187 
L 71.034737 -34.821879 
L 70.862592 -34.82599 
L 70.690447 -34.830559 
L 70.518302 -34.835628 
L 70.346157 -34.841239 
L 70.174012 -34.84744 
L 70.001867 -34.85428 
L 69.829722 -34.861809 
L 69.657576 -34.870083 
L 69.485431 -34.879156 
L 69.313286 -34.889087 
L 69.141141 -34.899937 
L 68.968996 -34.911767 
L 68.796851 -34.924641 
L 68.624706 -34.938623 
L 68.452561 -34.953778 
L 68.280416 -34.970174 
L 68.108271 -34.987877 
L 67.936126 -35.006952 
L 67.76398 -35.027464 
L 67.591835 -35.049478 
L 67.41969 -35.073055 
L 67.247545 -35.098255 
L 67.0754 -35.125134 
L 66.903255 -35.153745 
L 66.73111 -35.184136 
L 66.558965 -35.216349 
L 66.38682 -35.250421 
L 66.214675 -35.286383 
L 66.04253 -35.324258 
L 65.870385 -35.36406 
L 65.698239 -35.405796 
L 65.526094 -35.449462 
L 65.353949 -35.495044 
L 65.181804 -35.542519 
L 65.009659 -35.591851 
L 64.837514 -35.642993 
L 64.665369 -35.695887 
L 64.493224 -35.750459 
L 64.321079 -35.806628 
L 64.148934 -35.864294 
L 63.976789 -35.923349 
L 63.804644 -35.983671 
L 63.632498 -36.045124 
L 63.460353 -36.107562 
L 63.288208 -36.170826 
L 63.116063 -36.234746 
L 62.943918 -36.299143 
L 62.771773 -36.363826 
L 62.599628 -36.428598 
L 62.427483 -36.493253 
L 62.255338 -36.55758 
L 62.083193 -36.62136 
L 61.911048 -36.684375 
L 61.738903 -36.746402 
L 61.566757 -36.807218 
L 61.394612 -36.866601 
L 61.222467 -36.924333 
L 61.050322 -36.980199 
L 60.878177 -37.03399 
L 60.706032 -37.085507 
L 60.533887 -37.134557 
L 60.361742 -37.180962 
L 60.189597 -37.224555 
L 60.017452 -37.26518 
L 59.845307 -37.302702 
L 59.673162 -37.336999 
L 59.501016 -37.367967 
L 59.328871 -37.395522 
L 59.156726 -37.419598 
L 58.984581 -37.440151 
L 58.812436 -37.457154 
L 58.640291 -37.470605 
L 58.468146 -37.480519 
L 58.296001 -37.486934 
L 58.123856 -37.489908 
L 57.951711 -37.489516 
L 57.779566 -37.485856 
L 57.607421 -37.47904 
L 57.435275 -37.469199 
L 57.26313 -37.456479 
L 57.090985 -37.44104 
L 56.91884 -37.423054 
L 56.746695 -37.402706 
L 56.57455 -37.380186 
L 56.402405 -37.355695 
L 56.23026 -37.329438 
L 56.058115 -37.301622 
L 55.88597 -37.272458 
L 55.713825 -37.242153 
L 55.541679 -37.210915 
L 55.369534 -37.178945 
L 55.197389 -37.14644 
L 55.025244 -37.113587 
L 54.853099 -37.080566 
L 54.680954 -37.047543 
L 54.508809 -37.014675 
L 54.336664 -36.982105 
L 54.164519 -36.94996 
L 53.992374 -36.918353 
L 53.820229 -36.887382 
L 53.648084 -36.857129 
L 53.475938 -36.827658 
L 53.303793 -36.799018 
L 53.131648 -36.771242 
L 52.959503 -36.744347 
L 52.787358 -36.718333 
L 52.615213 -36.693188 
L 52.443068 -36.668884 
L 52.270923 -36.64538 
L 52.098778 -36.622624 
L 51.926633 -36.600554 
L 51.754488 -36.579097 
L 51.582343 -36.558172 
L 51.410197 -36.537691 
L 51.238052 -36.517563 
L 51.065907 -36.49769 
L 50.893762 -36.477974 
L 50.721617 -36.458314 
L 50.549472 -36.438611 
L 50.377327 -36.418766 
L 50.205182 -36.398686 
L 50.033037 -36.378279 
L 49.860892 -36.357459 
L 49.688747 -36.336148 
L 49.516602 -36.314274 
L 49.344456 -36.291772 
L 49.172311 -36.268587 
L 49.000166 -36.244674 
L 48.828021 -36.219995 
L 48.655876 -36.194523 
L 48.483731 -36.168243 
L 48.311586 -36.141146 
L 48.139441 -36.113236 
L 47.967296 -36.084526 
L 47.795151 -36.055038 
L 47.623006 -36.024803 
L 47.450861 -35.99386 
L 47.278715 -35.962257 
L 47.10657 -35.930048 
L 46.934425 -35.897295 
L 46.76228 -35.864064 
L 46.590135 -35.830428 
L 46.41799 -35.79646 
L 46.245845 -35.762242 
L 46.0737 -35.727854 
L 45.901555 -35.69338 
L 45.72941 -35.658903 
L 45.557265 -35.624508 
L 45.38512 -35.590277 
L 45.212974 -35.556293 
L 45.040829 -35.522635 
L 44.868684 -35.489379 
L 44.696539 -35.456601 
L 44.524394 -35.424368 
L 44.352249 -35.392747 
L 44.180104 -35.361798 
L 44.007959 -35.331578 
L 43.835814 -35.302138 
L 43.663669 -35.273521 
L 43.491524 -35.24577 
L 43.319378 -35.218917 
L 43.147233 -35.192992 
L 42.975088 -35.168019 
L 42.802943 -35.144014 
L 42.630798 -35.120992 
L 42.458653 -35.098959 
L 42.286508 -35.077918 
L 42.114363 -35.057868 
L 41.942218 -35.038803 
L 41.770073 -35.020712 
L 41.597928 -35.003582 
L 41.425783 -34.987395 
L 41.253637 -34.97213 
L 41.081492 -34.957766 
L 40.909347 -34.944277 
L 40.737202 -34.931634 
L 40.565057 -34.91981 
L 40.392912 -34.908772 
L 40.220767 -34.89849 
L 40.048622 -34.888931 
L 39.876477 -34.880062 
L 39.704332 -34.871848 
L 39.532187 -34.864257 
L 39.360042 -34.857256 
L 39.187896 -34.85081 
L 39.015751 -34.844887 
L 38.843606 -34.839456 
L 38.671461 -34.834485 
L 38.499316 -34.829944 
L 38.327171 -34.825804 
L 38.155026 -34.822036 
L 37.982881 -34.818614 
L 37.810736 -34.815511 
L 37.638591 -34.812704 
L 37.466446 -34.810169 
L 37.294301 -34.807883 
L 37.122155 -34.805826 
L 36.95001 -34.803979 
z
" style="stroke: #4c72b0; stroke-width: 1.5"/>
    </defs>
    <g clip-path="url(#p73ad3e8b56)">
     <use xlink:href="#m14028d77fc" x="0" y="336.209766" style="fill: #4c72b0; fill-opacity: 0.25; stroke: #4c72b0; stroke-width: 1.5"/>
    </g>
   </g>
   <g id="patch_3">
    <path d="M 49.548047 301.42 
L 99.684467 301.42 
L 99.684467 301.42 
L 49.548047 301.42 
z
" clip-path="url(#p73ad3e8b56)" style="fill: #dd8452; fill-opacity: 0.5; stroke: #ffffff; stroke-width: 1.5; stroke-linejoin: miter"/>
   </g>
   <g id="patch_4">
    <path d="M 99.684467 301.42 
L 149.820887 301.42 
L 149.820887 301.42 
L 99.684467 301.42 
z
" clip-path="url(#p73ad3e8b56)" style="fill: #dd8452; fill-opacity: 0.5; stroke: #ffffff; stroke-width: 1.5; stroke-linejoin: miter"/>
   </g>
   <g id="patch_5">
    <path d="M 149.820887 301.42 
L 199.957307 301.42 
L 199.957307 194.430909 
L 149.820887 194.430909 
z
" clip-path="url(#p73ad3e8b56)" style="fill: #dd8452; fill-opacity: 0.5; stroke: #ffffff; stroke-width: 1.5; stroke-linejoin: miter"/>
   </g>
   <g id="patch_6">
    <path d="M 199.957307 301.42 
L 250.093727 301.42 
L 250.093727 33.947273 
L 199.957307 33.947273 
z
" clip-path="url(#p73ad3e8b56)" style="fill: #dd8452; fill-opacity: 0.5; stroke: #ffffff; stroke-width: 1.5; stroke-linejoin: miter"/>
   </g>
   <g id="patch_7">
    <path d="M 250.093727 301.42 
L 300.230147 301.42 
L 300.230147 194.430909 
L 250.093727 194.430909 
z
" clip-path="url(#p73ad3e8b56)" style="fill: #dd8452; fill-opacity: 0.5; stroke: #ffffff; stroke-width: 1.5; stroke-linejoin: miter"/>
   </g>
   <g id="patch_8">
    <path d="M 49.548047 301.42 
L 99.684467 301.42 
L 99.684467 140.936364 
L 49.548047 140.936364 
z
" clip-path="url(#p73ad3e8b56)" style="fill: #4c72b0; fill-opacity: 0.5; stroke: #ffffff; stroke-width: 1.5; stroke-linejoin: miter"/>
   </g>
   <g id="patch_9">
    <path d="M 99.684467 301.42 
L 149.820887 301.42 
L 149.820887 301.42 
L 99.684467 301.42 
z
" clip-path="url(#p73ad3e8b56)" style="fill: #4c72b0; fill-opacity: 0.5; stroke: #ffffff; stroke-width: 1.5; stroke-linejoin: miter"/>
   </g>
   <g id="patch_10">
    <path d="M 149.820887 301.42 
L 199.957307 301.42 
L 199.957307 301.42 
L 149.820887 301.42 
z
" clip-path="url(#p73ad3e8b56)" style="fill: #4c72b0; fill-opacity: 0.5; stroke: #ffffff; stroke-width: 1.5; stroke-linejoin: miter"/>
   </g>
   <g id="patch_11">
    <path d="M 199.957307 301.42 
L 250.093727 301.42 
L 250.093727 301.42 
L 199.957307 301.42 
z
" clip-path="url(#p73ad3e8b56)" style="fill: #4c72b0; fill-opacity: 0.5; stroke: #ffffff; stroke-width: 1.5; stroke-linejoin: miter"/>
   </g>
   <g id="patch_12">
    <path d="M 250.093727 301.42 
L 300.230147 301.42 
L 300.230147 301.42 
L 250.093727 301.42 
z
" clip-path="url(#p73ad3e8b56)" style="fill: #4c72b0; fill-opacity: 0.5; stroke: #ffffff; stroke-width: 1.5; stroke-linejoin: miter"/>
   </g>
   <g id="LineCollection_1">
    <path d="M 58.608846 301.42 
L 58.608846 294.0645 
" clip-path="url(#p73ad3e8b56)" style="fill: none; stroke: #4c72b0"/>
    <path d="M 58.608846 301.42 
L 58.608846 294.0645 
" clip-path="url(#p73ad3e8b56)" style="fill: none; stroke: #4c72b0"/>
    <path d="M 49.548047 301.42 
L 49.548047 294.0645 
" clip-path="url(#p73ad3e8b56)" style="fill: none; stroke: #4c72b0"/>
    <path d="M 155.257366 301.42 
L 155.257366 294.0645 
" clip-path="url(#p73ad3e8b56)" style="fill: none; stroke: #dd8452"/>
    <path d="M 242.845088 301.42 
L 242.845088 294.0645 
" clip-path="url(#p73ad3e8b56)" style="fill: none; stroke: #dd8452"/>
    <path d="M 206.601893 301.42 
L 206.601893 294.0645 
" clip-path="url(#p73ad3e8b56)" style="fill: none; stroke: #dd8452"/>
    <path d="M 200.56136 301.42 
L 200.56136 294.0645 
" clip-path="url(#p73ad3e8b56)" style="fill: none; stroke: #dd8452"/>
    <path d="M 212.642425 301.42 
L 212.642425 294.0645 
" clip-path="url(#p73ad3e8b56)" style="fill: none; stroke: #dd8452"/>
    <path d="M 173.378964 301.42 
L 173.378964 294.0645 
" clip-path="url(#p73ad3e8b56)" style="fill: none; stroke: #dd8452"/>
    <path d="M 300.230147 301.42 
L 300.230147 294.0645 
" clip-path="url(#p73ad3e8b56)" style="fill: none; stroke: #dd8452"/>
    <path d="M 297.209881 301.42 
L 297.209881 294.0645 
" clip-path="url(#p73ad3e8b56)" style="fill: none; stroke: #dd8452"/>
    <path d="M 212.642425 301.42 
L 212.642425 294.0645 
" clip-path="url(#p73ad3e8b56)" style="fill: none; stroke: #dd8452"/>
   </g>
   <g id="patch_13">
    <path d="M 49.548047 301.42 
L 49.548047 7.2 
" style="fill: none; stroke: #262626; stroke-width: 1.875; stroke-linejoin: miter; stroke-linecap: square"/>
   </g>
   <g id="patch_14">
    <path d="M 49.548047 301.42 
L 300.230147 301.42 
" style="fill: none; stroke: #262626; stroke-width: 1.875; stroke-linejoin: miter; stroke-linecap: square"/>
   </g>
  </g>
  <g id="legend_1">
   <g id="patch_15">
    <path d="M 322.157578 160.512305 
L 355.157578 160.512305 
L 355.157578 148.962305 
L 322.157578 148.962305 
z
" style="fill: #4c72b0; fill-opacity: 0.25; stroke: #4c72b0; stroke-width: 1.5; stroke-linejoin: miter"/>
   </g>
   <g id="text_12">
    <!-- KILO-edByte -->
    <g style="fill: #262626" transform="translate(368.357578 160.512305) scale(0.165 -0.165)">
     <defs>
      <path id="ArialMT-4b" d="M 469 0 
L 469 4581 
L 1075 4581 
L 1075 2309 
L 3350 4581 
L 4172 4581 
L 2250 2725 
L 4256 0 
L 3456 0 
L 1825 2319 
L 1075 1588 
L 1075 0 
L 469 0 
z
" transform="scale(0.015625)"/>
      <path id="ArialMT-49" d="M 597 0 
L 597 4581 
L 1203 4581 
L 1203 0 
L 597 0 
z
" transform="scale(0.015625)"/>
      <path id="ArialMT-4c" d="M 469 0 
L 469 4581 
L 1075 4581 
L 1075 541 
L 3331 541 
L 3331 0 
L 469 0 
z
" transform="scale(0.015625)"/>
      <path id="ArialMT-4f" d="M 309 2231 
Q 309 3372 921 4017 
Q 1534 4663 2503 4663 
Q 3138 4663 3647 4359 
Q 4156 4056 4423 3514 
Q 4691 2972 4691 2284 
Q 4691 1588 4409 1038 
Q 4128 488 3612 205 
Q 3097 -78 2500 -78 
Q 1853 -78 1343 234 
Q 834 547 571 1087 
Q 309 1628 309 2231 
z
M 934 2222 
Q 934 1394 1379 917 
Q 1825 441 2497 441 
Q 3181 441 3623 922 
Q 4066 1403 4066 2288 
Q 4066 2847 3877 3264 
Q 3688 3681 3323 3911 
Q 2959 4141 2506 4141 
Q 1863 4141 1398 3698 
Q 934 3256 934 2222 
z
" transform="scale(0.015625)"/>
      <path id="ArialMT-2d" d="M 203 1375 
L 203 1941 
L 1931 1941 
L 1931 1375 
L 203 1375 
z
" transform="scale(0.015625)"/>
      <path id="ArialMT-64" d="M 2575 0 
L 2575 419 
Q 2259 -75 1647 -75 
Q 1250 -75 917 144 
Q 584 363 401 755 
Q 219 1147 219 1656 
Q 219 2153 384 2558 
Q 550 2963 881 3178 
Q 1213 3394 1622 3394 
Q 1922 3394 2156 3267 
Q 2391 3141 2538 2938 
L 2538 4581 
L 3097 4581 
L 3097 0 
L 2575 0 
z
M 797 1656 
Q 797 1019 1065 703 
Q 1334 388 1700 388 
Q 2069 388 2326 689 
Q 2584 991 2584 1609 
Q 2584 2291 2321 2609 
Q 2059 2928 1675 2928 
Q 1300 2928 1048 2622 
Q 797 2316 797 1656 
z
" transform="scale(0.015625)"/>
      <path id="ArialMT-42" d="M 469 0 
L 469 4581 
L 2188 4581 
Q 2713 4581 3030 4442 
Q 3347 4303 3526 4014 
Q 3706 3725 3706 3409 
Q 3706 3116 3547 2856 
Q 3388 2597 3066 2438 
Q 3481 2316 3704 2022 
Q 3928 1728 3928 1328 
Q 3928 1006 3792 729 
Q 3656 453 3456 303 
Q 3256 153 2954 76 
Q 2653 0 2216 0 
L 469 0 
z
M 1075 2656 
L 2066 2656 
Q 2469 2656 2644 2709 
Q 2875 2778 2992 2937 
Q 3109 3097 3109 3338 
Q 3109 3566 3000 3739 
Q 2891 3913 2687 3977 
Q 2484 4041 1991 4041 
L 1075 4041 
L 1075 2656 
z
M 1075 541 
L 2216 541 
Q 2509 541 2628 563 
Q 2838 600 2978 687 
Q 3119 775 3209 942 
Q 3300 1109 3300 1328 
Q 3300 1584 3169 1773 
Q 3038 1963 2805 2039 
Q 2572 2116 2134 2116 
L 1075 2116 
L 1075 541 
z
" transform="scale(0.015625)"/>
     </defs>
     <use xlink:href="#ArialMT-4b"/>
     <use xlink:href="#ArialMT-49" x="66.699219"/>
     <use xlink:href="#ArialMT-4c" x="94.482422"/>
     <use xlink:href="#ArialMT-4f" x="150.097656"/>
     <use xlink:href="#ArialMT-2d" x="227.880859"/>
     <use xlink:href="#ArialMT-65" x="261.181641"/>
     <use xlink:href="#ArialMT-64" x="316.796875"/>
     <use xlink:href="#ArialMT-42" x="372.412109"/>
     <use xlink:href="#ArialMT-79" x="439.111328"/>
     <use xlink:href="#ArialMT-74" x="489.111328"/>
     <use xlink:href="#ArialMT-65" x="516.894531"/>
    </g>
   </g>
   <g id="patch_16">
    <path d="M 322.157578 184.246523 
L 355.157578 184.246523 
L 355.157578 172.696523 
L 322.157578 172.696523 
z
" style="fill: #dd8452; fill-opacity: 0.25; stroke: #dd8452; stroke-width: 1.5; stroke-linejoin: miter"/>
   </g>
   <g id="text_13">
    <!-- MEGA-edByte -->
    <g style="fill: #262626" transform="translate(368.357578 184.246523) scale(0.165 -0.165)">
     <defs>
      <path id="ArialMT-4d" d="M 475 0 
L 475 4581 
L 1388 4581 
L 2472 1338 
Q 2622 884 2691 659 
Q 2769 909 2934 1394 
L 4031 4581 
L 4847 4581 
L 4847 0 
L 4263 0 
L 4263 3834 
L 2931 0 
L 2384 0 
L 1059 3900 
L 1059 0 
L 475 0 
z
" transform="scale(0.015625)"/>
      <path id="ArialMT-45" d="M 506 0 
L 506 4581 
L 3819 4581 
L 3819 4041 
L 1113 4041 
L 1113 2638 
L 3647 2638 
L 3647 2100 
L 1113 2100 
L 1113 541 
L 3925 541 
L 3925 0 
L 506 0 
z
" transform="scale(0.015625)"/>
      <path id="ArialMT-47" d="M 2638 1797 
L 2638 2334 
L 4578 2338 
L 4578 638 
Q 4131 281 3656 101 
Q 3181 -78 2681 -78 
Q 2006 -78 1454 211 
Q 903 500 622 1047 
Q 341 1594 341 2269 
Q 341 2938 620 3517 
Q 900 4097 1425 4378 
Q 1950 4659 2634 4659 
Q 3131 4659 3532 4498 
Q 3934 4338 4162 4050 
Q 4391 3763 4509 3300 
L 3963 3150 
Q 3859 3500 3706 3700 
Q 3553 3900 3268 4020 
Q 2984 4141 2638 4141 
Q 2222 4141 1919 4014 
Q 1616 3888 1430 3681 
Q 1244 3475 1141 3228 
Q 966 2803 966 2306 
Q 966 1694 1177 1281 
Q 1388 869 1791 669 
Q 2194 469 2647 469 
Q 3041 469 3416 620 
Q 3791 772 3984 944 
L 3984 1797 
L 2638 1797 
z
" transform="scale(0.015625)"/>
      <path id="ArialMT-41" d="M -9 0 
L 1750 4581 
L 2403 4581 
L 4278 0 
L 3588 0 
L 3053 1388 
L 1138 1388 
L 634 0 
L -9 0 
z
M 1313 1881 
L 2866 1881 
L 2388 3150 
Q 2169 3728 2063 4100 
Q 1975 3659 1816 3225 
L 1313 1881 
z
" transform="scale(0.015625)"/>
     </defs>
     <use xlink:href="#ArialMT-4d"/>
     <use xlink:href="#ArialMT-45" x="83.300781"/>
     <use xlink:href="#ArialMT-47" x="150"/>
     <use xlink:href="#ArialMT-41" x="227.783203"/>
     <use xlink:href="#ArialMT-2d" x="294.482422"/>
     <use xlink:href="#ArialMT-65" x="327.783203"/>
     <use xlink:href="#ArialMT-64" x="383.398438"/>
     <use xlink:href="#ArialMT-42" x="439.013672"/>
     <use xlink:href="#ArialMT-79" x="505.712891"/>
     <use xlink:href="#ArialMT-74" x="555.712891"/>
     <use xlink:href="#ArialMT-65" x="583.496094"/>
    </g>
   </g>
  </g>
 </g>
 <defs>
  <clipPath id="p73ad3e8b56">
   <rect x="49.548047" y="7.2" width="250.6821" height="294.22"/>
  </clipPath>
 </defs>
</svg>
