<?xml version="1.0" encoding="utf-8" standalone="no"?>
<!DOCTYPE svg PUBLIC "-//W3C//DTD SVG 1.1//EN"
  "http://www.w3.org/Graphics/SVG/1.1/DTD/svg11.dtd">
<svg xmlns:xlink="http://www.w3.org/1999/xlink" width="488.658047pt" height="336.209766pt" viewBox="0 0 488.658047 336.209766" xmlns="http://www.w3.org/2000/svg" version="1.1">
 <metadata>
  <rdf:RDF xmlns:dc="http://purl.org/dc/elements/1.1/" xmlns:cc="http://creativecommons.org/ns#" xmlns:rdf="http://www.w3.org/1999/02/22-rdf-syntax-ns#">
   <cc:Work>
    <dc:type rdf:resource="http://purl.org/dc/dcmitype/StillImage"/>
    <dc:date>2023-11-16T23:06:48.979577</dc:date>
    <dc:format>image/svg+xml</dc:format>
    <dc:creator>
     <cc:Agent>
      <dc:title>Matplotlib v3.8.0, https://matplotlib.org/</dc:title>
     </cc:Agent>
    </dc:creator>
   </cc:Work>
  </rdf:RDF>
 </metadata>
 <defs>
  <style type="text/css">*{stroke-linejoin: round; stroke-linecap: butt}</style>
 </defs>
 <g id="figure_1">
  <g id="patch_1">
   <path d="M 0 336.209766 
L 488.658047 336.209766 
L 488.658047 0 
L 0 0 
z
" style="fill: #ffffff"/>
  </g>
  <g id="axes_1">
   <g id="patch_2">
    <path d="M 49.548047 301.42 
L 300.230147 301.42 
L 300.230147 7.2 
L 49.548047 7.2 
z
" style="fill: #ffffff"/>
   </g>
   <g id="matplotlib.axis_1">
    <g id="xtick_1">
     <g id="line2d_1">
      <defs>
       <path id="m5fd47aa17c" d="M 0 0 
L 0 9 
" style="stroke: #262626; stroke-width: 1.875"/>
      </defs>
      <g>
       <use xlink:href="#m5fd47aa17c" x="90.922762" y="301.42" style="fill: #262626; stroke: #262626; stroke-width: 1.875"/>
      </g>
     </g>
     <g id="text_1">
      <!-- 100 -->
      <g style="fill: #262626" transform="translate(77.159442 325.730391) scale(0.165 -0.165)">
       <defs>
        <path id="ArialMT-31" d="M 2384 0 
L 1822 0 
L 1822 3584 
Q 1619 3391 1289 3197 
Q 959 3003 697 2906 
L 697 3450 
Q 1169 3672 1522 3987 
Q 1875 4303 2022 4600 
L 2384 4600 
L 2384 0 
z
" transform="scale(0.015625)"/>
        <path id="ArialMT-30" d="M 266 2259 
Q 266 3072 433 3567 
Q 600 4063 929 4331 
Q 1259 4600 1759 4600 
Q 2128 4600 2406 4451 
Q 2684 4303 2865 4023 
Q 3047 3744 3150 3342 
Q 3253 2941 3253 2259 
Q 3253 1453 3087 958 
Q 2922 463 2592 192 
Q 2263 -78 1759 -78 
Q 1097 -78 719 397 
Q 266 969 266 2259 
z
M 844 2259 
Q 844 1131 1108 757 
Q 1372 384 1759 384 
Q 2147 384 2411 759 
Q 2675 1134 2675 2259 
Q 2675 3391 2411 3762 
Q 2147 4134 1753 4134 
Q 1366 4134 1134 3806 
Q 844 3388 844 2259 
z
" transform="scale(0.015625)"/>
       </defs>
       <use xlink:href="#ArialMT-31"/>
       <use xlink:href="#ArialMT-30" x="55.615234"/>
       <use xlink:href="#ArialMT-30" x="111.230469"/>
      </g>
     </g>
    </g>
    <g id="xtick_2">
     <g id="line2d_2">
      <g>
       <use xlink:href="#m5fd47aa17c" x="151.767932" y="301.42" style="fill: #262626; stroke: #262626; stroke-width: 1.875"/>
      </g>
     </g>
     <g id="text_2">
      <!-- 125 -->
      <g style="fill: #262626" transform="translate(138.004612 325.730391) scale(0.165 -0.165)">
       <defs>
        <path id="ArialMT-32" d="M 3222 541 
L 3222 0 
L 194 0 
Q 188 203 259 391 
Q 375 700 629 1000 
Q 884 1300 1366 1694 
Q 2113 2306 2375 2664 
Q 2638 3022 2638 3341 
Q 2638 3675 2398 3904 
Q 2159 4134 1775 4134 
Q 1369 4134 1125 3890 
Q 881 3647 878 3216 
L 300 3275 
Q 359 3922 746 4261 
Q 1134 4600 1788 4600 
Q 2447 4600 2831 4234 
Q 3216 3869 3216 3328 
Q 3216 3053 3103 2787 
Q 2991 2522 2730 2228 
Q 2469 1934 1863 1422 
Q 1356 997 1212 845 
Q 1069 694 975 541 
L 3222 541 
z
" transform="scale(0.015625)"/>
        <path id="ArialMT-35" d="M 266 1200 
L 856 1250 
Q 922 819 1161 601 
Q 1400 384 1738 384 
Q 2144 384 2425 690 
Q 2706 997 2706 1503 
Q 2706 1984 2436 2262 
Q 2166 2541 1728 2541 
Q 1456 2541 1237 2417 
Q 1019 2294 894 2097 
L 366 2166 
L 809 4519 
L 3088 4519 
L 3088 3981 
L 1259 3981 
L 1013 2750 
Q 1425 3038 1878 3038 
Q 2478 3038 2890 2622 
Q 3303 2206 3303 1553 
Q 3303 931 2941 478 
Q 2500 -78 1738 -78 
Q 1113 -78 717 272 
Q 322 622 266 1200 
z
" transform="scale(0.015625)"/>
       </defs>
       <use xlink:href="#ArialMT-31"/>
       <use xlink:href="#ArialMT-32" x="55.615234"/>
       <use xlink:href="#ArialMT-35" x="111.230469"/>
      </g>
     </g>
    </g>
    <g id="xtick_3">
     <g id="line2d_3">
      <g>
       <use xlink:href="#m5fd47aa17c" x="212.613102" y="301.42" style="fill: #262626; stroke: #262626; stroke-width: 1.875"/>
      </g>
     </g>
     <g id="text_3">
      <!-- 150 -->
      <g style="fill: #262626" transform="translate(198.849782 325.730391) scale(0.165 -0.165)">
       <use xlink:href="#ArialMT-31"/>
       <use xlink:href="#ArialMT-35" x="55.615234"/>
       <use xlink:href="#ArialMT-30" x="111.230469"/>
      </g>
     </g>
    </g>
    <g id="xtick_4">
     <g id="line2d_4">
      <g>
       <use xlink:href="#m5fd47aa17c" x="273.458272" y="301.42" style="fill: #262626; stroke: #262626; stroke-width: 1.875"/>
      </g>
     </g>
     <g id="text_4">
      <!-- 175 -->
      <g style="fill: #262626" transform="translate(259.694952 325.730391) scale(0.165 -0.165)">
       <defs>
        <path id="ArialMT-37" d="M 303 3981 
L 303 4522 
L 3269 4522 
L 3269 4084 
Q 2831 3619 2401 2847 
Q 1972 2075 1738 1259 
Q 1569 684 1522 0 
L 944 0 
Q 953 541 1156 1306 
Q 1359 2072 1739 2783 
Q 2119 3494 2547 3981 
L 303 3981 
z
" transform="scale(0.015625)"/>
       </defs>
       <use xlink:href="#ArialMT-31"/>
       <use xlink:href="#ArialMT-37" x="55.615234"/>
       <use xlink:href="#ArialMT-35" x="111.230469"/>
      </g>
     </g>
    </g>
   </g>
   <g id="matplotlib.axis_2">
    <g id="ytick_1">
     <g id="line2d_5">
      <defs>
       <path id="mcf2d93d123" d="M 0 0 
L -9 0 
" style="stroke: #262626; stroke-width: 1.875"/>
      </defs>
      <g>
       <use xlink:href="#mcf2d93d123" x="49.548047" y="301.42" style="fill: #262626; stroke: #262626; stroke-width: 1.875"/>
      </g>
     </g>
     <g id="text_5">
      <!-- 0 -->
      <g style="fill: #262626" transform="translate(27.8725 307.325195) scale(0.165 -0.165)">
       <use xlink:href="#ArialMT-30"/>
      </g>
     </g>
    </g>
    <g id="ytick_2">
     <g id="line2d_6">
      <g>
       <use xlink:href="#mcf2d93d123" x="49.548047" y="247.925455" style="fill: #262626; stroke: #262626; stroke-width: 1.875"/>
      </g>
     </g>
     <g id="text_6">
      <!-- 1 -->
      <g style="fill: #262626" transform="translate(27.8725 253.83065) scale(0.165 -0.165)">
       <use xlink:href="#ArialMT-31"/>
      </g>
     </g>
    </g>
    <g id="ytick_3">
     <g id="line2d_7">
      <g>
       <use xlink:href="#mcf2d93d123" x="49.548047" y="194.430909" style="fill: #262626; stroke: #262626; stroke-width: 1.875"/>
      </g>
     </g>
     <g id="text_7">
      <!-- 2 -->
      <g style="fill: #262626" transform="translate(27.8725 200.336104) scale(0.165 -0.165)">
       <use xlink:href="#ArialMT-32"/>
      </g>
     </g>
    </g>
    <g id="ytick_4">
     <g id="line2d_8">
      <g>
       <use xlink:href="#mcf2d93d123" x="49.548047" y="140.936364" style="fill: #262626; stroke: #262626; stroke-width: 1.875"/>
      </g>
     </g>
     <g id="text_8">
      <!-- 3 -->
      <g style="fill: #262626" transform="translate(27.8725 146.841559) scale(0.165 -0.165)">
       <defs>
        <path id="ArialMT-33" d="M 269 1209 
L 831 1284 
Q 928 806 1161 595 
Q 1394 384 1728 384 
Q 2125 384 2398 659 
Q 2672 934 2672 1341 
Q 2672 1728 2419 1979 
Q 2166 2231 1775 2231 
Q 1616 2231 1378 2169 
L 1441 2663 
Q 1497 2656 1531 2656 
Q 1891 2656 2178 2843 
Q 2466 3031 2466 3422 
Q 2466 3731 2256 3934 
Q 2047 4138 1716 4138 
Q 1388 4138 1169 3931 
Q 950 3725 888 3313 
L 325 3413 
Q 428 3978 793 4289 
Q 1159 4600 1703 4600 
Q 2078 4600 2393 4439 
Q 2709 4278 2876 4000 
Q 3044 3722 3044 3409 
Q 3044 3113 2884 2869 
Q 2725 2625 2413 2481 
Q 2819 2388 3044 2092 
Q 3269 1797 3269 1353 
Q 3269 753 2831 336 
Q 2394 -81 1725 -81 
Q 1122 -81 723 278 
Q 325 638 269 1209 
z
" transform="scale(0.015625)"/>
       </defs>
       <use xlink:href="#ArialMT-33"/>
      </g>
     </g>
    </g>
    <g id="ytick_5">
     <g id="line2d_9">
      <g>
       <use xlink:href="#mcf2d93d123" x="49.548047" y="87.441818" style="fill: #262626; stroke: #262626; stroke-width: 1.875"/>
      </g>
     </g>
     <g id="text_9">
      <!-- 4 -->
      <g style="fill: #262626" transform="translate(27.8725 93.347013) scale(0.165 -0.165)">
       <defs>
        <path id="ArialMT-34" d="M 2069 0 
L 2069 1097 
L 81 1097 
L 81 1613 
L 2172 4581 
L 2631 4581 
L 2631 1613 
L 3250 1613 
L 3250 1097 
L 2631 1097 
L 2631 0 
L 2069 0 
z
M 2069 1613 
L 2069 3678 
L 634 1613 
L 2069 1613 
z
" transform="scale(0.015625)"/>
       </defs>
       <use xlink:href="#ArialMT-34"/>
      </g>
     </g>
    </g>
    <g id="ytick_6">
     <g id="line2d_10">
      <g>
       <use xlink:href="#mcf2d93d123" x="49.548047" y="33.947273" style="fill: #262626; stroke: #262626; stroke-width: 1.875"/>
      </g>
     </g>
     <g id="text_10">
      <!-- 5 -->
      <g style="fill: #262626" transform="translate(27.8725 39.852468) scale(0.165 -0.165)">
       <use xlink:href="#ArialMT-35"/>
      </g>
     </g>
    </g>
    <g id="text_11">
     <!-- Density -->
     <g style="fill: #262626" transform="translate(20.084063 184.319375) rotate(-90) scale(0.18 -0.18)">
      <defs>
       <path id="ArialMT-44" d="M 494 0 
L 494 4581 
L 2072 4581 
Q 2606 4581 2888 4516 
Q 3281 4425 3559 4188 
Q 3922 3881 4101 3404 
Q 4281 2928 4281 2316 
Q 4281 1794 4159 1391 
Q 4038 988 3847 723 
Q 3656 459 3429 307 
Q 3203 156 2883 78 
Q 2563 0 2147 0 
L 494 0 
z
M 1100 541 
L 2078 541 
Q 2531 541 2789 625 
Q 3047 709 3200 863 
Q 3416 1078 3536 1442 
Q 3656 1806 3656 2325 
Q 3656 3044 3420 3430 
Q 3184 3816 2847 3947 
Q 2603 4041 2063 4041 
L 1100 4041 
L 1100 541 
z
" transform="scale(0.015625)"/>
       <path id="ArialMT-65" d="M 2694 1069 
L 3275 997 
Q 3138 488 2766 206 
Q 2394 -75 1816 -75 
Q 1088 -75 661 373 
Q 234 822 234 1631 
Q 234 2469 665 2931 
Q 1097 3394 1784 3394 
Q 2450 3394 2872 2941 
Q 3294 2488 3294 1666 
Q 3294 1616 3291 1516 
L 816 1516 
Q 847 969 1125 678 
Q 1403 388 1819 388 
Q 2128 388 2347 550 
Q 2566 713 2694 1069 
z
M 847 1978 
L 2700 1978 
Q 2663 2397 2488 2606 
Q 2219 2931 1791 2931 
Q 1403 2931 1139 2672 
Q 875 2413 847 1978 
z
" transform="scale(0.015625)"/>
       <path id="ArialMT-6e" d="M 422 0 
L 422 3319 
L 928 3319 
L 928 2847 
Q 1294 3394 1984 3394 
Q 2284 3394 2536 3286 
Q 2788 3178 2913 3003 
Q 3038 2828 3088 2588 
Q 3119 2431 3119 2041 
L 3119 0 
L 2556 0 
L 2556 2019 
Q 2556 2363 2490 2533 
Q 2425 2703 2258 2804 
Q 2091 2906 1866 2906 
Q 1506 2906 1245 2678 
Q 984 2450 984 1813 
L 984 0 
L 422 0 
z
" transform="scale(0.015625)"/>
       <path id="ArialMT-73" d="M 197 991 
L 753 1078 
Q 800 744 1014 566 
Q 1228 388 1613 388 
Q 2000 388 2187 545 
Q 2375 703 2375 916 
Q 2375 1106 2209 1216 
Q 2094 1291 1634 1406 
Q 1016 1563 777 1677 
Q 538 1791 414 1992 
Q 291 2194 291 2438 
Q 291 2659 392 2848 
Q 494 3038 669 3163 
Q 800 3259 1026 3326 
Q 1253 3394 1513 3394 
Q 1903 3394 2198 3281 
Q 2494 3169 2634 2976 
Q 2775 2784 2828 2463 
L 2278 2388 
Q 2241 2644 2061 2787 
Q 1881 2931 1553 2931 
Q 1166 2931 1000 2803 
Q 834 2675 834 2503 
Q 834 2394 903 2306 
Q 972 2216 1119 2156 
Q 1203 2125 1616 2013 
Q 2213 1853 2448 1751 
Q 2684 1650 2818 1456 
Q 2953 1263 2953 975 
Q 2953 694 2789 445 
Q 2625 197 2315 61 
Q 2006 -75 1616 -75 
Q 969 -75 630 194 
Q 291 463 197 991 
z
" transform="scale(0.015625)"/>
       <path id="ArialMT-69" d="M 425 3934 
L 425 4581 
L 988 4581 
L 988 3934 
L 425 3934 
z
M 425 0 
L 425 3319 
L 988 3319 
L 988 0 
L 425 0 
z
" transform="scale(0.015625)"/>
       <path id="ArialMT-74" d="M 1650 503 
L 1731 6 
Q 1494 -44 1306 -44 
Q 1000 -44 831 53 
Q 663 150 594 308 
Q 525 466 525 972 
L 525 2881 
L 113 2881 
L 113 3319 
L 525 3319 
L 525 4141 
L 1084 4478 
L 1084 3319 
L 1650 3319 
L 1650 2881 
L 1084 2881 
L 1084 941 
Q 1084 700 1114 631 
Q 1144 563 1211 522 
Q 1278 481 1403 481 
Q 1497 481 1650 503 
z
" transform="scale(0.015625)"/>
       <path id="ArialMT-79" d="M 397 -1278 
L 334 -750 
Q 519 -800 656 -800 
Q 844 -800 956 -737 
Q 1069 -675 1141 -563 
Q 1194 -478 1313 -144 
Q 1328 -97 1363 -6 
L 103 3319 
L 709 3319 
L 1400 1397 
Q 1534 1031 1641 628 
Q 1738 1016 1872 1384 
L 2581 3319 
L 3144 3319 
L 1881 -56 
Q 1678 -603 1566 -809 
Q 1416 -1088 1222 -1217 
Q 1028 -1347 759 -1347 
Q 597 -1347 397 -1278 
z
" transform="scale(0.015625)"/>
      </defs>
      <use xlink:href="#ArialMT-44"/>
      <use xlink:href="#ArialMT-65" x="72.216797"/>
      <use xlink:href="#ArialMT-6e" x="127.832031"/>
      <use xlink:href="#ArialMT-73" x="183.447266"/>
      <use xlink:href="#ArialMT-69" x="233.447266"/>
      <use xlink:href="#ArialMT-74" x="255.664062"/>
      <use xlink:href="#ArialMT-79" x="283.447266"/>
     </g>
    </g>
   </g>
   <g id="PolyCollection_1">
    <defs>
     <path id="mf2b5566f10" d="M 82.07172 -34.792291 
L 82.07172 -34.789766 
L 83.432614 -34.789766 
L 84.793509 -34.789766 
L 86.154403 -34.789766 
L 87.515298 -34.789766 
L 88.876192 -34.789766 
L 90.237086 -34.789766 
L 91.597981 -34.789766 
L 92.958875 -34.789766 
L 94.31977 -34.789766 
L 95.680664 -34.789766 
L 97.041559 -34.789766 
L 98.402453 -34.789766 
L 99.763348 -34.789766 
L 101.124242 -34.789766 
L 102.485136 -34.789766 
L 103.846031 -34.789766 
L 105.206925 -34.789766 
L 106.56782 -34.789766 
L 107.928714 -34.789766 
L 109.289609 -34.789766 
L 110.650503 -34.789766 
L 112.011397 -34.789766 
L 113.372292 -34.789766 
L 114.733186 -34.789766 
L 116.094081 -34.789766 
L 117.454975 -34.789766 
L 118.81587 -34.789766 
L 120.176764 -34.789766 
L 121.537658 -34.789766 
L 122.898553 -34.789766 
L 124.259447 -34.789766 
L 125.620342 -34.789766 
L 126.981236 -34.789766 
L 128.342131 -34.789766 
L 129.703025 -34.789766 
L 131.063919 -34.789766 
L 132.424814 -34.789766 
L 133.785708 -34.789766 
L 135.146603 -34.789766 
L 136.507497 -34.789766 
L 137.868392 -34.789766 
L 139.229286 -34.789766 
L 140.59018 -34.789766 
L 141.951075 -34.789766 
L 143.311969 -34.789766 
L 144.672864 -34.789766 
L 146.033758 -34.789766 
L 147.394653 -34.789766 
L 148.755547 -34.789766 
L 150.116441 -34.789766 
L 151.477336 -34.789766 
L 152.83823 -34.789766 
L 154.199125 -34.789766 
L 155.560019 -34.789766 
L 156.920914 -34.789766 
L 158.281808 -34.789766 
L 159.642702 -34.789766 
L 161.003597 -34.789766 
L 162.364491 -34.789766 
L 163.725386 -34.789766 
L 165.08628 -34.789766 
L 166.447175 -34.789766 
L 167.808069 -34.789766 
L 169.168963 -34.789766 
L 170.529858 -34.789766 
L 171.890752 -34.789766 
L 173.251647 -34.789766 
L 174.612541 -34.789766 
L 175.973436 -34.789766 
L 177.33433 -34.789766 
L 178.695225 -34.789766 
L 180.056119 -34.789766 
L 181.417013 -34.789766 
L 182.777908 -34.789766 
L 184.138802 -34.789766 
L 185.499697 -34.789766 
L 186.860591 -34.789766 
L 188.221486 -34.789766 
L 189.58238 -34.789766 
L 190.943274 -34.789766 
L 192.304169 -34.789766 
L 193.665063 -34.789766 
L 195.025958 -34.789766 
L 196.386852 -34.789766 
L 197.747747 -34.789766 
L 199.108641 -34.789766 
L 200.469535 -34.789766 
L 201.83043 -34.789766 
L 203.191324 -34.789766 
L 204.552219 -34.789766 
L 205.913113 -34.789766 
L 207.274008 -34.789766 
L 208.634902 -34.789766 
L 209.995796 -34.789766 
L 211.356691 -34.789766 
L 212.717585 -34.789766 
L 214.07848 -34.789766 
L 215.439374 -34.789766 
L 216.800269 -34.789766 
L 218.161163 -34.789766 
L 219.522057 -34.789766 
L 220.882952 -34.789766 
L 222.243846 -34.789766 
L 223.604741 -34.789766 
L 224.965635 -34.789766 
L 226.32653 -34.789766 
L 227.687424 -34.789766 
L 229.048318 -34.789766 
L 230.409213 -34.789766 
L 231.770107 -34.789766 
L 233.131002 -34.789766 
L 234.491896 -34.789766 
L 235.852791 -34.789766 
L 237.213685 -34.789766 
L 238.574579 -34.789766 
L 239.935474 -34.789766 
L 241.296368 -34.789766 
L 242.657263 -34.789766 
L 244.018157 -34.789766 
L 245.379052 -34.789766 
L 246.739946 -34.789766 
L 248.100841 -34.789766 
L 249.461735 -34.789766 
L 250.822629 -34.789766 
L 252.183524 -34.789766 
L 253.544418 -34.789766 
L 254.905313 -34.789766 
L 256.266207 -34.789766 
L 257.627102 -34.789766 
L 258.987996 -34.789766 
L 260.34889 -34.789766 
L 261.709785 -34.789766 
L 263.070679 -34.789766 
L 264.431574 -34.789766 
L 265.792468 -34.789766 
L 267.153363 -34.789766 
L 268.514257 -34.789766 
L 269.875151 -34.789766 
L 271.236046 -34.789766 
L 272.59694 -34.789766 
L 273.957835 -34.789766 
L 275.318729 -34.789766 
L 276.679624 -34.789766 
L 278.040518 -34.789766 
L 279.401412 -34.789766 
L 280.762307 -34.789766 
L 282.123201 -34.789766 
L 283.484096 -34.789766 
L 284.84499 -34.789766 
L 286.205885 -34.789766 
L 287.566779 -34.789766 
L 288.927673 -34.789766 
L 290.288568 -34.789766 
L 291.649462 -34.789766 
L 293.010357 -34.789766 
L 294.371251 -34.789766 
L 295.732146 -34.789766 
L 297.09304 -34.789766 
L 298.453934 -34.789766 
L 299.814829 -34.789766 
L 301.175723 -34.789766 
L 302.536618 -34.789766 
L 303.897512 -34.789766 
L 305.258407 -34.789766 
L 306.619301 -34.789766 
L 307.980195 -34.789766 
L 309.34109 -34.789766 
L 310.701984 -34.789766 
L 312.062879 -34.789766 
L 313.423773 -34.789766 
L 314.784668 -34.789766 
L 316.145562 -34.789766 
L 317.506457 -34.789766 
L 318.867351 -34.789766 
L 320.228245 -34.789766 
L 321.58914 -34.789766 
L 322.950034 -34.789766 
L 324.310929 -34.789766 
L 325.671823 -34.789766 
L 327.032718 -34.789766 
L 328.393612 -34.789766 
L 329.754506 -34.789766 
L 331.115401 -34.789766 
L 332.476295 -34.789766 
L 333.83719 -34.789766 
L 335.198084 -34.789766 
L 336.558979 -34.789766 
L 337.919873 -34.789766 
L 339.280767 -34.789766 
L 340.641662 -34.789766 
L 342.002556 -34.789766 
L 343.363451 -34.789766 
L 344.724345 -34.789766 
L 346.08524 -34.789766 
L 347.446134 -34.789766 
L 348.807028 -34.789766 
L 350.167923 -34.789766 
L 351.528817 -34.789766 
L 352.889712 -34.789766 
L 352.889712 -34.792576 
L 352.889712 -34.792576 
L 351.528817 -34.793063 
L 350.167923 -34.793624 
L 348.807028 -34.794267 
L 347.446134 -34.795003 
L 346.08524 -34.795843 
L 344.724345 -34.796797 
L 343.363451 -34.797879 
L 342.002556 -34.799101 
L 340.641662 -34.800477 
L 339.280767 -34.802021 
L 337.919873 -34.803749 
L 336.558979 -34.805676 
L 335.198084 -34.807819 
L 333.83719 -34.810192 
L 332.476295 -34.812814 
L 331.115401 -34.815699 
L 329.754506 -34.818865 
L 328.393612 -34.822326 
L 327.032718 -34.826098 
L 325.671823 -34.830194 
L 324.310929 -34.834628 
L 322.950034 -34.83941 
L 321.58914 -34.84455 
L 320.228245 -34.850056 
L 318.867351 -34.855932 
L 317.506457 -34.862181 
L 316.145562 -34.868803 
L 314.784668 -34.875794 
L 313.423773 -34.883147 
L 312.062879 -34.890854 
L 310.701984 -34.898898 
L 309.34109 -34.907264 
L 307.980195 -34.91593 
L 306.619301 -34.924872 
L 305.258407 -34.93406 
L 303.897512 -34.943463 
L 302.536618 -34.953045 
L 301.175723 -34.96277 
L 299.814829 -34.972594 
L 298.453934 -34.982477 
L 297.09304 -34.992372 
L 295.732146 -35.002234 
L 294.371251 -35.012015 
L 293.010357 -35.02167 
L 291.649462 -35.031152 
L 290.288568 -35.040417 
L 288.927673 -35.049421 
L 287.566779 -35.058124 
L 286.205885 -35.066489 
L 284.84499 -35.074484 
L 283.484096 -35.08208 
L 282.123201 -35.089255 
L 280.762307 -35.095992 
L 279.401412 -35.102279 
L 278.040518 -35.108111 
L 276.679624 -35.113492 
L 275.318729 -35.11843 
L 273.957835 -35.122943 
L 272.59694 -35.127052 
L 271.236046 -35.130789 
L 269.875151 -35.13419 
L 268.514257 -35.137298 
L 267.153363 -35.140163 
L 265.792468 -35.142837 
L 264.431574 -35.145381 
L 263.070679 -35.147855 
L 261.709785 -35.150326 
L 260.34889 -35.15286 
L 258.987996 -35.155528 
L 257.627102 -35.158398 
L 256.266207 -35.161538 
L 254.905313 -35.165017 
L 253.544418 -35.168897 
L 252.183524 -35.173241 
L 250.822629 -35.178106 
L 249.461735 -35.183542 
L 248.100841 -35.189597 
L 246.739946 -35.196309 
L 245.379052 -35.203711 
L 244.018157 -35.211826 
L 242.657263 -35.220673 
L 241.296368 -35.230258 
L 239.935474 -35.240581 
L 238.574579 -35.251633 
L 237.213685 -35.263396 
L 235.852791 -35.275844 
L 234.491896 -35.28894 
L 233.131002 -35.302643 
L 231.770107 -35.316901 
L 230.409213 -35.331656 
L 229.048318 -35.346845 
L 227.687424 -35.362396 
L 226.32653 -35.378234 
L 224.965635 -35.394279 
L 223.604741 -35.410448 
L 222.243846 -35.426654 
L 220.882952 -35.442809 
L 219.522057 -35.458825 
L 218.161163 -35.474612 
L 216.800269 -35.490083 
L 215.439374 -35.50515 
L 214.07848 -35.519731 
L 212.717585 -35.533745 
L 211.356691 -35.547115 
L 209.995796 -35.55977 
L 208.634902 -35.571642 
L 207.274008 -35.58267 
L 205.913113 -35.5928 
L 204.552219 -35.601981 
L 203.191324 -35.610172 
L 201.83043 -35.617337 
L 200.469535 -35.623445 
L 199.108641 -35.628474 
L 197.747747 -35.632408 
L 196.386852 -35.635234 
L 195.025958 -35.636948 
L 193.665063 -35.63755 
L 192.304169 -35.637045 
L 190.943274 -35.635443 
L 189.58238 -35.632758 
L 188.221486 -35.629007 
L 186.860591 -35.624211 
L 185.499697 -35.618393 
L 184.138802 -35.611579 
L 182.777908 -35.603797 
L 181.417013 -35.595077 
L 180.056119 -35.58545 
L 178.695225 -35.574947 
L 177.33433 -35.563603 
L 175.973436 -35.551452 
L 174.612541 -35.538529 
L 173.251647 -35.52487 
L 171.890752 -35.510512 
L 170.529858 -35.495492 
L 169.168963 -35.479851 
L 167.808069 -35.463627 
L 166.447175 -35.446861 
L 165.08628 -35.429595 
L 163.725386 -35.411874 
L 162.364491 -35.39374 
L 161.003597 -35.375242 
L 159.642702 -35.356425 
L 158.281808 -35.337338 
L 156.920914 -35.318032 
L 155.560019 -35.298556 
L 154.199125 -35.278964 
L 152.83823 -35.259306 
L 151.477336 -35.239637 
L 150.116441 -35.220008 
L 148.755547 -35.200473 
L 147.394653 -35.181083 
L 146.033758 -35.16189 
L 144.672864 -35.142944 
L 143.311969 -35.124293 
L 141.951075 -35.105984 
L 140.59018 -35.088059 
L 139.229286 -35.070561 
L 137.868392 -35.053526 
L 136.507497 -35.036991 
L 135.146603 -35.020985 
L 133.785708 -35.005537 
L 132.424814 -34.99067 
L 131.063919 -34.976403 
L 129.703025 -34.962753 
L 128.342131 -34.949729 
L 126.981236 -34.937341 
L 125.620342 -34.925591 
L 124.259447 -34.91448 
L 122.898553 -34.904003 
L 121.537658 -34.894153 
L 120.176764 -34.884921 
L 118.81587 -34.876293 
L 117.454975 -34.868253 
L 116.094081 -34.860784 
L 114.733186 -34.853866 
L 113.372292 -34.847476 
L 112.011397 -34.841593 
L 110.650503 -34.836191 
L 109.289609 -34.831247 
L 107.928714 -34.826735 
L 106.56782 -34.82263 
L 105.206925 -34.818905 
L 103.846031 -34.815535 
L 102.485136 -34.812497 
L 101.124242 -34.809764 
L 99.763348 -34.807315 
L 98.402453 -34.805125 
L 97.041559 -34.803173 
L 95.680664 -34.801438 
L 94.31977 -34.799902 
L 92.958875 -34.798544 
L 91.597981 -34.797348 
L 90.237086 -34.796298 
L 88.876192 -34.795378 
L 87.515298 -34.794575 
L 86.154403 -34.793876 
L 84.793509 -34.793269 
L 83.432614 -34.792744 
L 82.07172 -34.792291 
z
" style="stroke: #dd8452; stroke-width: 1.5"/>
    </defs>
    <g clip-path="url(#p08e4a4129d)">
     <use xlink:href="#mf2b5566f10" x="0" y="336.209766" style="fill: #dd8452; fill-opacity: 0.25; stroke: #dd8452; stroke-width: 1.5"/>
    </g>
   </g>
   <g id="PolyCollection_2">
    <defs>
     <path id="m324fa5d4ab" d="M 65.585952 -34.805385 
L 65.585952 -34.789766 
L 65.706061 -34.789766 
L 65.826171 -34.789766 
L 65.94628 -34.789766 
L 66.066389 -34.789766 
L 66.186498 -34.789766 
L 66.306608 -34.789766 
L 66.426717 -34.789766 
L 66.546826 -34.789766 
L 66.666935 -34.789766 
L 66.787045 -34.789766 
L 66.907154 -34.789766 
L 67.027263 -34.789766 
L 67.147373 -34.789766 
L 67.267482 -34.789766 
L 67.387591 -34.789766 
L 67.5077 -34.789766 
L 67.62781 -34.789766 
L 67.747919 -34.789766 
L 67.868028 -34.789766 
L 67.988137 -34.789766 
L 68.108247 -34.789766 
L 68.228356 -34.789766 
L 68.348465 -34.789766 
L 68.468575 -34.789766 
L 68.588684 -34.789766 
L 68.708793 -34.789766 
L 68.828902 -34.789766 
L 68.949012 -34.789766 
L 69.069121 -34.789766 
L 69.18923 -34.789766 
L 69.30934 -34.789766 
L 69.429449 -34.789766 
L 69.549558 -34.789766 
L 69.669667 -34.789766 
L 69.789777 -34.789766 
L 69.909886 -34.789766 
L 70.029995 -34.789766 
L 70.150104 -34.789766 
L 70.270214 -34.789766 
L 70.390323 -34.789766 
L 70.510432 -34.789766 
L 70.630542 -34.789766 
L 70.750651 -34.789766 
L 70.87076 -34.789766 
L 70.990869 -34.789766 
L 71.110979 -34.789766 
L 71.231088 -34.789766 
L 71.351197 -34.789766 
L 71.471307 -34.789766 
L 71.591416 -34.789766 
L 71.711525 -34.789766 
L 71.831634 -34.789766 
L 71.951744 -34.789766 
L 72.071853 -34.789766 
L 72.191962 -34.789766 
L 72.312071 -34.789766 
L 72.432181 -34.789766 
L 72.55229 -34.789766 
L 72.672399 -34.789766 
L 72.792509 -34.789766 
L 72.912618 -34.789766 
L 73.032727 -34.789766 
L 73.152836 -34.789766 
L 73.272946 -34.789766 
L 73.393055 -34.789766 
L 73.513164 -34.789766 
L 73.633274 -34.789766 
L 73.753383 -34.789766 
L 73.873492 -34.789766 
L 73.993601 -34.789766 
L 74.113711 -34.789766 
L 74.23382 -34.789766 
L 74.353929 -34.789766 
L 74.474038 -34.789766 
L 74.594148 -34.789766 
L 74.714257 -34.789766 
L 74.834366 -34.789766 
L 74.954476 -34.789766 
L 75.074585 -34.789766 
L 75.194694 -34.789766 
L 75.314803 -34.789766 
L 75.434913 -34.789766 
L 75.555022 -34.789766 
L 75.675131 -34.789766 
L 75.795241 -34.789766 
L 75.91535 -34.789766 
L 76.035459 -34.789766 
L 76.155568 -34.789766 
L 76.275678 -34.789766 
L 76.395787 -34.789766 
L 76.515896 -34.789766 
L 76.636005 -34.789766 
L 76.756115 -34.789766 
L 76.876224 -34.789766 
L 76.996333 -34.789766 
L 77.116443 -34.789766 
L 77.236552 -34.789766 
L 77.356661 -34.789766 
L 77.47677 -34.789766 
L 77.59688 -34.789766 
L 77.716989 -34.789766 
L 77.837098 -34.789766 
L 77.957208 -34.789766 
L 78.077317 -34.789766 
L 78.197426 -34.789766 
L 78.317535 -34.789766 
L 78.437645 -34.789766 
L 78.557754 -34.789766 
L 78.677863 -34.789766 
L 78.797972 -34.789766 
L 78.918082 -34.789766 
L 79.038191 -34.789766 
L 79.1583 -34.789766 
L 79.27841 -34.789766 
L 79.398519 -34.789766 
L 79.518628 -34.789766 
L 79.638737 -34.789766 
L 79.758847 -34.789766 
L 79.878956 -34.789766 
L 79.999065 -34.789766 
L 80.119174 -34.789766 
L 80.239284 -34.789766 
L 80.359393 -34.789766 
L 80.479502 -34.789766 
L 80.599612 -34.789766 
L 80.719721 -34.789766 
L 80.83983 -34.789766 
L 80.959939 -34.789766 
L 81.080049 -34.789766 
L 81.200158 -34.789766 
L 81.320267 -34.789766 
L 81.440377 -34.789766 
L 81.560486 -34.789766 
L 81.680595 -34.789766 
L 81.800704 -34.789766 
L 81.920814 -34.789766 
L 82.040923 -34.789766 
L 82.161032 -34.789766 
L 82.281141 -34.789766 
L 82.401251 -34.789766 
L 82.52136 -34.789766 
L 82.641469 -34.789766 
L 82.761579 -34.789766 
L 82.881688 -34.789766 
L 83.001797 -34.789766 
L 83.121906 -34.789766 
L 83.242016 -34.789766 
L 83.362125 -34.789766 
L 83.482234 -34.789766 
L 83.602344 -34.789766 
L 83.722453 -34.789766 
L 83.842562 -34.789766 
L 83.962671 -34.789766 
L 84.082781 -34.789766 
L 84.20289 -34.789766 
L 84.322999 -34.789766 
L 84.443108 -34.789766 
L 84.563218 -34.789766 
L 84.683327 -34.789766 
L 84.803436 -34.789766 
L 84.923546 -34.789766 
L 85.043655 -34.789766 
L 85.163764 -34.789766 
L 85.283873 -34.789766 
L 85.403983 -34.789766 
L 85.524092 -34.789766 
L 85.644201 -34.789766 
L 85.764311 -34.789766 
L 85.88442 -34.789766 
L 86.004529 -34.789766 
L 86.124638 -34.789766 
L 86.244748 -34.789766 
L 86.364857 -34.789766 
L 86.484966 -34.789766 
L 86.605075 -34.789766 
L 86.725185 -34.789766 
L 86.845294 -34.789766 
L 86.965403 -34.789766 
L 87.085513 -34.789766 
L 87.205622 -34.789766 
L 87.325731 -34.789766 
L 87.44584 -34.789766 
L 87.56595 -34.789766 
L 87.686059 -34.789766 
L 87.806168 -34.789766 
L 87.926278 -34.789766 
L 88.046387 -34.789766 
L 88.166496 -34.789766 
L 88.286605 -34.789766 
L 88.406715 -34.789766 
L 88.526824 -34.789766 
L 88.646933 -34.789766 
L 88.767042 -34.789766 
L 88.887152 -34.789766 
L 89.007261 -34.789766 
L 89.12737 -34.789766 
L 89.24748 -34.789766 
L 89.367589 -34.789766 
L 89.487698 -34.789766 
L 89.487698 -34.819575 
L 89.487698 -34.819575 
L 89.367589 -34.823691 
L 89.24748 -34.828303 
L 89.12737 -34.833459 
L 89.007261 -34.839212 
L 88.887152 -34.845618 
L 88.767042 -34.852735 
L 88.646933 -34.860625 
L 88.526824 -34.869355 
L 88.406715 -34.878992 
L 88.286605 -34.889608 
L 88.166496 -34.901278 
L 88.046387 -34.914079 
L 87.926278 -34.928089 
L 87.806168 -34.943389 
L 87.686059 -34.960063 
L 87.56595 -34.978192 
L 87.44584 -34.997861 
L 87.325731 -35.019154 
L 87.205622 -35.042152 
L 87.085513 -35.066938 
L 86.965403 -35.093588 
L 86.845294 -35.12218 
L 86.725185 -35.152784 
L 86.605075 -35.185467 
L 86.484966 -35.22029 
L 86.364857 -35.257305 
L 86.244748 -35.296559 
L 86.124638 -35.338089 
L 86.004529 -35.381922 
L 85.88442 -35.428074 
L 85.764311 -35.476551 
L 85.644201 -35.527345 
L 85.524092 -35.580435 
L 85.403983 -35.635786 
L 85.283873 -35.693348 
L 85.163764 -35.753057 
L 85.043655 -35.814832 
L 84.923546 -35.878578 
L 84.803436 -35.944182 
L 84.683327 -36.011517 
L 84.563218 -36.080438 
L 84.443108 -36.150787 
L 84.322999 -36.22239 
L 84.20289 -36.295058 
L 84.082781 -36.368592 
L 83.962671 -36.442778 
L 83.842562 -36.517391 
L 83.722453 -36.592199 
L 83.602344 -36.66696 
L 83.482234 -36.741427 
L 83.362125 -36.815349 
L 83.242016 -36.888471 
L 83.121906 -36.960541 
L 83.001797 -37.031306 
L 82.881688 -37.100519 
L 82.761579 -37.167937 
L 82.641469 -37.233328 
L 82.52136 -37.296471 
L 82.401251 -37.357155 
L 82.281141 -37.415185 
L 82.161032 -37.470384 
L 82.040923 -37.522592 
L 81.920814 -37.57167 
L 81.800704 -37.617498 
L 81.680595 -37.65998 
L 81.560486 -37.699044 
L 81.440377 -37.734642 
L 81.320267 -37.766748 
L 81.200158 -37.795363 
L 81.080049 -37.820512 
L 80.959939 -37.842243 
L 80.83983 -37.860627 
L 80.719721 -37.87576 
L 80.599612 -37.887755 
L 80.479502 -37.896748 
L 80.359393 -37.902891 
L 80.239284 -37.906352 
L 80.119174 -37.907315 
L 79.999065 -37.905972 
L 79.878956 -37.902528 
L 79.758847 -37.897193 
L 79.638737 -37.890181 
L 79.518628 -37.881709 
L 79.398519 -37.871993 
L 79.27841 -37.861245 
L 79.1583 -37.849674 
L 79.038191 -37.837477 
L 78.918082 -37.824844 
L 78.797972 -37.811953 
L 78.677863 -37.798966 
L 78.557754 -37.786031 
L 78.437645 -37.773278 
L 78.317535 -37.76082 
L 78.197426 -37.74875 
L 78.077317 -37.73714 
L 77.957208 -37.726044 
L 77.837098 -37.715493 
L 77.716989 -37.7055 
L 77.59688 -37.696057 
L 77.47677 -37.687136 
L 77.356661 -37.678689 
L 77.236552 -37.670654 
L 77.116443 -37.662949 
L 76.996333 -37.655478 
L 76.876224 -37.648132 
L 76.756115 -37.640789 
L 76.636005 -37.633318 
L 76.515896 -37.625578 
L 76.395787 -37.617424 
L 76.275678 -37.608703 
L 76.155568 -37.599264 
L 76.035459 -37.588952 
L 75.91535 -37.577614 
L 75.795241 -37.565102 
L 75.675131 -37.551272 
L 75.555022 -37.535985 
L 75.434913 -37.519114 
L 75.314803 -37.500538 
L 75.194694 -37.480151 
L 75.074585 -37.457855 
L 74.954476 -37.433569 
L 74.834366 -37.407224 
L 74.714257 -37.378767 
L 74.594148 -37.348159 
L 74.474038 -37.315379 
L 74.353929 -37.280419 
L 74.23382 -37.243289 
L 74.113711 -37.204013 
L 73.993601 -37.162633 
L 73.873492 -37.119204 
L 73.753383 -37.073795 
L 73.633274 -37.02649 
L 73.513164 -36.977385 
L 73.393055 -36.926588 
L 73.272946 -36.874219 
L 73.152836 -36.820406 
L 73.032727 -36.765286 
L 72.912618 -36.709004 
L 72.792509 -36.651712 
L 72.672399 -36.593564 
L 72.55229 -36.534721 
L 72.432181 -36.475344 
L 72.312071 -36.415596 
L 72.191962 -36.355641 
L 72.071853 -36.295638 
L 71.951744 -36.235747 
L 71.831634 -36.176124 
L 71.711525 -36.11692 
L 71.591416 -36.05828 
L 71.471307 -36.000343 
L 71.351197 -35.943241 
L 71.231088 -35.887099 
L 71.110979 -35.832033 
L 70.990869 -35.77815 
L 70.87076 -35.725548 
L 70.750651 -35.674315 
L 70.630542 -35.624532 
L 70.510432 -35.576266 
L 70.390323 -35.529577 
L 70.270214 -35.484514 
L 70.150104 -35.441119 
L 70.029995 -35.399421 
L 69.909886 -35.359441 
L 69.789777 -35.321192 
L 69.669667 -35.284679 
L 69.549558 -35.249898 
L 69.429449 -35.216838 
L 69.30934 -35.18548 
L 69.18923 -35.155801 
L 69.069121 -35.127768 
L 68.949012 -35.101348 
L 68.828902 -35.076499 
L 68.708793 -35.053177 
L 68.588684 -35.031334 
L 68.468575 -35.010917 
L 68.348465 -34.991874 
L 68.228356 -34.974149 
L 68.108247 -34.957685 
L 67.988137 -34.942423 
L 67.868028 -34.928304 
L 67.747919 -34.915269 
L 67.62781 -34.903261 
L 67.5077 -34.89222 
L 67.387591 -34.882089 
L 67.267482 -34.872813 
L 67.147373 -34.864335 
L 67.027263 -34.856604 
L 66.907154 -34.849567 
L 66.787045 -34.843175 
L 66.666935 -34.837381 
L 66.546826 -34.83214 
L 66.426717 -34.827407 
L 66.306608 -34.823143 
L 66.186498 -34.819309 
L 66.066389 -34.815868 
L 65.94628 -34.812786 
L 65.826171 -34.810031 
L 65.706061 -34.807573 
L 65.585952 -34.805385 
z
" style="stroke: #4c72b0; stroke-width: 1.5"/>
    </defs>
    <g clip-path="url(#p08e4a4129d)">
     <use xlink:href="#m324fa5d4ab" x="0" y="336.209766" style="fill: #4c72b0; fill-opacity: 0.25; stroke: #4c72b0; stroke-width: 1.5"/>
    </g>
   </g>
   <g id="patch_3">
    <path d="M 73.886115 301.42 
L 114.287308 301.42 
L 114.287308 301.42 
L 73.886115 301.42 
z
" clip-path="url(#p08e4a4129d)" style="fill: #dd8452; fill-opacity: 0.5; stroke: #ffffff; stroke-width: 1.5; stroke-linejoin: miter"/>
   </g>
   <g id="patch_4">
    <path d="M 114.287308 301.42 
L 154.6885 301.42 
L 154.6885 301.42 
L 114.287308 301.42 
z
" clip-path="url(#p08e4a4129d)" style="fill: #dd8452; fill-opacity: 0.5; stroke: #ffffff; stroke-width: 1.5; stroke-linejoin: miter"/>
   </g>
   <g id="patch_5">
    <path d="M 154.6885 301.42 
L 195.089693 301.42 
L 195.089693 140.936364 
L 154.6885 140.936364 
z
" clip-path="url(#p08e4a4129d)" style="fill: #dd8452; fill-opacity: 0.5; stroke: #ffffff; stroke-width: 1.5; stroke-linejoin: miter"/>
   </g>
   <g id="patch_6">
    <path d="M 195.089693 301.42 
L 235.490886 301.42 
L 235.490886 33.947273 
L 195.089693 33.947273 
z
" clip-path="url(#p08e4a4129d)" style="fill: #dd8452; fill-opacity: 0.5; stroke: #ffffff; stroke-width: 1.5; stroke-linejoin: miter"/>
   </g>
   <g id="patch_7">
    <path d="M 235.490886 301.42 
L 275.892079 301.42 
L 275.892079 194.430909 
L 235.490886 194.430909 
z
" clip-path="url(#p08e4a4129d)" style="fill: #dd8452; fill-opacity: 0.5; stroke: #ffffff; stroke-width: 1.5; stroke-linejoin: miter"/>
   </g>
   <g id="patch_8">
    <path d="M 73.886115 301.42 
L 114.287308 301.42 
L 114.287308 87.441818 
L 73.886115 87.441818 
z
" clip-path="url(#p08e4a4129d)" style="fill: #4c72b0; fill-opacity: 0.5; stroke: #ffffff; stroke-width: 1.5; stroke-linejoin: miter"/>
   </g>
   <g id="patch_9">
    <path d="M 114.287308 301.42 
L 154.6885 301.42 
L 154.6885 301.42 
L 114.287308 301.42 
z
" clip-path="url(#p08e4a4129d)" style="fill: #4c72b0; fill-opacity: 0.5; stroke: #ffffff; stroke-width: 1.5; stroke-linejoin: miter"/>
   </g>
   <g id="patch_10">
    <path d="M 154.6885 301.42 
L 195.089693 301.42 
L 195.089693 301.42 
L 154.6885 301.42 
z
" clip-path="url(#p08e4a4129d)" style="fill: #4c72b0; fill-opacity: 0.5; stroke: #ffffff; stroke-width: 1.5; stroke-linejoin: miter"/>
   </g>
   <g id="patch_11">
    <path d="M 195.089693 301.42 
L 235.490886 301.42 
L 235.490886 301.42 
L 195.089693 301.42 
z
" clip-path="url(#p08e4a4129d)" style="fill: #4c72b0; fill-opacity: 0.5; stroke: #ffffff; stroke-width: 1.5; stroke-linejoin: miter"/>
   </g>
   <g id="patch_12">
    <path d="M 235.490886 301.42 
L 275.892079 301.42 
L 275.892079 301.42 
L 235.490886 301.42 
z
" clip-path="url(#p08e4a4129d)" style="fill: #4c72b0; fill-opacity: 0.5; stroke: #ffffff; stroke-width: 1.5; stroke-linejoin: miter"/>
   </g>
   <g id="LineCollection_1">
    <path d="M 81.187535 301.42 
L 81.187535 294.0645 
" clip-path="url(#p08e4a4129d)" style="fill: none; stroke: #4c72b0"/>
    <path d="M 81.187535 301.42 
L 81.187535 294.0645 
" clip-path="url(#p08e4a4129d)" style="fill: none; stroke: #4c72b0"/>
    <path d="M 73.886115 301.42 
L 73.886115 294.0645 
" clip-path="url(#p08e4a4129d)" style="fill: none; stroke: #4c72b0"/>
    <path d="M 76.319922 301.42 
L 76.319922 294.0645 
" clip-path="url(#p08e4a4129d)" style="fill: none; stroke: #4c72b0"/>
    <path d="M 159.069353 301.42 
L 159.069353 294.0645 
" clip-path="url(#p08e4a4129d)" style="fill: none; stroke: #dd8452"/>
    <path d="M 229.64975 301.42 
L 229.64975 294.0645 
" clip-path="url(#p08e4a4129d)" style="fill: none; stroke: #dd8452"/>
    <path d="M 200.444068 301.42 
L 200.444068 294.0645 
" clip-path="url(#p08e4a4129d)" style="fill: none; stroke: #dd8452"/>
    <path d="M 195.576455 301.42 
L 195.576455 294.0645 
" clip-path="url(#p08e4a4129d)" style="fill: none; stroke: #dd8452"/>
    <path d="M 205.311682 301.42 
L 205.311682 294.0645 
" clip-path="url(#p08e4a4129d)" style="fill: none; stroke: #dd8452"/>
    <path d="M 173.672193 301.42 
L 173.672193 294.0645 
" clip-path="url(#p08e4a4129d)" style="fill: none; stroke: #dd8452"/>
    <path d="M 275.892079 301.42 
L 275.892079 294.0645 
" clip-path="url(#p08e4a4129d)" style="fill: none; stroke: #dd8452"/>
    <path d="M 273.458272 301.42 
L 273.458272 294.0645 
" clip-path="url(#p08e4a4129d)" style="fill: none; stroke: #dd8452"/>
    <path d="M 205.311682 301.42 
L 205.311682 294.0645 
" clip-path="url(#p08e4a4129d)" style="fill: none; stroke: #dd8452"/>
    <path d="M 166.370773 301.42 
L 166.370773 294.0645 
" clip-path="url(#p08e4a4129d)" style="fill: none; stroke: #dd8452"/>
   </g>
   <g id="patch_13">
    <path d="M 49.548047 301.42 
L 49.548047 7.2 
" style="fill: none; stroke: #262626; stroke-width: 1.875; stroke-linejoin: miter; stroke-linecap: square"/>
   </g>
   <g id="patch_14">
    <path d="M 49.548047 301.42 
L 300.230147 301.42 
" style="fill: none; stroke: #262626; stroke-width: 1.875; stroke-linejoin: miter; stroke-linecap: square"/>
   </g>
  </g>
  <g id="legend_1">
   <g id="patch_15">
    <path d="M 322.157578 160.512305 
L 355.157578 160.512305 
L 355.157578 148.962305 
L 322.157578 148.962305 
z
" style="fill: #4c72b0; fill-opacity: 0.25; stroke: #4c72b0; stroke-width: 1.5; stroke-linejoin: miter"/>
   </g>
   <g id="text_12">
    <!-- KILO-edByte -->
    <g style="fill: #262626" transform="translate(368.357578 160.512305) scale(0.165 -0.165)">
     <defs>
      <path id="ArialMT-4b" d="M 469 0 
L 469 4581 
L 1075 4581 
L 1075 2309 
L 3350 4581 
L 4172 4581 
L 2250 2725 
L 4256 0 
L 3456 0 
L 1825 2319 
L 1075 1588 
L 1075 0 
L 469 0 
z
" transform="scale(0.015625)"/>
      <path id="ArialMT-49" d="M 597 0 
L 597 4581 
L 1203 4581 
L 1203 0 
L 597 0 
z
" transform="scale(0.015625)"/>
      <path id="ArialMT-4c" d="M 469 0 
L 469 4581 
L 1075 4581 
L 1075 541 
L 3331 541 
L 3331 0 
L 469 0 
z
" transform="scale(0.015625)"/>
      <path id="ArialMT-4f" d="M 309 2231 
Q 309 3372 921 4017 
Q 1534 4663 2503 4663 
Q 3138 4663 3647 4359 
Q 4156 4056 4423 3514 
Q 4691 2972 4691 2284 
Q 4691 1588 4409 1038 
Q 4128 488 3612 205 
Q 3097 -78 2500 -78 
Q 1853 -78 1343 234 
Q 834 547 571 1087 
Q 309 1628 309 2231 
z
M 934 2222 
Q 934 1394 1379 917 
Q 1825 441 2497 441 
Q 3181 441 3623 922 
Q 4066 1403 4066 2288 
Q 4066 2847 3877 3264 
Q 3688 3681 3323 3911 
Q 2959 4141 2506 4141 
Q 1863 4141 1398 3698 
Q 934 3256 934 2222 
z
" transform="scale(0.015625)"/>
      <path id="ArialMT-2d" d="M 203 1375 
L 203 1941 
L 1931 1941 
L 1931 1375 
L 203 1375 
z
" transform="scale(0.015625)"/>
      <path id="ArialMT-64" d="M 2575 0 
L 2575 419 
Q 2259 -75 1647 -75 
Q 1250 -75 917 144 
Q 584 363 401 755 
Q 219 1147 219 1656 
Q 219 2153 384 2558 
Q 550 2963 881 3178 
Q 1213 3394 1622 3394 
Q 1922 3394 2156 3267 
Q 2391 3141 2538 2938 
L 2538 4581 
L 3097 4581 
L 3097 0 
L 2575 0 
z
M 797 1656 
Q 797 1019 1065 703 
Q 1334 388 1700 388 
Q 2069 388 2326 689 
Q 2584 991 2584 1609 
Q 2584 2291 2321 2609 
Q 2059 2928 1675 2928 
Q 1300 2928 1048 2622 
Q 797 2316 797 1656 
z
" transform="scale(0.015625)"/>
      <path id="ArialMT-42" d="M 469 0 
L 469 4581 
L 2188 4581 
Q 2713 4581 3030 4442 
Q 3347 4303 3526 4014 
Q 3706 3725 3706 3409 
Q 3706 3116 3547 2856 
Q 3388 2597 3066 2438 
Q 3481 2316 3704 2022 
Q 3928 1728 3928 1328 
Q 3928 1006 3792 729 
Q 3656 453 3456 303 
Q 3256 153 2954 76 
Q 2653 0 2216 0 
L 469 0 
z
M 1075 2656 
L 2066 2656 
Q 2469 2656 2644 2709 
Q 2875 2778 2992 2937 
Q 3109 3097 3109 3338 
Q 3109 3566 3000 3739 
Q 2891 3913 2687 3977 
Q 2484 4041 1991 4041 
L 1075 4041 
L 1075 2656 
z
M 1075 541 
L 2216 541 
Q 2509 541 2628 563 
Q 2838 600 2978 687 
Q 3119 775 3209 942 
Q 3300 1109 3300 1328 
Q 3300 1584 3169 1773 
Q 3038 1963 2805 2039 
Q 2572 2116 2134 2116 
L 1075 2116 
L 1075 541 
z
" transform="scale(0.015625)"/>
     </defs>
     <use xlink:href="#ArialMT-4b"/>
     <use xlink:href="#ArialMT-49" x="66.699219"/>
     <use xlink:href="#ArialMT-4c" x="94.482422"/>
     <use xlink:href="#ArialMT-4f" x="150.097656"/>
     <use xlink:href="#ArialMT-2d" x="227.880859"/>
     <use xlink:href="#ArialMT-65" x="261.181641"/>
     <use xlink:href="#ArialMT-64" x="316.796875"/>
     <use xlink:href="#ArialMT-42" x="372.412109"/>
     <use xlink:href="#ArialMT-79" x="439.111328"/>
     <use xlink:href="#ArialMT-74" x="489.111328"/>
     <use xlink:href="#ArialMT-65" x="516.894531"/>
    </g>
   </g>
   <g id="patch_16">
    <path d="M 322.157578 184.246523 
L 355.157578 184.246523 
L 355.157578 172.696523 
L 322.157578 172.696523 
z
" style="fill: #dd8452; fill-opacity: 0.25; stroke: #dd8452; stroke-width: 1.5; stroke-linejoin: miter"/>
   </g>
   <g id="text_13">
    <!-- MEGA-edByte -->
    <g style="fill: #262626" transform="translate(368.357578 184.246523) scale(0.165 -0.165)">
     <defs>
      <path id="ArialMT-4d" d="M 475 0 
L 475 4581 
L 1388 4581 
L 2472 1338 
Q 2622 884 2691 659 
Q 2769 909 2934 1394 
L 4031 4581 
L 4847 4581 
L 4847 0 
L 4263 0 
L 4263 3834 
L 2931 0 
L 2384 0 
L 1059 3900 
L 1059 0 
L 475 0 
z
" transform="scale(0.015625)"/>
      <path id="ArialMT-45" d="M 506 0 
L 506 4581 
L 3819 4581 
L 3819 4041 
L 1113 4041 
L 1113 2638 
L 3647 2638 
L 3647 2100 
L 1113 2100 
L 1113 541 
L 3925 541 
L 3925 0 
L 506 0 
z
" transform="scale(0.015625)"/>
      <path id="ArialMT-47" d="M 2638 1797 
L 2638 2334 
L 4578 2338 
L 4578 638 
Q 4131 281 3656 101 
Q 3181 -78 2681 -78 
Q 2006 -78 1454 211 
Q 903 500 622 1047 
Q 341 1594 341 2269 
Q 341 2938 620 3517 
Q 900 4097 1425 4378 
Q 1950 4659 2634 4659 
Q 3131 4659 3532 4498 
Q 3934 4338 4162 4050 
Q 4391 3763 4509 3300 
L 3963 3150 
Q 3859 3500 3706 3700 
Q 3553 3900 3268 4020 
Q 2984 4141 2638 4141 
Q 2222 4141 1919 4014 
Q 1616 3888 1430 3681 
Q 1244 3475 1141 3228 
Q 966 2803 966 2306 
Q 966 1694 1177 1281 
Q 1388 869 1791 669 
Q 2194 469 2647 469 
Q 3041 469 3416 620 
Q 3791 772 3984 944 
L 3984 1797 
L 2638 1797 
z
" transform="scale(0.015625)"/>
      <path id="ArialMT-41" d="M -9 0 
L 1750 4581 
L 2403 4581 
L 4278 0 
L 3588 0 
L 3053 1388 
L 1138 1388 
L 634 0 
L -9 0 
z
M 1313 1881 
L 2866 1881 
L 2388 3150 
Q 2169 3728 2063 4100 
Q 1975 3659 1816 3225 
L 1313 1881 
z
" transform="scale(0.015625)"/>
     </defs>
     <use xlink:href="#ArialMT-4d"/>
     <use xlink:href="#ArialMT-45" x="83.300781"/>
     <use xlink:href="#ArialMT-47" x="150"/>
     <use xlink:href="#ArialMT-41" x="227.783203"/>
     <use xlink:href="#ArialMT-2d" x="294.482422"/>
     <use xlink:href="#ArialMT-65" x="327.783203"/>
     <use xlink:href="#ArialMT-64" x="383.398438"/>
     <use xlink:href="#ArialMT-42" x="439.013672"/>
     <use xlink:href="#ArialMT-79" x="505.712891"/>
     <use xlink:href="#ArialMT-74" x="555.712891"/>
     <use xlink:href="#ArialMT-65" x="583.496094"/>
    </g>
   </g>
  </g>
 </g>
 <defs>
  <clipPath id="p08e4a4129d">
   <rect x="49.548047" y="7.2" width="250.6821" height="294.22"/>
  </clipPath>
 </defs>
</svg>
